<svg width="130" height="166" viewBox="0 0 130 166" fill="none" xmlns="http://www.w3.org/2000/svg">
<g filter="url(#filter0_d_686_6223)">
<rect x="20" y="48.2891" width="83" height="83" rx="21" fill="white"/>
<rect x="21" y="49.2891" width="81" height="81" rx="20" stroke="#7FC6A6" stroke-width="2"/>
</g>
<path d="M43.9498 103.334C43.9851 103.396 44.039 103.446 44.104 103.477C44.169 103.507 44.2419 103.517 44.3126 103.504L48.4459 102.75C49.7904 104.217 51.3652 105.454 53.1082 106.414L53.3559 110.605C53.3601 110.677 53.3866 110.746 53.4317 110.802C53.4768 110.858 53.5383 110.898 53.6075 110.918L58.4605 112.276C58.5296 112.296 58.6031 112.293 58.6706 112.269C58.7381 112.244 58.7964 112.199 58.8372 112.14L61.2257 108.687C63.2135 108.772 65.2018 108.532 67.1125 107.977L70.2536 110.767C70.3073 110.815 70.3745 110.845 70.4459 110.852C70.5174 110.86 70.5894 110.845 70.652 110.81L75.0445 108.339C75.1071 108.304 75.1572 108.25 75.1877 108.185C75.2182 108.12 75.2277 108.047 75.2148 107.976L74.4612 103.843C75.9277 102.498 77.1651 100.924 78.1248 99.1809L82.3164 98.9328C82.3881 98.9286 82.4566 98.9021 82.5126 98.857C82.5685 98.812 82.609 98.7507 82.6285 98.6815L83.9873 93.8282C84.0066 93.7591 84.0039 93.6856 83.9794 93.618C83.955 93.5505 83.9101 93.4922 83.8509 93.4515L80.3977 91.063C80.483 89.0752 80.2436 87.0869 79.6889 85.1762L82.4793 82.0351C82.527 81.9813 82.5567 81.9141 82.5644 81.8427C82.572 81.7713 82.5572 81.6992 82.522 81.6366L80.0511 77.2444C80.0159 77.1817 79.962 77.1316 79.897 77.101C79.832 77.0704 79.759 77.0609 79.6883 77.0738L75.555 77.8277C74.2102 76.3609 72.635 75.1234 70.8916 74.1641L70.6438 69.9725C70.6396 69.9008 70.6132 69.8322 70.5681 69.7763C70.5231 69.7204 70.4617 69.68 70.3925 69.6606L65.5393 68.3019C65.4701 68.2825 65.3966 68.2852 65.3291 68.3096C65.2616 68.3339 65.2033 68.3788 65.1625 68.4379L62.774 71.8897C60.7862 71.8048 58.7979 72.0447 56.8873 72.5999L53.7462 69.8095C53.6925 69.7618 53.6253 69.732 53.5538 69.7243C53.4824 69.7166 53.4104 69.7313 53.3477 69.7665L48.9555 72.2375C48.8929 72.2727 48.8428 72.3266 48.8123 72.3916C48.7817 72.4566 48.7721 72.5295 48.785 72.6002L49.5385 76.7336C48.0719 78.0781 46.8345 79.6529 45.8749 81.3959L41.6834 81.6437C41.6117 81.6479 41.5431 81.6744 41.4872 81.7195C41.4313 81.7646 41.3908 81.826 41.3715 81.8952L40.0128 86.7482C39.9934 86.8174 39.9961 86.8909 40.0205 86.9585C40.0449 87.0261 40.0897 87.0844 40.1488 87.1253L43.6006 89.5135C43.5161 91.5017 43.7564 93.4905 44.312 95.4014L41.5219 98.5426C41.4742 98.5963 41.4444 98.6635 41.4367 98.7349C41.429 98.8063 41.4437 98.8784 41.4789 98.941L43.9498 103.334Z" fill="url(#paint0_linear_686_6223)"/>
<path d="M61.0917 95.4898C58.5565 95.0491 56.6536 92.7999 56.7215 90.1519C56.7393 89.4587 56.8935 88.7758 57.1753 88.1421C57.457 87.5085 57.8608 86.9366 58.3636 86.4591C58.8664 85.9816 59.4583 85.6078 60.1056 85.3591C60.7529 85.1104 61.4428 84.9916 62.1359 85.0096C65.0473 85.0844 67.3528 87.5132 67.278 90.4237C67.2601 91.1169 67.106 91.7998 66.8242 92.4334C66.5425 93.067 66.1387 93.6388 65.636 94.1163C65.1333 94.5939 64.5414 94.9677 63.8942 95.2164C63.2471 95.4652 62.5572 95.584 61.8641 95.5661C61.6051 95.5596 61.3469 95.5341 61.0917 95.4898ZM62.6224 86.7461C62.4469 86.7157 62.2695 86.6982 62.0915 86.6936C61.6172 86.6776 61.1444 86.7556 60.7005 86.9232C60.2565 87.0908 59.85 87.3447 59.5046 87.6702C59.1592 87.9956 58.8817 88.3863 58.688 88.8196C58.4943 89.2529 58.3883 89.7202 58.3761 90.1947C58.3639 90.6691 58.4458 91.1413 58.6169 91.584C58.7881 92.0267 59.0452 92.431 59.3735 92.7738C59.7017 93.1166 60.0945 93.391 60.5293 93.5812C60.9641 93.7714 61.4323 93.8737 61.9068 93.882C62.8116 93.9013 63.6904 93.5788 64.368 92.9787C65.0456 92.3786 65.4721 91.5452 65.5624 90.6445C65.6527 89.7439 65.4002 88.8423 64.8552 88.1197C64.3103 87.397 63.513 86.9063 62.6224 86.7456V86.7461Z" fill="white"/>
<circle cx="62" cy="90.2891" r="5" fill="white"/>
<g filter="url(#filter1_d_686_6223)">
<rect x="20" y="44" width="90" height="90" rx="21" fill="#FFB800"/>
</g>
<path d="M46.3242 110.512C46.3242 110.512 48.6446 118.951 48.0811 122.908C47.5177 126.866 46.3908 134.012 46.3908 134.012H79.2465C79.2465 134.012 80.5531 120.979 79.6214 112.393C78.7496 104.345 46.3242 110.512 46.3242 110.512Z" fill="#F48E5B"/>
<path d="M45.2529 110.511C45.2529 110.511 47.5733 118.95 47.0099 122.907C46.4464 126.865 45.3195 134.011 45.3195 134.011H78.1819C78.1819 134.011 78.5568 120.464 78.5568 112.392C78.5568 104.32 45.2529 110.511 45.2529 110.511Z" fill="#FCC99F"/>
<path d="M68.1592 115.326C68.1592 115.326 78.4256 117.207 78.4256 122.21C78.4256 125.748 79.3019 125.846 79.3019 125.846L78.6763 114.815L73.6673 114.566L68.1592 115.326Z" fill="#F48E5B"/>
<path d="M49.4834 113.765L41.9632 100.649C44.6252 90.2448 36.6547 74.8661 45.0689 68.9856C53.483 63.1051 55.0514 72.5899 55.0514 72.5899C55.0514 72.5899 56.5687 61.7483 61.4358 62.2013C66.3028 62.6543 68.5344 68.9923 68.5344 68.9923C68.5344 68.9923 72.0616 64.462 76.0435 65.3659C80.0254 66.2697 80.0698 72.8253 80.0698 72.8253C80.0698 72.8253 83.8121 71.6616 85.904 75.8566C87.3526 78.7613 87.4457 86.8981 87.4457 86.8981C87.4457 86.8981 90.1477 108.59 83.7833 114.309C78.528 119.03 71.9817 115.432 66.2318 115.885C60.4819 116.338 55.677 116.931 49.4834 113.765Z" fill="#F48E5B"/>
<path d="M48.5825 112.583L36.5791 98.8609C38.6355 86.7667 35.8071 75.723 42.2359 67.0466C48.3873 58.7477 54.3347 69.1585 54.3347 69.1585C54.3347 69.1585 55.6657 60.5643 60.5283 61.0173C65.3908 61.4703 68.2081 67.4419 68.2081 67.4419C68.2081 67.4419 71.1452 63.278 75.1271 64.1841C79.109 65.0901 80.2293 71.5836 80.2293 71.5836C80.2293 71.5836 84.5351 69.9402 86.627 74.1352C88.0778 77.0399 85.9504 85.9051 85.9504 85.9051C85.9504 85.9051 88.2308 108.061 82.4787 112.132C76.7265 116.203 70.7015 111.67 64.9538 112.132C59.2061 112.594 54.7761 115.747 48.5825 112.583Z" fill="#FFD3AB"/>
<path d="M46.4796 74.1484C46.4796 74.1484 47.3803 82.5628 48.0214 84.5348C48.6625 86.5068 51.7504 91.8966 53.5517 91.3702C54.6142 91.0651 55.6151 90.5758 56.5087 89.9245C56.5087 89.9245 59.2085 92.6849 61.5222 92.947C63.8359 93.209 68.0796 91.5013 68.0796 91.5013C68.0796 91.5013 68.4656 93.7353 71.0366 93.8686C73.6077 94.0018 76.5669 91.7633 76.5669 91.7633C76.7801 92.2327 77.1233 92.6309 77.5558 92.9108C77.9884 93.1907 78.4921 93.3405 79.0071 93.3423C80.8062 93.3423 84.0205 89.7891 84.0205 89.7891L79.9809 94.3327C79.9809 94.3327 73.7363 96.3624 70.0716 101.49C68.4656 103.738 66.4025 110.828 65.828 112.15C65.828 112.15 66.1829 99.2694 59.4636 98.4788C52.6311 97.6838 45.4481 94.5348 45.4481 94.5348C45.4481 94.5348 42.6197 90.1955 42.7484 85.2077C42.8771 80.2199 46.4796 74.1484 46.4796 74.1484Z" fill="#FCC99F"/>
<path d="M60.6785 81.1769C51.4236 77.8947 50.3034 80.1198 44.6133 86.8998C41.9646 90.0599 40.028 91.4411 38.7902 92.245C37.8861 92.8503 37.1542 93.68 36.6663 94.6532C36.1783 95.6263 35.9509 96.7094 36.0062 97.7969C36.0439 98.9348 36.2843 100.057 36.7161 101.11C36.767 101.846 36.8588 102.579 36.9911 103.304C39.8594 119.169 56.8563 118.958 61.3596 116.629C65.8628 114.299 69.37 108.328 64.8645 101.348C61.1599 95.6072 54.5337 96.6621 52.7147 96.9441C54.1943 94.408 55.7472 92.5271 57.6638 92.2806C60.7251 91.8831 63.3649 93.864 66.6658 92.6759C72.5355 90.5684 69.8247 84.4192 60.6785 81.1769Z" fill="#F48E5B"/>
<path d="M40.7557 81.2349C43.9812 80.1734 46.8872 76.6113 46.6432 73.087C46.6299 72.9094 46.3969 72.6851 46.3193 72.9627C45.8756 74.5661 45.5518 76.054 44.6201 77.4686C43.6233 78.9458 42.2786 80.1546 40.7047 80.9884C40.6137 81.0373 40.6315 81.2749 40.7557 81.2349V81.2349Z" fill="#F48E5B"/>
<path d="M53.8509 89.9472C55.9672 91.4861 58.8555 93.1539 61.5929 92.7164C61.8037 92.6831 61.8347 92.2456 61.6262 92.1834C60.3906 91.8192 59.0928 91.7548 57.855 91.3729C56.4879 90.974 55.1745 90.4095 53.9441 89.6918C53.8066 89.6074 53.7578 89.8761 53.8531 89.9472H53.8509Z" fill="#D68265"/>
<g clip-path="url(#clip0_686_6223)">
<path d="M95.76 29.2531C95.763 29.4162 95.732 29.5781 95.6688 29.7285C95.6056 29.8789 95.5118 30.0145 95.3932 30.1265C95.2747 30.2385 95.134 30.3246 94.9803 30.3792C94.8266 30.4337 94.6631 30.4556 94.5005 30.4433C94.3378 30.4311 94.1795 30.385 94.0357 30.3081C93.8918 30.2311 93.7656 30.125 93.6652 29.9965C93.5647 29.868 93.4922 29.7199 93.4523 29.5617C93.4123 29.4036 93.4059 29.2388 93.4333 29.078L94.5632 14.062L74.6949 8.64995C74.3948 8.56983 74.1388 8.37386 73.9831 8.10508C73.8274 7.83629 73.7848 7.51671 73.8647 7.21655C73.9603 6.92431 74.1607 6.67782 74.4273 6.52466C74.6939 6.37149 75.0078 6.32251 75.3084 6.38716L96.0018 12.0674C96.2767 12.1226 96.5227 12.2744 96.6952 12.4954C96.8677 12.7165 96.9552 12.992 96.9419 13.272L95.76 29.2531Z" fill="#1B1C1C"/>
<path fill-rule="evenodd" clip-rule="evenodd" d="M38.2905 55.4632C37.532 55.4061 36.7308 55.2324 35.9374 55.0902C27.7105 97.8467 95.2004 103.131 93.4492 59.4179C92.6333 59.439 91.8277 59.4608 91.0259 59.4314C85.2978 93.0885 38.9173 89.5984 38.2905 55.4632Z" fill="#32363A"/>
<path fill-rule="evenodd" clip-rule="evenodd" d="M93.9233 61.7511L90.3461 61.4819C90.2721 61.4763 90.1999 61.4562 90.1336 61.4228C90.0674 61.3893 90.0083 61.3431 89.9599 61.2868C89.9115 61.2305 89.8747 61.1652 89.8515 61.0947C89.8283 61.0242 89.8192 60.9498 89.8248 60.8757L90.2413 55.3408C90.2525 55.1913 90.3227 55.0524 90.4364 54.9546C90.5501 54.8569 90.6979 54.8083 90.8475 54.8195L94.4246 55.0887C94.5692 55.1095 94.7011 55.1826 94.7953 55.2942C94.8895 55.4058 94.9395 55.5481 94.9357 55.6941L94.5192 61.229C94.5011 61.3739 94.4304 61.5071 94.3205 61.6033C94.2107 61.6996 94.0693 61.7521 93.9233 61.7511V61.7511Z" fill="#454A4D"/>
<path fill-rule="evenodd" clip-rule="evenodd" d="M39.5167 50.9561L35.7038 50.6692C35.6241 50.6618 35.5437 50.6705 35.4675 50.6948C35.3912 50.7192 35.3206 50.7586 35.26 50.8108C35.1993 50.863 35.1497 50.9268 35.1143 50.9986C35.0788 51.0703 35.0581 51.1485 35.0535 51.2284L34.6432 56.6813C34.6358 56.761 34.6446 56.8414 34.6689 56.9176C34.6932 56.9939 34.7326 57.0644 34.7848 57.1251C34.837 57.1858 34.9009 57.2353 34.9726 57.2708C35.0444 57.3063 35.1225 57.3269 35.2024 57.3315L39.0154 57.6185C39.1751 57.6278 39.3323 57.5747 39.4536 57.4704C39.575 57.366 39.651 57.2186 39.6656 57.0592L40.0759 51.6063C40.0853 51.4466 40.0322 51.2894 39.9279 51.1681C39.8235 51.0467 39.6761 50.9707 39.5167 50.9561V50.9561Z" fill="#454A4D"/>
<path fill-rule="evenodd" clip-rule="evenodd" d="M94.7074 56.1183L90.4845 55.8005C90.1826 55.7779 89.9014 55.6383 89.7009 55.4114C89.5004 55.1845 89.3964 54.8883 89.4111 54.5859L91.9494 20.8537C91.9726 20.5456 92.1165 20.2591 92.3499 20.0565C92.5833 19.854 92.8872 19.7519 93.1956 19.7724L97.4185 20.0901C97.7215 20.121 98.0002 20.2697 98.1946 20.5041C98.3891 20.7386 98.4837 21.04 98.458 21.3435L95.9198 55.0756C95.8921 55.3726 95.7503 55.6473 95.5241 55.8418C95.298 56.0363 95.0052 56.1354 94.7074 56.1183V56.1183Z" fill="#32363A"/>
<path fill-rule="evenodd" clip-rule="evenodd" d="M35.4332 51.6607L39.6459 51.9777C39.9437 51.9948 40.2365 51.8956 40.4626 51.7012C40.6887 51.5067 40.8306 51.232 40.8582 50.935L43.3965 17.2028C43.4222 16.8993 43.3276 16.5979 43.1331 16.3635C42.9387 16.1291 42.6599 15.9804 42.357 15.9495L38.1443 15.6325C37.993 15.6224 37.8413 15.6426 37.6979 15.6919C37.5545 15.7411 37.4224 15.8184 37.3092 15.9193C37.1961 16.0202 37.1041 16.1427 37.0388 16.2795C36.9735 16.4163 36.9362 16.5647 36.9289 16.7162L34.3906 50.4483C34.3681 50.7474 34.4653 51.0431 34.6608 51.2704C34.8564 51.4978 35.1342 51.6382 35.4332 51.6607Z" fill="#32363A"/>
<path fill-rule="evenodd" clip-rule="evenodd" d="M89.4326 54.3125L83.8465 53.8922C83.7098 53.8768 83.584 53.8103 83.4944 53.706C83.4047 53.6018 83.3578 53.4675 83.3631 53.3301L85.8204 20.6741C85.8358 20.5375 85.9022 20.4117 86.0065 20.3221C86.1107 20.2324 86.245 20.1855 86.3824 20.1907L91.9686 20.6111L89.4326 54.3125Z" fill="#1B1C1C"/>
<path fill-rule="evenodd" clip-rule="evenodd" d="M40.8789 50.6583L46.4958 51.0809C46.628 51.0805 46.7551 51.0301 46.8518 50.9399C46.9484 50.8497 47.0074 50.7263 47.0169 50.5945L49.4742 17.9385C49.4845 17.8067 49.4447 17.6759 49.3626 17.5722C49.2806 17.4686 49.1624 17.3998 49.0318 17.3795L43.4149 16.9569L40.8789 50.6583Z" fill="#1B1C1C"/>
<path fill-rule="evenodd" clip-rule="evenodd" d="M95.9774 54.3209L98.4046 22.0647C104.022 29.5998 102.656 47.7523 95.9774 54.3209Z" fill="#7EADB5"/>
<path fill-rule="evenodd" clip-rule="evenodd" d="M34.4473 49.6875L36.8745 17.4313C30.1924 24.0409 28.8265 42.1934 34.4473 49.6875Z" fill="#7EADB5"/>
<path fill-rule="evenodd" clip-rule="evenodd" d="M79.5664 13.0986L70.1839 10.5269C69.9036 10.4482 69.665 10.2636 69.5184 10.0121C69.3719 9.76058 69.329 9.4619 69.3988 9.17931L70.9026 3.7159C70.9862 3.43015 71.1783 3.18842 71.4377 3.04231C71.6971 2.89621 72.0034 2.8573 72.2911 2.93391L81.6334 5.49232C81.7762 5.52633 81.9105 5.58911 82.0282 5.67681C82.1459 5.76451 82.2444 5.87528 82.3179 6.00237C82.3913 6.12946 82.438 6.2702 82.4551 6.41597C82.4723 6.56173 82.4596 6.70945 82.4177 6.85012L80.9147 12.3033C80.8818 12.446 80.8202 12.5805 80.7337 12.6986C80.6472 12.8168 80.5375 12.9161 80.4114 12.9905C80.2852 13.0649 80.1453 13.1128 80 13.1314C79.8547 13.15 79.7072 13.1388 79.5664 13.0986Z" fill="#454A4D"/>
<path fill-rule="evenodd" clip-rule="evenodd" d="M75.739 10.2669C75.1714 10.1854 74.656 9.89143 74.297 9.44437C73.938 8.9973 73.7622 8.43056 73.8053 7.85881C73.8483 7.28706 74.1069 6.75299 74.5288 6.36468C74.9506 5.97637 75.5042 5.76281 76.0776 5.76721C76.3874 5.76959 76.6934 5.83559 76.9766 5.96113C77.2598 6.08667 77.5142 6.26908 77.724 6.49701C77.9338 6.72495 78.0946 6.99357 78.1963 7.2862C78.298 7.57883 78.3384 7.88925 78.3152 8.19817C78.2919 8.5071 78.2055 8.80794 78.0611 9.08206C77.9168 9.35618 77.7177 9.59772 77.4761 9.79169C77.2346 9.98566 76.9557 10.1279 76.6569 10.2097C76.3581 10.2914 76.0456 10.3109 75.739 10.2669Z" fill="#EDC72F"/>
<path d="M48.177 84.3408C46.9671 81.046 46.0061 77.5035 46 74L54.5 81L48.177 84.3408Z" fill="#FFD3AB"/>
<path d="M67.2204 90.5166C66.3562 84.6205 68.3125 79.9149 68.3082 73.6455C75.1078 71.8747 82.199 70.1421 85.1792 71.4685C88.4447 78.5429 87.0859 83.5814 76.4711 88.3404C73.0734 89.7563 71.0705 90.2407 67.2204 90.5166Z" fill="#FFD3AB"/>
<path d="M67.684 82.7266L61.8975 82.7266L67.9992 87L67.684 82.7266Z" fill="#FFD3AB"/>
</g>
<path d="M54.3347 69.1557C54.0508 68.6722 53.7367 68.2071 53.3941 67.7633C53.5915 69.2135 53.8178 70.1662 53.9376 71.5386C54.2748 75.3138 55.4749 78.907 55.9163 82.6423C56.1626 84.7298 55.6435 87.2925 53.3786 87.9898C51.2955 88.6294 49.8891 86.7062 49.0927 85.0473C47.3048 81.3254 47.0763 77.2214 46.6836 73.1997C46.6526 72.8777 46.3842 72.7556 46.24 73.2686C45.0243 77.3725 46.1313 82.4379 47.8505 86.2421C49.2258 89.2823 52.2871 92.207 55.435 89.4C55.8796 89.0086 56.2658 88.5554 56.5818 88.0542C56.5818 88.0786 56.5818 88.1008 56.5818 88.1253C56.848 89.7198 57.8396 92.2581 59.2039 93.3418C60.5682 94.4255 63.0439 94.4721 64.6033 94.1301C65.9521 93.8348 66.8217 93.4439 67.6203 92.5356C67.7349 93.0669 67.9635 93.5668 68.2902 94.0009C68.617 94.435 69.034 94.7928 69.5125 95.0495C72.1346 96.4241 75.0694 94.7209 76.7399 92.569C76.962 93.2149 77.4176 93.7543 78.017 94.081C78.6163 94.4077 79.3161 94.4981 79.9786 94.3344C82.6806 93.7215 84.3598 90.004 85.3492 87.6722C85.571 87.1415 85.7751 86.5974 85.9615 86.0511L85.9482 85.909C85.9482 85.909 88.0755 77.026 86.6248 74.1391C86.3517 73.5739 85.9875 73.0577 85.5466 72.6112C86.1751 75.98 86.1162 79.4412 85.3736 82.7866C84.8911 84.9156 84.079 86.9559 82.9667 88.8337C82.126 90.2483 78.956 94.2656 77.7093 91.0166C79.1312 88.1697 79.1534 84.7986 79.2421 81.654C79.3109 79.2734 79.0048 77.1437 79.464 74.8075C79.6692 73.7189 79.9314 72.6419 80.2493 71.5808H80.236C80.1292 71.0308 79.9914 70.4874 79.8233 69.953C77.9821 74.048 77.7869 79.1446 77.5584 83.424C77.3965 86.4531 76.9928 89.6909 74.5171 91.7117C73.5344 92.5112 72.2522 93.0442 70.9811 92.8599C69.3417 92.6378 69.0067 91.5274 68.9202 90.2616C69.3475 88.9661 69.4986 87.5953 69.3639 86.2376C69.0444 83.4084 68.5963 80.6103 68.3967 77.7633C68.1589 74.3154 68.1041 70.8573 68.2325 67.4036L68.2059 67.4391C67.9632 66.9483 67.6906 66.4729 67.3896 66.0156C66.7141 71.7838 66.7141 77.6113 67.3896 83.3796C67.6314 85.4782 68.5342 88.8359 66.9304 90.5769C65.6216 91.996 64.8917 92.0271 63.0727 92.0226C61.826 92.0226 60.5016 92.0226 59.215 90.5769C58.5495 89.8263 58.3277 88.3962 58.1502 87.4058C57.8263 85.6292 57.7709 83.8104 57.5668 82.0094C57.5566 81.8984 57.5051 81.7954 57.4226 81.7207C57.1697 80.0773 56.6528 78.8692 56.1936 77.4302L54.3347 69.1557Z" fill="#F48E5B"/>
<path d="M60.366 82.0364C51.648 78.9763 50.5144 80.8483 45.1571 87.1686C42.6593 90.1133 40.9179 91.61 39.751 92.3562C38.9 92.9163 38.2103 93.6897 37.7503 94.5994C37.2903 95.5091 37.0761 96.5234 37.129 97.5416C37.1643 98.6029 37.3897 99.6492 37.7945 100.631C37.8421 101.317 37.9287 102 38.054 102.676C40.7537 117.464 56.7635 117.268 61.0049 115.099C65.2464 112.929 67.5623 107.606 63.3209 101.108C59.8314 95.7584 52.1116 98.0879 50.3991 98.3477C51.7922 95.9849 55.0842 91.7455 56.8921 91.5123C59.776 91.1415 63.0413 92.8847 66.1492 91.7744C71.6795 89.789 68.9798 85.0566 60.366 82.0364Z" fill="#FFD3AB"/>
<defs>
<filter id="filter0_d_686_6223" x="0" y="32.2891" width="123" height="123" filterUnits="userSpaceOnUse" color-interpolation-filters="sRGB">
<feFlood flood-opacity="0" result="BackgroundImageFix"/>
<feColorMatrix in="SourceAlpha" type="matrix" values="0 0 0 0 0 0 0 0 0 0 0 0 0 0 0 0 0 0 127 0" result="hardAlpha"/>
<feOffset dy="4"/>
<feGaussianBlur stdDeviation="10"/>
<feComposite in2="hardAlpha" operator="out"/>
<feColorMatrix type="matrix" values="0 0 0 0 0.0551148 0 0 0 0 0.268283 0 0 0 0 0.595833 0 0 0 0.12 0"/>
<feBlend mode="normal" in2="BackgroundImageFix" result="effect1_dropShadow_686_6223"/>
<feBlend mode="normal" in="SourceGraphic" in2="effect1_dropShadow_686_6223" result="shape"/>
</filter>
<filter id="filter1_d_686_6223" x="0" y="36" width="130" height="130" filterUnits="userSpaceOnUse" color-interpolation-filters="sRGB">
<feFlood flood-opacity="0" result="BackgroundImageFix"/>
<feColorMatrix in="SourceAlpha" type="matrix" values="0 0 0 0 0 0 0 0 0 0 0 0 0 0 0 0 0 0 127 0" result="hardAlpha"/>
<feOffset dy="12"/>
<feGaussianBlur stdDeviation="10"/>
<feComposite in2="hardAlpha" operator="out"/>
<feColorMatrix type="matrix" values="0 0 0 0 0.552361 0 0 0 0 0.653273 0 0 0 0 0.808333 0 0 0 0.15 0"/>
<feBlend mode="normal" in2="BackgroundImageFix" result="effect1_dropShadow_686_6223"/>
<feBlend mode="normal" in="SourceGraphic" in2="effect1_dropShadow_686_6223" result="shape"/>
</filter>
<linearGradient id="paint0_linear_686_6223" x1="47.4803" y1="73.2596" x2="79.2156" y2="110.48" gradientUnits="userSpaceOnUse">
<stop stop-color="#3B956C"/>
<stop offset="1" stop-color="#63AF8D"/>
</linearGradient>
<clipPath id="clip0_686_6223">
<rect width="70.9443" height="87.267" fill="white" transform="translate(97.7441 92.3438) rotate(-175.697)"/>
</clipPath>
</defs>
</svg>
