<svg width="130" height="142" viewBox="0 0 130 142" fill="none" xmlns="http://www.w3.org/2000/svg">
<g filter="url(#filter0_d_686_6143)">
<rect x="105.711" y="20" width="83" height="83" rx="21" transform="rotate(90 105.711 20)" fill="white"/>
<rect x="104.711" y="21" width="81" height="81" rx="20" transform="rotate(90 104.711 21)" stroke="#7FC6A6" stroke-width="2"/>
</g>
<path d="M50.6664 43.9498C50.6039 43.9851 50.5539 44.039 50.5234 44.104C50.4928 44.169 50.4833 44.2419 50.4962 44.3126L51.2497 48.4459C49.7831 49.7904 48.5457 51.3652 47.5861 53.1082L43.3945 53.3559C43.3228 53.3601 43.2541 53.3866 43.1982 53.4317C43.1422 53.4768 43.1017 53.5383 43.0824 53.6075L41.7236 58.4605C41.7043 58.5296 41.7071 58.6031 41.7315 58.6706C41.7558 58.7381 41.8007 58.7964 41.8597 58.8372L45.3132 61.2257C45.2283 63.2135 45.4681 65.2018 46.0232 67.1124L43.2328 70.2536C43.1851 70.3073 43.1553 70.3745 43.1477 70.4459C43.14 70.5174 43.1548 70.5894 43.1901 70.652L45.6607 75.0445C45.696 75.1071 45.75 75.1572 45.815 75.1877C45.8801 75.2182 45.9531 75.2277 46.0238 75.2148L50.1569 74.4612C51.5015 75.9277 53.0763 77.1651 54.8191 78.1248L55.0672 82.3164C55.0714 82.3881 55.0979 82.4566 55.143 82.5126C55.188 82.5685 55.2493 82.609 55.3185 82.6285L60.1718 83.9873C60.2409 84.0066 60.3144 84.0039 60.382 83.9794C60.4495 83.955 60.5078 83.9101 60.5485 83.8509L62.937 80.3977C64.9248 80.483 66.9131 80.2436 68.8238 79.6889L71.9649 82.4793C72.0187 82.527 72.0859 82.5567 72.1573 82.5644C72.2287 82.572 72.3008 82.5572 72.3634 82.522L76.7556 80.0511C76.8183 80.0159 76.8684 79.962 76.899 79.897C76.9296 79.832 76.9391 79.759 76.9262 79.6883L76.1723 75.555C77.6391 74.2102 78.8766 72.635 79.8359 70.8916L84.0275 70.6438C84.0992 70.6396 84.1678 70.6132 84.2237 70.5681C84.2796 70.5231 84.32 70.4617 84.3394 70.3925L85.6981 65.5393C85.7175 65.4701 85.7148 65.3966 85.6904 65.3291C85.6661 65.2616 85.6212 65.2033 85.5621 65.1625L82.1103 62.774C82.1952 60.7862 81.9553 58.7979 81.4001 56.8873L84.1905 53.7462C84.2382 53.6925 84.268 53.6253 84.2757 53.5538C84.2834 53.4824 84.2687 53.4104 84.2335 53.3477L81.7625 48.9555C81.7273 48.8929 81.6734 48.8428 81.6084 48.8123C81.5434 48.7817 81.4705 48.7721 81.3998 48.785L77.2664 49.5385C75.9219 48.0719 74.3471 46.8345 72.6041 45.8749L72.3563 41.6834C72.3521 41.6117 72.3256 41.5431 72.2805 41.4872C72.2354 41.4313 72.174 41.3908 72.1048 41.3715L67.2518 40.0128C67.1826 39.9934 67.1091 39.9961 67.0415 40.0205C66.9739 40.0449 66.9156 40.0897 66.8747 40.1488L64.4865 43.6006C62.4983 43.5161 60.5095 43.7564 58.5986 44.312L55.4574 41.5219C55.4037 41.4742 55.3365 41.4444 55.2651 41.4367C55.1937 41.4289 55.1216 41.4437 55.059 41.4789L50.6664 43.9498Z" fill="url(#paint0_linear_686_6143)"/>
<path d="M58.5083 61.0907C58.949 58.5555 61.1981 56.6526 63.8461 56.7205C64.5394 56.7383 65.2223 56.8925 65.8559 57.1743C66.4895 57.4561 67.0614 57.8599 67.539 58.3627C68.0165 58.8654 68.3903 59.4574 68.639 60.1046C68.8877 60.7519 69.0064 61.4418 68.9885 62.1349C68.9136 65.0463 66.4849 67.3518 63.5743 67.277C62.8811 67.2592 62.1983 67.105 61.5647 66.8232C60.9311 66.5415 60.3592 66.1378 59.8817 65.635C59.4042 65.1323 59.0304 64.5405 58.7816 63.8933C58.5329 63.2461 58.4141 62.5562 58.432 61.8631C58.4384 61.6041 58.4639 61.3459 58.5083 61.0907ZM67.2519 62.6214C67.2823 62.4459 67.2999 62.2685 67.3044 62.0905C67.3205 61.6163 67.2424 61.1435 67.0748 60.6995C66.9072 60.2555 66.6534 59.8491 66.3279 59.5037C66.0024 59.1583 65.6118 58.8807 65.1785 58.687C64.7452 58.4933 64.2778 58.3873 63.8034 58.3751C63.3289 58.3629 62.8567 58.4448 62.4141 58.616C61.9714 58.7871 61.567 59.0443 61.2242 59.3725C60.8814 59.7007 60.607 60.0935 60.4168 60.5283C60.2266 60.9631 60.1244 61.4313 60.116 61.9058C60.0967 62.8106 60.4193 63.6895 61.0193 64.367C61.6194 65.0446 62.4529 65.4711 63.3535 65.5614C64.2541 65.6517 65.1557 65.3992 65.8784 64.8543C66.6011 64.3093 67.0917 63.512 67.2525 62.6214L67.2519 62.6214Z" fill="white"/>
<circle cx="63.7109" cy="62" r="5" transform="rotate(90 63.7109 62)" fill="white"/>
<g filter="url(#filter1_d_686_6143)">
<rect x="110" y="20" width="90" height="90" rx="21" transform="rotate(90 110 20)" fill="#FF619A"/>
</g>
<path d="M43.0976 81.8357C42.9116 86.5952 41.943 90.2632 39.4156 90.2731L42.9686 75.2513L43.121 74.6066L42.5866 70.822L41.1357 60.5243C41.1357 60.5243 35.7731 64.452 35.6004 67.1365C35.4278 69.8211 37.2613 76.6927 37.2613 76.6927L36.8043 81.0071C36.8043 81.0071 35.1119 90.1794 30.6399 90.187C30.4284 90.1859 30.2308 90.1905 30.0445 90.1978C24.7881 90.1086 20.13 89.9861 20.13 89.9861L20.127 90.9374C20.127 90.9374 31.7547 92.0848 39.4097 91.2355C42.0357 90.9313 42.9686 86.8683 43.0976 81.8357Z" fill="#F48E5B"/>
<path d="M20.1738 61.5625L20.1448 78.7947L20.1738 61.5625Z" fill="#D68265"/>
<path d="M41.123 60.5273L42.5739 70.825C41.9922 65.1856 41.123 60.5273 41.123 60.5273Z" fill="#F5BC8F"/>
<path d="M39.4119 90.2679C41.9336 90.2636 42.9107 86.5928 43.0938 81.8305C43.1629 79.6346 43.1198 77.4369 42.9648 75.2461L39.4119 90.2679Z" fill="#F5BC8F"/>
<path d="M30.6311 90.1703C35.1143 90.1628 36.7955 80.9905 36.7955 80.9905L37.2525 76.676C37.2525 76.676 35.4176 69.8031 35.5916 67.1199C35.7657 64.4367 41.1269 60.5077 41.1269 60.5077C41.1269 60.5077 33.586 62.5939 30.0648 62.0983C26.5435 61.6026 20.1721 60.6033 20.1721 60.6033L20.1691 61.5545L20.1415 78.7854L20.1227 89.9541C20.1227 89.9541 24.7807 90.0765 30.0371 90.1657C30.2262 90.1696 30.4224 90.1637 30.6311 90.1703Z" fill="#FCC99F"/>
<path d="M38.229 85.8837L41.1675 63.0399C41.3338 61.7495 41.8887 60.5391 42.7585 59.5694C43.6282 58.5997 44.7716 57.9167 46.0367 57.6112L62.5905 53.5975C63.9714 53.2622 65.423 53.3947 66.7172 53.9744C66.7172 53.9744 69.3269 56.6795 77.874 60.1858C84.3239 62.8326 85.919 65.7048 86.0689 70.7327L79.8008 94.8837C78.8119 98.0684 73.0554 99.6458 69.8119 98.9284L43.206 92.9377C40.1648 91.9117 38.0534 88.6104 38.229 85.8837Z" fill="#FCC99F"/>
<path d="M39.7442 74.8417C39.7442 74.8417 55.0351 80.3877 61.5608 88.763C68.0865 97.1384 67.2481 98.3124 67.2481 98.3124C67.2481 98.3124 42.4301 95.485 39.256 90.2198C36.0818 84.9546 39.7442 74.8417 39.7442 74.8417Z" fill="#FFD3AB"/>
<path d="M68.3624 59.8589C68.3624 59.8589 60.9494 70.0692 56.9039 73.0714C52.8584 76.0735 43.7952 77.0134 43.7952 77.0134C43.7952 77.0134 60.053 84.8512 59.5104 92.5968L65.49 94.1698L72.8931 85.7122C72.8931 85.7122 76.0711 78.7271 75.0274 72.0447C73.967 65.3036 68.3624 59.8589 68.3624 59.8589Z" fill="#FCC99F"/>
<path d="M69.9396 56.0607C69.9396 56.0607 67.6285 67.4126 59.5704 72.1223C51.5124 76.832 43.7955 77.0131 43.7955 77.0131L68.8211 56.34L69.9396 56.0607Z" fill="#F48E5B"/>
<path d="M46.0121 56.5484C46.0121 56.5484 55.7541 51.0023 60.2802 48.8091C65.2339 46.4177 73.9799 47.4817 70.2218 55.3518C66.4637 63.2219 63.2079 68.1505 52.6909 73.8114C43.6211 78.6853 39.9401 76.5171 38.4344 73.8354C36.3825 70.1781 36.6108 61.9301 46.0121 56.5484Z" fill="#FFD3AB"/>
<path d="M70.1678 55.3283C70.1678 55.3283 86.9399 55.6362 89.4756 46.569C92.0112 37.5017 82.9352 46.077 79.9161 46.0835C76.8969 46.09 68.8915 44.4952 64.3374 47.5696C59.7832 50.644 70.1678 55.3283 70.1678 55.3283Z" fill="#FFD3AB"/>
<path d="M79.516 82.9945C79.459 82.9975 79.4026 83.007 79.3478 83.0228C79.2805 83.0453 79.2777 83.0761 79.3309 83.1125C79.4486 83.0506 79.5187 83.0197 79.5187 83.0197L79.516 82.9945Z" fill="#D68265"/>
<path d="M75.9375 90.3789C75.6069 90.371 75.4639 90.4217 75.6471 90.5769C75.723 90.6334 75.8064 90.679 75.8949 90.7124C75.9497 90.6241 75.9834 90.5764 75.9834 90.5764C75.9834 90.5764 75.9597 90.5049 75.9375 90.3789Z" fill="#D68265"/>
<path d="M37.8791 90.8358C40.6609 96.9856 60.7916 98.6931 60.7916 98.6931L65.0465 99.4733C65.0465 99.4733 67.3026 98.3613 67.3323 98.1721C63.0812 97.6371 41.9912 94.8413 39.1509 90.1345L37.8791 90.8358Z" fill="#F48E5B"/>
<path d="M73.0217 99.092C73.0217 99.092 69.3544 98.7928 67.4104 98.4402C66.1611 98.2126 65.4811 99.3877 65.4811 99.3877L72.635 99.9627L73.0217 99.092Z" fill="#D68265"/>
<path d="M79.6849 98.4857C79.6849 98.4857 78.7122 103.747 70.0718 101.536C61.4314 99.3262 60.6347 98.2208 60.6347 98.2208L72.3868 95.378L79.6849 98.4857Z" fill="#F48E5B"/>
<path d="M79.9042 97.7831C79.9042 97.7831 78.7532 102.386 70.593 100.398C62.4328 98.4094 60.9175 97.2505 60.9175 97.2505L72.7795 94.8572L79.9042 97.7831Z" fill="#F5BC8F"/>
<line x1="56.9921" y1="108.211" x2="100.421" y2="35.2111" stroke="#583C93" stroke-width="7"/>
<line x1="70.7159" y1="12.9495" x2="102.716" y2="30.9495" stroke="#583C93" stroke-width="7"/>
<path d="M76.7373 73.7544C76.7373 73.7544 66.9316 70.4968 65.588 76.358C64.4067 81.5198 74.674 83.4961 76.1317 83.963C77.7251 84.4703 84.3182 86.9655 85.2818 87.1208C87.5088 87.4701 91.8555 87.82 93.1443 83.706C93.9148 81.2571 92.345 78.3177 89.754 77.0262C85.0618 74.6804 81.0994 74.9084 76.7373 73.7544Z" fill="#F48E5B"/>
<path d="M77.3386 64.4882C77.3386 64.4882 69.483 62.9757 68.418 68.1388C67.3106 73.4868 77.3597 75.2645 78.8385 75.6207C80.3174 75.9769 88.5309 78.7538 91.1505 78.0643C96.0814 76.7699 97.8373 71.467 94.1084 68.6727C90.0926 65.6869 86.368 65.2939 77.3386 64.4882Z" fill="#F48E5B"/>
<path d="M80.0612 65.5704C80.0612 65.5704 70.7356 63.4272 69.9803 67.6819C69.225 71.9366 75.1395 72.218 76.6239 72.5798C78.1084 72.9415 89.6278 75.9791 92.3278 75.7882C95.0279 75.5973 96.337 70.2545 92.9777 68.3913C88.7829 66.0713 84.4967 66.4274 80.0612 65.5704Z" fill="#FFD3AB"/>
<path d="M79.3086 84.9955C79.3086 84.9955 87.2923 86.1617 88.7892 89.9181C90.1899 93.435 87.3951 96.6073 85.7274 96.9604C83.4976 97.4335 82.4434 96.9659 79.865 96.5009C77.4617 96.0623 77.2412 93.8435 76.39 93.5227C72.4277 92.0303 70.8351 91.827 67.3254 90.3073C65.7294 89.6151 62.4981 88.3288 63.2296 84.9176C63.8071 82.2225 66.4439 80.5004 72.0281 82.2086C75.9041 83.3873 76.6065 83.9297 79.3086 84.9955Z" fill="#F48E5B"/>
<path d="M81.4446 99.5121C82.5136 96.1718 79.9278 94.2652 76.7666 92.9284C73.6054 91.5915 67.7391 90.1318 65.3245 89.7015C62.9099 89.2713 60.9889 91.0832 61.106 93.1341C61.238 95.4497 62.8711 96.5299 64.7472 97.2777C66.5448 97.9976 68.8552 98.7642 69.852 99.1408C71.2731 99.6778 72.5036 100.252 74.5923 101.195C77.178 102.366 80.2841 103.137 81.4446 99.5121Z" fill="#F48E5B"/>
<path d="M80.8078 99.1695C81.8476 96.5073 79.3654 94.6398 76.3719 93.5352C73.3785 92.4307 68.5543 91.1037 66.2741 90.7348C63.9939 90.366 62.8196 92.1753 62.915 93.8143C63.0211 95.6662 63.8973 96.1719 65.6713 96.7839C67.3739 97.3639 69.5612 98.0074 70.5021 98.3141C71.845 98.7531 73.0112 99.2205 74.9825 99.9877C77.427 100.956 79.6821 102.057 80.8078 99.1695Z" fill="#FFD3AB"/>
<path d="M79.7095 84.9151C79.7095 84.9151 88.4991 87.5299 88.3192 91.2092C88.1825 94.1599 87.015 95.3107 85.4969 95.7882C83.2667 96.4967 78.4487 93.1886 76.9912 92.6573C73.2822 91.3116 73.7088 91.7214 70.423 90.347C68.9292 89.7232 64.2783 87.8509 64.6958 85.327C65.1021 82.8536 67.2329 81.2599 72.4602 82.7992C76.0841 83.8662 77.181 83.9527 79.7095 84.9151Z" fill="#FFD3AB"/>
<path d="M77.6329 74.5952C77.6329 74.5952 68.4807 71.817 67.4327 76.0091C66.3847 80.2013 72.6864 81.0354 74.1412 81.4995C75.596 81.9636 86.4587 85.6383 89.1641 85.6324C91.8694 85.6264 94.4338 81.1123 90.321 78.299C86.3678 75.592 82.0006 75.752 77.6329 74.5952Z" fill="#FFD3AB"/>
<circle cx="53" cy="114" r="7" fill="#583C93" stroke="#583C93" stroke-width="4"/>
<circle cx="103" cy="31" r="8" fill="#583C93" stroke="#583C93" stroke-width="4"/>
<circle cx="67" cy="11" r="9" fill="#583C93" stroke="#583C93" stroke-width="4"/>
<defs>
<filter id="filter0_d_686_6143" x="2.71094" y="4" width="123" height="123" filterUnits="userSpaceOnUse" color-interpolation-filters="sRGB">
<feFlood flood-opacity="0" result="BackgroundImageFix"/>
<feColorMatrix in="SourceAlpha" type="matrix" values="0 0 0 0 0 0 0 0 0 0 0 0 0 0 0 0 0 0 127 0" result="hardAlpha"/>
<feOffset dy="4"/>
<feGaussianBlur stdDeviation="10"/>
<feComposite in2="hardAlpha" operator="out"/>
<feColorMatrix type="matrix" values="0 0 0 0 0.0551148 0 0 0 0 0.268283 0 0 0 0 0.595833 0 0 0 0.12 0"/>
<feBlend mode="normal" in2="BackgroundImageFix" result="effect1_dropShadow_686_6143"/>
<feBlend mode="normal" in="SourceGraphic" in2="effect1_dropShadow_686_6143" result="shape"/>
</filter>
<filter id="filter1_d_686_6143" x="0" y="12" width="130" height="130" filterUnits="userSpaceOnUse" color-interpolation-filters="sRGB">
<feFlood flood-opacity="0" result="BackgroundImageFix"/>
<feColorMatrix in="SourceAlpha" type="matrix" values="0 0 0 0 0 0 0 0 0 0 0 0 0 0 0 0 0 0 127 0" result="hardAlpha"/>
<feOffset dy="12"/>
<feGaussianBlur stdDeviation="10"/>
<feComposite in2="hardAlpha" operator="out"/>
<feColorMatrix type="matrix" values="0 0 0 0 0.552361 0 0 0 0 0.653273 0 0 0 0 0.808333 0 0 0 0.15 0"/>
<feBlend mode="normal" in2="BackgroundImageFix" result="effect1_dropShadow_686_6143"/>
<feBlend mode="normal" in="SourceGraphic" in2="effect1_dropShadow_686_6143" result="shape"/>
</filter>
<linearGradient id="paint0_linear_686_6143" x1="80.7404" y1="47.4803" x2="43.5203" y2="79.2156" gradientUnits="userSpaceOnUse">
<stop stop-color="#3B956C"/>
<stop offset="1" stop-color="#63AF8D"/>
</linearGradient>
</defs>
</svg>
