<svg width="131" height="83" viewBox="0 0 131 83" fill="none" xmlns="http://www.w3.org/2000/svg">
<path d="M127.504 20.9002L129.471 20.0381C129.301 19.2298 129.089 18.4309 128.835 17.6446L126.692 17.8827C126.289 16.6992 125.784 15.5526 125.184 14.4557L126.78 13.0268C126.367 12.3122 125.918 11.6191 125.434 10.9501L123.484 11.8241C122.728 10.8281 121.89 9.8976 120.978 9.04246L122.062 7.18963C121.449 6.63646 120.808 6.11501 120.142 5.62734L118.549 7.07055C117.526 6.35184 116.444 5.72162 115.315 5.18674L115.772 3.09814C115.019 2.75968 114.248 2.46078 113.464 2.20268L112.397 4.05551C111.201 3.69164 109.977 3.43111 108.737 3.27675L108.525 1.13337C107.704 1.04573 106.88 1.00122 106.055 1L105.609 3.10052C104.63 3.11541 103.653 3.19497 102.685 3.33868C102.416 3.37916 102.154 3.43155 101.889 3.47918L101.039 1.53108C100.235 1.70319 99.4401 1.9154 98.6573 2.16695L98.8955 4.31034C97.7113 4.71199 96.5646 5.21642 95.4683 5.81786L94.0393 4.22222C93.3238 4.63305 92.6306 5.08141 91.9625 5.56541L92.8389 7.51828C91.8406 8.27179 90.9091 9.11002 90.0548 10.0237L88.1899 8.91386C87.6381 9.52796 87.1174 10.1694 86.63 10.8358L88.0709 12.429C87.3521 13.4516 86.7219 14.5335 86.187 15.6632L84.0959 15.2059C83.76 15.9595 83.4627 16.7298 83.2051 17.5136L85.0581 18.5782C84.6931 19.7777 84.4317 21.0063 84.2769 22.2505L82.1334 22.4648C82.0444 23.2851 81.9999 24.1095 82 24.9345L84.103 25.3751C84.1179 26.3549 84.1974 27.3327 84.3412 28.302C84.384 28.5687 84.4341 28.8331 84.4841 29.0974L82.5168 29.9572C82.6867 30.7614 82.8982 31.5563 83.1503 32.3387L85.2938 32.1006C85.6966 33.2843 86.201 34.4309 86.8014 35.5276L85.2057 36.9565C85.6163 37.6721 86.0647 38.3653 86.549 39.0332L88.5019 38.1616C89.2561 39.1579 90.0944 40.0877 91.0074 40.9409L89.9214 42.7961C90.5359 43.3462 91.1765 43.8702 91.841 44.356L93.4367 42.9271C94.4577 43.647 95.5391 44.2772 96.6687 44.8109L96.2138 46.8995C96.9668 47.2383 97.7371 47.5372 98.5216 47.7949L99.5862 45.9397C100.782 46.3039 102.007 46.5652 103.247 46.7209L103.461 48.8643C104.281 48.9527 105.106 48.998 105.931 49L106.374 46.8947C107.354 46.8798 108.332 46.8002 109.301 46.6566C109.568 46.6137 109.832 46.5613 110.094 46.5137L110.956 48.4808C111.771 48.307 112.571 48.095 113.35 47.8473L113.112 45.7039C114.299 45.2998 115.449 44.7938 116.548 44.1917L117.977 45.7873C118.693 45.3762 119.386 44.9278 120.054 44.4441L119.168 42.4936C120.165 41.7403 121.094 40.9029 121.948 39.9906L123.801 41.0766C124.353 40.4647 124.874 39.8248 125.361 39.1595L123.932 37.5662C124.65 36.5433 125.28 35.4614 125.815 34.3321L127.904 34.787C128.241 34.0349 128.54 33.2662 128.8 32.484L126.944 31.4171C127.309 30.2209 127.57 28.9954 127.723 27.7542L129.867 27.5399C129.954 26.7204 129.999 25.8968 130 25.0726L127.89 24.632C127.877 23.6513 127.798 22.6726 127.652 21.7028C127.606 21.4265 127.556 21.1621 127.504 20.9002ZM120.085 22.8483C120.509 25.6346 120.098 28.4842 118.902 31.0366C117.707 33.5891 115.782 35.7299 113.37 37.1882C110.958 38.6465 108.168 39.357 105.352 39.2297C102.536 39.1024 99.8215 38.1431 97.551 36.4731C95.2805 34.8031 93.5562 32.4974 92.5961 29.8475C91.636 27.1976 91.4832 24.3225 92.1571 21.5858C92.831 18.8491 94.3013 16.3737 96.382 14.4725C98.4628 12.5713 101.061 11.3297 103.847 10.9048C105.698 10.6226 107.586 10.7077 109.403 11.1552C111.221 11.6027 112.933 12.4038 114.441 13.5129C115.949 14.622 117.224 16.0172 118.193 17.619C119.162 19.2208 119.806 20.9977 120.088 22.8483H120.085Z" fill="#91A0A8" stroke="#708693"/>
<g clip-path="url(#clip0_821_6013)">
<path d="M9.5214 64.8616C9.73895 64.8616 9.98428 64.8847 10.1787 64.8847C13.5994 64.8847 17.1959 63.2472 20.0472 60.3979C20.1264 60.3224 20.2297 60.2774 20.3389 60.2709C20.4481 60.2643 20.5561 60.2966 20.6437 60.362C20.7313 60.4274 20.793 60.5217 20.8177 60.6282C20.8424 60.7347 20.8285 60.8464 20.7786 60.9437C20.5275 61.4003 20.3778 61.9056 20.3394 62.4252C20.3011 62.9447 20.3751 63.4665 20.5564 63.955C21.3479 66.2678 24.0326 68.3539 26.347 69.3715C29.1364 70.6144 32.1482 71.2815 35.2019 71.3328C38.0763 71.3328 41.983 70.6204 44.265 67.216C44.3069 67.1524 44.364 67.1001 44.431 67.0638C44.498 67.0275 44.573 67.0082 44.6492 67.0078C44.7272 67.0102 44.8033 67.0322 44.8704 67.0719C44.9376 67.1115 44.9937 67.1674 45.0334 67.2345C46.4197 69.5808 48.3843 71.5331 50.7399 72.9055C53.0955 74.2778 55.7635 75.0244 58.4897 75.074C61.2159 75.1236 63.9094 74.4746 66.3134 73.189C68.7175 71.9033 70.7519 70.0237 72.2228 67.7294C72.2616 67.6694 72.3137 67.6191 72.3752 67.5826C72.4366 67.5461 72.5057 67.5242 72.577 67.5189C72.6483 67.5135 72.7199 67.5247 72.7861 67.5516C72.8524 67.5785 72.9115 67.6204 72.9588 67.6739C75.2084 70.2226 78.7031 71.6889 82.5404 71.6889C87.632 71.6889 92.1173 69.2651 94.2882 65.3704C94.3207 65.3112 94.3656 65.2599 94.42 65.2199C94.4744 65.18 94.5368 65.1524 94.603 65.1391C94.6685 65.1266 94.7359 65.1285 94.8006 65.1444C94.8653 65.1604 94.9258 65.1901 94.9779 65.2316C98.5884 68.0995 101.875 69.5334 105.036 69.6167H105.258C108.545 69.6167 112.489 67.6554 113.326 64.0243C113.35 63.92 113.409 63.827 113.493 63.7612C113.578 63.6955 113.682 63.6609 113.789 63.6635C114.511 63.6635 115.178 63.7052 115.821 63.7052C117.622 63.7706 119.42 63.4928 121.117 62.8864C123.121 62.0723 125.199 60.0695 125.028 57.5901C124.922 56.7346 124.52 55.9429 123.892 55.3518C123.264 54.7606 122.45 54.4071 121.589 54.3522C121.156 54.3572 120.734 54.4856 120.371 54.7223C120.288 54.7773 120.19 54.8039 120.09 54.7983C119.991 54.7927 119.895 54.7552 119.819 54.6913C119.743 54.6273 119.689 54.5404 119.666 54.4435C119.643 54.3466 119.651 54.2448 119.691 54.1533C120.266 52.8291 120.5 51.3817 120.371 49.9438C120.242 48.5058 119.754 47.1232 118.952 45.9225C118.149 44.7218 117.059 43.7414 115.779 43.071C114.5 42.4006 113.072 42.0616 111.628 42.0852C110.068 42.0721 108.535 42.4847 107.193 43.2786C107.126 43.3189 107.05 43.3414 106.971 43.3441C106.893 43.3467 106.815 43.3294 106.745 43.2938C106.675 43.2582 106.616 43.2055 106.572 43.1405C106.528 43.0755 106.501 43.0005 106.494 42.9224C106.022 37.788 102.875 32.6767 98.0931 29.2815C93.9272 26.335 88.6874 24.5681 82.4524 24.0269C81.6887 23.9575 80.9064 23.9251 80.1381 23.9251C73.8429 23.9251 65.8259 26.2703 63.9373 32.8895C63.9145 32.9692 63.8707 33.0413 63.8104 33.0982C63.7501 33.1552 63.6757 33.1949 63.5948 33.2133C63.5119 33.2345 63.4248 33.2323 63.3431 33.207C63.2614 33.1817 63.1883 33.1342 63.1319 33.0699C62.0792 31.93 60.8015 31.0205 59.3794 30.3987C57.9574 29.7769 56.4218 29.4564 54.8696 29.4573C53.9844 29.4559 53.1025 29.5662 52.245 29.7857C50.3164 30.3137 48.5644 31.3481 47.1709 32.7813C45.7774 34.2145 44.7932 35.9943 44.3206 37.936C44.3022 38.0169 44.2624 38.0913 44.2054 38.1515C44.1484 38.2117 44.0763 38.2555 43.9965 38.2783C43.9157 38.3023 43.8299 38.3037 43.7484 38.2826C43.6668 38.2614 43.5926 38.2183 43.5337 38.158C42.5221 37.1566 41.3226 36.3645 40.0041 35.8271C38.6855 35.2897 37.2738 35.0177 35.8499 35.0265C34.7149 35.0234 33.5873 35.2078 32.5125 35.5723C30.6326 36.2404 28.974 37.4147 27.7201 38.9657C26.4663 40.5167 25.6658 42.3839 25.4074 44.361C25.3964 44.4533 25.3579 44.5402 25.2968 44.6104C25.2357 44.6805 25.1549 44.7306 25.0648 44.7541C24.9742 44.7785 24.8783 44.7747 24.7898 44.7433C24.7014 44.7119 24.6245 44.6544 24.5696 44.5784C23.6504 43.3617 22.4614 42.3747 21.096 41.6949C19.7307 41.0151 18.2261 40.661 16.7006 40.6605C15.8459 40.6592 14.9952 40.7775 14.1733 41.012C12.2959 41.5977 10.6371 42.7322 9.41109 44.2691C8.18505 45.8059 7.44798 47.6746 7.29496 49.6341C7.28674 49.7511 7.23437 49.8606 7.14844 49.9405C7.06251 50.0203 6.94943 50.0646 6.83208 50.0643C5.97305 50.1231 5.13725 50.3688 4.38325 50.7843C3.62925 51.1998 2.97528 51.775 2.46714 52.4696C1.83183 53.2648 1.37594 54.1877 1.13068 55.1753C0.885413 56.1629 0.856563 57.1917 1.0461 58.1915C1.833 61.7439 5.47122 64.6164 9.5214 64.8616ZM96.9313 49.1346C99.4262 47.8394 101.768 47.6035 103.523 48.4777C104.138 48.8129 104.658 49.2976 105.036 49.887C105.414 50.4764 105.637 51.1514 105.684 51.8498C105.742 52.4943 105.598 53.1406 105.272 53.7C105.958 53.8473 106.587 54.1894 107.082 54.6853C107.535 55.115 107.88 55.6447 108.091 56.2319C108.301 56.8191 108.371 57.4475 108.295 58.0666C107.957 60.2221 105.819 61.9521 103.416 62.0076C103.293 62.0076 103.176 61.9589 103.089 61.8721C103.002 61.7854 102.953 61.6677 102.953 61.545C102.953 61.4223 103.002 61.3047 103.089 61.2179C103.176 61.1312 103.293 61.0825 103.416 61.0825C105.346 61.0362 107.119 59.6208 107.397 57.9232C107.455 57.4513 107.402 56.9724 107.241 56.5249C107.08 56.0774 106.816 55.6739 106.471 55.3467C106.204 55.0609 105.872 54.8439 105.503 54.7142C105.134 54.5846 104.738 54.5461 104.351 54.602C104.246 54.6215 104.138 54.604 104.044 54.5526C103.95 54.5012 103.877 54.4189 103.837 54.3199C103.798 54.2222 103.793 54.114 103.823 54.013C103.853 53.9121 103.917 53.8245 104.004 53.7648C104.288 53.5535 104.511 53.2712 104.65 52.9464C104.79 52.6216 104.842 52.2657 104.8 51.9146C104.764 51.3766 104.594 50.8562 104.305 50.4006C104.017 49.945 103.619 49.5687 103.148 49.3057C101.143 48.3112 98.6856 49.3057 97.3941 49.9533C97.3401 49.9814 97.281 49.9985 97.2203 50.0037C97.1596 50.0088 97.0984 50.002 97.0404 49.9835C96.9823 49.965 96.9285 49.9353 96.882 49.896C96.8354 49.8567 96.7971 49.8085 96.7693 49.7544C96.7081 49.6493 96.6908 49.5244 96.7212 49.4067C96.7515 49.2889 96.827 49.1879 96.9313 49.1253V49.1346ZM52.2682 39.3191C56.809 33.7036 65.6916 32.1124 71.9497 35.7157C72.5119 34.7504 73.4047 34.0209 74.4632 33.662C75.2733 33.3769 76.1332 33.2611 76.9899 33.3215C77.8466 33.382 78.6818 33.6175 79.4437 34.0135C81.6193 35.2023 83.2625 37.6122 84.1882 40.9797C84.2044 41.0383 84.2088 41.0995 84.2013 41.1598C84.1937 41.2202 84.1744 41.2784 84.1443 41.3313C84.1142 41.3841 84.0739 41.4305 84.0259 41.4678C83.9778 41.5051 83.9229 41.5325 83.8642 41.5486C83.8228 41.5553 83.7806 41.5553 83.7392 41.5486C83.6347 41.5522 83.5321 41.5203 83.4481 41.4581C83.364 41.396 83.3035 41.3072 83.2764 41.2063C82.6792 39.0323 81.4249 36.1552 78.9809 34.8091C78.3355 34.4721 77.6274 34.2719 76.901 34.221C76.1747 34.17 75.4456 34.2695 74.7594 34.5131C74.2693 34.671 73.8189 34.9325 73.4387 35.2796C73.0586 35.6268 72.7576 36.0516 72.5561 36.5252C72.5314 36.5878 72.4933 36.6442 72.4446 36.6905C72.3958 36.7368 72.3375 36.772 72.2738 36.7935C72.2088 36.8154 72.1399 36.8226 72.0718 36.8146C72.0038 36.8066 71.9384 36.7836 71.8803 36.7472C66.0018 33.0468 57.3367 34.4761 52.9671 39.8788C52.9315 39.9325 52.8851 39.9781 52.8309 40.0129C52.7766 40.0476 52.7157 40.0706 52.652 40.0805C52.5883 40.0903 52.5233 40.0868 52.4611 40.0701C52.3988 40.0533 52.3408 40.0238 52.2906 39.9834C52.2405 39.943 52.1993 39.8925 52.1698 39.8353C52.1403 39.7781 52.123 39.7153 52.1192 39.651C52.1153 39.5868 52.1249 39.5224 52.1474 39.462C52.1699 39.4017 52.2047 39.3467 52.2497 39.3006L52.2682 39.3191ZM52.5737 59.6347C52.6964 59.6347 52.8142 59.6834 52.901 59.7701C52.9878 59.8569 53.0366 59.9745 53.0366 60.0972C53.0366 61.3276 53.9021 62.5673 55.2213 63.2657C56.5405 63.9642 58.1699 64.0891 59.4243 64.1122C62.6984 64.1659 65.9549 63.6219 69.0336 62.5072C69.1496 62.4654 69.2775 62.4715 69.389 62.524C69.5006 62.5765 69.5867 62.6711 69.6284 62.787C69.6701 62.9029 69.6641 63.0307 69.6116 63.1422C69.5591 63.2536 69.4644 63.3397 69.3484 63.3814C66.3136 64.4804 63.1104 65.0424 59.8825 65.042H59.4196C58.0634 65.042 56.3137 64.8893 54.7909 64.0891C53.1754 63.2334 52.1247 61.6699 52.1108 60.1111C52.1089 60.0492 52.1195 59.9876 52.142 59.9298C52.1644 59.8721 52.1982 59.8194 52.2414 59.775C52.2845 59.7306 52.3362 59.6953 52.3933 59.6711C52.4504 59.647 52.5117 59.6346 52.5737 59.6347ZM20.0611 51.9099C20.1784 51.8738 20.3052 51.8857 20.4137 51.9429C20.5221 52.0001 20.6035 52.0981 20.6397 52.2152C20.9252 53.0121 21.3664 53.7443 21.9376 54.3693C22.5089 54.9942 23.1988 55.4993 23.9673 55.8553C24.7357 56.2113 25.5673 56.411 26.4138 56.4428C27.2602 56.4746 28.1044 56.3379 28.8975 56.0406C28.9536 56.0162 29.0141 56.0032 29.0753 56.0024C29.1366 56.0015 29.1974 56.0129 29.2542 56.0357C29.311 56.0585 29.3628 56.0923 29.4064 56.1352C29.4501 56.1782 29.4847 56.2293 29.5085 56.2857C29.5562 56.3986 29.5573 56.5258 29.5113 56.6394C29.4653 56.753 29.376 56.8438 29.2631 56.8917C28.4597 57.2329 27.5949 57.4061 26.7219 57.4005C25.6354 57.3949 24.563 57.1535 23.579 56.6928C22.6826 56.2985 21.8791 55.7205 21.2205 54.9962C20.5619 54.2719 20.0628 53.4174 19.7556 52.4881C19.7195 52.371 19.7313 52.2443 19.7886 52.1358C19.8459 52.0274 19.9439 51.9462 20.0611 51.9099Z" fill="white"/>
<path d="M26.4998 56.4708C25.385 56.2098 24.2911 55.8666 23.2272 55.4439C23.4662 55.5947 23.7135 55.7322 23.9678 55.8556C24.7625 56.2267 25.6233 56.4359 26.4998 56.4708Z" fill="#C7EAFB"/>
<path d="M9.46586 65.7867C9.70192 65.7867 9.92873 65.8098 10.1787 65.8098C13.3448 65.8098 16.659 64.5146 19.4362 62.2111C19.3742 62.9014 19.461 63.597 19.6908 64.251C20.6166 67.0263 23.6716 69.1957 25.986 70.218C28.902 71.5165 32.0514 72.2105 35.2435 72.2579C39.4094 72.2579 42.6496 70.8933 44.6585 68.2984C46.1879 70.5985 48.2472 72.4983 50.6635 73.8384C53.0797 75.1786 55.7825 75.9198 58.5448 76H58.8086C61.5327 75.9636 64.2098 75.2858 66.6226 74.0216C69.0354 72.7573 71.1158 70.9423 72.695 68.7239C75.1251 71.2033 78.6846 72.614 82.5635 72.614C87.7756 72.614 92.4275 70.1995 94.8483 66.2862C98.4541 69.0616 101.791 70.4493 105.032 70.5418H105.277C108.809 70.5418 113.039 68.4603 114.155 64.5979C114.738 64.5979 115.284 64.6303 115.844 64.6303C117.766 64.697 119.683 64.3955 121.492 63.7422C123.806 62.8171 126.176 60.4626 125.977 57.5254C125.852 56.437 125.345 55.4282 124.546 54.6786C123.746 53.9289 122.707 53.4871 121.612 53.4317C121.364 53.431 121.117 53.4589 120.876 53.515C121.317 52.0758 121.411 50.5527 121.151 49.0702C120.89 47.5877 120.283 46.1877 119.378 44.9844C118.473 43.7811 117.297 42.8087 115.944 42.1465C114.591 41.4843 113.101 41.151 111.595 41.1739C110.108 41.1651 108.639 41.5024 107.304 42.1592C106.61 36.9785 103.402 31.9227 98.6161 28.5229C94.3392 25.4793 88.9235 23.6568 82.5219 23.0971C81.7304 23.0277 80.9157 22.9954 80.1103 22.9954C73.7318 22.9954 65.6546 25.3405 63.2708 31.8811C60.9993 29.7329 57.9923 28.5333 54.8649 28.5276C53.9014 28.5255 52.9416 28.6468 52.009 28.8884C50.0464 29.4254 48.2499 30.4456 46.7838 31.8557C45.3178 33.2658 44.229 35.0207 43.617 36.96C41.4569 35.1031 38.6993 34.0866 35.8499 34.0968C34.6139 34.0923 33.3859 34.294 32.2163 34.6935C30.3374 35.3632 28.6588 36.4975 27.337 37.9906C26.0153 39.4837 25.0934 41.287 24.6575 43.2323C23.6402 42.1349 22.4073 41.2592 21.0357 40.6598C19.6642 40.0605 18.1837 39.7505 16.6868 39.7492C15.7473 39.7475 14.8123 39.8783 13.9095 40.1378C11.9203 40.761 10.1536 41.9451 8.82167 43.5476C7.48978 45.1502 6.64942 47.1031 6.4016 49.1716C5.48678 49.2945 4.60586 49.5993 3.81086 50.068C3.01586 50.5368 2.32288 51.1599 1.77282 51.9007C1.05625 52.8018 0.54265 53.8468 0.267057 54.9644C-0.00853561 56.082 -0.03963 57.2458 0.175896 58.3765C1.0137 62.3267 5.01297 65.5138 9.46586 65.7867ZM2.48566 52.4604C2.99379 51.7657 3.64777 51.1905 4.40177 50.775C5.15577 50.3595 5.99156 50.1138 6.85059 50.0551C6.96794 50.0553 7.08102 50.0111 7.16695 49.9312C7.25289 49.8514 7.30526 49.7419 7.31347 49.6249C7.46922 47.6723 8.20492 45.8107 9.42627 44.2787C10.6476 42.7466 12.299 41.614 14.1687 41.0259C14.9876 40.7923 15.8351 40.6739 16.6868 40.6744C18.2122 40.6749 19.7168 41.029 21.0822 41.7088C22.4475 42.3886 23.6365 43.3756 24.5557 44.5922C24.6107 44.6683 24.6875 44.7258 24.7759 44.7572C24.8644 44.7886 24.9603 44.7924 25.051 44.768C25.141 44.7445 25.2218 44.6944 25.2829 44.6242C25.344 44.5541 25.3826 44.4672 25.3935 44.3748C25.652 42.3977 26.4524 40.5306 27.7063 38.9796C28.9602 37.4286 30.6187 36.2542 32.4987 35.5862C33.5734 35.2217 34.7011 35.0372 35.836 35.0404C37.2613 35.0279 38.6751 35.2968 39.9961 35.8319C41.317 36.3669 42.5193 37.1574 43.5337 38.158C43.5926 38.2183 43.6668 38.2614 43.7484 38.2825C43.8299 38.3037 43.9157 38.3023 43.9966 38.2783C44.0763 38.2555 44.1484 38.2117 44.2054 38.1515C44.2624 38.0913 44.3022 38.0168 44.3206 37.936C44.7932 35.9943 45.7774 34.2145 47.1709 32.7813C48.5644 31.348 50.3164 30.3137 52.245 29.7857C53.1025 29.5662 53.9844 29.4559 54.8696 29.4573C56.4218 29.4564 57.9574 29.7769 59.3794 30.3987C60.8015 31.0205 62.0792 31.93 63.1319 33.0699C63.1883 33.1342 63.2614 33.1816 63.3431 33.207C63.4248 33.2323 63.5119 33.2345 63.5948 33.2133C63.6757 33.1949 63.7502 33.1552 63.8104 33.0982C63.8707 33.0413 63.9145 32.9692 63.9373 32.8895C65.8166 26.2703 73.8337 23.9251 80.1381 23.9251C80.9203 23.9251 81.7026 23.9575 82.4524 24.0269C88.6874 24.5681 93.9503 26.3397 98.0931 29.2815C102.875 32.6767 106.022 37.788 106.485 42.9409C106.492 43.019 106.519 43.094 106.562 43.159C106.606 43.224 106.666 43.2767 106.736 43.3123C106.806 43.3479 106.884 43.3652 106.962 43.3625C107.04 43.3599 107.117 43.3373 107.184 43.2971C108.526 42.5032 110.059 42.0906 111.618 42.1037C113.063 42.0801 114.49 42.4191 115.77 43.0895C117.049 43.7599 118.14 44.7403 118.942 45.941C119.745 47.1417 120.233 48.5243 120.362 49.9622C120.491 51.4002 120.257 52.8476 119.682 54.1718C119.646 54.2636 119.641 54.3642 119.667 54.459C119.693 54.5539 119.748 54.6381 119.825 54.6995C119.902 54.7608 119.996 54.7961 120.094 54.8002C120.193 54.8043 120.29 54.777 120.371 54.7223C120.748 54.472 121.192 54.3399 121.644 54.343C122.505 54.3979 123.32 54.7514 123.948 55.3425C124.576 55.9337 124.977 56.7254 125.083 57.5809C125.255 60.0602 123.176 62.0631 121.172 62.8772C119.475 63.4835 117.678 63.7614 115.877 63.6959C115.215 63.6959 114.567 63.6959 113.845 63.6543C113.738 63.6517 113.633 63.6862 113.549 63.752C113.464 63.8178 113.405 63.9107 113.382 64.0151C112.544 67.6462 108.6 69.6074 105.314 69.6074H105.092C101.93 69.5242 98.6439 68.0902 95.0335 65.2224C94.9813 65.1809 94.9208 65.1511 94.8561 65.1352C94.7914 65.1192 94.724 65.1174 94.6585 65.1298C94.5924 65.1431 94.5299 65.1707 94.4755 65.2107C94.4212 65.2506 94.3762 65.302 94.3438 65.3611C92.1729 69.2559 87.6737 71.6797 82.5959 71.6797C78.7587 71.6797 75.264 70.2134 73.0144 67.6647C72.967 67.6111 72.9079 67.5692 72.8417 67.5423C72.7755 67.5154 72.7039 67.5042 72.6326 67.5096C72.5613 67.515 72.4922 67.5368 72.4307 67.5733C72.3693 67.6099 72.3171 67.6601 72.2784 67.7202C70.8075 70.0145 68.773 71.894 66.369 73.1797C63.965 74.4654 61.2715 75.1143 58.5453 75.0647C55.8191 75.0151 53.151 74.2685 50.7955 72.8962C48.4399 71.5239 46.4753 69.5715 45.0889 67.2252C45.0492 67.1582 44.9931 67.1022 44.926 67.0626C44.8588 67.023 44.7827 67.001 44.7048 66.9986C44.6285 66.999 44.5536 67.0182 44.4865 67.0545C44.4195 67.0908 44.3625 67.1431 44.3206 67.2067C42.0386 70.6112 38.1319 71.3235 35.2574 71.3235C32.1975 71.2747 29.1791 70.6075 26.384 69.3623C24.0697 68.3446 21.385 66.2724 20.5934 63.9457C20.4121 63.4572 20.3381 62.9355 20.3765 62.4159C20.4148 61.8963 20.5646 61.3911 20.8156 60.9344C20.8655 60.8372 20.8794 60.7254 20.8547 60.6189C20.83 60.5124 20.7684 60.4181 20.6807 60.3527C20.5931 60.2873 20.4851 60.255 20.3759 60.2616C20.2668 60.2682 20.1634 60.3132 20.0843 60.3886C17.2329 63.238 13.6364 64.8754 10.2157 64.8754C9.99816 64.8754 9.75284 64.8754 9.55843 64.8523C5.50825 64.6072 1.87003 61.7347 1.10165 58.173C0.908395 57.1773 0.931977 56.1517 1.1708 55.166C1.40961 54.1802 1.85807 53.2574 2.48566 52.4604Z" fill="#6FBAE7"/>
<path d="M52.9856 39.9204C57.3552 34.5177 66.0203 33.0838 71.8988 36.7889C71.9569 36.8252 72.0223 36.8482 72.0903 36.8562C72.1584 36.8642 72.2274 36.857 72.2923 36.8351C72.356 36.8136 72.4143 36.7785 72.4631 36.7321C72.5118 36.6858 72.5499 36.6294 72.5746 36.5668C72.7761 36.0932 73.0771 35.6684 73.4572 35.3213C73.8374 34.9741 74.2878 34.7127 74.7779 34.5547C75.4641 34.3111 76.1932 34.2116 76.9196 34.2626C77.6459 34.3135 78.354 34.5138 78.9994 34.8508C81.4665 36.1968 82.7024 39.0739 83.2949 41.2479C83.322 41.3489 83.3825 41.4376 83.4666 41.4998C83.5506 41.5619 83.6533 41.5938 83.7578 41.5902C83.7991 41.597 83.8414 41.597 83.8827 41.5902C83.9414 41.5742 83.9964 41.5467 84.0444 41.5094C84.0925 41.4721 84.1327 41.4257 84.1628 41.3729C84.1929 41.3201 84.2122 41.2618 84.2198 41.2015C84.2273 41.1411 84.2229 41.0799 84.2067 41.0213C83.281 37.6539 81.6378 35.2439 79.4623 34.0552C78.7003 33.6592 77.8651 33.4237 77.0085 33.3632C76.1518 33.3027 75.2918 33.4186 74.4817 33.7036C73.4232 34.0625 72.5304 34.792 71.9683 35.7574C65.724 32.154 56.8275 33.7452 52.2867 39.3607C52.2299 39.4029 52.1836 39.4576 52.1512 39.5205C52.1189 39.5834 52.1014 39.6528 52.1002 39.7235C52.0989 39.7942 52.1139 39.8643 52.1439 39.9283C52.174 39.9923 52.2183 40.0486 52.2735 40.0928C52.3287 40.137 52.3934 40.168 52.4624 40.1834C52.5315 40.1987 52.6032 40.198 52.6719 40.1814C52.7407 40.1647 52.8048 40.1326 52.8591 40.0873C52.9135 40.0421 52.9568 39.985 52.9856 39.9204Z" fill="#6FBAE7"/>
<path d="M97.3571 49.9441C98.6486 49.2734 101.106 48.302 103.111 49.2965C103.582 49.5595 103.98 49.9358 104.268 50.3914C104.557 50.847 104.727 51.3674 104.763 51.9053C104.805 52.2564 104.753 52.6123 104.613 52.9371C104.474 53.262 104.251 53.5442 103.967 53.7555C103.88 53.8153 103.816 53.9028 103.786 54.0038C103.756 54.1047 103.761 54.213 103.8 54.3106C103.84 54.4097 103.913 54.4919 104.007 54.5433C104.101 54.5948 104.209 54.6122 104.314 54.5928C104.701 54.5368 105.097 54.5753 105.466 54.705C105.835 54.8347 106.167 55.0517 106.434 55.3375C106.779 55.6647 107.043 56.0682 107.204 56.5157C107.365 56.9631 107.418 57.4421 107.36 57.914C107.096 59.6115 105.309 61.027 103.379 61.0732C103.256 61.0732 103.139 61.122 103.052 61.2087C102.965 61.2955 102.916 61.4131 102.916 61.5358C102.916 61.6585 102.965 61.7761 103.052 61.8629C103.139 61.9496 103.256 61.9983 103.379 61.9983C105.782 61.9428 107.92 60.2129 108.258 58.0573C108.334 57.4382 108.264 56.8099 108.054 56.2227C107.843 55.6355 107.498 55.1058 107.045 54.676C106.55 54.1802 105.921 53.838 105.235 53.6908C105.561 53.1314 105.705 52.485 105.647 51.8406C105.6 51.1422 105.377 50.4671 104.999 49.8777C104.621 49.2883 104.101 48.8036 103.486 48.4685C101.731 47.5943 99.3892 47.8302 96.8942 49.1253C96.786 49.1816 96.7044 49.2783 96.6672 49.3943C96.6299 49.5104 96.64 49.6365 96.6952 49.7452C96.7228 49.8043 96.7625 49.8569 96.8119 49.8996C96.8612 49.9423 96.919 49.9741 96.9815 49.9929C97.0441 50.0117 97.1098 50.017 97.1746 50.0086C97.2393 50.0002 97.3015 49.9782 97.3571 49.9441Z" fill="#6FBAE7"/>
<path d="M23.579 56.6928C24.563 57.1535 25.6354 57.3949 26.7219 57.4005C27.5949 57.4061 28.4597 57.2329 29.2631 56.8917C29.376 56.8438 29.4653 56.753 29.5113 56.6394C29.5573 56.5258 29.5563 56.3986 29.5085 56.2857C29.4847 56.2293 29.4501 56.1782 29.4064 56.1352C29.3628 56.0923 29.311 56.0585 29.2542 56.0357C29.1974 56.0129 29.1366 56.0016 29.0753 56.0024C29.0141 56.0032 28.9537 56.0162 28.8975 56.0406C28.1044 56.3379 27.2602 56.4746 26.4138 56.4428C25.5674 56.411 24.7357 56.2113 23.9673 55.8553C23.1988 55.4993 22.5089 54.9942 21.9376 54.3693C21.3664 53.7443 20.9252 53.0121 20.6397 52.2152C20.6007 52.1015 20.5189 52.0075 20.4117 51.953C20.3045 51.8985 20.1802 51.8879 20.0653 51.9233C19.9503 51.9588 19.8537 52.0376 19.7959 52.143C19.7381 52.2485 19.7237 52.3722 19.7556 52.4881C20.0628 53.4174 20.5619 54.2719 21.2205 54.9962C21.8791 55.7205 22.6826 56.2985 23.579 56.6928Z" fill="#6FBAE7"/>
<path d="M54.7909 64.0799C56.3045 64.8801 58.0542 65.005 59.4196 65.0327H59.8825C63.1104 65.0331 66.3136 64.4712 69.3484 63.3722C69.4644 63.3304 69.5591 63.2444 69.6116 63.1329C69.6641 63.0214 69.6702 62.8937 69.6284 62.7778C69.5867 62.6618 69.5006 62.5672 69.389 62.5147C69.2775 62.4623 69.1496 62.4562 69.0336 62.4979C65.9549 63.6127 62.6984 64.1566 59.4243 64.103C58.1699 64.103 56.5637 63.9642 55.2213 63.2565C53.879 62.5488 53.0458 61.3184 53.0365 60.088C53.0365 59.9653 52.9878 59.8477 52.901 59.7609C52.8142 59.6742 52.6964 59.6254 52.5737 59.6254C52.4509 59.6254 52.3332 59.6742 52.2464 59.7609C52.1596 59.8477 52.1108 59.9653 52.1108 60.088C52.1247 61.6607 53.1754 63.2241 54.7909 64.0799Z" fill="#6FBAE7"/>
</g>
<defs>
<clipPath id="clip0_821_6013">
<rect width="126" height="53" fill="white" transform="translate(0 23)"/>
</clipPath>
</defs>
</svg>
