<svg width="30" height="30" viewBox="0 0 30 30" fill="none" xmlns="http://www.w3.org/2000/svg">
<path d="M15.7593 2.5363C15.6713 2.43079 15.5612 2.34591 15.4368 2.28766C15.3123 2.22941 15.1766 2.19922 15.0393 2.19922C14.9019 2.19922 14.7662 2.22941 14.6418 2.28766C14.5173 2.34591 14.4072 2.43079 14.3193 2.5363C12.3674 4.88005 8.50301 7.67005 6.27926 8.9113C6.15282 8.98211 6.04452 9.08127 5.96286 9.20099C5.8812 9.32071 5.82841 9.45773 5.80863 9.6013L4.03113 22.4994H2.78613C2.53749 22.4994 2.29904 22.5982 2.12322 22.774C1.9474 22.9498 1.84863 23.1883 1.84863 23.4369C1.84863 23.6856 1.9474 23.924 2.12322 24.0998C2.29904 24.2756 2.53749 24.3744 2.78613 24.3744H27.1874C27.436 24.3744 27.6745 24.2756 27.8503 24.0998C28.0261 23.924 28.1249 23.6856 28.1249 23.4369C28.1249 23.1883 28.0261 22.9498 27.8503 22.774C27.6745 22.5982 27.436 22.4994 27.1874 22.4994H26.0493L24.2718 9.6013C24.2518 9.45756 24.1987 9.32043 24.1167 9.20069C24.0347 9.08096 23.926 8.98189 23.7993 8.9113C21.5774 7.67005 17.713 4.88005 15.7593 2.5363ZM11.1449 22.4994C12.4499 20.5738 13.7886 18.1157 15.0055 14.3582C16.1118 17.7613 17.3418 20.1857 18.868 22.4994H11.143H11.1449Z" fill="#595A7E"/>
</svg>
