<svg width="145" height="177" viewBox="0 0 145 177" fill="none" xmlns="http://www.w3.org/2000/svg">
<g filter="url(#filter0_d_686_6185)">
<rect width="83" height="83" rx="21" transform="matrix(-1 0 0 1 125 59.2891)" fill="white"/>
<rect x="-1" y="1" width="81" height="81" rx="20" transform="matrix(-1 0 0 1 123 59.2891)" stroke="#7FC6A6" stroke-width="2"/>
</g>
<path d="M101.05 114.334C101.015 114.396 100.961 114.446 100.896 114.477C100.831 114.507 100.758 114.517 100.687 114.504L96.5541 113.75C95.2096 115.217 93.6348 116.454 91.8918 117.414L91.6441 121.605C91.6399 121.677 91.6134 121.746 91.5683 121.802C91.5232 121.858 91.4617 121.898 91.3925 121.918L86.5395 123.276C86.4704 123.296 86.3969 123.293 86.3294 123.269C86.2619 123.244 86.2036 123.199 86.1628 123.14L83.7743 119.687C81.7865 119.772 79.7982 119.532 77.8875 118.977L74.7464 121.767C74.6927 121.815 74.6255 121.845 74.5541 121.852C74.4826 121.86 74.4106 121.845 74.348 121.81L69.9555 119.339C69.8929 119.304 69.8428 119.25 69.8123 119.185C69.7818 119.12 69.7723 119.047 69.7852 118.976L70.5388 114.843C69.0723 113.498 67.8349 111.924 66.8752 110.181L62.6836 109.933C62.6119 109.929 62.5434 109.902 62.4874 109.857C62.4315 109.812 62.391 109.751 62.3715 109.682L61.0127 104.828C60.9934 104.759 60.9961 104.686 61.0206 104.618C61.045 104.55 61.0899 104.492 61.1491 104.451L64.6023 102.063C64.517 100.075 64.7564 98.0869 65.3111 96.1762L62.5207 93.0351C62.473 92.9813 62.4433 92.9141 62.4356 92.8427C62.428 92.7713 62.4428 92.6992 62.478 92.6366L64.9489 88.2444C64.9841 88.1817 65.038 88.1316 65.103 88.101C65.168 88.0704 65.241 88.0609 65.3117 88.0738L69.445 88.8277C70.7898 87.3609 72.365 86.1234 74.1084 85.1641L74.3562 80.9725C74.3604 80.9008 74.3868 80.8322 74.4319 80.7763C74.4769 80.7204 74.5383 80.68 74.6075 80.6606L79.4607 79.3019C79.5299 79.2825 79.6034 79.2852 79.6709 79.3096C79.7384 79.3339 79.7967 79.3788 79.8375 79.4379L82.226 82.8897C84.2138 82.8048 86.2021 83.0447 88.1127 83.5999L91.2538 80.8095C91.3075 80.7618 91.3747 80.732 91.4462 80.7243C91.5176 80.7166 91.5896 80.7313 91.6523 80.7665L96.0445 83.2375C96.1071 83.2727 96.1572 83.3266 96.1877 83.3916C96.2183 83.4566 96.2279 83.5295 96.215 83.6002L95.4615 87.7336C96.9281 89.0781 98.1655 90.6529 99.1251 92.3959L103.317 92.6437C103.388 92.6479 103.457 92.6744 103.513 92.7195C103.569 92.7646 103.609 92.826 103.628 92.8952L104.987 97.7482C105.007 97.8174 105.004 97.8909 104.98 97.9585C104.955 98.0261 104.91 98.0844 104.851 98.1253L101.399 100.513C101.484 102.502 101.244 104.49 100.688 106.401L103.478 109.543C103.526 109.596 103.556 109.663 103.563 109.735C103.571 109.806 103.556 109.878 103.521 109.941L101.05 114.334Z" fill="url(#paint0_linear_686_6185)"/>
<path d="M83.9083 106.49C86.4435 106.049 88.3464 103.8 88.2785 101.152C88.2607 100.459 88.1065 99.7758 87.8247 99.1421C87.543 98.5085 87.1392 97.9366 86.6364 97.4591C86.1336 96.9816 85.5417 96.6078 84.8944 96.3591C84.2471 96.1104 83.5572 95.9916 82.8641 96.0096C79.9527 96.0844 77.6472 98.5132 77.722 101.424C77.7399 102.117 77.894 102.8 78.1758 103.433C78.4575 104.067 78.8613 104.639 79.364 105.116C79.8667 105.594 80.4586 105.968 81.1058 106.216C81.7529 106.465 82.4428 106.584 83.1359 106.566C83.3949 106.56 83.6531 106.534 83.9083 106.49ZM82.3776 97.7461C82.5531 97.7157 82.7305 97.6982 82.9085 97.6936C83.3828 97.6776 83.8556 97.7556 84.2995 97.9232C84.7435 98.0908 85.15 98.3447 85.4954 98.6702C85.8408 98.9956 86.1183 99.3863 86.312 99.8196C86.5057 100.253 86.6117 100.72 86.6239 101.195C86.6361 101.669 86.5542 102.141 86.3831 102.584C86.2119 103.027 85.9548 103.431 85.6265 103.774C85.2983 104.117 84.9055 104.391 84.4707 104.581C84.0359 104.771 83.5677 104.874 83.0932 104.882C82.1884 104.901 81.3096 104.579 80.632 103.979C79.9544 103.379 79.5279 102.545 79.4376 101.645C79.3473 100.744 79.5998 99.8423 80.1448 99.1197C80.6897 98.397 81.487 97.9063 82.3776 97.7456V97.7461Z" fill="white"/>
<circle r="5" transform="matrix(-1 0 0 1 83 101.289)" fill="white"/>
<g filter="url(#filter1_d_686_6185)">
<rect width="90" height="90" rx="21" transform="matrix(-1 0 0 1 125 55)" fill="#73BCFF"/>
</g>
<path d="M73.1643 121.904C68.4048 122.09 64.7368 123.059 64.7269 125.586L79.7487 122.033L80.3934 121.881L84.178 122.415L94.4757 123.866C94.4757 123.866 90.548 129.229 87.8635 129.402C85.1789 129.574 78.3073 127.741 78.3073 127.741L73.9929 128.198C73.9929 128.198 64.8206 129.89 64.813 134.362C64.8141 134.574 64.8095 134.771 64.8022 134.957C64.8914 140.214 65.0139 144.872 65.0139 144.872L64.0626 144.875C64.0626 144.875 62.9152 133.247 63.7645 125.592C64.0687 122.966 68.1317 122.033 73.1643 121.904Z" fill="#F48E5B"/>
<path d="M93.4355 144.828L76.2033 144.857L93.4355 144.828Z" fill="#D68265"/>
<path d="M94.4727 123.879L84.175 122.428C89.8144 123.01 94.4727 123.879 94.4727 123.879Z" fill="#F5BC8F"/>
<path d="M64.7302 125.592C64.7344 123.07 68.4052 122.093 73.1675 121.91C75.3635 121.841 77.5611 121.884 79.752 122.039L64.7302 125.592Z" fill="#F5BC8F"/>
<path d="M64.8297 134.371C64.8372 129.888 74.0095 128.206 74.0095 128.206L78.324 127.749C78.324 127.749 85.1969 129.584 87.8801 129.41C90.5633 129.236 94.4923 123.875 94.4923 123.875C94.4923 123.875 92.4061 131.416 92.9017 134.937C93.3974 138.458 94.3967 144.83 94.3967 144.83L93.4455 144.833L76.2146 144.86L65.0459 144.879C65.0459 144.879 64.9235 140.221 64.8343 134.965C64.8304 134.776 64.8363 134.58 64.8297 134.371Z" fill="#FCC99F"/>
<path d="M69.1163 126.773L91.9601 123.834C93.2505 123.668 94.4609 123.113 95.4306 122.243C96.4003 121.374 97.0833 120.23 97.3888 118.965L101.402 102.411C101.738 101.031 101.605 99.579 101.026 98.2847C101.026 98.2847 98.3205 95.6751 94.8142 87.1279C92.1674 80.678 89.2952 79.0829 84.2673 78.9331L60.1163 85.2012C56.9316 86.19 55.3542 91.9466 56.0716 95.19L62.0623 121.796C63.0883 124.837 66.3896 126.949 69.1163 126.773Z" fill="#FCC99F"/>
<path d="M80.1563 125.26C80.1563 125.26 74.6103 109.969 66.235 103.443C57.8597 96.9174 56.6856 97.7558 56.6856 97.7558C56.6856 97.7558 59.5131 122.574 64.7782 125.748C70.0434 128.922 80.1563 125.26 80.1563 125.26Z" fill="#FFD3AB"/>
<path d="M95.1411 96.6376C95.1411 96.6376 84.9308 104.051 81.9286 108.096C78.9265 112.142 77.9866 121.205 77.9866 121.205C77.9866 121.205 70.1488 104.947 62.4032 105.49L60.8302 99.51L69.2878 92.1069C69.2878 92.1069 76.2729 88.9289 82.9553 89.9726C89.6964 91.033 95.1411 96.6376 95.1411 96.6376Z" fill="#FCC99F"/>
<path d="M98.9393 95.0643C98.9393 95.0643 87.5874 97.3754 82.8777 105.433C78.168 113.491 77.9869 121.208 77.9869 121.208L98.66 96.1828L98.9393 95.0643Z" fill="#F48E5B"/>
<path d="M98.4516 118.99C98.4516 118.99 103.998 109.248 106.191 104.722C108.582 99.7681 107.518 91.0221 99.6482 94.7802C91.7781 98.5383 86.8495 101.794 81.1886 112.311C76.3147 121.381 78.4829 125.062 81.1646 126.568C84.8219 128.619 93.0699 128.391 98.4516 118.99Z" fill="#FFD3AB"/>
<path d="M99.6717 94.8361C99.6717 94.8361 99.3638 78.064 108.431 75.5283C117.498 72.9927 108.923 82.0687 108.916 85.0878C108.91 88.107 110.505 96.1124 107.43 100.667C104.356 105.221 99.6717 94.8361 99.6717 94.8361Z" fill="#FFD3AB"/>
<path d="M72.0055 85.486C72.0025 85.5429 71.993 85.5993 71.9772 85.6541C71.9547 85.7214 71.9239 85.7243 71.8875 85.6711C71.9494 85.5533 71.9803 85.4832 71.9803 85.4832L72.0055 85.486Z" fill="#D68265"/>
<path d="M64.6211 89.0664C64.629 89.397 64.5783 89.54 64.4231 89.3568C64.3666 89.2809 64.321 89.1975 64.2876 89.109C64.3759 89.0542 64.4236 89.0205 64.4236 89.0205C64.4236 89.0205 64.4951 89.0442 64.6211 89.0664Z" fill="#D68265"/>
<path d="M64.1623 127.121C58.0124 124.339 56.3049 104.208 56.3049 104.208L55.5247 99.9535C55.5247 99.9535 56.6367 97.6974 56.8259 97.6677C57.3609 101.919 60.1568 123.009 64.8635 125.849L64.1623 127.121Z" fill="#F48E5B"/>
<path d="M55.908 91.9822C55.908 91.9822 56.2072 95.6495 56.5598 97.5935C56.7874 98.8428 55.6123 99.5228 55.6123 99.5228L55.0373 92.3689L55.908 91.9822Z" fill="#D68265"/>
<path d="M56.5143 85.3151C56.5143 85.3151 51.2534 86.2878 53.4636 94.9282C55.6738 103.569 56.7792 104.365 56.7792 104.365L59.622 92.6132L56.5143 85.3151Z" fill="#F48E5B"/>
<path d="M57.2169 85.0997C57.2169 85.0997 52.6141 86.2507 54.6024 94.4109C56.5906 102.571 57.7495 104.086 57.7495 104.086L60.1428 92.2244L57.2169 85.0997Z" fill="#F5BC8F"/>
<path d="M39.2616 39.131C37.9493 37.8187 35.8082 37.8098 34.6199 39.2354C30.3905 44.3093 27.5782 50.4379 26.5033 56.9964C25.2466 64.664 26.4279 72.5326 29.8808 79.4931C33.3337 86.4536 38.8839 92.155 45.7492 95.7935C52.6145 99.432 60.4485 100.824 68.1471 99.774C75.8457 98.7236 83.0205 95.2837 88.6601 89.9391C94.2998 84.5945 98.12 77.6147 99.5821 69.9837C101.044 62.3526 100.075 54.4551 96.8099 47.4044C94.0174 41.3735 89.6661 36.2223 84.2321 32.4667C82.7054 31.4115 80.6449 31.9937 79.7321 33.6096V33.6096C78.8193 35.2255 79.4027 37.2609 80.908 38.3465C85.1265 41.3886 88.5101 45.4747 90.7111 50.2283C93.3847 56.0023 94.1787 62.4697 92.9814 68.7189C91.784 74.9682 88.6556 80.6841 84.0371 85.0609C79.4187 89.4377 73.5431 92.2547 67.2386 93.1148C60.9341 93.975 54.5186 92.8348 48.8965 89.8552C43.2744 86.8755 38.7292 82.2065 35.9015 76.5064C33.0739 70.8063 32.1065 64.3626 33.1356 58.0834C33.9828 52.914 36.1481 48.0708 39.3975 44.0098C40.557 42.5607 40.5739 40.4433 39.2616 39.131V39.131Z" fill="url(#paint1_linear_686_6185)"/>
<path d="M77.2758 32.682C78.0995 30.9088 77.3338 28.7862 75.4903 28.1351C70.0579 26.2166 64.237 25.5837 58.4889 26.3082C52.7409 27.0328 47.2591 29.0905 42.4728 32.2971C40.8485 33.3854 40.6335 35.6316 41.8715 37.1448V37.1448C43.1095 38.6581 45.3304 38.8612 46.9788 37.8098C50.7159 35.426 54.9476 33.8909 59.3744 33.3329C63.8012 32.7749 68.2815 33.2118 72.4933 34.5936C74.351 35.203 76.4521 34.4552 77.2758 32.682V32.682Z" fill="#D9D9D9"/>
<path d="M83.2144 86.8872C83.2144 86.8872 87.6121 96.2372 81.9517 98.2665C76.9664 100.052 73.7862 90.0914 73.1497 88.6994C72.457 87.1774 69.1973 80.9269 68.9288 79.9885C68.3178 77.8186 67.4548 73.5442 71.3869 71.7764C73.7271 70.7209 76.8319 71.9309 78.4217 74.3505C81.3075 78.7313 81.5511 82.6927 83.2144 86.8872Z" fill="#F48E5B"/>
<path d="M92.3428 85.1902C92.3428 85.1902 94.7764 92.8109 89.7762 94.4809C84.5972 96.2148 81.6401 86.4475 81.111 85.0214C80.5819 83.5952 76.8503 75.7691 77.2242 73.0862C77.9246 68.0366 82.9818 65.664 86.1987 69.0351C89.6397 72.6684 90.4717 76.3201 92.3428 85.1902Z" fill="#F48E5B"/>
<path d="M90.9466 82.6132C90.9466 82.6132 94.1808 91.6187 90.0458 92.8733C85.9107 94.128 84.9297 88.2886 84.3944 86.8576C83.8592 85.4265 79.4767 74.3487 79.3459 71.6451C79.2152 68.9415 84.3649 67.0079 86.6135 70.1224C89.4147 74.0125 89.5696 78.3107 90.9466 82.6132Z" fill="#FFD3AB"/>
<path d="M71.7457 85.6683C71.7457 85.6683 69.6408 77.8793 65.7334 76.8385C62.0751 75.8649 59.2567 79.0162 59.104 80.7141C58.8987 82.9842 59.488 83.9755 60.2556 86.4806C60.9762 88.8149 63.2055 88.7706 63.625 89.5778C65.5768 93.3351 65.9676 94.8923 67.8929 98.197C68.7696 99.6996 70.43 102.755 73.7304 101.625C76.3379 100.731 77.7351 97.909 75.3765 92.5668C73.7464 88.858 73.1245 88.2249 71.7457 85.6683Z" fill="#F48E5B"/>
<path d="M57.0801 85.2674C60.2701 83.8097 62.4699 86.1511 64.1723 89.1314C65.8746 92.1117 68.0199 97.7634 68.7336 100.11C69.4472 102.456 67.8759 104.579 65.8256 104.706C63.5107 104.849 62.2444 103.356 61.2794 101.582C60.3514 99.8823 59.3161 97.6792 58.8239 96.734C58.1221 95.3867 57.4065 94.2329 56.2219 92.2709C54.7524 89.8424 53.6185 86.8497 57.0801 85.2674Z" fill="#F48E5B"/>
<path d="M57.4925 85.8594C60.0126 84.5112 62.1614 86.7543 63.6132 89.5956C65.065 92.4369 66.9549 97.0696 67.5916 99.29C68.2283 101.51 66.5711 102.891 64.9324 102.991C63.0809 103.105 62.4749 102.295 61.6567 100.606C60.8789 98.9842 59.9804 96.8887 59.5643 95.9908C58.9691 94.7096 58.3667 93.607 57.3711 91.7406C56.1198 89.4282 54.7585 87.3197 57.4925 85.8594Z" fill="#FFD3AB"/>
<path d="M71.778 85.2601C71.778 85.2601 68.1391 76.8427 64.5071 77.4578C61.5934 77.9435 60.5892 79.2393 60.2952 80.8033C59.8563 83.1018 63.7124 87.4934 64.4129 88.8776C66.1891 92.4008 65.7316 92.0258 67.4861 95.1254C68.2826 96.5346 70.6933 100.931 73.1499 100.217C75.5577 99.5199 76.8874 97.2151 74.7389 92.2073C73.2495 88.7355 73.0336 87.6566 71.778 85.2601Z" fill="#FFD3AB"/>
<path d="M82.2723 86.0951C82.2723 86.0951 86.1164 94.8532 82.0782 96.391C78.04 97.9289 76.4642 91.7707 75.8308 90.3812C75.1975 88.9916 70.2602 78.6415 69.9452 75.9546C69.6302 73.2677 73.8083 70.1859 77.0895 73.9359C80.2464 77.5402 80.6055 81.8955 82.2723 86.0951Z" fill="#FFD3AB"/>
<defs>
<filter id="filter0_d_686_6185" x="22" y="43.2891" width="123" height="123" filterUnits="userSpaceOnUse" color-interpolation-filters="sRGB">
<feFlood flood-opacity="0" result="BackgroundImageFix"/>
<feColorMatrix in="SourceAlpha" type="matrix" values="0 0 0 0 0 0 0 0 0 0 0 0 0 0 0 0 0 0 127 0" result="hardAlpha"/>
<feOffset dy="4"/>
<feGaussianBlur stdDeviation="10"/>
<feComposite in2="hardAlpha" operator="out"/>
<feColorMatrix type="matrix" values="0 0 0 0 0.0551148 0 0 0 0 0.268283 0 0 0 0 0.595833 0 0 0 0.12 0"/>
<feBlend mode="normal" in2="BackgroundImageFix" result="effect1_dropShadow_686_6185"/>
<feBlend mode="normal" in="SourceGraphic" in2="effect1_dropShadow_686_6185" result="shape"/>
</filter>
<filter id="filter1_d_686_6185" x="15" y="47" width="130" height="130" filterUnits="userSpaceOnUse" color-interpolation-filters="sRGB">
<feFlood flood-opacity="0" result="BackgroundImageFix"/>
<feColorMatrix in="SourceAlpha" type="matrix" values="0 0 0 0 0 0 0 0 0 0 0 0 0 0 0 0 0 0 127 0" result="hardAlpha"/>
<feOffset dy="12"/>
<feGaussianBlur stdDeviation="10"/>
<feComposite in2="hardAlpha" operator="out"/>
<feColorMatrix type="matrix" values="0 0 0 0 0.552361 0 0 0 0 0.653273 0 0 0 0 0.808333 0 0 0 0.15 0"/>
<feBlend mode="normal" in2="BackgroundImageFix" result="effect1_dropShadow_686_6185"/>
<feBlend mode="normal" in="SourceGraphic" in2="effect1_dropShadow_686_6185" result="shape"/>
</filter>
<linearGradient id="paint0_linear_686_6185" x1="97.5197" y1="84.2596" x2="65.7844" y2="121.48" gradientUnits="userSpaceOnUse">
<stop stop-color="#3B956C"/>
<stop offset="1" stop-color="#63AF8D"/>
</linearGradient>
<linearGradient id="paint1_linear_686_6185" x1="64.9193" y1="39.7372" x2="64.9193" y2="98.1908" gradientUnits="userSpaceOnUse">
<stop stop-color="#FFB800"/>
<stop offset="1" stop-color="#FF7A00"/>
</linearGradient>
</defs>
</svg>
