<svg width="130" height="151" viewBox="0 0 130 151" fill="none" xmlns="http://www.w3.org/2000/svg">
<g filter="url(#filter0_d_686_6104)">
<rect x="20" y="33.2891" width="83" height="83" rx="21" fill="white"/>
<rect x="21" y="34.2891" width="81" height="81" rx="20" stroke="#7FC6A6" stroke-width="2"/>
</g>
<path d="M43.9498 88.3336C43.9851 88.3961 44.039 88.4461 44.104 88.4766C44.169 88.5072 44.2419 88.5167 44.3126 88.5038L48.4459 87.7503C49.7904 89.2169 51.3652 90.4543 53.1082 91.4139L53.3559 95.6055C53.3601 95.6772 53.3866 95.7459 53.4317 95.8018C53.4768 95.8578 53.5383 95.8983 53.6075 95.9176L58.4605 97.2764C58.5296 97.2957 58.6031 97.2929 58.6706 97.2685C58.7381 97.2442 58.7964 97.1993 58.8372 97.1403L61.2257 93.6868C63.2135 93.7717 65.2018 93.5319 67.1125 92.9768L70.2536 95.7672C70.3073 95.8149 70.3745 95.8447 70.4459 95.8523C70.5174 95.86 70.5894 95.8452 70.652 95.8099L75.0445 93.3393C75.1071 93.304 75.1572 93.25 75.1877 93.185C75.2182 93.1199 75.2277 93.0469 75.2148 92.9762L74.4612 88.8431C75.9277 87.4985 77.1651 85.9237 78.1248 84.1809L82.3164 83.9328C82.3881 83.9286 82.4566 83.9021 82.5126 83.857C82.5685 83.812 82.609 83.7507 82.6285 83.6815L83.9873 78.8282C84.0066 78.7591 84.0039 78.6856 83.9794 78.618C83.955 78.5505 83.9101 78.4922 83.8509 78.4515L80.3977 76.063C80.483 74.0752 80.2436 72.0869 79.6889 70.1762L82.4793 67.0351C82.527 66.9813 82.5567 66.9141 82.5644 66.8427C82.572 66.7713 82.5572 66.6992 82.522 66.6366L80.0511 62.2444C80.0159 62.1817 79.962 62.1316 79.897 62.101C79.832 62.0704 79.759 62.0609 79.6883 62.0738L75.555 62.8277C74.2102 61.3609 72.635 60.1234 70.8916 59.1641L70.6438 54.9725C70.6396 54.9008 70.6132 54.8322 70.5681 54.7763C70.5231 54.7204 70.4617 54.68 70.3925 54.6606L65.5393 53.3019C65.4701 53.2825 65.3966 53.2852 65.3291 53.3096C65.2616 53.3339 65.2033 53.3788 65.1625 53.4379L62.774 56.8897C60.7862 56.8048 58.7979 57.0447 56.8873 57.5999L53.7462 54.8095C53.6925 54.7618 53.6253 54.732 53.5538 54.7243C53.4824 54.7166 53.4104 54.7313 53.3477 54.7665L48.9555 57.2375C48.8929 57.2727 48.8428 57.3266 48.8123 57.3916C48.7817 57.4566 48.7721 57.5295 48.785 57.6002L49.5385 61.7336C48.0719 63.0781 46.8345 64.6529 45.8749 66.3959L41.6834 66.6437C41.6117 66.6479 41.5431 66.6744 41.4872 66.7195C41.4313 66.7646 41.3908 66.826 41.3715 66.8952L40.0128 71.7482C39.9934 71.8174 39.9961 71.8909 40.0205 71.9585C40.0449 72.0261 40.0897 72.0844 40.1488 72.1253L43.6006 74.5135C43.5161 76.5017 43.7564 78.4905 44.312 80.4014L41.5219 83.5426C41.4742 83.5963 41.4444 83.6635 41.4367 83.7349C41.429 83.8063 41.4437 83.8784 41.4789 83.941L43.9498 88.3336Z" fill="url(#paint0_linear_686_6104)"/>
<path d="M61.0907 80.4898C58.5555 80.0491 56.6526 77.7999 56.7205 75.1519C56.7383 74.4587 56.8925 73.7758 57.1743 73.1421C57.4561 72.5085 57.8599 71.9366 58.3627 71.4591C58.8654 70.9816 59.4574 70.6078 60.1046 70.3591C60.7519 70.1104 61.4418 69.9916 62.1349 70.0096C65.0463 70.0844 67.3518 72.5132 67.277 75.4237C67.2592 76.1169 67.105 76.7998 66.8233 77.4334C66.5415 78.067 66.1378 78.6388 65.635 79.1163C65.1323 79.5939 64.5405 79.9677 63.8933 80.2164C63.2461 80.4652 62.5562 80.584 61.8631 80.5661C61.6041 80.5596 61.3459 80.5341 61.0907 80.4898ZM62.6214 71.7461C62.4459 71.7157 62.2685 71.6982 62.0905 71.6936C61.6163 71.6776 61.1435 71.7556 60.6995 71.9232C60.2555 72.0908 59.8491 72.3447 59.5037 72.6702C59.1583 72.9956 58.8807 73.3863 58.687 73.8196C58.4933 74.2529 58.3873 74.7202 58.3751 75.1947C58.3629 75.6691 58.4448 76.1413 58.616 76.584C58.7871 77.0267 59.0443 77.431 59.3725 77.7738C59.7007 78.1166 60.0935 78.391 60.5283 78.5812C60.9631 78.7714 61.4313 78.8737 61.9058 78.882C62.8106 78.9013 63.6895 78.5788 64.367 77.9787C65.0446 77.3786 65.4711 76.5452 65.5614 75.6445C65.6517 74.7439 65.3992 73.8423 64.8543 73.1197C64.3093 72.397 63.512 71.9063 62.6214 71.7456V71.7461Z" fill="white"/>
<circle cx="62" cy="75.2891" r="5" fill="white"/>
<g filter="url(#filter1_d_686_6104)">
<rect x="20" y="29" width="90" height="90" rx="21" fill="#7FC6A6"/>
</g>
<path d="M71.8357 95.9044C76.5952 96.0903 80.2632 97.059 80.2731 99.5864L65.2513 96.0334L64.6066 95.881L60.822 96.4154L50.5243 97.8663C50.5243 97.8663 54.452 103.229 57.1365 103.402C59.8211 103.574 66.6927 101.741 66.6927 101.741L71.0071 102.198C71.0071 102.198 80.1794 103.89 80.187 108.362C80.1859 108.574 80.1905 108.771 80.1978 108.957C80.1086 114.214 79.9861 118.872 79.9861 118.872L80.9374 118.875C80.9374 118.875 82.0848 107.247 81.2355 99.5922C80.9313 96.9663 76.8683 96.0333 71.8357 95.9044Z" fill="#F48E5B"/>
<path d="M51.5645 118.828L68.7967 118.857L51.5645 118.828Z" fill="#D68265"/>
<path d="M50.5273 97.8789L60.825 96.428C55.1856 97.0097 50.5273 97.8789 50.5273 97.8789Z" fill="#F5BC8F"/>
<path d="M80.2698 99.5921C80.2656 97.0703 76.5948 96.0932 71.8325 95.9101C69.6365 95.8411 67.4389 95.8841 65.248 96.0391L80.2698 99.5921Z" fill="#F5BC8F"/>
<path d="M80.1703 108.371C80.1628 103.888 70.9905 102.206 70.9905 102.206L66.676 101.749C66.676 101.749 59.8031 103.584 57.1199 103.41C54.4367 103.236 50.5077 97.8751 50.5077 97.8751C50.5077 97.8751 52.5939 105.416 52.0983 108.937C51.6026 112.458 50.6033 118.83 50.6033 118.83L51.5545 118.833L68.7854 118.86L79.9541 118.879C79.9541 118.879 80.0765 114.221 80.1657 108.965C80.1696 108.776 80.1637 108.58 80.1703 108.371Z" fill="#FCC99F"/>
<path d="M75.8837 100.773L53.0399 97.8345C51.7495 97.6682 50.5391 97.1132 49.5694 96.2435C48.5997 95.3737 47.9167 94.2303 47.6112 92.9653L43.5975 76.4114C43.2622 75.0306 43.3947 73.579 43.9744 72.2847C43.9744 72.2847 46.6795 69.6751 50.1858 61.1279C52.8326 54.678 55.7048 53.0829 60.7327 52.9331L84.8837 59.2012C88.0684 60.19 89.6458 65.9466 88.9284 69.19L82.9377 95.796C81.9117 98.8372 78.6104 100.949 75.8837 100.773Z" fill="#FCC99F"/>
<path d="M64.8437 99.2597C64.8437 99.2597 70.3897 83.9689 78.765 77.4431C87.1403 70.9174 88.3144 71.7558 88.3144 71.7558C88.3144 71.7558 85.4869 96.5738 80.2218 99.7479C74.9566 102.922 64.8437 99.2597 64.8437 99.2597Z" fill="#FFD3AB"/>
<path d="M49.8589 70.6376C49.8589 70.6376 60.0692 78.0506 63.0714 82.0961C66.0735 86.1416 67.0134 95.2048 67.0134 95.2048C67.0134 95.2048 74.8512 78.947 82.5968 79.4896L84.1698 73.51L75.7122 66.1069C75.7122 66.1069 68.7271 62.9289 62.0447 63.9726C55.3036 65.033 49.8589 70.6376 49.8589 70.6376Z" fill="#FCC99F"/>
<path d="M46.0607 69.0643C46.0607 69.0643 57.4126 71.3754 62.1223 79.4335C66.832 87.4915 67.0131 95.2084 67.0131 95.2084L46.34 70.1828L46.0607 69.0643Z" fill="#F48E5B"/>
<path d="M46.5484 92.9899C46.5484 92.9899 41.0023 83.2479 38.8091 78.7218C36.4177 73.7681 37.4817 65.0221 45.3518 68.7802C53.2219 72.5383 58.1505 75.7941 63.8114 86.311C68.6853 95.3809 66.5171 99.0618 63.8354 100.568C60.1781 102.619 51.9301 102.391 46.5484 92.9899Z" fill="#FFD3AB"/>
<path d="M45.3283 68.8361C45.3283 68.8361 45.6362 52.064 36.569 49.5283C27.5017 46.9927 36.077 56.0687 36.0835 59.0878C36.09 62.107 34.4952 70.1124 37.5696 74.6666C40.644 79.2207 45.3283 68.8361 45.3283 68.8361Z" fill="#FFD3AB"/>
<path d="M72.9945 59.486C72.9975 59.5429 73.007 59.5993 73.0228 59.6541C73.0453 59.7214 73.0761 59.7243 73.1125 59.6711C73.0506 59.5533 73.0197 59.4832 73.0197 59.4832L72.9945 59.486Z" fill="#D68265"/>
<path d="M80.3789 63.0664C80.371 63.397 80.4217 63.54 80.5769 63.3568C80.6334 63.2809 80.679 63.1975 80.7124 63.109C80.6241 63.0542 80.5764 63.0205 80.5764 63.0205C80.5764 63.0205 80.5049 63.0442 80.3789 63.0664Z" fill="#D68265"/>
<path d="M80.8377 101.121C86.9876 98.3391 88.6951 78.2084 88.6951 78.2084L89.4753 73.9535C89.4753 73.9535 88.3633 71.6974 88.1741 71.6677C87.6391 75.9188 84.8432 97.0088 80.1365 99.8491L80.8377 101.121Z" fill="#F48E5B"/>
<path d="M89.092 65.9822C89.092 65.9822 88.7928 69.6495 88.4402 71.5935C88.2126 72.8428 89.3877 73.5228 89.3877 73.5228L89.9627 66.3689L89.092 65.9822Z" fill="#D68265"/>
<path d="M88.4857 59.3151C88.4857 59.3151 93.7466 60.2878 91.5364 68.9282C89.3262 77.5686 88.2208 78.3653 88.2208 78.3653L85.378 66.6132L88.4857 59.3151Z" fill="#F48E5B"/>
<path d="M87.7831 59.0997C87.7831 59.0997 92.3859 60.2507 90.3976 68.4109C88.4094 76.5711 87.2505 78.0864 87.2505 78.0864L84.8572 66.2244L87.7831 59.0997Z" fill="#F5BC8F"/>
<g filter="url(#filter2_d_686_6104)">
<path d="M119.511 39.6521C119.332 39.4411 119.113 39.2681 118.866 39.1434C118.62 39.0187 118.35 38.9448 118.074 38.9261C117.761 38.9047 117.42 38.8943 117.032 38.8943C116.561 38.8943 116.085 38.9099 115.623 38.9244C115.176 38.9388 114.755 38.9527 114.35 38.9527H114.303V35.078H117.933C118.221 35.078 118.506 35.0177 118.77 34.9009C119.034 34.7841 119.27 34.6135 119.463 34.4C119.657 34.1864 119.804 33.9347 119.894 33.6611C119.985 33.3874 120.017 33.0978 119.989 32.811C119.792 30.7394 119.382 28.6936 118.767 26.7057C118.686 26.4444 118.554 26.2018 118.379 25.9919C118.203 25.7821 117.988 25.6092 117.745 25.4833C117.502 25.3573 117.237 25.2809 116.964 25.2584C116.692 25.2359 116.417 25.2677 116.157 25.3521C115.092 25.6995 114.126 26.1076 113.192 26.5053L112.636 26.741C112.338 26.0156 112.038 25.2995 111.743 24.5961C111.552 24.1422 111.36 23.6819 111.164 23.2188C112.451 22.7406 113.726 22.1993 114.874 21.4577C115.103 21.31 115.3 21.1184 115.455 20.8941C115.609 20.6698 115.718 20.4172 115.774 20.1507C115.831 19.8843 115.834 19.6093 115.784 19.3416C115.734 19.074 115.631 18.8188 115.482 18.5909C115.08 17.9773 114.666 17.3752 114.266 16.7928C113.634 15.8735 113.037 15.0051 112.481 14.0921C112.209 13.644 111.776 13.3165 111.271 13.1761C110.765 13.0356 110.225 13.0928 109.761 13.336C108.539 13.9729 107.722 14.8812 107.001 15.6807C106.814 15.8879 106.637 16.0859 106.461 16.2677C105.991 15.8382 105.5 15.3796 104.964 14.8441C104.791 14.6705 104.559 14.4626 104.264 14.1998C104.107 14.0597 103.868 13.8461 103.622 13.6209C103.819 13.4385 104.016 13.2614 104.211 13.0877C105.116 12.2772 106.051 11.4418 106.674 10.2186C106.915 9.74393 106.964 9.19428 106.81 8.68444C106.656 8.1746 106.311 7.744 105.847 7.48258C105.26 7.15144 104.696 6.75778 104.1 6.34095C103.082 5.62946 102.028 4.89364 100.69 4.33672C100.421 4.2251 100.13 4.17181 99.8389 4.18035C99.5473 4.18889 99.2609 4.25907 98.9984 4.38628C98.7359 4.51348 98.5033 4.69482 98.3159 4.91837C98.1285 5.14192 97.9906 5.40261 97.9112 5.68329C97.605 6.76935 97.198 7.77205 96.7458 8.77242C95.559 8.32144 94.3636 7.83804 93.2063 7.30833C93.5537 6.43995 93.919 5.5872 94.2744 4.74776L94.5876 4.01022C94.698 3.74906 94.7534 3.46796 94.7504 3.18446C94.7474 2.90096 94.6861 2.62111 94.5702 2.36234C94.4544 2.10357 94.2865 1.87141 94.0771 1.68033C93.8676 1.48924 93.6211 1.34332 93.3528 1.25165C91.4852 0.614837 89.3744 0.316701 87.332 0.0295559L87.2741 0.0214431C86.9932 -0.0181013 86.7072 0.000659116 86.4338 0.0765508C86.1605 0.152442 85.9057 0.283838 85.6854 0.462545C85.4651 0.641252 85.2839 0.863441 85.1533 1.11524C85.0226 1.36705 84.9453 1.64308 84.926 1.9261C84.871 2.72849 84.8976 3.56617 84.926 4.37551C84.9399 4.80854 84.955 5.26647 84.9538 5.69719H81.0849C81.0849 5.36373 81.0849 5.02738 81.0797 4.69219C81.0797 4.5492 81.0924 4.33962 81.108 4.11789C81.1815 3.08973 81.3187 1.17639 79.6219 0.252432C79.1462 -0.00698125 78.5876 -0.0693431 78.0664 0.0787557C77.5807 0.217697 76.9664 0.303954 76.3134 0.394844C74.9031 0.591677 73.303 0.814567 72.0728 1.74605C71.6875 2.03729 71.4165 2.45429 71.3067 2.9246C71.1969 3.39491 71.2554 3.88881 71.4719 4.32051C72.012 5.39673 72.4451 6.35716 72.8034 7.27822C72.272 7.4959 71.7579 7.7211 71.2507 7.94282C70.5884 8.23228 69.9447 8.51422 69.2917 8.76779C69.1759 8.49859 69.0601 8.24154 68.9443 7.99434C68.5929 7.22553 68.2896 6.56152 68.1234 5.80082C68.0588 5.50534 67.9301 5.22766 67.7464 4.98737C67.5627 4.74709 67.3285 4.55005 67.0603 4.41019C66.7922 4.27033 66.4966 4.19107 66.1944 4.17797C65.8922 4.16488 65.5908 4.21827 65.3116 4.3344C63.9731 4.89191 62.9201 5.62714 61.9017 6.33864C61.3055 6.75546 60.7439 7.14912 60.1545 7.48027C59.6852 7.74478 59.3377 8.18223 59.1863 8.69931C59.0349 9.21639 59.0915 9.77217 59.3441 10.2481C59.923 11.3399 60.5859 12.0005 61.4247 12.837L61.6065 13.0182C61.8215 13.2237 62.0495 13.4151 62.289 13.5914L61.8838 13.9925C61.0733 14.7996 60.2941 15.5788 59.5426 16.2451C59.4207 16.1154 59.2976 15.9831 59.1733 15.848C58.4022 15.0143 57.528 14.0695 56.3053 13.3714C56.0693 13.2367 55.809 13.1498 55.5394 13.1159C55.2698 13.0819 54.9961 13.1015 54.7341 13.1734C54.472 13.2454 54.2267 13.3683 54.0123 13.5352C53.7978 13.7021 53.6184 13.9096 53.4842 14.146C53.1201 14.788 52.6894 15.3999 52.2332 16.0477C51.5964 16.9491 50.9422 17.8817 50.391 18.9967C50.2675 19.2469 50.1959 19.5195 50.1806 19.7981C50.1653 20.0767 50.2066 20.3556 50.302 20.6178C50.3973 20.88 50.5448 21.1202 50.7356 21.3238C50.9263 21.5275 51.1563 21.6904 51.4117 21.8028C52.0896 22.1003 52.782 22.3724 53.4512 22.6358C53.9207 22.8199 54.3775 23 54.8221 23.1847C54.6096 23.6947 54.4093 24.2064 54.2125 24.7113C53.9381 25.4147 53.6712 26.1007 53.3875 26.7375C52.2992 26.2744 51.1182 25.7996 49.8909 25.3683C49.6288 25.2763 49.3508 25.238 49.0736 25.2557C48.7963 25.2735 48.5255 25.3471 48.2774 25.4719C48.0292 25.5967 47.8088 25.7703 47.6292 25.9823C47.4497 26.1943 47.3147 26.4403 47.2325 26.7057C46.6176 28.6937 46.2081 30.7395 46.0104 32.811C45.9835 33.086 46.012 33.3637 46.0944 33.6275C46.1767 33.8914 46.3111 34.136 46.4897 34.347C46.6682 34.5579 46.8873 34.7309 47.1339 34.8557C47.3805 34.9804 47.6497 35.0545 47.9254 35.0734C48.2392 35.0948 48.5796 35.1052 48.9675 35.1052C49.4387 35.1052 49.9158 35.0896 50.3766 35.0745C50.8247 35.0601 51.245 35.0467 51.6502 35.0467H51.6971V38.9209H48.0649C47.7677 38.921 47.474 38.9852 47.2038 39.1092C46.9337 39.2332 46.6935 39.4141 46.4997 39.6394C46.3058 39.8648 46.1629 40.1293 46.0807 40.4149C45.9984 40.7005 45.9788 41.0006 46.0231 41.2945C46.081 41.6714 46.1302 42.0546 46.1835 42.4598C46.4266 44.3182 46.6784 46.2396 47.6446 47.7795C47.7895 48.0101 47.9785 48.2097 48.2007 48.367C48.423 48.5242 48.6742 48.636 48.9398 48.6959C49.2054 48.7558 49.4802 48.7626 49.7484 48.7159C50.0167 48.6692 50.273 48.57 50.5028 48.4239C51.1743 47.9966 52.0537 47.6603 52.9846 47.3042L53.3661 47.1578C53.8345 48.3249 54.3202 49.4642 54.7961 50.5792C54.8088 50.6105 54.8227 50.6417 54.836 50.673C54.7202 50.721 54.6114 50.7697 54.5002 50.8177C53.5375 51.2328 52.6286 51.6247 51.6514 51.9177C51.3809 51.9983 51.1298 52.1335 50.9137 52.3149C50.6975 52.4963 50.5208 52.7201 50.3945 52.9725C50.2682 53.2249 50.195 53.5005 50.1794 53.7822C50.1637 54.064 50.206 54.346 50.3036 54.6108C50.8247 56.0222 51.6126 57.1083 52.309 58.0658C52.7386 58.6569 53.1444 59.215 53.4553 59.8026C53.5858 60.0487 53.7649 60.2659 53.9816 60.441C54.1983 60.6161 54.4482 60.7456 54.7163 60.8216C54.9843 60.8975 55.265 60.9185 55.5414 60.8832C55.8177 60.8478 56.0841 60.7569 56.3244 60.616C57.5691 59.8865 58.4763 58.9093 59.2769 58.0473L59.5374 57.7677C60.011 58.2499 60.4892 58.7159 60.9593 59.1744C61.3859 59.5901 61.8022 59.9959 62.2045 60.4023C62.0135 60.5801 61.8143 60.7717 61.6047 60.9813C61.4658 61.1202 61.3199 61.2574 61.1758 61.394C60.3074 62.2144 59.2289 63.235 59.3279 64.7055C59.3857 65.5235 59.8101 66.2593 60.5308 66.7774C61.5573 67.515 62.6318 68.1668 63.58 68.7457C64.0194 69.0126 64.4345 69.2668 64.801 69.4983C65.0487 69.6566 65.3275 69.7601 65.6185 69.802C65.9095 69.844 66.2061 69.8233 66.4884 69.7414C66.7708 69.6596 67.0324 69.5184 67.2559 69.3273C67.4793 69.1362 67.6594 68.8997 67.7841 68.6334C68.1726 67.8027 68.5159 66.947 68.8482 66.1198C68.9854 65.777 69.1203 65.4407 69.2535 65.1119L69.5643 65.2392C70.6353 65.6751 71.7295 66.1209 72.8011 66.5812C72.6784 66.8706 72.551 67.1636 72.4202 67.4611C72.0502 68.3058 71.6676 69.1788 71.3503 70.1595C71.1831 70.6759 71.2259 71.2374 71.4694 71.7226C71.7129 72.2077 72.1377 72.5775 72.6517 72.7519C74.5199 73.3887 76.6306 73.6868 78.6725 73.974L78.7304 73.9815C79.0113 74.021 79.2973 74.0022 79.5706 73.9263C79.8439 73.8504 80.0986 73.719 80.319 73.5404C80.5393 73.3618 80.7205 73.1397 80.8513 72.888C80.982 72.6363 81.0596 72.3604 81.0791 72.0774C81.137 71.2745 81.1069 70.4374 81.0791 69.628C81.0652 69.1944 81.0501 68.7371 81.0519 68.3063H84.9254V71.9362C84.9256 72.484 85.1433 73.0093 85.5306 73.3966C85.9179 73.7839 86.4432 74.0016 86.991 74.0018C87.0879 74.002 87.1846 73.9952 87.2805 73.9815L87.3384 73.9734C89.3779 73.6839 91.4875 73.3898 93.3545 72.7519C93.869 72.5759 94.2933 72.2042 94.5355 71.7174C94.7777 71.2305 94.8183 70.6679 94.6484 70.1514C94.3589 69.2668 94.0116 68.4789 93.6758 67.717C93.5079 67.3361 93.3441 66.9644 93.1918 66.5893C93.8923 66.3149 94.5581 66.0225 95.2128 65.7348C95.7217 65.5113 96.2179 65.2931 96.718 65.0899C97.2246 66.4903 97.7914 67.7708 98.5752 68.9223C98.7308 69.1507 98.9306 69.3455 99.1629 69.4953C99.3951 69.6451 99.655 69.7467 99.9273 69.7942C100.199 69.8417 100.478 69.8341 100.748 69.7719C101.017 69.7096 101.271 69.594 101.495 69.4318C102.699 68.5587 104.007 67.7158 105.273 66.9001L105.961 66.4561C106.408 66.167 106.726 65.7167 106.849 65.1991C106.971 64.6815 106.89 64.1364 106.621 63.6773C105.892 62.4326 104.914 61.526 104.052 60.7248L103.773 60.4649C104.255 59.9913 104.721 59.5131 105.18 59.043C105.595 58.6158 106.001 58.2001 106.407 57.7978C106.585 57.9882 106.776 58.188 106.986 58.3975C107.125 58.5359 107.263 58.6812 107.399 58.8254C108.221 59.6937 109.153 60.6779 110.532 60.6779C111.423 60.6779 112.223 60.2483 112.783 59.4697C113.757 58.1139 114.964 56.3476 115.663 54.7069C115.773 54.449 115.83 54.1713 115.829 53.8909C115.828 53.6105 115.77 53.3331 115.659 53.0758C115.547 52.8185 115.385 52.5866 115.18 52.3942C114.976 52.2019 114.735 52.0531 114.472 51.957C114.215 51.8633 113.958 51.7712 113.701 51.6786C112.817 51.3607 111.962 51.0533 111.177 50.7124C111.439 50.1016 111.681 49.485 111.919 48.8789C112.151 48.2878 112.378 47.7118 112.614 47.1636C112.978 47.3129 113.344 47.453 113.704 47.5914C114.476 47.8878 115.205 48.1703 115.817 48.4986C116.085 48.6441 116.383 48.7282 116.687 48.7449C116.992 48.7617 117.297 48.7106 117.58 48.5954C117.863 48.4802 118.117 48.3037 118.323 48.0786C118.529 47.8536 118.683 47.5855 118.774 47.2938C119.389 45.3059 119.798 43.2601 119.996 41.1885C120.022 40.913 119.992 40.635 119.909 40.3711C119.826 40.1072 119.69 39.8627 119.511 39.6521ZM92.4404 15.3854C97.7167 17.7208 101.198 21.9151 103.073 24.7443C101.314 25.5785 99.4807 26.2732 97.697 26.9482C96.1762 27.5271 94.6108 28.1171 93.0737 28.8008C91.4719 26.8973 88.3932 25.0453 85.8048 24.4589C85.5732 23.484 85.5767 22.4164 85.5825 21.2974C85.586 20.6501 85.5894 19.9809 85.546 19.307C85.4852 18.3808 85.3851 17.4452 85.2884 16.5415C85.1836 15.5632 85.0759 14.5593 85.0215 13.5751C87.4379 13.8553 89.9615 14.2884 92.4404 15.3854ZM82.9994 33.4628C83.699 33.4627 84.383 33.6701 84.9647 34.0587C85.5465 34.4473 86 34.9998 86.2678 35.6461C86.5356 36.2925 86.6057 37.0038 86.4692 37.69C86.3327 38.3762 85.9958 39.0065 85.5011 39.5012C85.0064 39.9959 84.3761 40.3328 83.6899 40.4693C83.0037 40.6058 82.2924 40.5357 81.646 40.2679C80.9997 40.0001 80.4472 39.5466 80.0586 38.9648C79.67 38.3831 79.4626 37.6991 79.4627 36.9994C79.4627 36.0615 79.8353 35.1619 80.4986 34.4987C81.1618 33.8354 82.0614 33.4628 82.9994 33.4628ZM62.1304 26.2124C65.7197 19.468 71.1697 15.3681 78.3344 14.0111C78.4843 16.2596 78.6239 18.5307 78.7588 20.7376C78.8421 22.0984 78.9267 23.4591 79.0123 24.8195C76.5537 25.868 74.062 27.2666 72.0745 30.3488C68.9484 29.5904 65.5906 28.7278 61.4264 27.6186C61.6522 27.1369 61.8884 26.6698 62.1304 26.2124ZM67.2249 54.1882C61.4166 48.9299 58.9463 42.3579 59.6908 34.1633C62.1953 34.6786 64.7917 35.3837 67.3141 36.068C68.2647 36.3262 69.2419 36.589 70.2122 36.846C70.2625 37.1749 70.2619 37.5245 70.2608 37.9084C70.2608 38.3547 70.2608 38.8607 70.3459 39.3898C70.721 41.6598 71.8088 43.5829 72.8931 45.2334C72.4971 45.851 72.1002 46.4685 71.7023 47.086C70.2203 49.375 68.7006 51.7371 67.2226 54.1882H67.2249ZM72.8028 58.001C74.1453 55.7565 75.5376 53.6012 76.8906 51.5078C77.3757 50.7552 77.8747 49.9887 78.3668 49.2158C82.6288 50.9422 86.0503 50.013 88.9611 48.7984C89.962 49.9708 90.9387 51.1662 91.8881 52.3299C93.0309 53.728 94.2038 55.1666 95.4357 56.5803C88.2542 61.1908 81.0079 61.6453 72.8005 58.001H72.8028ZM103.53 48.032C102.721 49.5517 101.756 50.9828 100.65 52.3021C99.1518 50.5728 97.7063 48.8054 96.3012 47.0866C95.5394 46.1551 94.7561 45.1975 93.9664 44.2499C95.8549 41.3199 96.5206 37.9437 95.8514 35.0062C97.5934 34.1477 99.4297 33.4593 101.213 32.7907C102.664 32.2465 104.155 31.6873 105.621 31.0302C107.224 36.0263 106.445 42.5588 103.53 48.032Z" fill="url(#paint1_linear_686_6104)"/>
</g>
<path d="M112.026 37.0019C112.026 53.0068 99.0054 66.0279 83.0005 66.0279C66.9957 66.0279 53.9746 53.0068 53.9746 37.0019C53.9746 20.9971 66.9957 7.97656 83.0005 7.97656C99.0054 7.97656 112.026 20.9988 112.026 37.0019ZM55.8133 37.0019C55.8133 51.996 68.0105 64.1921 83.0029 64.1921C97.9952 64.1921 110.193 51.9948 110.193 37.0019C110.193 22.009 97.9958 9.81232 83.0029 9.81232C68.01 9.81232 55.8109 22.0096 55.8109 37.0019H55.8133Z" fill="url(#paint2_linear_686_6104)"/>
<path d="M94.5179 37.0008C94.5179 43.3516 89.3516 48.5179 83.0008 48.5179C76.6501 48.5179 71.4844 43.3516 71.4844 37.0008C71.4844 30.6501 76.6507 25.4844 83.0008 25.4844C89.351 25.4844 94.5179 30.6507 94.5179 37.0008ZM72.2126 37.0008C72.2126 42.9498 77.0524 47.7896 83.0008 47.7896C88.9493 47.7896 93.7896 42.9498 93.7896 37.0008C93.7896 31.0519 88.9498 26.2127 83.0008 26.2127C77.0519 26.2127 72.2126 31.0524 72.2126 37.0008Z" fill="#606684"/>
<path d="M63.2173 63.8565C63.2173 63.8565 59.9597 73.6621 65.8209 75.0057C70.9827 76.1871 72.959 65.9197 73.4259 64.4621C73.9332 62.8686 76.4284 56.2756 76.5837 55.312C76.933 53.085 77.2829 48.7383 73.1689 47.4494C70.72 46.679 67.7806 48.2487 66.489 50.8398C64.1433 55.532 64.3713 59.4943 63.2173 63.8565Z" fill="#F48E5B"/>
<path d="M53.9511 63.2551C53.9511 63.2551 52.4386 71.1107 57.6017 72.1758C62.9497 73.2832 64.7274 63.2341 65.0836 61.7552C65.4398 60.2764 68.2167 52.0629 67.5272 49.4433C66.2328 44.5124 60.9299 42.7564 58.1356 46.4854C55.1498 50.5012 54.7568 54.2257 53.9511 63.2551Z" fill="#F48E5B"/>
<path d="M55.0314 60.5306C55.0314 60.5306 52.8882 69.8562 57.1428 70.6115C61.3975 71.3668 61.679 65.4523 62.0407 63.9679C62.4025 62.4834 65.44 50.964 65.2491 48.264C65.0582 45.5639 59.7155 44.2548 57.8522 47.6141C55.5322 51.8089 55.8883 56.0951 55.0314 60.5306Z" fill="#FFD3AB"/>
<path d="M74.4584 61.2832C74.4584 61.2832 75.6246 53.2995 79.3809 51.8026C82.8979 50.4019 86.0702 53.1966 86.4233 54.8644C86.8964 57.0942 86.4288 58.1483 85.9638 60.7268C85.5252 63.1301 83.3064 63.3506 82.9856 64.2018C81.4932 68.1641 81.2899 69.7567 79.7701 73.2664C79.0779 74.8624 77.7917 78.0937 74.3805 77.3622C71.6854 76.7847 69.9633 74.1479 71.6715 68.5636C72.8502 64.6877 73.3926 63.9853 74.4584 61.2832Z" fill="#F48E5B"/>
<path d="M88.975 59.1492C85.6347 58.0802 83.7281 60.666 82.3913 63.8272C81.0544 66.9883 79.5947 72.8546 79.1644 75.2692C78.7342 77.6838 80.5461 79.6048 82.597 79.4878C84.9126 79.3558 85.9928 77.7227 86.7406 75.8466C87.4604 74.0489 88.2271 71.7386 88.6037 70.7417C89.1407 69.3206 89.7144 68.0901 90.6579 66.0014C91.829 63.4158 92.5999 60.3097 88.975 59.1492Z" fill="#F48E5B"/>
<path d="M88.6344 59.786C85.9721 58.7462 84.1046 61.2284 83.0001 64.2218C81.8955 67.2153 80.5685 72.0395 80.1997 74.3196C79.8309 76.5998 81.6401 77.7741 83.2791 77.6788C85.131 77.5726 85.6367 76.6965 86.2488 74.9224C86.8287 73.2198 87.4723 71.0326 87.7789 70.0916C88.218 68.7488 88.6853 67.5826 89.4526 65.6113C90.4207 63.1668 91.5223 60.9117 88.6344 59.786Z" fill="#FFD3AB"/>
<path d="M74.3799 60.8842C74.3799 60.8842 76.9948 52.0946 80.6741 52.2745C83.6248 52.4112 84.7756 53.5788 85.2531 55.0969C85.9615 57.327 82.6535 62.145 82.1222 63.6026C80.7765 67.3115 81.1862 66.8849 79.8118 70.1707C79.1881 71.6645 77.3158 76.3155 74.7919 75.8979C72.3185 75.4917 70.7247 73.3609 72.264 68.1336C73.3311 64.5096 73.4175 63.4128 74.3799 60.8842Z" fill="#FFD3AB"/>
<path d="M64.0581 62.9609C64.0581 62.9609 61.2799 72.113 65.472 73.161C69.6642 74.209 70.4983 67.9074 70.9624 66.4526C71.4265 64.9977 75.1012 54.135 75.0953 51.4297C75.0893 48.7244 70.5752 46.16 67.7619 50.2727C65.0549 54.226 65.2149 58.5931 64.0581 62.9609Z" fill="#FFD3AB"/>
<defs>
<filter id="filter0_d_686_6104" x="0" y="17.2891" width="123" height="123" filterUnits="userSpaceOnUse" color-interpolation-filters="sRGB">
<feFlood flood-opacity="0" result="BackgroundImageFix"/>
<feColorMatrix in="SourceAlpha" type="matrix" values="0 0 0 0 0 0 0 0 0 0 0 0 0 0 0 0 0 0 127 0" result="hardAlpha"/>
<feOffset dy="4"/>
<feGaussianBlur stdDeviation="10"/>
<feComposite in2="hardAlpha" operator="out"/>
<feColorMatrix type="matrix" values="0 0 0 0 0.0551148 0 0 0 0 0.268283 0 0 0 0 0.595833 0 0 0 0.12 0"/>
<feBlend mode="normal" in2="BackgroundImageFix" result="effect1_dropShadow_686_6104"/>
<feBlend mode="normal" in="SourceGraphic" in2="effect1_dropShadow_686_6104" result="shape"/>
</filter>
<filter id="filter1_d_686_6104" x="0" y="21" width="130" height="130" filterUnits="userSpaceOnUse" color-interpolation-filters="sRGB">
<feFlood flood-opacity="0" result="BackgroundImageFix"/>
<feColorMatrix in="SourceAlpha" type="matrix" values="0 0 0 0 0 0 0 0 0 0 0 0 0 0 0 0 0 0 127 0" result="hardAlpha"/>
<feOffset dy="12"/>
<feGaussianBlur stdDeviation="10"/>
<feComposite in2="hardAlpha" operator="out"/>
<feColorMatrix type="matrix" values="0 0 0 0 0.552361 0 0 0 0 0.653273 0 0 0 0 0.808333 0 0 0 0.15 0"/>
<feBlend mode="normal" in2="BackgroundImageFix" result="effect1_dropShadow_686_6104"/>
<feBlend mode="normal" in="SourceGraphic" in2="effect1_dropShadow_686_6104" result="shape"/>
</filter>
<filter id="filter2_d_686_6104" x="42" y="0" width="82.0051" height="82.0017" filterUnits="userSpaceOnUse" color-interpolation-filters="sRGB">
<feFlood flood-opacity="0" result="BackgroundImageFix"/>
<feColorMatrix in="SourceAlpha" type="matrix" values="0 0 0 0 0 0 0 0 0 0 0 0 0 0 0 0 0 0 127 0" result="hardAlpha"/>
<feOffset dy="4"/>
<feGaussianBlur stdDeviation="2"/>
<feComposite in2="hardAlpha" operator="out"/>
<feColorMatrix type="matrix" values="0 0 0 0 0 0 0 0 0 0 0 0 0 0 0 0 0 0 0.25 0"/>
<feBlend mode="normal" in2="BackgroundImageFix" result="effect1_dropShadow_686_6104"/>
<feBlend mode="normal" in="SourceGraphic" in2="effect1_dropShadow_686_6104" result="shape"/>
</filter>
<linearGradient id="paint0_linear_686_6104" x1="47.4803" y1="58.2596" x2="79.2156" y2="95.4797" gradientUnits="userSpaceOnUse">
<stop stop-color="#3B956C"/>
<stop offset="1" stop-color="#63AF8D"/>
</linearGradient>
<linearGradient id="paint1_linear_686_6104" x1="45.9994" y1="36.9995" x2="119.999" y2="36.9995" gradientUnits="userSpaceOnUse">
<stop stop-color="#989FC1"/>
<stop offset="1" stop-color="#A1A6BF"/>
</linearGradient>
<linearGradient id="paint2_linear_686_6104" x1="83.0006" y1="66.0279" x2="83.0006" y2="7.97598" gradientUnits="userSpaceOnUse">
<stop stop-color="#5A6082"/>
<stop offset="1" stop-color="#646A86"/>
</linearGradient>
</defs>
</svg>
