<svg width="20" height="20" viewBox="0 0 20 20" fill="none" xmlns="http://www.w3.org/2000/svg">
<path d="M4.96808 14.7284C5.83308 16.1092 5.83308 17.1392 5.83308 18.3334H7.49974C7.49974 17.0659 7.49974 15.6301 6.38058 13.8426L4.96808 14.7284ZM13.7531 2.82257C11.6472 1.59174 6.29141 0.771737 3.56724 3.58757C0.760576 6.4884 1.69308 11.1476 3.56808 13.0809C3.66641 13.1826 3.77141 13.2717 3.87558 13.3584C3.93558 13.4092 3.99724 13.4551 4.04641 13.5117L5.29141 12.4034C5.18313 12.2864 5.06643 12.1775 4.94224 12.0776C4.88224 12.0276 4.82058 11.9784 4.76391 11.9209C3.38058 10.4951 2.67558 6.90674 4.76474 4.74757C6.86891 2.57174 11.4881 3.43174 12.9122 4.2634C15.1547 5.5709 16.3264 7.8534 16.3364 7.87424L17.8272 7.1284C17.7731 7.0159 16.4372 4.38757 13.7531 2.82257Z" fill="#079DD9"/>
<path d="M7.78363 10.6843C6.9253 9.63427 6.29447 8.75344 6.62363 7.76261C6.8428 7.10844 7.30113 6.65844 7.9878 6.42594C9.0078 6.08428 10.4211 6.29261 11.3545 6.92677L12.2903 5.54844C10.917 4.61511 8.97197 4.33427 7.45363 4.84761C6.2803 5.24427 5.42447 6.09344 5.04363 7.23594C4.39697 9.17594 5.70947 10.7809 6.49363 11.7401C6.6178 11.8926 6.7353 12.0351 6.83447 12.1668C9.16697 15.2684 9.16697 16.7568 9.16697 18.3326H10.8336C10.8336 16.6359 10.8336 14.7118 8.16613 11.1651C8.04164 11.0025 7.91412 10.8422 7.78363 10.6843ZM12.6095 7.89761C14.1386 9.36761 15.1378 11.6034 15.8503 15.1484L17.4845 14.8193C16.702 10.9209 15.5545 8.41511 13.7653 6.69594L12.6095 7.89761Z" fill="#079DD9"/>
<path d="M9.63034 7.64062L8.70117 9.02396C8.72367 9.03979 10.9603 10.5906 11.8687 13.794L13.472 13.3398C12.3895 9.52146 9.742 7.71563 9.63034 7.64062ZM12.2403 15.3823C12.4153 16.3556 12.5003 17.3206 12.5003 18.3331H14.167C14.167 17.2206 14.0737 16.1598 13.8812 15.0873L12.2403 15.3823Z" fill="#079DD9"/>
</svg>
