<svg width="197" height="230" viewBox="0 0 197 230" fill="none" xmlns="http://www.w3.org/2000/svg">
<path d="M42.2256 95.7848C42.2256 95.7848 35.1939 84.2772 27.0005 84.8351C21.4462 85.207 17.5102 88.949 17.6005 95.7285C17.7245 104.796 25.76 115.098 27.7505 120.389C29.741 125.681 34.9401 132.562 38.3855 133.227C41.8309 133.892 46.3194 127.372 46.3194 127.372C46.3194 127.372 44.1034 104.007 42.2256 95.7848Z" fill="url(#paint0_linear_1112_3080)"/>
<path style="mix-blend-mode:multiply" opacity="0.6" d="M42.2256 107.558C42.2256 107.558 28.7937 90.9497 23.8991 90.9497C19.0045 90.9497 19.0102 100.395 20.9838 105.788C22.3484 109.519 25.0156 114.912 25.0156 114.912C25.0156 114.912 22.901 109.119 22.6529 104.768C22.2638 98.1011 23.7469 93.2546 25.4329 93.2659C28.5287 93.2659 30.9647 97.5151 31.3538 99.0197C31.7429 100.524 28.9065 107.101 29.6621 111.688C30.4177 116.276 33.1639 118.023 34.083 117.521C35.0021 117.019 33.5811 111.852 34.4157 110.02C35.2503 108.189 37.6693 105.512 39.0847 106.075C40.5001 106.639 42.2256 107.558 42.2256 107.558Z" fill="url(#paint1_linear_1112_3080)"/>
<path style="mix-blend-mode:multiply" opacity="0.6" d="M42.2256 107.557C42.2256 107.557 38.9099 105.574 37.9006 106.205C36.8912 106.836 34.3311 109.141 34.224 110.589C34.1168 112.038 35.036 116.157 34.224 116.873C33.412 117.589 30.4854 112.928 30.3557 108.842C30.226 104.757 32.5267 100.006 32.5267 99.4536C32.5267 98.9013 31.9628 96.2639 31.9628 96.2639C31.9628 96.2639 39.8291 103.658 42.2256 107.557Z" fill="url(#paint2_linear_1112_3080)"/>
<path d="M54.9696 159.517C54.9696 159.517 53.4922 200.419 52.4941 204.308C51.496 208.196 0.22699 229.977 0.22699 229.977H196.055C196.055 229.977 140.343 210.309 138.843 205.807C137.343 201.304 137.281 162.571 137.281 162.571L54.9696 159.517Z" fill="url(#paint3_linear_1112_3080)"/>
<path d="M52.6858 203.164C52.6858 203.164 48.5976 202.69 48.1747 203.164C47.7517 203.637 48.1747 206.86 48.1747 206.86L0.243896 229.966H196.055L144.346 207.987C144.346 207.987 142.564 203.096 138.843 205.818L140.117 207.655C140.117 207.655 122.772 226.213 93.8781 226.213C64.9843 226.213 52.6858 203.164 52.6858 203.164Z" fill="url(#paint4_linear_1112_3080)"/>
<g style="mix-blend-mode:multiply" opacity="0.6">
<path d="M54.2929 177.116C54.2929 177.116 63.9467 179.827 66.2812 183.997C68.6158 188.168 83.6265 219.501 95.4739 220.008C107.321 220.515 114.99 203.84 120.996 200.002C127.001 196.164 137.879 195.888 137.879 195.888L137.258 161.574L54.9809 160.21L54.2929 177.116Z" fill="#D177B8"/>
</g>
<path style="mix-blend-mode:multiply" opacity="0.6" d="M110.936 182.639L107.885 213.877C107.885 213.877 115.216 205.643 118.994 199.641C122.772 193.64 129.753 170.134 129.753 170.134L110.936 182.639Z" fill="url(#paint5_linear_1112_3080)"/>
<path style="mix-blend-mode:multiply" opacity="0.6" d="M144.346 207.976C144.346 207.976 131.766 219.309 118.819 224.646C118.819 224.646 144.527 216.475 151.722 211.121L144.346 207.976Z" fill="url(#paint6_linear_1112_3080)"/>
<path style="mix-blend-mode:multiply" opacity="0.6" d="M48.1578 206.861C54.8597 213.365 62.0807 219.313 69.7492 224.646C69.7492 224.646 53.4753 220.301 39.5246 211.025L48.1578 206.861Z" fill="url(#paint7_linear_1112_3080)"/>
<g style="mix-blend-mode:multiply" opacity="0.6">
<path d="M60.2363 212.665C60.2363 212.665 73.3524 224.646 96.0885 224.646C118.825 224.646 132.584 213.877 132.584 213.877C132.584 213.877 116.936 226.202 93.8612 226.202C70.7867 226.202 60.2363 212.665 60.2363 212.665Z" fill="#D177B8"/>
</g>
<path d="M153.132 95.7848C153.132 95.7848 160.164 84.2772 168.357 84.8351C173.911 85.207 177.847 88.949 177.757 95.7285C177.633 104.796 169.597 115.098 167.607 120.389C165.616 125.681 160.423 132.562 156.972 133.227C153.521 133.892 149.038 127.372 149.038 127.372C149.038 127.372 151.282 104.007 153.132 95.7848Z" fill="url(#paint8_linear_1112_3080)"/>
<path style="mix-blend-mode:multiply" opacity="0.6" d="M153.132 107.558C153.132 107.558 166.586 90.9497 171.481 90.9497C176.375 90.9497 176.37 100.395 174.396 105.788C173.032 109.519 170.364 114.912 170.364 114.912C170.364 114.912 172.479 109.119 172.733 104.768C173.122 98.1011 171.639 93.2546 169.953 93.2659C166.857 93.2659 164.415 97.5151 164.026 99.0197C163.637 100.524 166.474 107.101 165.718 111.688C164.962 116.276 162.216 118.023 161.297 117.521C160.378 117.019 161.799 111.852 160.964 110.02C160.13 108.189 157.711 105.512 156.295 106.075C154.88 106.639 153.132 107.558 153.132 107.558Z" fill="url(#paint9_linear_1112_3080)"/>
<path style="mix-blend-mode:multiply" opacity="0.6" d="M153.132 107.557C153.132 107.557 156.448 105.574 157.457 106.205C158.466 106.836 161.026 109.141 161.133 110.589C161.241 112.038 160.321 116.157 161.133 116.873C161.945 117.589 164.872 112.928 165.002 108.842C165.131 104.757 162.831 100.006 162.831 99.4536C162.831 98.9013 163.366 96.2639 163.366 96.2639C163.366 96.2639 155.568 103.658 153.132 107.557Z" fill="url(#paint10_linear_1112_3080)"/>
<path d="M154.175 97.0303C158.748 112.348 154.902 118.366 153.611 128.448C152.32 138.53 149.715 146.544 148.119 150.342C147.216 152.286 146.003 154.069 144.527 155.623C139.982 160.734 132.758 166.11 127.864 171.154C126.134 172.92 124.268 174.546 122.281 176.017H122.253C119.653 177.998 116.829 179.666 113.84 180.988C109.176 182.904 97.0753 182.904 97.0753 182.904C97.0753 182.904 84.9799 182.904 80.3165 180.988C75.0648 178.626 70.3082 175.291 66.2981 171.16C60.5183 165.203 52.5166 158.716 48.4848 152.822C47.8871 151.96 46.7931 148.843 46.4322 148.009C45 144.594 43.4718 138.006 42.079 129.232C41.752 127.199 41.376 125.172 40.9512 123.151C38.1825 109.879 39.8234 104.897 42.0001 95.4017C43.1278 66.2605 35.5153 48.103 38.4024 40.3147C41.2896 32.5265 77.9312 11.9231 97.0471 11.9231C110.473 11.9231 131.8 19.2211 144.047 28.0519C149.247 31.8051 153.549 38.0436 154.412 40.3598C157.321 48.1424 151.299 87.3936 154.175 97.0303Z" fill="url(#paint11_linear_1112_3080)"/>
<path style="mix-blend-mode:multiply" opacity="0.6" d="M147.623 138.542C145.367 146.995 139.982 157.319 136.136 162.244C132.928 166.353 124.176 175.544 123.415 176.249C125.386 174.778 127.235 173.151 128.946 171.385C134.642 164.476 147.217 153.864 147.651 151.182C149.664 147.44 152.495 137.888 153.854 127.44C155.111 117.262 158.365 113.757 154.587 98.4168C151.361 89.2309 157.085 51.0448 154.214 43.2566C153.363 40.9404 142.164 28.1929 137.004 24.4453C147.155 38.9962 145.818 49.0668 145.531 53.6203C145.531 53.6653 145.531 53.7104 145.531 53.7612C145.226 60.3321 138.363 65.4604 131.777 65.3928L123.573 66.0296L112.233 72.0596C112.233 72.0596 108.111 80.4734 108.607 89.7043C108.911 95.3398 110.834 98.9522 119.231 102.407C123.556 104.182 134.388 101.398 140.095 100.846C142.272 100.599 144.467 101.123 146.297 102.328C147.516 103.168 148.524 104.278 149.244 105.571C149.964 106.864 150.376 108.306 150.448 109.784C150.758 114.872 150.098 129.288 147.623 138.542Z" fill="url(#paint12_linear_1112_3080)"/>
<path style="mix-blend-mode:multiply" opacity="0.6" d="M48.107 139.268C50.3626 147.722 55.7477 158.046 59.5878 162.966C62.7964 167.074 71.5536 176.271 72.3092 176.975C70.3371 175.504 68.4871 173.876 66.7775 172.106C61.0822 165.203 48.7329 154.557 48.0788 151.903C46.0657 148.161 43.2688 138.136 41.876 128.166C40.5227 118.282 37.3649 114.483 41.143 99.1436C44.2669 89.2646 38.6393 51.766 41.5095 43.9778C42.3666 41.6672 53.4583 29.7369 58.618 25.9893C48.4679 40.5457 49.9058 49.7879 50.1934 54.3471C50.1934 54.3921 50.1934 54.4372 50.1934 54.4823C50.4923 61.0589 57.3605 66.1872 63.9467 66.114L70.8149 66.0407L83.4912 72.8033C86.613 77.2158 88.1275 82.5641 87.7824 87.9571C87.4779 93.5926 84.354 99.9889 75.6982 102.756C68.8018 104.965 61.3359 102.142 55.6462 101.584C53.4688 101.338 51.2741 101.862 49.4434 103.066C48.2266 103.908 47.2196 105.018 46.5 106.311C45.7804 107.604 45.3675 109.044 45.2932 110.522C44.9718 115.594 45.609 130.015 48.107 139.268Z" fill="url(#paint13_linear_1112_3080)"/>
<g style="mix-blend-mode:multiply" opacity="0.6">
<path d="M145.085 154.98C139.61 159.928 133.311 166.849 128.416 171.887C126.69 173.656 124.825 175.284 122.84 176.756C120.231 178.732 117.4 180.397 114.404 181.715C109.735 183.631 97.6392 183.631 97.6392 183.631C97.6392 183.631 85.5437 183.631 80.8804 181.715C75.6274 179.355 70.8705 176.02 66.862 171.887C61.0821 165.93 52.432 158.519 48.4284 152.613C52.4932 157.197 56.8741 161.49 61.5389 165.462C68.4466 171.222 79.9556 182.188 97.6392 182.188C115.323 182.188 128.574 169.08 131.332 167.074C134.089 165.068 144.724 155.262 145.085 154.98Z" fill="#D177B8"/>
</g>
<path d="M114.517 95.6665C114.517 97.977 123.195 99.8368 130.644 99.2507C137.85 98.6871 141.815 95.0184 141.561 90.2677C141.307 85.517 136.283 82.5189 128.439 83.5671C119.857 84.6942 114.5 90.1944 114.517 95.6665Z" fill="url(#paint14_linear_1112_3080)"/>
<path d="M114.86 93.2378C114.791 94.02 114.897 94.8077 115.169 95.5444C115.441 96.2811 115.873 96.9483 116.434 97.4982C116.434 97.4982 114.178 97.0192 114.037 95.8808C113.896 94.7425 114.86 93.2378 114.86 93.2378Z" fill="#DD4C6A"/>
<path d="M126.544 99.9045C131.026 99.9045 134.659 96.2738 134.659 91.795C134.659 87.3163 131.026 83.6855 126.544 83.6855C122.063 83.6855 118.43 87.3163 118.43 91.795C118.43 96.2738 122.063 99.9045 126.544 99.9045Z" fill="url(#paint15_linear_1112_3080)"/>
<path d="M126.544 99.4255C130.761 99.4255 134.179 96.0092 134.179 91.795C134.179 87.5808 130.761 84.1646 126.544 84.1646C122.328 84.1646 118.909 87.5808 118.909 91.795C118.909 96.0092 122.328 99.4255 126.544 99.4255Z" fill="url(#paint16_linear_1112_3080)"/>
<path style="mix-blend-mode:multiply" d="M126.544 96.7485C129.282 96.7485 131.501 94.5307 131.501 91.7949C131.501 89.0591 129.282 86.8413 126.544 86.8413C123.807 86.8413 121.588 89.0591 121.588 91.7949C121.588 94.5307 123.807 96.7485 126.544 96.7485Z" fill="url(#paint17_linear_1112_3080)"/>
<path d="M132.285 90.9947C131.783 91.3159 134.055 91.4907 135.77 91.0398C137.309 90.6284 138.07 89.9127 137.929 89.7549C137.788 89.5971 134.275 89.7267 132.285 90.9947Z" fill="white"/>
<path d="M130.982 91.2822C130.345 91.0849 129.578 91.316 129.539 91.5809C129.499 91.8457 130.283 92.2177 130.666 92.1444C131.05 92.0711 131.321 91.3949 130.982 91.2822Z" fill="white"/>
<g style="mix-blend-mode:multiply" opacity="0.6">
<path d="M115.718 91.0455C115.718 91.0455 127.131 82.8853 141.792 90.7524L141.679 89.924C141.679 89.924 141.318 86.2947 130.542 84.9873C119.766 83.6799 115.718 91.0455 115.718 91.0455Z" fill="#D177B8"/>
</g>
<path d="M116.434 97.4981C116.434 97.4981 122.338 100.919 131.157 100.316C137.687 99.8537 139.982 95.2439 139.982 95.2439C139.982 95.2439 131.845 100.124 116.434 97.4981Z" fill="#B47C62"/>
<path d="M117.077 89.1293C117.077 89.1293 121.65 80.4789 130.142 80.5409C138.634 80.6028 141.375 87.512 141.375 87.512C141.375 87.512 126.668 81.3693 117.077 89.1293Z" fill="#C6546F"/>
<path d="M116.434 89.9015C116.434 89.9015 120.217 85.9567 129.127 86.5202C138.036 87.0838 141.888 89.9015 141.888 89.9015C141.888 89.9015 142.187 88.2841 141.888 87.7769C141.589 87.2697 124.441 79.0588 116.434 89.9015Z" fill="#5B164A"/>
<path d="M80.2094 95.5369C80.2657 97.8418 71.6439 99.9382 64.1836 99.5493C56.9658 99.1774 52.9057 95.6045 53.0298 90.8594C53.1539 86.1143 58.1048 82.9697 65.9655 83.7981C74.5761 84.6942 80.0797 90.0648 80.2094 95.5369Z" fill="url(#paint18_linear_1112_3080)"/>
<path d="M79.8034 93.1475C79.8928 93.9266 79.8082 94.7159 79.5557 95.4585C79.3031 96.2011 78.8889 96.8784 78.3429 97.4417C78.3429 97.4417 80.5703 96.9063 80.6943 95.7511C80.8184 94.5958 79.8034 93.1475 79.8034 93.1475Z" fill="#DD4C6A"/>
<path d="M68.0857 100.096C72.5672 100.096 76.2001 96.4654 76.2001 91.9867C76.2001 87.5079 72.5672 83.8772 68.0857 83.8772C63.6043 83.8772 59.9713 87.5079 59.9713 91.9867C59.9713 96.4654 63.6043 100.096 68.0857 100.096Z" fill="url(#paint19_linear_1112_3080)"/>
<path d="M68.0857 99.6171C72.3025 99.6171 75.7208 96.2009 75.7208 91.9867C75.7208 87.7725 72.3025 84.3562 68.0857 84.3562C63.869 84.3562 60.4506 87.7725 60.4506 91.9867C60.4506 96.2009 63.869 99.6171 68.0857 99.6171Z" fill="url(#paint20_linear_1112_3080)"/>
<path style="mix-blend-mode:multiply" d="M68.0857 96.9402C70.8231 96.9402 73.0423 94.7224 73.0423 91.9866C73.0423 89.2508 70.8231 87.033 68.0857 87.033C65.3482 87.033 63.1291 89.2508 63.1291 91.9866C63.1291 94.7224 65.3482 96.9402 68.0857 96.9402Z" fill="url(#paint21_linear_1112_3080)"/>
<path d="M62.3227 91.3385C62.8359 91.6485 60.569 91.9021 58.8435 91.4738C57.2928 91.1075 56.509 90.3917 56.6443 90.2509C56.7797 90.11 60.2984 90.1213 62.3227 91.3385Z" fill="white"/>
<path d="M63.6535 91.592C64.285 91.3778 65.0519 91.592 65.097 91.8512C65.1422 92.1105 64.3696 92.5106 63.9693 92.4148C63.5689 92.319 63.2813 91.7103 63.6535 91.592Z" fill="white"/>
<g style="mix-blend-mode:multiply" opacity="0.6">
<path d="M79.4425 91.7725C79.4425 91.7725 67.894 83.4263 52.8945 91.2822L53.0185 90.4425C53.0185 90.4425 53.4132 86.7738 64.4035 85.534C75.3937 84.2942 79.4425 91.7725 79.4425 91.7725Z" fill="#D177B8"/>
</g>
<path d="M78.3429 97.4136C78.3429 97.4136 72.5292 100.998 63.6817 100.603C57.1406 100.316 54.7271 95.7681 54.7271 95.7681C54.7271 95.7681 63.005 100.474 78.3429 97.4136Z" fill="#B47C62"/>
<path d="M78.0214 89.7662C78.0214 89.7662 73.5103 81.0594 64.9955 81.0199C56.4808 80.9805 53.6162 87.8445 53.6162 87.8445C53.6162 87.8445 68.4804 81.8765 78.0214 89.7662Z" fill="#C6546F"/>
<path d="M78.7376 90.6115C78.7376 90.6115 74.9482 86.6103 65.9429 87.0949C56.9375 87.5796 53.0241 90.4424 53.0241 90.4424C53.0241 90.4424 52.7365 88.7968 53.0241 88.2896C53.3117 87.7825 70.7303 79.5603 78.7376 90.6115Z" fill="#5B164A"/>
<path d="M111.167 128.583C107.784 129.147 107.192 127.71 104.276 127.71C101.361 127.71 100.397 129.649 97.8253 129.649C95.254 129.649 94.2841 127.71 91.3744 127.71C88.4647 127.71 87.8783 129.164 84.4893 128.583C81.433 128.059 80.0289 121.426 81.3935 117.273C81.3935 117.273 81.3935 117.273 81.3935 117.245C81.539 116.805 81.7279 116.38 81.9574 115.977C84.213 112.1 93.3085 108.025 97.8197 108.025C102.331 108.025 111.449 112.1 113.682 115.977C114.046 116.628 114.312 117.328 114.471 118.056C115.447 122.21 114.032 128.088 111.167 128.583Z" fill="url(#paint22_linear_1112_3080)"/>
<g style="mix-blend-mode:multiply" opacity="0.6">
<path d="M111.167 128.583C107.784 129.147 107.192 127.71 104.276 127.71C101.361 127.71 100.397 129.648 97.8253 129.648C95.254 129.648 94.2841 127.71 91.3744 127.71C88.4647 127.71 87.8783 129.164 84.4893 128.583C81.433 128.059 80.0289 121.426 81.3935 117.273C81.292 117.667 80.4292 121.471 82.2393 124.498C82.8935 125.591 84.2694 125.625 85.4592 125.157C88.1264 124.12 92.7897 122.007 98.8177 122.069C103.893 122.119 107.964 124.244 109.943 124.96C111.28 125.439 112.763 125.23 113.327 123.917C114.094 122.058 114.492 120.067 114.5 118.056C115.447 122.21 114.032 128.087 111.167 128.583Z" fill="#D077B7"/>
</g>
<path d="M110.423 128.206C112.114 128.166 108.951 121.612 103.526 126.735C103.526 126.735 108.573 128.431 110.423 128.206Z" fill="url(#paint23_linear_1112_3080)"/>
<path d="M85.3407 127.868C83.6773 127.676 88.4196 121.81 92.3443 127.028C92.3443 127.028 86.5926 128.014 85.3407 127.868Z" fill="url(#paint24_linear_1112_3080)"/>
<path style="mix-blend-mode:multiply" opacity="0.6" d="M82.5777 115.154C84.8727 113.971 86.79 116.873 88.0136 117.921C89.2373 118.969 86.773 114.371 83.9818 113.413L82.5777 115.154Z" fill="url(#paint25_linear_1112_3080)"/>
<path style="mix-blend-mode:multiply" opacity="0.6" d="M112.949 115.126C110.654 113.903 108.742 116.907 107.513 117.994C106.284 119.082 108.827 114.32 111.618 113.345L112.949 115.126Z" fill="url(#paint26_linear_1112_3080)"/>
<path opacity="0.7" d="M101.073 118.834C100.831 119.364 100.34 121.117 101.727 121.308C102.281 121.359 102.839 121.274 103.351 121.058C103.863 120.843 104.315 120.505 104.665 120.074C104.717 119.88 104.73 119.677 104.703 119.478C104.676 119.279 104.609 119.087 104.508 118.913C104.406 118.74 104.271 118.588 104.11 118.467C103.949 118.346 103.766 118.258 103.571 118.209C102.562 118.011 101.502 117.91 101.073 118.834Z" fill="#FFCDBD"/>
<path d="M83.8014 4.23622C90.1855 1.58804 97.1799 0.762806 104.006 1.8524C115.582 3.63322 128.061 11.7371 128.061 11.7371L93.8725 25.5666L75.9012 15.3776L83.8014 4.23622Z" fill="#3A2A1B"/>
<path d="M61.3979 12.6445C68.5311 8.03405 76.2676 4.43083 84.3878 1.93703C89.2955 0.445574 94.5098 0.272583 99.5057 1.43547C99.5057 1.43547 82.6566 5.64518 81.2074 14.7014C81.4217 14.2393 92.5586 4.86748 103.041 2.44986C108.596 1.1706 108.911 0.973358 117.759 2.01592C118.029 2.08629 118.288 2.19645 118.526 2.34278C118.526 2.34278 106.684 7.94447 107.71 13.5123C108.207 13.1066 123.871 3.45861 138.442 11.9682C135.654 11.4528 132.808 11.32 129.984 11.5737C129.984 11.5737 135.003 12.543 142.452 18.8266C144.962 20.9735 147.276 23.3404 149.365 25.8991C155.444 33.5127 160.327 43.3692 161.207 52.5438C161.207 52.5438 161.551 59.1993 160.705 64.4854L158.348 89.4675L153.605 95.9652C151.614 89.9798 150.847 83.6556 151.35 77.3681C151.451 74.7814 152.404 67.5116 152.478 64.0627C152.63 61.0474 152.458 58.0245 151.965 55.0459C151.502 51.411 151.034 48.4693 149.354 44.6034C147.871 41.177 145.012 32.1771 135.944 24.5523C131.602 20.9061 121.926 18.3532 115.949 19.0858C99.3704 21.0808 103.476 31.1796 89.1132 32.4532C61.2739 34.9103 73.719 18.7984 73.719 18.7984C73.719 18.7984 55.5053 24.124 46.28 39.3736C43.3929 44.1356 42.7106 51.0898 44.2105 56.3815C45.2932 60.1911 42.4117 66.8748 42.2538 69.7602C42.2538 83.6573 42.0057 95.396 42.0057 95.396C42.0057 95.396 35.5943 88.3855 35.5773 88.1601C35.4138 86.0749 35.0134 74.9054 34.0379 65.2462C33.474 59.6107 32.4421 53.9019 33.1808 48.289C33.4458 46.294 35.4871 40.078 37.754 35.7782C40.3986 30.7682 47.6615 21.6556 52.4884 18.6801L61.3979 12.6445Z" fill="url(#paint27_linear_1112_3080)"/>
<path d="M111.128 76.3988C111.128 76.3988 113.868 75.0914 120.573 74.6462C122.563 74.511 124.898 74.4602 127.616 74.5335C134.445 74.6791 141.248 75.4335 147.944 76.7877C147.871 76.5792 144.437 71.434 140.168 69.2192C140.522 69.7905 140.717 70.4463 140.732 71.1184C137.216 68.7457 133.267 67.0875 129.11 66.2381C127.82 65.9802 126.511 65.8275 125.197 65.7816C122.75 65.6576 120.314 66.1704 118.125 67.2699C115.937 68.3694 114.072 70.0178 112.712 72.0539C112.815 71.0787 113.173 70.1478 113.75 69.3545C113.75 69.3545 111.02 71.2875 111.128 76.3988Z" fill="url(#paint28_linear_1112_3080)"/>
<g style="mix-blend-mode:multiply" opacity="0.6">
<path d="M120.607 74.6462C122.597 74.5109 124.932 74.4602 127.65 74.5335C134.479 74.6791 141.282 75.4335 147.978 76.7877C147.905 76.5792 144.47 71.434 140.202 69.2192C140.556 69.7905 140.751 70.4463 140.766 71.1184C137.249 68.7457 133.301 67.0875 129.144 66.238C131.529 67.3651 136.723 69.8617 139.801 73.846C139.779 73.8685 133.272 71.7946 120.607 74.6462Z" fill="#CF77B6"/>
</g>
<path d="M118.791 135.008C118.791 135.008 121.853 137.741 122.738 139.77C122.738 139.77 123.234 136.225 120.764 134.535L118.791 135.008Z" fill="#C4654C"/>
<path d="M76.4933 135.008C76.4933 135.008 73.4314 137.741 72.5461 139.77C72.5461 139.77 72.0555 136.225 74.5197 134.535L76.4933 135.008Z" fill="#C4654C"/>
<path d="M75.3881 137.352C75.3881 137.352 82.0927 139.533 98.3948 139.533C114.697 139.533 120.263 137.104 120.263 137.104C120.263 137.104 112.492 140.796 97.5659 140.796C82.6397 140.796 75.3881 137.352 75.3881 137.352Z" fill="#C4654C"/>
<path d="M84.213 76.5904C84.213 76.5904 81.5289 75.1759 74.8467 74.4658C72.8618 74.2516 70.5273 74.1051 67.8094 74.0769C60.9788 73.9583 54.1512 74.4486 47.4078 75.5422C47.4924 75.3393 51.1295 70.3293 55.4771 68.2893C55.1077 68.8489 54.8937 69.4965 54.8568 70.1659C58.4652 67.9344 62.4771 66.4332 66.6647 65.7477C67.9701 65.5407 69.2901 65.439 70.6119 65.4434C73.0552 65.423 75.4622 66.0352 77.5986 67.2202C79.735 68.4053 81.5281 70.1229 82.8032 72.206C82.7358 71.2296 82.4152 70.2876 81.8728 69.4727C81.8728 69.4727 84.5175 71.4902 84.213 76.5904Z" fill="url(#paint29_linear_1112_3080)"/>
<g style="mix-blend-mode:multiply" opacity="0.6">
<path d="M74.8411 74.4659C72.8562 74.2518 70.5217 74.1052 67.8037 74.0771C60.9732 73.9584 54.1456 74.4487 47.4022 75.5423C47.4867 75.3394 51.1238 70.3295 55.4714 68.2894C55.1021 68.8491 54.8881 69.4966 54.8512 70.166C58.4596 67.9345 62.4715 66.4333 66.659 65.7478C64.2287 66.7566 58.945 69.0671 55.7083 72.9331C55.7083 72.9331 62.272 71.1128 74.8411 74.4659Z" fill="#CF77B6"/>
</g>
<path d="M74.0516 138.542C74.0516 138.542 78.1793 147.958 83.1134 152.63C89.3613 158.519 102.111 158.519 110.372 154.422C115.12 152.072 120.64 139.252 120.64 139.252L97.5659 148.06L74.0516 138.542Z" fill="#E28684"/>
<g style="mix-blend-mode:multiply" opacity="0.6">
<path d="M80.5703 148.939C80.5703 148.939 86.2092 158.846 97.69 158.846C109.661 159.652 114.077 150.393 114.077 150.393C114.077 150.393 109.808 157.02 98.1749 156.592C85.8652 157.589 80.5703 148.939 80.5703 148.939Z" fill="#D177B8"/>
</g>
<path d="M120.64 136.93C120.64 136.93 113.603 140.807 97.5659 140.807C81.5232 140.807 74.4915 136.93 74.4915 136.93C72.9069 137.189 74.4915 139.252 74.4915 139.252C85.7298 153.385 109.453 152.737 120.64 139.252C120.64 139.252 122.219 137.189 120.64 136.93Z" fill="#6A2254"/>
<path d="M77.4238 138.113V140.074C77.4238 140.074 84.5852 145.941 97.566 145.941C110.547 145.941 116.924 140.333 116.924 140.333L117.347 138.231C110.9 139.978 104.246 140.844 97.566 140.807C90.761 140.822 83.9854 139.915 77.4238 138.113Z" fill="white"/>
<path d="M107.637 162.898L104.553 159.827C104.021 159.298 103.329 158.961 102.585 158.869C100.837 158.649 97.4701 158.356 94.8424 158.869C94.2289 158.998 93.6665 159.304 93.224 159.748C92.0754 160.943 90.799 162.009 89.4177 162.926C86.4798 164.893 74.4633 157.635 71.4916 149.08C71.2548 145.011 71.61 141.703 73.1156 138.108C78.7545 137.11 80.0515 142.999 88.4704 139.235C91.459 137.893 92.2766 138.547 94.5266 138.046C95.7953 137.764 96.9626 135.955 97.6336 135.386H97.6956C98.3723 135.949 99.3535 137.437 100.865 138.046C103.735 139.173 104.383 137.629 107.372 138.97C113.936 141.545 113.97 139.533 121.836 138.046C122.902 140.424 123.42 143.878 123.398 148.978C121.943 156.152 110.519 164.825 107.637 162.904M97.3291 198.058C100.308 198.062 103.274 197.67 106.148 196.891C113.744 194.829 125.834 190.98 132.273 187.249C139.519 183.051 146.89 166.849 151.914 157.02C153.529 153.938 154.771 150.675 155.613 147.299C156.405 144.15 156.971 140.948 157.305 137.719C160.66 107.253 153.775 94.1958 153.775 94.1958C153.296 94.3024 152.874 94.5816 152.589 94.9799C152.304 95.3781 152.176 95.8674 152.23 96.3542C152.912 101.156 153.707 112.072 153.589 115.233C153.402 119.95 153.459 133.785 148.987 138.541C144.329 143.495 130.379 151.503 130.379 151.503C130.379 151.503 130.745 141.968 129.33 138.541C128.168 135.724 127.413 134.76 123.618 132.292C118.351 128.826 105.551 129.215 102.945 128.088C101.383 128.381 97.8704 130.624 97.6392 130.669C97.6392 130.669 94.1826 128.414 92.5981 128.099C88.1659 130.325 80.4293 129.852 73.5498 131.396C70.0086 132.19 67.3019 134.969 65.9429 138.333C64.3584 142.278 64.7136 151.509 64.7136 151.509C64.7136 151.509 50.5318 146.724 46.8214 138.119C45.2876 135.459 44.797 128.414 43.8948 123.128C43.4267 119.787 42.767 115.83 42.6993 111.593C42.6587 107.56 42.847 103.527 43.2632 99.5157C43.985 92.3022 42.2482 91.626 42.2482 91.626C42.2482 91.626 36.3104 108.792 40.3761 139.618C41.1204 145.293 41.5715 151.013 44.1316 156.135C49.1559 166.189 56.7459 182.904 64.2061 187.227C69.6195 190.36 78.0271 193.893 84.8389 196.086C88.8726 197.386 93.0851 198.048 97.3235 198.047L97.3291 198.058Z" fill="url(#paint30_linear_1112_3080)"/>
<g style="mix-blend-mode:soft-light">
<path d="M107.366 152.236C107.366 152.236 109.368 153.182 111.111 152.478C112.853 151.773 115.701 147.479 115.701 147.479C115.701 147.479 109.25 151.109 107.366 152.236Z" fill="#FFCCB8"/>
</g>
<path style="mix-blend-mode:multiply" opacity="0.6" d="M128.619 134.287C121.667 122.193 114.612 118.507 114.612 118.507L114.556 119.685L128.619 134.287Z" fill="url(#paint31_linear_1112_3080)"/>
<path style="mix-blend-mode:multiply" opacity="0.6" d="M66.9636 133.768C73.9107 121.674 81.1342 118.022 81.1342 118.022L81.0157 119.15L66.9636 133.768Z" fill="url(#paint32_linear_1112_3080)"/>
<path opacity="0.38" d="M102.872 197.68L108.207 196.311C108.207 196.311 112.667 194.863 119.896 192.597C124.883 191.091 129.63 188.882 133.993 186.037L138.82 180.655C138.82 180.655 141.64 173.403 140.393 175.409C139.147 177.415 136.401 180.481 131.76 183.417C130.687 184.061 129.554 184.599 128.377 185.023C129.121 183.693 130.108 181.794 131.366 179.089C134.693 171.937 136.164 151.475 135.849 153.244C135.533 155.014 133.424 161.134 130.339 169.125C129.437 171.458 128.197 174.107 126.888 176.688C125.295 179.873 123.013 182.664 120.209 184.86C117.404 187.056 114.146 188.601 110.671 189.385H110.592C108.088 189.948 106.301 188.258 104.592 185.665C103.916 184.644 103.012 183.793 101.95 183.181C100.888 182.57 99.6986 182.213 98.4752 182.141C97.2518 182.068 96.0283 182.281 94.9015 182.762C93.7748 183.244 92.7757 183.981 91.9834 184.916C89.429 187.869 86.3952 190.033 83.5927 189.024H83.5476C81.859 188.379 80.3678 187.306 79.2208 185.909C78.0738 184.513 77.3106 182.842 77.0064 181.061C76.5376 178.661 76.21 176.236 76.0253 173.797C75.7433 168.725 75.6531 164.938 75.7997 163.884C75.9463 162.83 73.11 174.502 73.6795 179.128C74.1814 183.186 74.655 184.595 74.7453 184.843C69.9635 182.25 60.9637 178.187 60.9637 178.187L63.8227 186.832L75.0723 192.467L83.9536 195.798L91.2503 197.517L102.872 197.68Z" fill="#3A2A1B"/>
<path opacity="0.38" d="M42.3102 137.967C42.3102 137.967 41.5433 144.019 41.9042 146.933C42.4011 152.345 44.022 157.595 46.6634 162.346C49.6802 168.252 52.2741 172.946 54.338 175.533C54.338 175.533 54.1124 163.957 56.9714 157.696C59.8303 151.435 61.7419 150.274 61.7419 150.274C61.7419 150.274 52.0993 155.036 51.0843 164.273C44.7631 156.361 42.3102 137.967 42.3102 137.967Z" fill="#3A2A1B"/>
<path opacity="0.49" d="M160.231 69.1966C159.577 76.1001 158.844 84.5872 158.314 89.4844C156.058 92.6628 153.605 96.2808 153.605 96.2808C153.605 96.2808 149.472 84.852 151.79 72.8428C152.06 66.9086 152.867 58.8724 151.75 53.9188C151.75 53.9188 152.81 53.8005 156.143 56.3646C161.855 62.1523 160.361 67.7878 160.361 67.7878C160.361 67.7878 158.359 63.4315 155.179 60.7885C155.645 63.0775 156.463 65.2807 157.603 67.32C158.184 68.4358 159.397 68.7458 160.231 69.1966Z" fill="#3A2A1B"/>
<path opacity="0.38" d="M153.51 136.253C153.51 136.253 154.344 142.622 154.011 145.687C153.582 151.344 152.021 156.857 149.421 161.901C146.467 168.1 143.923 173.048 141.888 175.77C141.888 175.77 141.984 163.591 139.068 157.003C136.153 150.415 134.213 149.187 134.213 149.187C134.213 149.187 143.918 154.202 145.034 163.924C151.26 155.6 153.51 136.253 153.51 136.253Z" fill="#3A2A1B"/>
<g style="mix-blend-mode:soft-light">
<path d="M108.849 183.732C112.603 180.198 116.028 176.331 119.084 172.18C122.682 167.223 125.251 161.597 126.64 155.634C128.332 148.505 128.501 145.845 128.501 145.845C128.501 145.845 128.636 156.924 127.373 162.233C126.133 167.339 121.762 178.238 117.189 181.394C112.616 184.55 108.849 183.732 108.849 183.732Z" fill="#C4D9E0"/>
</g>
<path opacity="0.38" d="M63.8227 186.815C62.1064 182.351 60.7101 177.771 59.6442 173.11C58.653 168.077 58.8227 162.885 60.1405 157.927C61.663 152.292 62.6159 150.393 62.6159 150.393C62.6159 150.393 57.9074 157.719 56.8079 161.974C55.7477 166.043 54.9527 175.64 57.5353 180.16C59.0654 182.851 61.2221 185.134 63.8227 186.815Z" fill="#3A2A1B"/>
<g style="mix-blend-mode:soft-light">
<path d="M49.6633 159.562C49.6633 159.562 48.5976 155.617 56.1876 148.95C56.1876 148.95 52.8381 150.928 52.573 150.415C52.3047 149.454 52.1161 148.472 52.0091 147.479C52.0091 147.479 46.2744 154.665 49.6633 159.562Z" fill="#A1BEC4"/>
</g>
<g style="mix-blend-mode:multiply">
<path d="M83.26 127.93C82.3465 126.425 83.8239 125.411 84.8897 124.999C88.9174 123.262 93.224 122.26 97.6054 122.041C99.2125 121.302 113.958 124.903 111.968 127.93C109.977 130.956 102.731 132.669 96.3705 132.669C87.2411 132.669 83.26 127.93 83.26 127.93Z" fill="white"/>
</g>
<path style="mix-blend-mode:multiply" opacity="0.6" d="M90.3255 79.4927C88.2448 74.9167 62.4129 68.9487 45.2988 79.6787C38.1599 84.1476 41.6843 106.853 49.996 114.055C58.3078 121.257 76.2283 120.818 84.0664 109.817C91.9045 98.8168 92.4119 84.0687 90.3255 79.4927ZM58.6123 115.436C45.1409 112.646 38.3122 91.4343 46.3025 82.2259C53.0692 78.174 71.9709 75.6324 82.2675 80.1859C83.4392 80.7186 84.4628 81.5296 85.2491 82.5481C86.0353 83.5667 86.5605 84.762 86.7787 86.0299C92.0736 115.689 68.8074 117.544 58.6123 115.436Z" fill="url(#paint33_linear_1112_3080)"/>
<path style="mix-blend-mode:multiply" opacity="0.6" d="M152.354 79.1602C150.267 74.5842 124.441 68.6162 107.321 79.3461C100.188 83.8151 103.712 106.52 112.018 113.694C120.325 120.868 138.256 120.457 146.089 109.451C153.921 98.4448 154.44 83.7362 152.354 79.1602ZM120.64 115.126C107.169 112.308 100.306 91.1018 108.331 81.8765C115.063 77.8246 133.999 75.283 144.29 79.8364C145.467 80.3655 146.496 81.1749 147.288 82.1937C148.079 83.2126 148.608 84.4097 148.829 85.6804C154.102 115.329 130.835 117.211 120.64 115.126Z" fill="url(#paint34_linear_1112_3080)"/>
<path d="M96.9231 76.1565L82.8822 106.673C79.0196 110.967 76.5892 111.638 69.7492 112.28C64.8333 112.69 59.8833 112.31 55.088 111.153C53.6712 110.815 52.3316 110.21 51.1408 109.372C47.8251 107.039 46.5676 105.67 43.6354 98.9126L46.5902 108.239C47.7324 109.565 49.1086 110.669 50.6502 111.497C53.1821 112.844 60.8679 115.588 72.8393 113.154C72.8675 113.154 72.8393 113.154 72.8393 113.154C75.9182 112.218 76.482 112.59 78.7884 110.578L78.8278 110.539C80.8466 108.769 83.401 107.687 84.7261 105.315L96.9231 76.1565Z" fill="#634A66"/>
<path d="M143.563 110.454C146.089 109.558 147.019 107.507 148.344 105.134L146.844 106.78C142.982 111.074 140.219 111.452 133.379 112.094C128.463 112.501 123.513 112.121 118.718 110.967C117.292 110.627 115.944 110.023 114.742 109.186C111.426 106.853 110.169 105.478 107.237 98.7209L108.641 103.15C109.458 105.785 110.893 108.186 112.825 110.155C113.246 110.603 113.726 110.992 114.252 111.311C116.783 112.652 127.537 115.633 136.441 112.967L143.563 110.454Z" fill="#634A66"/>
<path style="mix-blend-mode:multiply" opacity="0.6" d="M42.005 81.6719C38.74 89.3813 41.9711 99.0518 43.4372 102.236C44.6045 104.772 46.1045 107.928 49.5216 110.441C50.469 111.134 53.1982 112.988 59.0176 113.822C64.5493 114.594 71.9871 115.637 78.8045 111.247C88.2779 105.149 89.5185 94.4138 89.885 87.5779C89.9921 85.4533 89.7327 83.2611 88.4809 81.3789C86.7892 78.7753 85.2667 77.434 78.6072 76.4985C66.9459 74.8812 59.3164 75.3714 50.266 75.935C45.5631 76.1717 43.4767 78.1948 42.005 81.6719Z" fill="url(#paint35_linear_1112_3080)"/>
<path style="mix-blend-mode:multiply" opacity="0.6" d="M151.057 81.2622C154.322 88.9716 151.09 98.6364 149.624 101.826C148.457 104.356 146.957 107.518 143.54 110.031C142.593 110.725 139.863 112.579 134.038 113.413C128.507 114.19 121.069 115.233 114.257 110.843C104.778 104.74 103.543 94.0041 103.177 87.1738C103.064 85.0549 103.323 82.8627 104.581 80.9748C106.272 78.3768 107.795 77.03 114.454 76.1001C126.116 74.4827 133.745 74.973 142.796 75.5366C147.465 75.7563 149.574 77.7851 151.057 81.2622Z" fill="url(#paint36_linear_1112_3080)"/>
<path style="mix-blend-mode:multiply" opacity="0.6" d="M155.094 75.0801C153.707 74.8828 148.006 74.3193 144.944 74.1897C141.882 74.06 129.871 74.122 126.336 74.1897C122.8 74.2573 115.289 74.2235 111.003 74.9786C106.718 75.7338 103.351 76.8609 101.417 77.1201C98.5776 77.3832 95.7197 77.3832 92.88 77.1201C90.9346 76.8609 87.5681 75.7394 83.2938 74.9786C79.0195 74.2178 71.4916 74.2573 67.9616 74.1897C64.4317 74.122 52.3982 74.0544 49.3532 74.1897C46.3082 74.3249 40.6129 74.8828 39.2032 75.0801C37.7934 75.2773 37.4777 76.1283 37.4777 76.1283C43.0771 74.6067 60.1123 75.1139 64.3978 75.0463C68.6834 74.9786 80.3898 75.3731 83.2938 75.869C86.1979 76.365 92.9871 78.2585 92.9871 78.2585H101.265C101.265 78.2585 108.06 76.365 110.958 75.869C113.857 75.3731 125.569 74.9786 129.854 75.0463C134.14 75.1139 151.181 74.6067 156.775 76.1283C156.82 76.1283 156.476 75.2773 155.094 75.0801Z" fill="url(#paint37_linear_1112_3080)"/>
<path style="mix-blend-mode:multiply" opacity="0.6" d="M90.2635 92.4262C90.2635 92.4262 96.9513 84.7337 103.504 91.1976L103.346 86.8245C103.346 86.8245 97.9325 80.4282 90.8274 87.3317L90.2635 92.4262Z" fill="url(#paint38_linear_1112_3080)"/>
<path opacity="0.49" d="M55.4996 16.6457L63.5971 11.2694C78.4726 9.76476 76.7696 15.1636 76.7696 15.1636C75.6701 16.307 74.649 17.5233 73.7133 18.8041C68.9935 20.2468 69.9071 20.4158 66.879 21.6218C66.879 21.6218 48.1296 29.8271 44.0075 45.2458C42.8403 50.1938 43.5226 52.093 44.4248 57.7679C44.5996 62.1467 42.5358 66.5424 42.2651 69.6024C42.0846 77.402 42.1523 95.5257 42.1523 95.5257C42.1523 95.5257 35.5773 88.3517 35.5717 88.1996C35.2728 84.9253 35.098 70.3914 33.0004 56.1562L33.0455 52.0479C32.8255 49.9853 33.4571 46.9759 33.8349 45.6178C35.5435 39.8865 40.7257 25.5723 55.4996 16.6457Z" fill="#3A2A1B"/>
<path opacity="0.27" d="M96.5228 158.649C96.5904 159.776 92.4627 169.39 91.3857 171.892C91.2504 172.208 91.1263 172.523 91.0192 172.85C90.7372 173.724 90.179 175.155 89.9309 175.736C88.6903 178.723 87.5569 181.106 87.2411 181.766C87.2411 181.766 94.1488 168.956 94.7296 167.316C95.3104 165.676 97.6505 158.593 97.6505 158.593L96.5228 158.649Z" fill="#3A2A1B"/>
<path opacity="0.27" d="M108.122 166.674C108.127 169.218 107.473 171.72 106.223 173.936C104.973 176.153 103.17 178.007 100.989 179.32C100.557 179.583 100.109 179.818 99.6467 180.024C100.053 179.793 105.675 176.434 105.804 171.887C105.928 167.17 102.421 159.353 102.421 159.353C104.705 167.068 101.885 173.746 99.7764 177.319C98.7991 178.954 97.47 180.352 95.8856 181.411C95.8856 181.411 100.741 174.851 101.113 169.069C101.231 167.003 101.209 164.932 101.045 162.87C100.915 161.45 100.34 158.626 100.34 158.626L103.03 158.925C103.03 158.925 104.276 158.75 107.372 162.87C108.103 163.994 108.371 165.357 108.122 166.674Z" fill="#3A2A1B"/>
<path opacity="0.49" d="M122.011 11.7652C122.011 11.7652 115.345 13.191 110.682 15.1127L130.193 11.5342L122.011 11.7652Z" fill="#3A2A1B"/>
<g style="mix-blend-mode:soft-light" opacity="0.5">
<path d="M144.854 33.1069C144.854 33.1069 148.395 37.5026 152.038 39.7512C155.681 41.9997 156.763 40.4782 156.763 40.4782C156.763 40.4782 159.019 45.1838 158.556 48.7905C158.556 48.7905 156.222 43.572 153.904 42.5915C151.587 41.6109 150.431 42.5915 150.431 42.5915C150.431 42.5915 146.123 34.9723 144.854 33.1069Z" fill="#FFD9BB"/>
</g>
<g style="mix-blend-mode:soft-light">
<path d="M142.841 144.842C142.841 144.842 147.538 150.9 147.324 153.577C147.109 156.254 144.978 158.823 144.978 158.823C144.978 158.823 143.636 149.801 142.841 144.842Z" fill="#C4D9E0"/>
</g>
<g style="mix-blend-mode:soft-light">
<path d="M137.563 160.942C137.563 160.942 139.903 169.227 138.628 172.715C137.354 176.203 134.196 179.416 134.196 179.416C134.196 179.416 136.395 167.496 137.563 160.942Z" fill="#A1BEC4"/>
</g>
<g style="mix-blend-mode:soft-light">
<path d="M99.4098 165.913C99.4098 165.913 98.4625 174.468 95.9701 177.218C93.4777 179.968 89.3444 181.766 89.3444 181.766C89.3444 181.766 95.8742 171.549 99.4098 165.913Z" fill="#A1BEC4"/>
</g>
<g style="mix-blend-mode:soft-light">
<path d="M84.416 184.933C84.416 184.933 79.0365 178.21 78.8504 174.502C78.6643 170.793 80.3221 166.612 80.3221 166.612C80.3221 166.612 82.9273 178.446 84.416 184.933Z" fill="#C4D9E0"/>
</g>
<path opacity="0.49" d="M97.8817 29.5453C97.8817 29.5453 105.365 24.2761 103.019 17.9305C101.118 12.8022 97.3798 13.935 96.0603 13.4898C97.3404 13.9575 100.735 13.6419 101.936 18.4377C103.273 23.7464 98.1411 26.6712 98.1411 26.6712C98.1411 26.6712 97.0697 27.6236 91.1996 30.0525C85.6622 29.2579 80.6717 28.8521 79.3579 24.3043C78.1004 19.8973 82.4311 14.0195 82.6735 13.687L84.8953 11.9231L82.4649 13.4898L81.5683 14.0251C81.3484 14.4083 77.5083 21.0977 78.4162 24.6142C79.3466 28.2209 86.5136 31.6079 86.5136 31.6079C86.5136 31.6079 79.7018 32.0756 74.9426 29.3931C70.1833 26.7106 72.3092 19.6494 76.3749 15.9581L76.2001 16.0314L75.4839 16.3244C75.1118 16.7865 69.3544 23.8534 71.4126 28.159C73.1945 33.028 83.5983 32.6673 83.5983 32.6673C83.5983 32.6673 93.6243 33.1126 97.8817 29.5453Z" fill="#3A2A1B"/>
<path opacity="0.49" d="M90.7203 29.9849C90.7203 29.9849 86.6039 20.027 88.2335 14.9945C89.8632 9.96204 95.5641 13.2193 95.5641 13.2193L96.2577 13.5631C96.2577 13.5631 89.6545 8.68841 85.4705 13.2363C81.2864 17.7841 88.4027 29.6525 88.4027 29.6525L90.7203 29.9849Z" fill="#3A2A1B"/>
<g style="mix-blend-mode:soft-light" opacity="0.5">
<path d="M89.8463 15.1128C89.8463 15.1128 88.4478 16.3357 88.9215 20.2918C88.9215 20.2918 89.1696 19.2605 89.4459 19.1647C89.7222 19.0689 91.6564 19.8635 94.8423 20.6525C98.0283 21.4415 99.9174 20.0495 100.29 20.196C101.305 20.5792 100.927 21.8528 100.927 21.8528C100.927 21.8528 102.427 20.8046 100.216 16.8429C100.272 17.2764 100.283 17.7145 100.25 18.1503C100.165 18.2856 96.2351 17.3783 93.8499 17.5304C93.0941 17.5929 92.3341 17.4822 91.6276 17.2068C90.9211 16.9314 90.2868 16.4986 89.773 15.9412C89.7323 15.6631 89.7574 15.3794 89.8463 15.1128Z" fill="#FFD9BB"/>
</g>
<g style="mix-blend-mode:soft-light" opacity="0.5">
<path d="M83.8746 15.8003C83.6011 16.5503 83.2809 17.2824 82.916 17.9925C82.6002 18.4602 80.8973 19.1196 80.6604 18.804L80.4518 18.4941C80.0157 19.408 79.7483 20.3931 79.6624 21.402C79.6624 21.402 80.3616 19.8748 81.2751 19.7733C81.7808 19.7141 82.2918 19.7141 82.7976 19.7733C83.0784 18.429 83.4381 17.1024 83.8746 15.8003Z" fill="#FFD9BB"/>
</g>
<g style="mix-blend-mode:soft-light" opacity="0.5">
<path d="M77.4012 22.501C77.4012 22.501 77.7903 19.362 78.918 17.6094C78.918 17.6094 77.2264 18.5674 76.296 18.9619C75.6835 19.2052 75.0255 19.3129 74.3674 19.2775C73.5019 20.7103 72.9933 22.3299 72.8844 24C72.8844 24 76.0253 22.3094 77.4012 22.501Z" fill="#FFD9BB"/>
</g>
<g style="mix-blend-mode:soft-light">
<path d="M67.0368 171.481C65.4904 160.97 66.3268 150.247 69.4841 140.103C69.4841 140.103 64.973 158.863 71.3957 180.317C69.0587 177.897 67.535 174.808 67.0368 171.481Z" fill="#A1BEC4"/>
</g>
<path d="M156.82 76.1284C152.574 74.0094 126.527 74.3644 115.182 75.1816C112.741 75.3636 110.326 75.7999 107.975 76.4834C101.434 78.3769 97.1712 78.2586 97.1712 78.2586C97.1712 78.2586 92.9082 78.3769 86.3727 76.4834C84.0224 75.7999 81.6071 75.3636 79.1661 75.1816C67.8207 74.3644 41.7689 74.0094 37.5228 76.1284C36.5134 80.9918 37.5228 81.2961 37.5228 81.2961C38.256 81.5435 38.8987 82.0038 39.3688 82.6182C39.8389 83.2325 40.115 83.973 40.1618 84.745C40.8723 89.6141 39.3103 100.558 46.8552 109.181C48.0074 110.464 49.383 111.527 50.9152 112.319C53.4471 113.616 61.7814 116.698 73.7528 114.36C76.363 113.858 78.8138 112.735 80.8973 111.085C86.7674 106.385 88.9948 99.7805 89.5643 97.9264C89.5643 97.9264 92.0623 91.2258 93.0266 87.6867C93.2384 86.834 93.6928 86.0609 94.3348 85.4607C95.0946 84.7233 96.1121 84.3108 97.1712 84.3108C98.2303 84.3108 99.2478 84.7233 100.008 85.4607C100.65 86.0609 101.104 86.834 101.316 87.6867C102.28 91.2258 104.778 97.9264 104.778 97.9264C105.342 99.7805 107.598 106.38 113.445 111.085C115.535 112.736 117.991 113.859 120.607 114.36C132.572 116.698 140.907 113.616 143.438 112.319C144.972 111.529 146.347 110.465 147.499 109.181C155.049 100.558 153.481 89.6141 154.192 84.745C154.24 83.9735 154.517 83.2337 154.987 82.6196C155.457 82.0055 156.099 81.5448 156.831 81.2961C156.831 81.2961 157.823 80.9918 156.82 76.1284ZM88.4985 93.5984C87.8692 96.4061 86.9801 99.1492 85.8426 101.792C84.4496 104.909 82.2489 107.597 79.4681 109.578C76.6874 111.56 73.4274 112.763 70.0255 113.063C61.99 113.79 54.338 111.97 53.3963 111.463C49.9509 109.637 44.2951 105.625 42.9023 95.0862C41.5095 84.5478 43.6635 81.313 43.6635 81.313C43.6635 81.313 44.5263 79.2391 48.2254 78.1233C51.9245 77.0075 58.0146 76.4327 67.1214 76.1453C76.2283 75.8578 82.6679 78.2755 84.1904 78.9348C85.7129 79.5942 91.4421 81.0932 88.4985 93.6153V93.5984ZM151.44 95.0692C150.047 105.608 144.239 109.513 140.794 111.339C137.348 113.165 120.911 113.593 117.206 111.694C113.501 109.795 108.787 106.12 105.844 93.5984C102.9 81.0763 108.635 79.5604 110.158 78.901C111.68 78.2417 118.114 75.8071 127.221 76.1114C136.328 76.4158 142.412 76.9737 146.117 78.0895C149.822 79.2053 150.684 81.2792 150.684 81.2792C150.684 81.2792 152.839 84.5478 151.44 95.0862V95.0692Z" fill="url(#paint39_linear_1112_3080)"/>
<defs>
<linearGradient id="paint0_linear_1112_3080" x1="32.0079" y1="133.278" x2="32.0079" y2="84.8125" gradientUnits="userSpaceOnUse">
<stop stop-color="#FF7777"/>
<stop offset="0.15" stop-color="#F88F83"/>
<stop offset="0.41" stop-color="#EFB395"/>
<stop offset="0.54" stop-color="#EBC19C"/>
<stop offset="0.61" stop-color="#E5B592"/>
<stop offset="0.74" stop-color="#DAA182"/>
<stop offset="0.87" stop-color="#D39578"/>
<stop offset="1" stop-color="#D19175"/>
</linearGradient>
<linearGradient id="paint1_linear_1112_3080" x1="30.9985" y1="117.622" x2="30.9985" y2="90.9497" gradientUnits="userSpaceOnUse">
<stop stop-color="#FFEADB"/>
<stop offset="0.99" stop-color="#D177F4"/>
</linearGradient>
<linearGradient id="paint2_linear_1112_3080" x1="36.3104" y1="116.946" x2="36.3104" y2="96.2639" gradientUnits="userSpaceOnUse">
<stop stop-color="#FFEADB"/>
<stop offset="0.99" stop-color="#D177F4"/>
</linearGradient>
<linearGradient id="paint3_linear_1112_3080" x1="98.1411" y1="229.977" x2="98.1411" y2="159.517" gradientUnits="userSpaceOnUse">
<stop stop-color="#D57C9D"/>
<stop offset="0.25" stop-color="#DA978D"/>
<stop offset="0.43" stop-color="#DCA585"/>
<stop offset="0.46" stop-color="#DAA183"/>
<stop offset="0.64" stop-color="#D18D7B"/>
<stop offset="0.82" stop-color="#CC8177"/>
<stop offset="1" stop-color="#CA7D75"/>
</linearGradient>
<linearGradient id="paint4_linear_1112_3080" x1="98.1411" y1="229.977" x2="98.1411" y2="202.955" gradientUnits="userSpaceOnUse">
<stop offset="0.01" stop-color="#8684F4"/>
<stop offset="1" stop-color="#839AF2"/>
</linearGradient>
<linearGradient id="paint5_linear_1112_3080" x1="118.819" y1="213.877" x2="118.819" y2="170.134" gradientUnits="userSpaceOnUse">
<stop stop-color="#FFEADB"/>
<stop offset="0.99" stop-color="#D177F4"/>
</linearGradient>
<linearGradient id="paint6_linear_1112_3080" x1="135.268" y1="224.646" x2="135.268" y2="207.976" gradientUnits="userSpaceOnUse">
<stop stop-color="#FFEADB"/>
<stop offset="0.99" stop-color="#D177F4"/>
</linearGradient>
<linearGradient id="paint7_linear_1112_3080" x1="54.6369" y1="224.646" x2="54.6369" y2="206.861" gradientUnits="userSpaceOnUse">
<stop stop-color="#FFEADB"/>
<stop offset="0.99" stop-color="#D177F4"/>
</linearGradient>
<linearGradient id="paint8_linear_1112_3080" x1="163.366" y1="133.278" x2="163.366" y2="84.8125" gradientUnits="userSpaceOnUse">
<stop stop-color="#FF7777"/>
<stop offset="0.15" stop-color="#F88F83"/>
<stop offset="0.41" stop-color="#EFB395"/>
<stop offset="0.54" stop-color="#EBC19C"/>
<stop offset="0.61" stop-color="#E5B592"/>
<stop offset="0.74" stop-color="#DAA182"/>
<stop offset="0.87" stop-color="#D39578"/>
<stop offset="1" stop-color="#D19175"/>
</linearGradient>
<linearGradient id="paint9_linear_1112_3080" x1="164.381" y1="117.622" x2="164.381" y2="90.9497" gradientUnits="userSpaceOnUse">
<stop stop-color="#FFEADB"/>
<stop offset="0.99" stop-color="#D177F4"/>
</linearGradient>
<linearGradient id="paint10_linear_1112_3080" x1="159.07" y1="116.946" x2="159.07" y2="96.2639" gradientUnits="userSpaceOnUse">
<stop stop-color="#FFEADB"/>
<stop offset="0.99" stop-color="#D177F4"/>
</linearGradient>
<linearGradient id="paint11_linear_1112_3080" x1="97.0528" y1="182.904" x2="97.0528" y2="11.9231" gradientUnits="userSpaceOnUse">
<stop stop-color="#DFAC9B"/>
<stop offset="0.36" stop-color="#E5B39C"/>
<stop offset="0.54" stop-color="#EBC19C"/>
<stop offset="0.61" stop-color="#E5B592"/>
<stop offset="0.74" stop-color="#DAA182"/>
<stop offset="0.87" stop-color="#D39578"/>
<stop offset="1" stop-color="#D19175"/>
</linearGradient>
<linearGradient id="paint12_linear_1112_3080" x1="132.448" y1="176.249" x2="132.448" y2="24.4453" gradientUnits="userSpaceOnUse">
<stop stop-color="#FFEADB"/>
<stop offset="0.99" stop-color="#D177F4"/>
</linearGradient>
<linearGradient id="paint13_linear_1112_3080" x1="63.6028" y1="176.975" x2="63.6028" y2="25.9893" gradientUnits="userSpaceOnUse">
<stop stop-color="#FFEADB"/>
<stop offset="0.99" stop-color="#D177F4"/>
</linearGradient>
<linearGradient id="paint14_linear_1112_3080" x1="127.776" y1="99.4113" x2="128.437" y2="83.2283" gradientUnits="userSpaceOnUse">
<stop stop-color="#EEE2FF"/>
<stop offset="1" stop-color="#BDC9FB"/>
</linearGradient>
<linearGradient id="paint15_linear_1112_3080" x1="126.198" y1="99.9166" x2="126.86" y2="83.7111" gradientUnits="userSpaceOnUse">
<stop stop-color="#ACA1DB"/>
<stop offset="1" stop-color="#6A518A"/>
</linearGradient>
<linearGradient id="paint16_linear_1112_3080" x1="126.218" y1="99.438" x2="126.84" y2="84.1897" gradientUnits="userSpaceOnUse">
<stop stop-color="#7F6F5E"/>
<stop offset="0.96" stop-color="#4F4741"/>
</linearGradient>
<linearGradient id="paint17_linear_1112_3080" x1="126.327" y1="96.7632" x2="126.731" y2="86.8643" gradientUnits="userSpaceOnUse">
<stop stop-color="#A79ABD"/>
<stop offset="0.99" stop-color="#724A60"/>
</linearGradient>
<linearGradient id="paint18_linear_1112_3080" x1="66.7347" y1="100.792" x2="65.6016" y2="84.5954" gradientUnits="userSpaceOnUse">
<stop stop-color="#EEE2FF"/>
<stop offset="1" stop-color="#BDC9FB"/>
</linearGradient>
<linearGradient id="paint19_linear_1112_3080" x1="68.3305" y1="101.247" x2="67.1962" y2="85.0333" gradientUnits="userSpaceOnUse">
<stop stop-color="#ACA1DB"/>
<stop offset="1" stop-color="#6A518A"/>
</linearGradient>
<linearGradient id="paint20_linear_1112_3080" x1="68.2973" y1="100.773" x2="67.2293" y2="85.5067" gradientUnits="userSpaceOnUse">
<stop stop-color="#7F6F5E"/>
<stop offset="0.96" stop-color="#4F4741"/>
</linearGradient>
<linearGradient id="paint21_linear_1112_3080" x1="68.1098" y1="98.0964" x2="67.4167" y2="88.1891" gradientUnits="userSpaceOnUse">
<stop stop-color="#A79ABD"/>
<stop offset="0.99" stop-color="#724A60"/>
</linearGradient>
<linearGradient id="paint22_linear_1112_3080" x1="97.8253" y1="108.606" x2="97.8253" y2="128.775" gradientUnits="userSpaceOnUse">
<stop stop-color="#FAAFA5"/>
<stop offset="1" stop-color="#F9A6A7"/>
</linearGradient>
<linearGradient id="paint23_linear_1112_3080" x1="129.901" y1="103.562" x2="122.497" y2="102.969" gradientUnits="userSpaceOnUse">
<stop stop-color="#721E24"/>
<stop offset="1" stop-color="#510036"/>
</linearGradient>
<linearGradient id="paint24_linear_1112_3080" x1="84.9978" y1="126.317" x2="92.3395" y2="126.361" gradientUnits="userSpaceOnUse">
<stop stop-color="#721E24"/>
<stop offset="1" stop-color="#510036"/>
</linearGradient>
<linearGradient id="paint25_linear_1112_3080" x1="82.5777" y1="115.752" x2="88.335" y2="115.752" gradientUnits="userSpaceOnUse">
<stop stop-color="#FFEADB"/>
<stop offset="0.99" stop-color="#D177F4"/>
</linearGradient>
<linearGradient id="paint26_linear_1112_3080" x1="107.197" y1="115.752" x2="112.949" y2="115.752" gradientUnits="userSpaceOnUse">
<stop stop-color="#FFEADB"/>
<stop offset="0.99" stop-color="#D177F4"/>
</linearGradient>
<linearGradient id="paint27_linear_1112_3080" x1="97.081" y1="85.1113" x2="97.081" y2="-10.1849" gradientUnits="userSpaceOnUse">
<stop stop-color="#7C776F"/>
<stop offset="1" stop-color="#3C322D"/>
</linearGradient>
<linearGradient id="paint28_linear_1112_3080" x1="118.903" y1="71.091" x2="119.17" y2="79.7977" gradientUnits="userSpaceOnUse">
<stop stop-color="#817260"/>
<stop offset="1" stop-color="#49353E"/>
</linearGradient>
<linearGradient id="paint29_linear_1112_3080" x1="78.5668" y1="68.166" x2="77.9503" y2="76.8566" gradientUnits="userSpaceOnUse">
<stop stop-color="#817260"/>
<stop offset="1" stop-color="#49353E"/>
</linearGradient>
<linearGradient id="paint30_linear_1112_3080" x1="98.5979" y1="125.05" x2="98.5979" y2="213.826" gradientUnits="userSpaceOnUse">
<stop stop-color="#7C776F"/>
<stop offset="1" stop-color="#3C322D"/>
</linearGradient>
<linearGradient id="paint31_linear_1112_3080" x1="126.275" y1="138.202" x2="120.469" y2="119.748" gradientUnits="userSpaceOnUse">
<stop stop-color="#FFEADB"/>
<stop offset="0.99" stop-color="#D177F4"/>
</linearGradient>
<linearGradient id="paint32_linear_1112_3080" x1="69.2375" y1="137.774" x2="75.042" y2="119.325" gradientUnits="userSpaceOnUse">
<stop stop-color="#FFEADB"/>
<stop offset="0.99" stop-color="#D177F4"/>
</linearGradient>
<linearGradient id="paint33_linear_1112_3080" x1="41.4587" y1="96.247" x2="91.3744" y2="96.247" gradientUnits="userSpaceOnUse">
<stop stop-color="#FFEADB"/>
<stop offset="0.99" stop-color="#D177F4"/>
</linearGradient>
<linearGradient id="paint34_linear_1112_3080" x1="103.481" y1="95.9145" x2="153.402" y2="95.9145" gradientUnits="userSpaceOnUse">
<stop stop-color="#FFEADB"/>
<stop offset="0.99" stop-color="#D177F4"/>
</linearGradient>
<linearGradient id="paint35_linear_1112_3080" x1="61.104" y1="118.156" x2="67.902" y2="69.346" gradientUnits="userSpaceOnUse">
<stop stop-opacity="0.35"/>
<stop offset="0.23" stop-opacity="0.51"/>
<stop offset="0.57" stop-opacity="0.83"/>
<stop offset="0.83"/>
<stop offset="1"/>
</linearGradient>
<linearGradient id="paint36_linear_1112_3080" x1="126.228" y1="112.173" x2="128.526" y2="76.3704" gradientUnits="userSpaceOnUse">
<stop stop-opacity="0.44"/>
<stop offset="0.23" stop-opacity="0.62"/>
<stop offset="0.57" stop-opacity="0.85"/>
<stop offset="0.83"/>
<stop offset="1"/>
</linearGradient>
<linearGradient id="paint37_linear_1112_3080" x1="37.5228" y1="76.1846" x2="156.82" y2="76.1846" gradientUnits="userSpaceOnUse">
<stop stop-color="#FFEADB"/>
<stop offset="0.99" stop-color="#8627F4"/>
</linearGradient>
<linearGradient id="paint38_linear_1112_3080" x1="90.1071" y1="88.9277" x2="103.335" y2="89.2034" gradientUnits="userSpaceOnUse">
<stop stop-color="#FFEADB"/>
<stop offset="0.99" stop-color="#D177F4"/>
</linearGradient>
<linearGradient id="paint39_linear_1112_3080" x1="126.104" y1="116.05" x2="61.2948" y2="53.5584" gradientUnits="userSpaceOnUse">
<stop/>
<stop offset="0.17"/>
<stop offset="0.42"/>
<stop offset="0.47"/>
<stop offset="0.58"/>
<stop offset="0.81"/>
</linearGradient>
</defs>
</svg>
