<svg width="36" height="27" viewBox="0 0 36 27" fill="none" xmlns="http://www.w3.org/2000/svg">
<path d="M17.9082 0.306421C17.7061 0.377796 13.9224 1.70009 9.49591 3.23651C5.07305 4.77668 1.37019 6.07644 1.26734 6.12152C0.907336 6.2868 0.708968 6.53473 0.749376 6.76013C0.778764 6.91039 0.988152 7.12075 1.2306 7.24472C1.33346 7.29355 2.27387 7.6354 3.32448 7.99978C4.37509 8.36792 5.2457 8.67595 5.26407 8.68722C5.28244 8.69849 5.1906 8.8187 5.06203 8.95769C4.2355 9.84047 3.75795 10.9036 3.58162 12.2597C3.54856 12.5001 3.51183 13.0222 3.5008 13.4167L3.47876 14.1304L3.27305 14.2431C2.65591 14.5737 2.27019 15.3663 2.38407 16.0763C2.40978 16.2228 2.47591 16.4482 2.53468 16.5797C2.65223 16.8426 2.9755 17.2108 3.18121 17.3235L3.31346 17.3948L3.28774 17.6014C3.23999 17.9921 3.04529 18.8787 2.89836 19.3783C2.41713 20.9786 1.5208 22.6502 0.334274 24.1641L0.00366211 24.5886L0.157948 24.7163C0.451825 24.9605 1.24897 25.4901 1.58693 25.6629C1.7706 25.7569 2.07183 25.8921 2.24815 25.9635L2.57509 26.0912L2.85795 25.9447C4.24285 25.2272 5.00325 23.9349 5.21631 21.9402C5.3155 21.0124 5.30448 20.0432 5.17223 17.9733L5.12815 17.2746L5.33754 17.0605C5.87754 16.5008 5.99142 15.6856 5.63509 14.9606C5.57999 14.8517 5.4257 14.6526 5.27876 14.5098L5.02162 14.2544L5.04734 13.8337C5.17223 11.7939 5.74529 10.4152 6.87305 9.44604L7.04203 9.29953L7.3506 9.40847C7.51958 9.46858 9.89264 10.295 12.6184 11.2454C15.3477 12.1996 17.7686 13.0448 18 13.1274C18.2314 13.2138 18.4812 13.2814 18.551 13.2814C18.6208 13.2814 18.8449 13.2213 19.0469 13.1462C19.249 13.0748 19.9102 12.8382 20.5163 12.6241C21.1224 12.4099 22.0812 12.0718 22.6469 11.8728C27.0992 10.3025 28.7375 9.72402 30.1041 9.24319C34.2882 7.77439 35.3094 7.40625 35.5114 7.30858C35.8604 7.13202 36.0404 6.88033 35.9853 6.65119C35.9449 6.49341 35.6877 6.27178 35.4012 6.15157C35.2543 6.09146 31.6726 4.818 27.4408 3.32666C23.209 1.83533 19.4657 0.513029 19.1204 0.392822C18.7788 0.268856 18.4482 0.171186 18.3857 0.171186C18.3269 0.171186 18.1102 0.231291 17.9082 0.306421Z" fill="black"/>
<path d="M17.9082 0.306421C17.7061 0.377796 13.9224 1.70009 9.49591 3.23651C5.07305 4.77668 1.37019 6.07644 1.26734 6.12152C0.907336 6.2868 0.708968 6.53473 0.749376 6.76013C0.778764 6.91039 0.988152 7.12075 1.2306 7.24472C1.33346 7.29355 2.27387 7.6354 3.32448 7.99978C4.37509 8.36792 5.2457 8.67595 5.26407 8.68722C5.28244 8.69849 5.1906 8.8187 5.06203 8.95769C4.2355 9.84047 3.75795 10.9036 3.58162 12.2597C3.54856 12.5001 3.51183 13.0222 3.5008 13.4167L3.47876 14.1304L3.27305 14.2431C2.65591 14.5737 2.27019 15.3663 2.38407 16.0763C2.40978 16.2228 2.47591 16.4482 2.53468 16.5797C2.65223 16.8426 2.9755 17.2108 3.18121 17.3235L3.31346 17.3948L3.28774 17.6014C3.23999 17.9921 3.04529 18.8787 2.89836 19.3783C2.41713 20.9786 1.5208 22.6502 0.334274 24.1641L0.00366211 24.5886L0.157948 24.7163C0.451825 24.9605 1.24897 25.4901 1.58693 25.6629C1.7706 25.7569 2.07183 25.8921 2.24815 25.9635L2.57509 26.0912L2.85795 25.9447C4.24285 25.2272 5.00325 23.9349 5.21631 21.9402C5.3155 21.0124 5.30448 20.0432 5.17223 17.9733L5.12815 17.2746L5.33754 17.0605C5.87754 16.5008 5.99142 15.6856 5.63509 14.9606C5.57999 14.8517 5.4257 14.6526 5.27876 14.5098L5.02162 14.2544L5.04734 13.8337C5.17223 11.7939 5.74529 10.4152 6.87305 9.44604L7.04203 9.29953L7.3506 9.40847C7.51958 9.46858 9.89264 10.295 12.6184 11.2454C15.3477 12.1996 17.7686 13.0448 18 13.1274C18.2314 13.2138 18.4812 13.2814 18.551 13.2814C18.6208 13.2814 18.8449 13.2213 19.0469 13.1462C19.249 13.0748 19.9102 12.8382 20.5163 12.6241C21.1224 12.4099 22.0812 12.0718 22.6469 11.8728C27.0992 10.3025 28.7375 9.72402 30.1041 9.24319C34.2882 7.77439 35.3094 7.40625 35.5114 7.30858C35.8604 7.13202 36.0404 6.88033 35.9853 6.65119C35.9449 6.49341 35.6877 6.27178 35.4012 6.15157C35.2543 6.09146 31.6726 4.818 27.4408 3.32666C23.209 1.83533 19.4657 0.513029 19.1204 0.392822C18.7788 0.268856 18.4482 0.171186 18.3857 0.171186C18.3269 0.171186 18.1102 0.231291 17.9082 0.306421Z" fill="url(#paint0_linear_2595_382)"/>
<path d="M26.2282 13.2433C23.8956 14.0697 21.2433 15.0051 20.3323 15.3281C19.3699 15.6662 18.6242 15.9104 18.547 15.9104C18.4735 15.9104 18.1503 15.8165 17.8307 15.7C17.1474 15.4558 7.34661 12.0412 7.32457 12.0412C7.31722 12.0412 7.30987 13.8894 7.30987 16.147C7.30987 20.6511 7.30253 20.4821 7.53028 20.884C8.97395 23.446 16.3246 24.9223 23.0323 24.0019C25.7323 23.6338 27.9805 22.8975 29.3066 21.9471C29.7989 21.5978 30.258 21.0568 30.4307 20.6286C30.5078 20.437 30.5078 20.4069 30.5189 16.0869C30.5225 13.6978 30.5152 11.7406 30.5005 11.7444C30.4821 11.7444 28.5609 12.4206 26.2282 13.2433Z" fill="black"/>
<path d="M26.2282 13.2433C23.8956 14.0697 21.2433 15.0051 20.3323 15.3281C19.3699 15.6662 18.6242 15.9104 18.547 15.9104C18.4735 15.9104 18.1503 15.8165 17.8307 15.7C17.1474 15.4558 7.34661 12.0412 7.32457 12.0412C7.31722 12.0412 7.30987 13.8894 7.30987 16.147C7.30987 20.6511 7.30253 20.4821 7.53028 20.884C8.97395 23.446 16.3246 24.9223 23.0323 24.0019C25.7323 23.6338 27.9805 22.8975 29.3066 21.9471C29.7989 21.5978 30.258 21.0568 30.4307 20.6286C30.5078 20.437 30.5078 20.4069 30.5189 16.0869C30.5225 13.6978 30.5152 11.7406 30.5005 11.7444C30.4821 11.7444 28.5609 12.4206 26.2282 13.2433Z" fill="url(#paint1_linear_2595_382)"/>
<defs>
<linearGradient id="paint0_linear_2595_382" x1="25.3613" y1="6.94573" x2="11.6727" y2="25.9531" gradientUnits="userSpaceOnUse">
<stop stop-color="#75D8AB"/>
<stop offset="1" stop-color="#39AA77"/>
</linearGradient>
<linearGradient id="paint1_linear_2595_382" x1="23.6623" y1="15.02" x2="17.8273" y2="25.8261" gradientUnits="userSpaceOnUse">
<stop stop-color="#75D8AB"/>
<stop offset="1" stop-color="#39AA77"/>
</linearGradient>
</defs>
</svg>
