<svg width="36" height="36" viewBox="0 0 36 36" fill="none" xmlns="http://www.w3.org/2000/svg">
<path d="M23.2727 14.7273C22.1681 14.7273 21.2727 13.8318 21.2727 12.7273V3.63635C21.2727 2.53178 20.3773 1.63635 19.2727 1.63635H16.7273C15.6227 1.63635 14.7273 2.53178 14.7273 3.63635V12.7273C14.7273 13.8318 13.8318 14.7273 12.7273 14.7273H3.63635C2.53178 14.7273 1.63635 15.6227 1.63635 16.7273V19.2727C1.63635 20.3773 2.53178 21.2727 3.63635 21.2727H12.7273C13.8318 21.2727 14.7273 22.1681 14.7273 23.2727V32.3636C14.7273 33.4682 15.6227 34.3636 16.7273 34.3636H19.2727C20.3773 34.3636 21.2727 33.4682 21.2727 32.3636V23.2727C21.2727 22.1681 22.1681 21.2727 23.2727 21.2727H32.3636C33.4682 21.2727 34.3636 20.3773 34.3636 19.2727V16.7273C34.3636 15.6227 33.4682 14.7273 32.3636 14.7273H23.2727Z" fill="url(#paint0_linear_2595_369)"/>
<defs>
<linearGradient id="paint0_linear_2595_369" x1="18" y1="1.63635" x2="18" y2="34.3636" gradientUnits="userSpaceOnUse">
<stop stop-color="#FF71A4"/>
<stop offset="1" stop-color="#EE3175"/>
</linearGradient>
</defs>
</svg>
