<svg width="134" height="129" viewBox="0 0 134 129" fill="none" xmlns="http://www.w3.org/2000/svg">
<path d="M70.4374 85.7591C73.5567 80.7003 79.303 78 85.2462 78H104.288C113.03 78 120.93 83.9635 121.711 92.6704C124.087 119.167 111.379 129.798 99.3781 128.954H83.2737C76.5135 128.954 70.0265 125.46 67.3423 119.256C62.2804 107.556 62.7031 98.3022 70.4374 85.7591Z" fill="url(#paint0_linear_686_6723)"/>
<g clip-path="url(#clip0_686_6723)">
<path d="M92.9829 124.863C94.8707 93.4132 89.7561 66.1524 78.2845 45.9932C66.8129 25.8339 49.1456 13.2671 27.2351 9.37275C18.7967 7.88371 14.3275 8.26006 12.9077 10.5509C10.9231 13.9871 16.4088 20.8923 24.0082 30.4483C35.5766 45.0114 51.4367 64.9579 46.8223 82.1555C44.0794 92.366 39.1262 99.173 32.0754 102.413C20.0875 107.911 5.95371 101.055 5.82464 100.973L5.51808 101.595C5.66329 101.595 20.0391 108.68 32.3658 103.035C39.594 99.7621 44.6764 92.7587 47.4838 82.3355C52.1789 64.7943 36.1897 44.7005 24.5406 29.9738C17.393 20.9741 11.746 13.8726 13.5046 10.8454C14.6502 8.88186 19.1033 8.60369 27.1221 10.0109C71.7661 17.8488 96.1291 60.7363 92.3053 124.765L92.9829 124.863Z" fill="#99A5C7"/>
<path d="M93.0633 152.648C97.5486 116.191 98.3876 73.7615 78.0744 41.4936C67.0545 23.9034 49.1292 10.1421 28.3319 8.39126C26.0892 8.19491 25.7826 6.95132 28.4771 7.1804C70.9268 10.7803 92.7728 50.5097 97.8552 89.5682C100.646 110.84 99.5655 132.488 96.9678 153.728C96.7258 155.593 92.7567 154.611 92.9987 152.648L93.0633 152.648Z" fill="#48728C"/>
<g opacity="0.2">
<path d="M97.0314 153.549C98.5587 141.609 99.4045 129.59 99.5645 117.551C99.4145 129.672 98.5687 141.774 97.0314 153.795C96.7893 155.677 92.8203 154.678 93.0623 152.715C93.0784 154.482 96.8055 155.366 97.0314 153.549Z" fill="white"/>
<path d="M28.3301 8.19823C49.1274 9.96544 67.0528 23.7267 78.0726 41.317C91.4158 62.5889 95.643 88.1316 95.6914 113.527C95.6107 88.1807 91.3835 62.6544 78.0726 41.5297C67.0528 23.9067 49.1274 10.1618 28.3301 8.39459C27.0877 8.28005 26.4585 7.85461 26.5876 7.52735C26.7166 7.80552 27.3459 8.11642 28.3301 8.19823Z" fill="white"/>
</g>
<g opacity="0.2">
<path d="M26.7186 7.39454C27.1809 7.75798 27.7472 7.959 28.332 7.96724C49.1616 9.65263 67.0547 23.4794 78.1068 41.086C94.6285 67.2668 97.1455 100.304 95.1125 131.328C97.0971 100.435 94.5156 67.6268 78.0746 41.4951C67.0547 23.9048 49.1294 10.1435 28.332 8.39268C26.9445 8.26178 26.2991 7.7218 26.7186 7.39454Z" fill="#081E2B"/>
</g>
<path opacity="0.3" d="M97.8384 89.9297C92.7076 50.8712 70.8777 11.1418 28.4602 7.52553C27.8665 7.40789 27.2514 7.4823 26.7016 7.73825C26.5079 7.37826 27.0404 7.051 28.557 7.18191C71.0068 10.7818 92.8528 50.5112 97.9352 89.5697C100.726 110.842 99.6454 132.49 97.0478 153.729C97.0328 153.837 97.0001 153.943 96.951 154.04C99.5486 132.801 100.613 111.202 97.8384 89.9297Z" fill="#83D0FF"/>
<path d="M92.1597 159.67L94.6766 159.998C95.3549 160.016 96.0131 159.764 96.5106 159.296C97.0081 158.828 97.3054 158.181 97.3388 157.494C97.3388 157.494 101.195 139.577 100.937 128.581C100.937 126.944 100.243 125.635 98.9684 125.472L96.4514 125.144C95.1768 124.981 92.9019 127.468 92.9825 129.022C93.5634 140.084 90.159 156.561 90.159 156.561C90.0881 156.899 90.0837 157.247 90.146 157.586C90.2083 157.925 90.3361 158.249 90.522 158.538C90.7079 158.827 90.9483 159.075 91.2294 159.27C91.5104 159.464 91.8266 159.6 92.1597 159.67Z" fill="#8C1C1C"/>
<path opacity="0.3" d="M90.1917 156.562C90.1917 156.562 93.596 140.084 93.0152 129.023C92.9345 127.386 95.2095 124.981 96.4841 125.145L99.0011 125.472C99.4478 125.563 99.8574 125.788 100.177 126.117C100.496 126.447 100.71 126.866 100.792 127.321C100.501 127.045 100.136 126.863 99.7432 126.797L97.2263 126.486C95.9516 126.306 93.6767 128.794 93.7574 130.348C94.3382 141.409 90.9338 157.887 90.9338 157.887C90.852 158.281 90.852 158.688 90.9338 159.082C90.6261 158.749 90.3988 158.348 90.27 157.91C90.1412 157.473 90.1144 157.011 90.1917 156.562Z" fill="#FF3333"/>
<path opacity="0.4" d="M91.0464 158.558L93.5633 158.885C94.2432 158.903 94.9032 158.651 95.4033 158.184C95.9034 157.717 96.2041 157.07 96.2417 156.381C96.2417 156.381 100.082 138.398 99.8558 127.468C99.8574 126.846 99.7252 126.232 99.4685 125.668C99.9685 125.972 100.374 126.412 100.639 126.939C100.905 127.465 101.019 128.057 100.969 128.646C101.195 139.642 97.3388 157.559 97.3388 157.559C97.3053 158.247 97.0081 158.893 96.5106 159.361C96.0131 159.829 95.3548 160.081 94.6766 160.063L92.1596 159.736C91.785 159.673 91.4319 159.516 91.133 159.279C90.8341 159.041 90.599 158.731 90.4494 158.378C90.6404 158.462 90.8409 158.522 91.0464 158.558Z" fill="#FF3333"/>
<path opacity="0.3" d="M90.3848 155.561L92.8695 155.871C93.5516 155.898 94.2163 155.65 94.7182 155.18C95.2202 154.711 95.5184 154.06 95.5478 153.368C95.5478 153.368 99.1619 136.563 99.178 125.551C100.34 125.829 100.937 127.187 100.969 128.611C101.195 139.607 97.3387 157.524 97.3387 157.524C97.3052 158.211 97.008 158.858 96.5105 159.326C96.013 159.794 95.3547 160.046 94.6765 160.028L92.1595 159.7C91.4927 159.552 90.9112 159.141 90.5423 158.558C90.1734 157.975 90.0472 157.268 90.1911 156.591C90.1911 156.591 90.2718 156.199 90.3848 155.561Z" fill="#240707"/>
<path d="M84.2698 129.826C84.2698 131.153 84.6577 132.45 85.3846 133.553C86.1115 134.657 87.1446 135.516 88.3534 136.024C89.5621 136.532 90.8922 136.665 92.1754 136.406C93.4586 136.147 94.6373 135.508 95.5625 134.57C96.4876 133.632 97.1176 132.436 97.3729 131.135C97.6281 129.833 97.4971 128.485 96.9965 127.259C96.4958 126.033 95.6479 124.985 94.56 124.248C93.4722 123.511 92.1932 123.117 90.8849 123.117C90.0156 123.115 89.1544 123.287 88.3509 123.623C87.5473 123.96 86.8172 124.454 86.2025 125.077C85.5878 125.701 85.1006 126.441 84.769 127.256C84.4373 128.071 84.2676 128.944 84.2698 129.826Z" fill="url(#paint1_linear_686_6723)"/>
<path d="M90.9173 129.105L86.8837 125.08C88.0752 124.265 89.4803 123.832 90.9173 123.836C91.7243 123.844 92.5248 123.982 93.2891 124.245L90.9173 129.105Z" fill="url(#paint2_linear_686_6723)"/>
<path d="M90.0941 129.692L90.1748 129.692L85.8508 133.374C85.1661 132.094 84.8739 130.635 85.0118 129.185C85.0931 128.365 85.3057 127.563 85.641 126.813L90.0941 129.692Z" fill="url(#paint3_linear_686_6723)"/>
<path d="M0.224471 99.5333C0.595564 98.8133 1.41841 98.8133 2.209 99.026C1.99164 98.8216 1.84927 98.5482 1.8053 98.2509C1.76132 97.9535 1.81835 97.6499 1.96699 97.3897C2.31763 96.9403 2.78932 96.6036 3.32487 96.4206C3.86041 96.2376 4.43679 96.2162 4.98413 96.3588C4.98413 96.3588 -0.211172 97.3406 5.17773 100.466L5.17773 100.597L4.59689 100.597L4.48397 100.597L4.32261 100.597L3.96765 100.401C-0.792012 98.0115 0.902116 102.691 0.902116 102.691C0.501415 102.287 0.224338 101.774 0.104133 101.214C-0.0160723 100.653 0.0257081 100.07 0.224471 99.5333Z" fill="#908ADE"/>
<path d="M91.6599 129.822L91.5792 129.822L95.3547 125.551C96.2104 126.719 96.6996 128.122 96.7584 129.576C96.8023 130.4 96.704 131.225 96.468 132.014L91.6599 129.822Z" fill="url(#paint4_linear_686_6723)"/>
<path d="M91.2557 120.072L96.2251 120.399C96.346 120.408 96.4673 120.393 96.5823 120.354C96.6972 120.315 96.8035 120.254 96.895 120.173C96.9864 120.092 97.0613 119.994 97.1152 119.884C97.1692 119.774 97.2012 119.654 97.2093 119.532C97.2204 119.408 97.2069 119.283 97.1696 119.165C97.1324 119.046 97.0721 118.936 96.9925 118.842C96.9128 118.747 96.8153 118.67 96.7057 118.614C96.5961 118.559 96.4766 118.526 96.3542 118.517L91.3848 118.19C91.2627 118.181 91.1401 118.197 91.0241 118.237C90.9082 118.277 90.8012 118.34 90.7095 118.422C90.6179 118.504 90.5433 118.604 90.4903 118.716C90.4372 118.828 90.4067 118.95 90.4006 119.074C90.3918 119.196 90.407 119.319 90.4453 119.436C90.4836 119.552 90.5442 119.66 90.6236 119.753C90.7031 119.846 90.7998 119.922 90.9083 119.976C91.0168 120.031 91.1349 120.064 91.2557 120.072Z" fill="#48728C"/>
<path d="M90.481 90.7625L95.3213 89.4043C95.5556 89.332 95.7533 89.171 95.8735 88.9546C95.9937 88.7382 96.0271 88.4832 95.9667 88.2426C95.8989 88.0026 95.7407 87.7994 95.5263 87.6769C95.3119 87.5544 95.0586 87.5225 94.8211 87.588L89.9808 88.9462C89.7465 89.0185 89.5487 89.1795 89.4285 89.3959C89.3083 89.6123 89.275 89.8673 89.3354 90.1079C89.4031 90.3479 89.5613 90.5511 89.7757 90.6736C89.9902 90.7961 90.2435 90.828 90.481 90.7625Z" fill="#48728C"/>
<path d="M84.1253 62.4551L88.6268 60.377C88.738 60.3245 88.8377 60.2499 88.9201 60.1577C89.0025 60.0655 89.0658 59.9575 89.1064 59.8401C89.147 59.7227 89.164 59.5983 89.1565 59.4741C89.1489 59.3499 89.1169 59.2285 89.0624 59.117C88.9545 58.8964 88.7662 58.727 88.5374 58.6446C88.3086 58.5622 88.0572 58.5731 87.8362 58.6752L83.3347 60.8352C83.1131 60.9449 82.9422 61.1376 82.858 61.3726C82.7737 61.6076 82.7827 61.8667 82.8829 62.0951C83.0017 62.3087 83.1987 62.4663 83.4313 62.5336C83.6638 62.601 83.9131 62.5728 84.1253 62.4551Z" fill="#48728C"/>
<path d="M70.7 37.6468L74.1044 33.9651C74.1908 33.8783 74.2593 33.7751 74.3061 33.6614C74.3529 33.5476 74.377 33.4256 74.377 33.3024C74.377 33.1791 74.3529 33.0571 74.3061 32.9434C74.2593 32.8296 74.1908 32.7264 74.1044 32.6397C74.0189 32.5521 73.9171 32.4826 73.805 32.4351C73.6928 32.3877 73.5725 32.3633 73.451 32.3633C73.3295 32.3633 73.2091 32.3877 73.097 32.4351C72.9848 32.4826 72.883 32.5521 72.7975 32.6397L69.3932 36.3377C69.3068 36.4244 69.2383 36.5276 69.1915 36.6414C69.1447 36.7551 69.1207 36.8772 69.1207 37.0004C69.1207 37.1237 69.1447 37.2457 69.1915 37.3594C69.2383 37.4732 69.3068 37.5764 69.3932 37.6631C69.4786 37.7517 69.5809 37.8217 69.6938 37.869C69.8067 37.9164 69.9279 37.94 70.0501 37.9385C70.1722 37.9369 70.2928 37.9103 70.4045 37.8601C70.5163 37.81 70.6168 37.7374 70.7 37.6468Z" fill="#48728C"/>
<path d="M51.6134 20.1086L53.969 15.6578C54.0284 15.5496 54.0659 15.4304 54.0794 15.3073C54.0928 15.1842 54.082 15.0595 54.0474 14.9407C54.0129 14.8219 53.9553 14.7113 53.8782 14.6153C53.801 14.5192 53.7057 14.4398 53.598 14.3815C53.3795 14.2656 53.1247 14.2419 52.8891 14.3154C52.6534 14.3889 52.4559 14.5538 52.3395 14.7742L49.9838 19.225C49.9245 19.3332 49.887 19.4524 49.8735 19.5755C49.8601 19.6986 49.8709 19.8232 49.9055 19.942C49.94 20.0608 49.9976 20.1715 50.0747 20.2675C50.1519 20.3635 50.2471 20.443 50.3549 20.5013C50.5734 20.6171 50.8282 20.6409 51.0638 20.5674C51.2995 20.4938 51.4969 20.3289 51.6134 20.1086Z" fill="#48728C"/>
<path d="M26.4511 10.261L27.083 7.58772C27.1806 7.17468 27.5899 6.92011 27.9972 7.01912L28.3267 7.09922C28.734 7.19823 28.985 7.61333 28.8873 8.02637L28.2555 10.6996C28.1579 11.1127 27.7486 11.3673 27.3413 11.2682L27.0118 11.1881C26.6045 11.0891 26.3535 10.674 26.4511 10.261Z" fill="#48728C"/>
<path opacity="0.3" d="M91.4822 124.191C90.3682 124.201 89.2756 124.503 88.3108 125.067C87.346 125.632 86.5418 126.441 85.9765 127.415C85.4113 128.388 85.1041 129.494 85.085 130.623C85.0659 131.753 85.3354 132.869 85.8675 133.861C85.2384 133.166 84.765 132.341 84.4796 131.443C84.1943 130.545 84.1038 129.595 84.2143 128.658C84.3249 127.721 84.6338 126.82 85.12 126.015C85.6062 125.211 86.2582 124.523 87.0312 123.998C87.8042 123.473 88.68 123.123 89.5986 122.974C90.5172 122.824 91.4568 122.877 92.3531 123.13C93.2494 123.383 94.0811 123.83 94.7914 124.439C95.5016 125.049 96.0734 125.807 96.4678 126.662C95.8703 125.9 95.1127 125.282 94.2502 124.855C93.3878 124.428 92.4421 124.201 91.4822 124.191Z" fill="#94AFFF"/>
<path d="M3.4041 100.762C3.35152 101.615 3.57382 102.463 4.03753 103.177C4.50123 103.891 5.18121 104.433 5.97498 104.721C6.76876 105.009 7.63335 105.027 8.43846 104.774C9.24356 104.52 9.94558 104.008 10.4387 103.314C10.4913 102.461 10.269 101.614 9.80527 100.899C9.34156 100.185 8.66159 99.6435 7.86781 99.3555C7.07403 99.0675 6.20947 99.0489 5.40436 99.3025C4.59925 99.5562 3.89724 100.068 3.4041 100.762Z" fill="#4E488C"/>
<path d="M3.40441 100.764C3.82757 99.9957 4.52658 99.4223 5.356 99.1632C6.18543 98.9041 7.08139 98.9794 7.85751 99.3733C8.09134 99.4515 8.31806 99.55 8.53516 99.6678C8.44058 100.67 8.0943 101.631 7.52939 102.459C6.96447 103.287 6.19977 103.954 5.30827 104.397C4.6291 104.103 4.06962 103.583 3.72316 102.922C3.37669 102.261 3.2642 101.499 3.40441 100.764Z" fill="#5D7FB5"/>
</g>
<defs>
<linearGradient id="paint0_linear_686_6723" x1="76.1897" y1="85.1898" x2="89.5123" y2="134.744" gradientUnits="userSpaceOnUse">
<stop stop-color="#AFE4CC"/>
<stop offset="1" stop-color="#59CB97"/>
</linearGradient>
<linearGradient id="paint1_linear_686_6723" x1="96.1447" y1="138.22" x2="85.9068" y2="122.348" gradientUnits="userSpaceOnUse">
<stop stop-color="#48728C"/>
<stop offset="1" stop-color="#48B0BD"/>
</linearGradient>
<linearGradient id="paint2_linear_686_6723" x1="90.4333" y1="125.341" x2="99.8942" y2="132.837" gradientUnits="userSpaceOnUse">
<stop stop-color="#0E3C59"/>
<stop offset="1" stop-color="#48B0BD"/>
</linearGradient>
<linearGradient id="paint3_linear_686_6723" x1="86.4399" y1="129.83" x2="94.9507" y2="121.242" gradientUnits="userSpaceOnUse">
<stop stop-color="#0E3C59"/>
<stop offset="1" stop-color="#48B0BD"/>
</linearGradient>
<linearGradient id="paint4_linear_686_6723" x1="95.2629" y1="129.198" x2="88.0477" y2="138.929" gradientUnits="userSpaceOnUse">
<stop stop-color="#0E3C59"/>
<stop offset="1" stop-color="#48B0BD"/>
</linearGradient>
<clipPath id="clip0_686_6723">
<rect width="134" height="122" fill="white" transform="matrix(-1 1.06149e-07 1.06149e-07 1 134 7)"/>
</clipPath>
</defs>
</svg>
