<svg width="21" height="20" viewBox="0 0 21 20" fill="none" xmlns="http://www.w3.org/2000/svg">
<path d="M9.36 0.59156C9.24962 0.531166 9.12582 0.499512 9 0.499512C8.87418 0.499512 8.75038 0.531166 8.64 0.59156L1.05 4.73156C0.747 4.89656 0.4995 5.13206 0.3195 5.41106L9 10.1451L17.6805 5.41106C17.4978 5.12732 17.2466 4.89415 16.95 4.73306L9.36 0.59006V0.59156ZM0 14.0001V6.94556L8.64 11.6586C8.75038 11.719 8.87418 11.7506 9 11.7506C9.12582 11.7506 9.24962 11.719 9.36 11.6586L18 6.94556V14.0001C18 14.7957 17.6839 15.5588 17.1213 16.1214C16.5587 16.684 15.7956 17.0001 15 17.0001H3C2.20435 17.0001 1.44129 16.684 0.87868 16.1214C0.316071 15.5588 0 14.7957 0 14.0001ZM3.402 18.5001C3.6653 18.9561 4.044 19.3348 4.50004 19.5981C4.95609 19.8614 5.4734 20 6 20.0001H15C16.5913 20.0001 18.1174 19.3679 19.2426 18.2427C20.3679 17.1175 21 15.5914 21 14.0001V8.00006C21 7.47346 20.8614 6.95615 20.5981 6.5001C20.3348 6.04406 19.956 5.66536 19.5 5.40206V14.0001C19.5 15.1935 19.0259 16.3381 18.182 17.182C17.3381 18.026 16.1935 18.5001 15 18.5001H3.402Z" fill="white"/>
</svg>
