<svg width="36" height="36" viewBox="0 0 36 36" fill="none" xmlns="http://www.w3.org/2000/svg">
<path d="M17.4867 3.79687C16.9031 3.90234 16.2633 4.24687 15.8203 4.71094L15.4125 5.13281H10.8141H6.20859L5.89921 5.29453C5.44921 5.53359 5.18202 5.94844 5.14687 6.46875C5.10468 7.05937 5.17499 7.33359 5.45624 7.69922C5.59687 7.88203 5.68124 8.05781 5.64609 8.10703C5.61796 8.15625 4.39453 10.118 2.92499 12.4805C1.46249 14.8359 0.196869 16.868 0.126556 16.9875C-6.4224e-06 17.1984 -6.4224e-06 17.2195 0.14765 17.6906C0.885931 20.1023 2.89687 21.9023 5.30859 22.3242C6.48984 22.5281 7.50234 22.4437 8.66953 22.05C10.6383 21.375 12.143 19.8281 12.8039 17.8031C12.9656 17.2898 12.9867 17.1703 12.9094 17.0508C12.8602 16.9734 11.8476 15.2789 10.6523 13.2891C9.46406 11.2992 8.3039 9.35859 8.0789 8.9789L7.67109 8.29687H11.5523L15.4336 8.30391L15.7008 8.6625L15.9609 9.02812V18.7453V28.4695L12.6773 28.4906L9.38671 28.5117L8.97187 28.7156C8.40937 28.9898 8.36718 29.1164 8.36718 30.4242C8.36718 31.6828 8.43046 31.8586 8.96484 32.1328L9.3164 32.3086H18.1758H27.0352L27.3586 32.1609C27.9492 31.8867 27.9562 31.8586 28.0055 30.5437C28.0617 29.1094 28.0266 28.9969 27.4289 28.7086L27.0352 28.5117L23.5406 28.4906L20.0391 28.4695V18.7312V9L20.3062 8.64844L20.5664 8.30391H24.4477L28.3289 8.29687L25.8609 12.4242C24.5039 14.7023 23.3016 16.6992 23.1961 16.868L23.0062 17.1773L23.1398 17.6414C23.7867 19.9125 25.5727 21.6141 27.9844 22.268C28.6734 22.4508 30.4242 22.4367 31.1625 22.2328C33.4195 21.6141 35.1633 19.9266 35.8523 17.6906C36 17.2195 36 17.1984 35.8734 16.9875C35.8031 16.868 34.5375 14.8359 33.075 12.4805C31.6055 10.118 30.382 8.15625 30.3539 8.10703C30.3187 8.05781 30.4031 7.88203 30.5437 7.69922C30.825 7.33359 30.8953 7.05937 30.8531 6.46875C30.818 5.94844 30.5508 5.53359 30.1008 5.29453L29.7914 5.13281H25.1719H20.5453L20.2922 4.82344C19.6664 4.05 18.4852 3.62109 17.4867 3.79687ZM8.85234 13.1766C10.0969 15.2437 11.1305 16.9805 11.1516 17.0437C11.1937 17.1492 10.7789 17.1562 6.5039 17.1562C2.60156 17.1562 1.82109 17.1422 1.84921 17.0648C1.88437 16.9664 6.56015 9.42188 6.58827 9.42188C6.59531 9.42188 7.61484 11.1094 8.85234 13.1766ZM34.1508 17.0648C34.1789 17.1422 33.3562 17.1562 29.4961 17.1562C25.3195 17.1562 24.8133 17.1422 24.8484 17.0508C24.8836 16.9594 28.9547 10.125 29.2992 9.57656C29.3976 9.41484 29.475 9.52734 31.7601 13.1906C33.0539 15.2719 34.1297 17.0086 34.1508 17.0648Z" fill="url(#paint0_linear_2595_374)"/>
<defs>
<linearGradient id="paint0_linear_2595_374" x1="25.3497" y1="11.2199" x2="9.86321" y2="30.7098" gradientUnits="userSpaceOnUse">
<stop stop-color="#FFB800"/>
<stop offset="1" stop-color="#FF7A00"/>
</linearGradient>
</defs>
</svg>
