<svg width="122" height="174" viewBox="0 0 122 174" fill="none" xmlns="http://www.w3.org/2000/svg">
<g filter="url(#filter0_d_686_6258)">
<path d="M86.7006 113.44C85.4859 113.44 84.3351 113.625 83.2057 113.912L67.2014 84.0931L94.5855 78.9795L67.1162 73.8659L77.0682 55.9374C78.1977 56.2044 79.3484 56.4097 80.5631 56.4097C88.4481 56.4097 94.8625 50.2488 94.8625 42.6297C94.8625 35.0106 88.4694 28.8496 80.5631 28.8496C72.6782 28.8496 66.2637 35.0106 66.2637 42.6297C66.2637 46.9424 68.3735 50.7622 71.5914 53.2882L61.0213 72.6337L44.2712 41.4386C47.5104 38.9126 49.5988 35.1133 49.5988 30.7801C49.5988 23.1815 43.2056 17 35.2994 17C27.4145 17 21 23.161 21 30.7801C21 38.3786 27.3932 44.5601 35.2994 44.5601C36.5141 44.5601 37.6649 44.3753 38.7943 44.0878L54.7986 73.9069L27.4145 79.0205L54.7347 84.1136L44.9318 102.083C43.8023 101.816 42.6516 101.611 41.4369 101.611C33.5519 101.611 27.1374 107.772 27.1374 115.391C27.1374 122.989 33.5306 129.171 41.4369 129.171C49.3218 129.171 55.7363 123.01 55.7363 115.391C55.7363 111.078 53.6265 107.258 50.4086 104.732L60.9148 85.2842L77.7288 116.561C74.4896 119.087 72.4012 122.887 72.4012 127.22C72.4012 134.818 78.7944 141 86.7006 141C94.5855 141 101 134.839 101 127.22C100.979 119.621 94.5855 113.44 86.7006 113.44Z" fill="white"/>
<path d="M83.4632 113.335L67.9653 84.4591L94.6773 79.471L94.677 78.4879L67.8903 73.5014L77.3229 56.5089C78.3556 56.7384 79.4287 56.9097 80.5631 56.9097C88.7061 56.9097 95.3625 50.5427 95.3625 42.6297C95.3625 34.7172 88.7279 28.3496 80.5631 28.3496C72.4202 28.3496 65.7637 34.7167 65.7637 42.6297C65.7637 46.9617 67.8126 50.8052 70.9524 53.4148L61.0251 71.5839L44.9084 41.5683C48.0694 38.959 50.0988 35.1322 50.0988 30.7801C50.0988 22.8886 43.4647 16.5 35.2994 16.5C27.1564 16.5 20.5 22.8671 20.5 30.7801C20.5 38.6715 27.1341 45.0601 35.2994 45.0601C36.4274 45.0601 37.4974 44.9071 38.5368 44.6652L54.0347 73.5409L27.3227 78.529L27.3228 79.5121L53.9659 84.4789L44.6743 101.511C43.6425 101.282 42.5702 101.111 41.4369 101.111C33.2939 101.111 26.6374 107.478 26.6374 115.391C26.6374 123.282 33.2716 129.671 41.4369 129.671C49.5798 129.671 56.2363 123.304 56.2363 115.391C56.2363 111.058 54.1867 107.214 51.046 104.604L60.9137 86.3382L77.0915 116.432C73.9305 119.041 71.9012 122.868 71.9012 127.22C71.9012 135.111 78.5353 141.5 86.7006 141.5C94.8436 141.5 101.5 135.133 101.5 127.22V127.219C101.478 119.329 94.8454 112.94 86.7006 112.94C85.5726 112.94 84.5026 113.093 83.4632 113.335Z" stroke="#B9BBDA"/>
</g>
<defs>
<filter id="filter0_d_686_6258" x="0" y="8" width="122" height="166" filterUnits="userSpaceOnUse" color-interpolation-filters="sRGB">
<feFlood flood-opacity="0" result="BackgroundImageFix"/>
<feColorMatrix in="SourceAlpha" type="matrix" values="0 0 0 0 0 0 0 0 0 0 0 0 0 0 0 0 0 0 127 0" result="hardAlpha"/>
<feOffset dy="12"/>
<feGaussianBlur stdDeviation="10"/>
<feComposite in2="hardAlpha" operator="out"/>
<feColorMatrix type="matrix" values="0 0 0 0 0.615313 0 0 0 0 0.697978 0 0 0 0 0.825 0 0 0 0.1 0"/>
<feBlend mode="normal" in2="BackgroundImageFix" result="effect1_dropShadow_686_6258"/>
<feBlend mode="normal" in="SourceGraphic" in2="effect1_dropShadow_686_6258" result="shape"/>
</filter>
</defs>
</svg>
