<svg width="44" height="44" viewBox="0 0 44 44" fill="none" xmlns="http://www.w3.org/2000/svg">
<g clip-path="url(#clip0_686_6799)">
<path d="M17.5641 26.2509L17.0603 26.2474L17.1084 18.2878L17.6265 18.3107L20.2343 19.6065L20.3284 23.9753L17.5641 26.2509Z" fill="black"/>
<path d="M38.6917 19.1261L38.6977 19.1322L38.6495 25.7166C38.6819 25.758 38.7223 25.7925 38.7684 25.8179C38.8144 25.8433 38.8651 25.8591 38.9174 25.8643L40.2372 25.8699L40.2883 19.0047L38.9746 18.9955C38.868 19.0029 38.7679 19.0489 38.6929 19.1249L38.6917 19.1261Z" fill="black"/>
<path d="M10.1793 25.2884C9.74074 21.8659 10.1658 17.737 11.1294 16.0647C11.4046 15.5869 11.6942 15.349 11.9786 15.351L9.327 15.3325C9.04256 15.3305 8.75425 15.5696 8.47776 16.0462C7.51426 17.716 7.09157 21.845 7.5289 25.2711C7.85043 27.7142 8.51331 29.1182 9.22556 29.134L11.8772 29.1525C11.1697 29.1464 10.4996 27.7351 10.1853 25.2921L10.1793 25.2884Z" fill="black"/>
<path d="M10.3101 15.4225C11.6588 15.4315 12.9748 15.8402 14.0919 16.5971C15.2089 17.3539 16.0767 18.4248 16.5855 19.6744C17.0943 20.9239 17.2212 22.2959 16.9502 23.6169C16.6793 24.9378 16.0225 26.1484 15.0631 27.0954C14.1037 28.0424 12.8847 28.6833 11.5603 28.9371C10.236 29.1908 8.86571 29.046 7.62291 28.521C6.3801 27.996 5.32057 27.1143 4.57834 25.9875C3.83611 24.8607 3.44452 23.5394 3.45311 22.1907C3.46462 20.3832 4.19337 18.655 5.47917 17.3858C6.76497 16.1166 8.5026 15.4105 10.3101 15.4225Z" fill="#BDC9D9"/>
<path d="M4.91498 24.7876C4.90462 26.5039 6.97224 28.2179 8.64325 27.9463C9.5795 27.7937 10.0487 27.1389 10.0535 26.3507C10.0582 25.5624 9.5855 24.6057 8.6327 23.9048C7.64152 23.1746 5.8906 22.708 5.09357 23.9572C4.97424 24.2195 4.91172 24.5041 4.91013 24.7924L4.91498 24.7876Z" fill="#F6FBFF"/>
<path d="M4.11558 19.319C5.29038 18.6047 6.63488 18.2171 8.01021 18.1963C9.38553 18.1754 10.7418 18.5221 11.939 19.2006C13.1362 19.879 14.1309 20.8646 14.8204 22.0555C15.5099 23.2464 15.8691 24.5994 15.861 25.9749C15.8618 26.0364 15.8579 26.0978 15.8551 26.1581C16.4032 25.3861 16.7844 24.5082 16.9743 23.5804C17.1642 22.6525 17.1587 21.6951 16.958 20.7692C16.7574 19.8433 16.366 18.9691 15.809 18.2025C15.2519 17.4358 14.5413 16.7936 13.7225 16.3165C12.9037 15.8395 11.9946 15.5383 11.0533 15.432C10.1119 15.3257 9.15897 15.4167 8.25511 15.6992C7.35125 15.9816 6.51635 16.4494 5.80363 17.0727C5.09091 17.6959 4.51601 18.461 4.11558 19.319Z" fill="#92A4BC"/>
<path d="M3.6005 22.77C3.59757 22.8568 3.59584 22.9423 3.58571 23.0242L3.57812 23.082C3.51583 23.0189 3.60086 22.312 3.63474 22.2905C3.63496 22.4532 3.60869 22.611 3.6005 22.77Z" fill="#1D1F20"/>
<path d="M3.70496 22.918C3.72325 23.0591 3.73245 23.2013 3.73252 23.3437C3.66654 23.2914 3.65123 22.4343 3.67578 22.3597C3.69395 22.5455 3.6904 22.7335 3.70496 22.918Z" fill="#1D1F20"/>
<path d="M3.65102 22.8625C3.66478 22.9887 3.66523 23.1159 3.65234 23.2422C3.59125 23.1803 3.63108 22.3718 3.65542 22.3334C3.6628 22.5082 3.64726 22.6865 3.65102 22.8625Z" fill="#1D1F20"/>
<path d="M3.76222 22.9247C3.79314 23.0717 3.81159 23.221 3.81738 23.3711C3.73989 23.2295 3.688 22.4421 3.70413 22.3663C3.73193 22.5521 3.73683 22.7389 3.76222 22.9247Z" fill="#1D1F20"/>
<path d="M3.81827 22.8763C3.89569 23.2288 3.91092 23.3024 3.89991 23.3276C3.82066 23.2789 3.70639 22.4404 3.71777 22.3525C3.76736 22.524 3.78075 22.7024 3.81827 22.8763Z" fill="#1D1F20"/>
<path d="M3.91989 22.6482C3.98651 22.7933 4.07811 22.9928 4.0562 23.0288C3.97656 23.0428 3.75888 22.3638 3.757 22.277L3.78078 22.3302C3.82109 22.4414 3.87232 22.5418 3.91989 22.6482Z" fill="#1D1F20"/>
<path d="M3.87559 22.7859C3.93067 22.9222 3.96789 23.0651 3.98633 23.2109C3.8857 23.109 3.74413 22.4005 3.7494 22.3258L3.76238 22.3729C3.79043 22.5177 3.81883 22.6047 3.87559 22.7859Z" fill="#1D1F20"/>
<path d="M3.95531 22.4849C4.18117 22.8083 4.10647 22.8029 4.10286 22.8017C4.01253 22.7902 3.7769 22.2896 3.77008 22.222L3.77727 22.2293L3.82744 22.3044L3.95531 22.4849Z" fill="#1D1F20"/>
<path d="M3.98031 22.2994C4.17463 22.455 4.17895 22.5394 4.13795 22.5415C4.03065 22.5468 3.79293 22.192 3.7811 22.1558L3.98031 22.2994Z" fill="#1D1F20"/>
<path d="M3.78911 22.1956C3.86401 22.2292 3.94433 22.2489 4.02621 22.2539C4.12985 22.2571 4.17098 22.2308 4.1892 22.2081C4.22324 22.1601 4.16211 22.103 4.00891 22.1248C3.93223 22.1362 3.85797 22.1601 3.78911 22.1956Z" fill="#1D1F20"/>
<path d="M3.74052 23.96C3.75453 24.0349 3.77337 24.1097 3.78859 24.1834C3.7942 24.2038 3.79731 24.2249 3.79785 24.2461C3.69381 23.9875 3.63709 23.7123 3.6304 23.4337C3.6363 23.4543 3.64217 23.4796 3.66555 23.6003C3.68893 23.721 3.71472 23.8417 3.74052 23.96Z" fill="#1D1F20"/>
<path d="M4.0031 24.2086C4.05317 24.3363 4.08483 24.4704 4.09711 24.607C4.0009 24.5726 3.79233 23.7816 3.8243 23.6782C3.90056 23.849 3.96043 24.0266 4.0031 24.2086Z" fill="#1D1F20"/>
<path d="M3.86618 24.1399C3.90356 24.2541 3.9291 24.3718 3.94241 24.4912C3.87509 24.4618 3.69861 23.747 3.72239 23.6013C3.73318 23.6245 3.74113 23.6488 3.74606 23.6738C3.79212 23.8296 3.82855 23.9854 3.86618 24.1399Z" fill="#1D1F20"/>
<path d="M4.1441 24.1642C4.24846 24.447 4.28383 24.5774 4.26199 24.6014C4.14385 24.6054 3.89721 23.7322 3.93493 23.6734C3.94814 23.6819 3.96855 23.6953 4.1441 24.1642Z" fill="#1D1F20"/>
<path d="M4.2817 23.9961C4.44593 24.3443 4.45487 24.4601 4.41394 24.4526C4.29351 24.4349 4.0052 23.6771 4.04197 23.5761C4.13655 23.7072 4.21692 23.848 4.2817 23.9961Z" fill="#1D1F20"/>
<path d="M4.5083 23.3461C4.72494 23.5995 4.75286 23.766 4.68295 23.7655C4.54188 23.773 4.21588 23.2681 4.22884 23.1187C4.25453 23.055 4.50591 23.3436 4.5083 23.3461Z" fill="#1D1F20"/>
<path d="M4.40875 23.7129C4.61047 24.041 4.61923 24.1857 4.54947 24.1611C4.39552 24.107 4.11957 23.4976 4.14195 23.3844C4.17358 23.3364 4.398 23.6972 4.40875 23.7129Z" fill="#1D1F20"/>
<path d="M4.58029 22.9127C4.81305 23.0903 4.85892 23.2774 4.76239 23.296C4.61515 23.3263 4.28113 22.9516 4.28319 22.8106C4.30541 22.7239 4.5239 22.8701 4.58029 22.9127Z" fill="#1D1F20"/>
<path d="M4.63793 21.9394C4.87899 21.9411 4.95756 22.1032 4.86419 22.1953C4.73081 22.327 4.35662 22.2171 4.34539 22.082C4.35437 21.9917 4.52341 21.9422 4.63793 21.9394Z" fill="#1D1F20"/>
<path d="M4.62383 22.4419C4.87399 22.5329 4.93427 22.7297 4.81347 22.7747C4.65883 22.8339 4.33002 22.5929 4.32602 22.4579C4.34219 22.3749 4.52882 22.4063 4.62383 22.4419Z" fill="#1D1F20"/>
<path d="M3.78657 24.263L3.79366 24.2871C3.82209 24.3693 3.85173 24.4503 3.88379 24.5312C3.85534 24.4515 3.81381 24.3439 3.78657 24.263Z" fill="#1D1F20"/>
<path d="M4.39294 25.3601C4.45455 25.4605 4.50139 25.5692 4.53201 25.6829C4.43094 25.6533 4.09415 24.9386 4.11155 24.8519C4.2215 25.0118 4.31574 25.182 4.39294 25.3601Z" fill="#1D1F20"/>
<path d="M4.18892 25.1667C4.22817 25.2525 4.27227 25.336 4.31152 25.4219C4.29092 25.3946 4.27369 25.3649 4.26023 25.3335L4.1625 25.1496C4.06809 24.987 3.99347 24.8137 3.94022 24.6334L3.94861 24.6419C4.0416 24.8113 4.1056 24.9925 4.18892 25.1667Z" fill="#1D1F20"/>
<path d="M4.6077 25.3796C4.74957 25.6374 4.80175 25.7799 4.7476 25.7639C4.62011 25.7196 4.21971 24.9599 4.29952 24.917C4.42066 25.0581 4.52415 25.2135 4.6077 25.3796Z" fill="#1D1F20"/>
<path d="M4.82469 25.2163C4.98707 25.473 5.05464 25.6603 4.97874 25.6537C4.82817 25.6394 4.41533 24.9422 4.48835 24.827C4.55484 24.795 4.8211 25.2126 4.82469 25.2163Z" fill="#1D1F20"/>
<path d="M5.20518 24.3564C5.45316 24.6076 5.51198 24.8467 5.37455 24.8506C5.16719 24.8588 4.7954 24.3511 4.83022 24.173C4.88029 24.0661 5.1225 24.2751 5.20518 24.3564Z" fill="#1D1F20"/>
<path d="M5.03126 24.8625C5.25372 25.1485 5.29587 25.3537 5.18506 25.3409C5.00319 25.3191 4.61498 24.7367 4.66779 24.5743C4.73702 24.4868 5.02888 24.8577 5.03126 24.8625Z" fill="#1D1F20"/>
<path d="M5.33605 23.7359C5.61566 23.9391 5.68036 24.2035 5.51868 24.2313C5.31476 24.2673 4.9326 23.8801 4.95802 23.6633C4.99372 23.5394 5.23045 23.658 5.33605 23.7359Z" fill="#1D1F20"/>
<path d="M5.42853 23.0337C5.71223 23.1586 5.79979 23.4292 5.64023 23.5052C5.44923 23.5979 5.03636 23.3058 5.04372 23.0852C5.07118 22.9287 5.3131 22.9871 5.42853 23.0337Z" fill="#1D1F20"/>
<path d="M5.19409 26.4397C5.39865 26.6979 5.39004 26.7256 5.38398 26.7315C5.24956 26.6483 5.13403 26.5379 5.04483 26.4074C4.92981 26.2916 4.84176 26.1518 4.78695 25.9982L4.79302 25.9922C4.94101 26.1279 5.07535 26.2778 5.19409 26.4397Z" fill="#1D1F20"/>
<path d="M4.91899 26.2983C4.97879 26.3758 5.03617 26.4534 5.09961 26.5273C4.94406 26.3382 4.74072 26.0789 4.59609 25.879C4.57838 25.8545 4.56203 25.829 4.54713 25.8027L4.55671 25.8124C4.68231 25.9712 4.79581 26.1371 4.91899 26.2983Z" fill="#1D1F20"/>
<path d="M5.48022 26.3467C5.67291 26.5734 5.74906 26.7379 5.65635 26.7215C5.46489 26.6901 4.9648 26.0719 5.06173 25.9882C5.14742 25.9707 5.38925 26.2424 5.48022 26.3467Z" fill="#1D1F20"/>
<path d="M5.75991 26.0051C5.99232 26.2405 6.07047 26.4725 5.91988 26.4606C5.6958 26.4422 5.2386 25.9062 5.31549 25.7489C5.38824 25.677 5.62695 25.868 5.75991 26.0051Z" fill="#1D1F20"/>
<path d="M6.21386 24.693C6.5272 24.8989 6.59166 25.2018 6.39851 25.2511C6.15466 25.3145 5.71354 24.9113 5.7536 24.6632C5.80882 24.5009 6.06019 24.5906 6.21386 24.693Z" fill="#1D1F20"/>
<path d="M6.0111 25.4313C6.2977 25.6756 6.3516 25.9315 6.18394 25.9508C5.94029 25.9804 5.49355 25.5084 5.55515 25.2871C5.62097 25.167 5.86959 25.3122 6.0111 25.4313Z" fill="#1D1F20"/>
<path d="M6.35724 23.8147C6.69861 23.9713 6.77368 24.3142 6.55383 24.3946C6.29894 24.488 5.87659 24.1693 5.8987 23.9006C5.94559 23.7202 6.19137 23.7388 6.35724 23.8147Z" fill="#1D1F20"/>
<path d="M6.47698 21.8482C6.80474 21.8625 6.96791 22.1879 6.74494 22.384C6.52198 22.5801 6.05744 22.4612 6.03881 22.1537C6.05825 21.9284 6.30709 21.8385 6.47698 21.8482Z" fill="#1D1F20"/>
<path d="M6.45235 22.8607C6.79654 22.9475 6.89081 23.3049 6.68393 23.4324C6.43834 23.5838 5.99863 23.3445 6.00156 23.0588C6.03174 22.8517 6.28266 22.8173 6.45235 22.8607Z" fill="#1D1F20"/>
<path d="M5.89756 27.2751L6.12538 27.472L5.97422 27.3552C5.81833 27.2215 5.61088 27.0453 5.46107 26.9032L5.41674 26.8583L5.42753 26.8693C5.59188 26.997 5.74048 27.1402 5.89756 27.2751Z" fill="#1D1F20"/>
<path d="M6.23318 27.3126C6.42265 27.473 6.51112 27.5942 6.4605 27.5938C6.32181 27.6061 5.68495 27.0822 5.72648 26.9909L5.73739 26.9801C5.91944 27.0636 6.08685 27.1758 6.23318 27.3126Z" fill="#1D1F20"/>
<path d="M6.57748 27.0519C6.82221 27.244 6.9199 27.4327 6.77284 27.4341C6.52088 27.4432 5.95848 26.9632 6.06296 26.8265C6.15009 26.7693 6.41675 26.923 6.57748 27.0519Z" fill="#1D1F20"/>
<path d="M7.17422 25.6933C7.49254 25.8751 7.59304 26.1976 7.35637 26.2683C7.06294 26.3567 6.58794 25.9749 6.64744 25.7029C6.71961 25.5286 7.00006 25.592 7.17422 25.6933Z" fill="#1D1F20"/>
<path d="M6.90392 26.4917C7.18838 26.6901 7.27959 26.9547 7.07208 26.987C6.78495 27.0308 6.29092 26.6055 6.37541 26.3879C6.46299 26.256 6.7479 26.3797 6.90392 26.4917Z" fill="#1D1F20"/>
<path d="M7.38373 24.7204C7.73355 24.8735 7.8458 25.2467 7.57515 25.3557C7.3045 25.4647 6.82057 25.1636 6.86109 24.8409C6.9275 24.622 7.2046 24.6432 7.38373 24.7204Z" fill="#1D1F20"/>
<path d="M7.59815 22.425C7.9799 22.4795 8.13163 22.9024 7.84236 23.1017C7.5785 23.283 7.10707 23.1086 7.102 22.7494C7.13133 22.4832 7.41027 22.3996 7.59815 22.425Z" fill="#1D1F20"/>
<path d="M7.53003 23.6181C7.90422 23.728 8.02823 24.1496 7.72965 24.2933C7.4637 24.4216 6.99991 24.1797 7.01639 23.8448C7.06368 23.5992 7.34354 23.5626 7.53003 23.6181Z" fill="#1D1F20"/>
<path d="M7.59232 21.2014C7.66749 21.1926 7.74358 21.2071 7.81032 21.2429C7.87706 21.2787 7.93122 21.3341 7.96551 21.4016C7.99979 21.4691 8.01255 21.5455 8.00204 21.6205C7.99154 21.6954 7.95829 21.7653 7.90678 21.8208C7.67625 22.0723 7.14884 21.9866 7.11856 21.6116C7.1318 21.4962 7.18781 21.3901 7.27553 21.3142C7.36325 21.2383 7.47629 21.198 7.59232 21.2014Z" fill="#1D1F20"/>
<path d="M7.08887 28.0336C7.18567 28.0787 7.27677 28.1352 7.36026 28.2018C7.36026 28.2018 7.34218 28.2029 7.23041 28.1479L6.88316 27.9683L6.68257 27.8524C6.62171 27.8231 6.56581 27.7845 6.51693 27.7379L6.53259 27.7392C6.64923 27.7846 7.04322 28.0092 7.08887 28.0336Z" fill="#1D1F20"/>
<path d="M7.47369 27.905C7.70553 28.0356 7.81569 28.1545 7.72396 28.1756C7.52963 28.2212 6.79802 27.8195 6.89021 27.7214L6.8987 27.713C7.00135 27.6812 7.2959 27.8049 7.47369 27.905Z" fill="#1D1F20"/>
<path d="M7.85586 27.4425C8.14422 27.594 8.2454 27.8056 8.05348 27.8513C7.79032 27.917 7.15352 27.5823 7.26808 27.3733C7.37365 27.2572 7.67324 27.3448 7.85586 27.4425Z" fill="#1D1F20"/>
<path d="M8.47304 25.6575C8.84827 25.7951 8.94845 26.1706 8.65116 26.2987C8.35388 26.4268 7.83481 26.158 7.89474 25.8137C7.96967 25.5816 8.27822 25.5838 8.47304 25.6575Z" fill="#1D1F20"/>
<path d="M8.19857 26.6637C8.53872 26.8215 8.63214 27.1199 8.37244 27.2109C8.07294 27.3076 7.52995 27.0073 7.61487 26.7174C7.70156 26.5336 8.00866 26.5756 8.19857 26.6637Z" fill="#1D1F20"/>
<path d="M8.67431 24.4743C9.06777 24.5867 9.18442 25.0299 8.86163 25.1903C8.53884 25.3508 8.07511 25.0993 8.11228 24.7319C8.16938 24.4575 8.47578 24.4162 8.67431 24.4743Z" fill="#1D1F20"/>
<path d="M8.83218 21.7914C8.91902 21.7908 9.00399 21.8168 9.07562 21.866C9.14725 21.9151 9.20209 21.9851 9.23274 22.0664C9.26339 22.1477 9.26838 22.2364 9.24702 22.3205C9.22567 22.4047 9.17901 22.4803 9.11334 22.537C8.83711 22.7713 8.32816 22.6219 8.31137 22.2096C8.3178 22.1478 8.33642 22.0879 8.36614 22.0334C8.39586 21.9789 8.43609 21.9308 8.48451 21.8919C8.53293 21.853 8.58859 21.8241 8.64826 21.8068C8.70793 21.7896 8.77044 21.7843 8.83218 21.7914Z" fill="#1D1F20"/>
<path d="M8.79624 23.1657C9.20196 23.2445 9.34143 23.7011 9.02918 23.9134C8.74234 24.1079 8.24091 23.9103 8.24935 23.5114C8.2609 23.4519 8.28449 23.3955 8.31867 23.3454C8.35285 23.2954 8.39689 23.2529 8.44811 23.2205C8.49932 23.1881 8.55662 23.1666 8.61648 23.1572C8.67635 23.1477 8.73752 23.1506 8.79624 23.1657Z" fill="#1D1F20"/>
<path d="M8.44434 28.4998C8.55156 28.5285 8.65403 28.5727 8.7485 28.6309C8.67938 28.6992 7.83379 28.41 7.80756 28.3616L7.82211 28.3472C8.03387 28.3783 8.24222 28.4294 8.44434 28.4998Z" fill="#1D1F20"/>
<path d="M8.86083 28.1819C9.11345 28.2656 9.23688 28.3834 9.13768 28.443C8.94411 28.5621 8.17285 28.3386 8.21241 28.1749L8.23424 28.1534C8.34205 28.0637 8.66717 28.1166 8.86083 28.1819Z" fill="#1D1F20"/>
<path d="M9.59474 26.5299C9.95452 26.6325 10.0647 26.9503 9.79255 27.1063C9.47808 27.2873 8.89237 27.0747 8.96924 26.7208C9.06461 26.4949 9.3914 26.4719 9.59474 26.5299Z" fill="#1D1F20"/>
<path d="M9.25933 27.5019C9.57453 27.6005 9.68772 27.8194 9.48453 27.9337C9.17613 28.1064 8.53995 27.8693 8.61621 27.6167L8.62599 27.5927C8.73915 27.4163 9.07527 27.4439 9.25933 27.5019Z" fill="#1D1F20"/>
<path d="M9.85203 25.3344C10.242 25.4288 10.3589 25.8237 10.054 26.0241C9.74902 26.2245 9.19216 26.0241 9.24399 25.6255C9.31921 25.3452 9.64621 25.286 9.85203 25.3344Z" fill="#1D1F20"/>
<path d="M10.1134 22.5273C10.2044 22.5319 10.2919 22.5639 10.3645 22.6191C10.437 22.6743 10.4911 22.7502 10.5198 22.8367C10.5485 22.9232 10.5503 23.0163 10.5251 23.1038C10.4999 23.1913 10.4489 23.2692 10.3786 23.3271C10.3054 23.3838 10.2183 23.4195 10.1263 23.4305C10.0344 23.4414 9.94124 23.4272 9.85671 23.3894C9.77218 23.3516 9.69949 23.2915 9.64638 23.2156C9.59328 23.1398 9.56176 23.0509 9.55518 22.9585C9.56243 22.8931 9.58278 22.8298 9.61501 22.7724C9.64724 22.715 9.69069 22.6647 9.74277 22.6245C9.79486 22.5843 9.85452 22.5549 9.9182 22.5382C9.98188 22.5215 10.0483 22.5178 10.1134 22.5273Z" fill="#1D1F20"/>
<path d="M10.0259 23.9807C10.4377 24.0534 10.5674 24.5293 10.2406 24.7512C9.93201 24.9624 9.41974 24.7635 9.43915 24.3442C9.45326 24.2815 9.47972 24.2222 9.51699 24.1699C9.55425 24.1176 9.60158 24.0732 9.6562 24.0393C9.71082 24.0055 9.77165 23.9829 9.83513 23.9728C9.89861 23.9627 9.96347 23.9654 10.0259 23.9807Z" fill="#1D1F20"/>
<path d="M10.106 21.032C10.1976 21.0348 10.2864 21.0646 10.3613 21.1175C10.4362 21.1704 10.4938 21.2442 10.5271 21.3296C10.5604 21.415 10.5678 21.5083 10.5484 21.5979C10.5291 21.6875 10.4838 21.7693 10.4182 21.8333C10.3485 21.8947 10.2633 21.9359 10.1719 21.9525C10.0804 21.969 9.9862 21.9604 9.89927 21.9274C9.81234 21.8945 9.73601 21.8385 9.67849 21.7654C9.62097 21.6924 9.58443 21.605 9.5728 21.5128C9.57411 21.4455 9.5892 21.3792 9.61714 21.318C9.64508 21.2568 9.68528 21.2019 9.73525 21.1569C9.78522 21.1118 9.8439 21.0775 9.90767 21.056C9.97145 21.0345 10.039 21.0264 10.106 21.032Z" fill="#1D1F20"/>
<path d="M9.92041 28.6368C10.1468 28.6649 10.278 28.708 10.2392 28.7415C10.147 28.8324 9.24709 28.7623 9.23319 28.6682L9.2526 28.649C9.473 28.6084 9.69861 28.6042 9.92041 28.6368Z" fill="#1D1F20"/>
<path d="M10.3486 28.1166C10.6304 28.1596 10.7562 28.287 10.6182 28.3897C10.3675 28.5796 9.61948 28.5057 9.65571 28.295L9.67161 28.2577C9.79784 28.1116 10.1415 28.0887 10.3486 28.1166Z" fill="#1D1F20"/>
<path d="M11.0347 26.1165C11.4032 26.1697 11.5254 26.4972 11.2589 26.7123C10.9295 26.9752 10.3579 26.8205 10.3961 26.4785L10.4024 26.4412C10.497 26.1489 10.8421 26.0862 11.0347 26.1165Z" fill="#1D1F20"/>
<path d="M10.7315 27.2461C11.0795 27.2979 11.1938 27.5374 10.948 27.708C10.6091 27.9419 10 27.8099 10.0645 27.5186L10.0743 27.4898C10.1866 27.2591 10.5376 27.2194 10.7315 27.2461Z" fill="#1D1F20"/>
<path d="M11.2641 24.7857C11.688 24.8465 11.7999 25.2848 11.4574 25.5247C11.1148 25.7646 10.6144 25.5996 10.6531 25.178C10.6882 25.0485 10.7702 24.9367 10.8831 24.8643C10.9959 24.7918 11.1317 24.7638 11.2641 24.7857Z" fill="#1D1F20"/>
<path d="M11.4416 21.7821C11.5385 21.7892 11.6309 21.8255 11.7066 21.8863C11.7824 21.9471 11.8379 22.0294 11.8658 22.1224C11.8938 22.2154 11.8928 22.3147 11.863 22.4071C11.8333 22.4994 11.7762 22.5806 11.6992 22.6397C11.6373 22.6934 11.5629 22.7307 11.4828 22.7483C11.4028 22.7658 11.3195 22.763 11.2408 22.7401C11.162 22.7172 11.0902 22.675 11.0319 22.6173C10.9737 22.5595 10.9308 22.4881 10.9072 22.4095C10.8836 22.331 10.8801 22.2478 10.8969 22.1676C10.9137 22.0873 10.9504 22.0126 11.0035 21.9502C11.0567 21.8878 11.1246 21.8397 11.2011 21.8104C11.2777 21.781 11.3604 21.7713 11.4416 21.7821Z" fill="#1D1F20"/>
<path d="M11.4017 23.3206C11.4914 23.3272 11.577 23.361 11.6471 23.4175C11.7172 23.4739 11.7685 23.5504 11.7941 23.6366C11.8198 23.7229 11.8186 23.8149 11.7907 23.9004C11.7628 23.9859 11.7095 24.0609 11.6379 24.1153C11.3218 24.3771 10.8044 24.2192 10.8108 23.7624C10.8192 23.694 10.8413 23.628 10.8759 23.5683C10.9104 23.5087 10.9567 23.4567 11.0119 23.4154C11.0671 23.3741 11.1301 23.3444 11.197 23.3281C11.264 23.3118 11.3336 23.3093 11.4017 23.3206Z" fill="#1D1F20"/>
<path d="M11.0044 28.7539C11.1069 28.7437 11.2094 28.736 11.3119 28.7187C11.014 28.7588 10.6148 28.8006 10.3158 28.8178L10.329 28.8167C10.4436 28.8042 10.7258 28.7797 11.0044 28.7539Z" fill="#1D1F20"/>
<path d="M11.4397 28.4208C11.6616 28.4031 11.7844 28.4329 11.7467 28.4893C11.6482 28.632 10.7735 28.7597 10.7514 28.633L10.7697 28.5982C10.9775 28.4911 11.2061 28.4306 11.4397 28.4208Z" fill="#1D1F20"/>
<path d="M12.1983 26.7066C12.5274 26.7053 12.6368 26.9399 12.4089 27.1625C12.1167 27.451 11.5479 27.4349 11.552 27.1409C11.5538 27.118 11.558 27.0954 11.5645 27.0735C11.6625 26.8186 11.9934 26.7052 12.1983 26.7066Z" fill="#1D1F20"/>
<path d="M11.8524 27.7129C12.1272 27.7076 12.2411 27.8229 12.1137 27.9606C11.8867 28.2157 11.198 28.2917 11.1741 28.0685C11.174 28.0434 11.1799 28.0187 11.1914 27.9963C11.3094 27.8152 11.6547 27.7139 11.8524 27.7129Z" fill="#1D1F20"/>
<path d="M12.4637 25.472C12.8264 25.4854 12.9315 25.8441 12.6504 26.1001C12.334 26.3884 11.8284 26.2836 11.8498 25.9318L11.8561 25.892C11.8971 25.7654 11.9782 25.6556 12.0872 25.5792C12.1962 25.5027 12.327 25.4638 12.4601 25.4684L12.4637 25.472Z" fill="#1D1F20"/>
<path d="M12.7284 22.5571C12.8195 22.571 12.9045 22.6116 12.9726 22.6738C13.0408 22.7359 13.089 22.8168 13.1113 22.9063C13.1335 22.9958 13.1288 23.0898 13.0978 23.1765C13.0667 23.2633 13.0107 23.3389 12.9367 23.3938C12.8701 23.4531 12.7875 23.4915 12.6991 23.5041C12.6108 23.5166 12.5207 23.5029 12.4401 23.4645C12.3596 23.4261 12.2921 23.3648 12.2461 23.2882C12.2002 23.2117 12.1779 23.1233 12.1819 23.0342C12.1862 22.9668 12.2038 22.901 12.2336 22.8406C12.2634 22.7801 12.3049 22.7261 12.3557 22.6818C12.4065 22.6374 12.4656 22.6036 12.5296 22.5822C12.5935 22.5608 12.6611 22.5522 12.7284 22.5571Z" fill="#1D1F20"/>
<path d="M12.6485 24.0759C13.0304 24.1014 13.1434 24.5458 12.844 24.8221C12.5447 25.0985 12.0658 24.9505 12.0693 24.5805L12.072 24.5347C12.0946 24.4006 12.166 24.2796 12.2724 24.1949C12.3787 24.1103 12.5127 24.0679 12.6485 24.0759Z" fill="#1D1F20"/>
<path d="M12.7269 21.0171C12.8243 21.0307 12.9154 21.073 12.9887 21.1386C13.062 21.2041 13.1142 21.29 13.1387 21.3852C13.1632 21.4804 13.1588 21.5807 13.1262 21.6734C13.0936 21.7661 13.0341 21.847 12.9554 21.9058C12.8818 21.9518 12.7971 21.9772 12.7103 21.9794C12.6234 21.9816 12.5376 21.9605 12.4617 21.9182C12.3857 21.876 12.3225 21.8141 12.2785 21.7392C12.2346 21.6642 12.2115 21.5788 12.2118 21.492C12.2088 21.4253 12.2204 21.3588 12.2458 21.297C12.2712 21.2353 12.3098 21.1799 12.3589 21.1347C12.4079 21.0895 12.4663 21.0555 12.5299 21.0352C12.5934 21.0149 12.6607 21.0087 12.7269 21.0171Z" fill="#1D1F20"/>
<path d="M12.4513 28.3699C12.5431 28.3371 12.6371 28.3108 12.7326 28.2911C12.7254 28.2982 12.7229 28.3006 12.6552 28.3315C12.433 28.4095 12.1358 28.5159 11.9124 28.5855C11.8802 28.5955 11.847 28.6025 11.8135 28.6065L11.828 28.5921C11.9417 28.535 12.2641 28.4276 12.4513 28.3699Z" fill="#1D1F20"/>
<path d="M12.8599 27.8699C13.0506 27.8206 13.1662 27.8359 13.1345 27.9056C13.0405 28.0966 12.2987 28.3807 12.2332 28.2512C12.2189 28.2367 12.2347 28.2115 12.2481 28.1911C12.4221 28.0349 12.6324 27.9245 12.8599 27.8699Z" fill="#1D1F20"/>
<path d="M13.5162 25.9594C13.7984 25.9204 13.9031 26.1502 13.71 26.3983C13.4634 26.716 12.988 26.7874 12.9487 26.5123C12.9455 26.4784 12.9482 26.4442 12.9566 26.4111C13.0012 26.2928 13.0765 26.1886 13.1749 26.1092C13.2733 26.0298 13.3911 25.9781 13.5162 25.9594Z" fill="#1D1F20"/>
<path d="M13.226 27.0359C13.4674 26.9894 13.5764 27.0926 13.4645 27.263C13.2747 27.5557 12.6938 27.7506 12.6276 27.5404C12.619 27.507 12.6222 27.4717 12.6366 27.4404C12.7023 27.3366 12.7885 27.2472 12.8898 27.1777C12.9911 27.1081 13.1055 27.0599 13.226 27.0359Z" fill="#1D1F20"/>
<path d="M13.7329 24.6855C14.0656 24.6734 14.1501 25.0548 13.876 25.3326C13.6019 25.6103 13.2202 25.5558 13.2004 25.2423C13.1993 25.2153 13.2007 25.1883 13.2045 25.1615C13.2297 25.0359 13.2947 24.9218 13.3898 24.8361C13.485 24.7503 13.6053 24.6975 13.7329 24.6855Z" fill="#1D1F20"/>
<path d="M13.9057 21.8169C14.2815 21.8701 14.3939 22.4109 14.079 22.6546C13.8259 22.8517 13.4509 22.69 13.4389 22.2777C13.4349 22.2156 13.4443 22.1534 13.4664 22.0953C13.4886 22.0371 13.5229 21.9844 13.5672 21.9408C13.6114 21.8971 13.6645 21.8634 13.723 21.842C13.7814 21.8207 13.8437 21.8121 13.9057 21.8169Z" fill="#1D1F20"/>
<path d="M13.8652 23.2893C14.2183 23.3074 14.3131 23.777 14.0209 24.0509C13.7579 24.2962 13.3536 24.1849 13.3694 23.7668C13.3776 23.6397 13.4331 23.5203 13.5248 23.4319C13.6165 23.3436 13.7379 23.2928 13.8652 23.2893Z" fill="#1D1F20"/>
<path d="M13.7519 27.6871C13.828 27.6392 13.9101 27.6017 13.9961 27.5755C13.9981 27.6334 13.2614 28.0754 13.1747 28.07L13.1965 28.0485C13.3722 27.9141 13.5579 27.7933 13.7519 27.6871Z" fill="#1D1F20"/>
<path d="M14.4223 26.1772C14.6264 26.1027 14.7187 26.1913 14.6224 26.3799C14.4589 26.6994 13.9643 26.9623 13.9065 26.7606C13.8976 26.7258 13.9 26.6891 13.9132 26.6558C14.0134 26.4356 14.1963 26.2637 14.4223 26.1772Z" fill="#1D1F20"/>
<path d="M14.1211 27.0587C14.2855 26.9827 14.3855 26.9846 14.3525 27.0699C14.2667 27.2983 13.6218 27.7024 13.5672 27.5622C13.5631 27.5377 13.568 27.5125 13.5809 27.4912C13.7221 27.3043 13.9078 27.1556 14.1211 27.0587Z" fill="#1D1F20"/>
<path d="M14.6577 25.0931C14.9003 25.0382 14.9871 25.2473 14.8252 25.5053C14.6328 25.8198 14.2488 25.9448 14.1851 25.7154C14.1744 25.6719 14.1738 25.6265 14.1835 25.5828C14.2136 25.4672 14.2731 25.3614 14.3562 25.2756C14.4393 25.1898 14.5432 25.127 14.6577 25.0931Z" fill="#1D1F20"/>
<path d="M14.8936 22.5306C15.2248 22.5607 15.2845 23.0697 14.9841 23.2991C14.7855 23.4519 14.4823 23.3703 14.4847 22.9798C14.5144 22.6485 14.7418 22.5175 14.8936 22.5306Z" fill="#1D1F20"/>
<path d="M14.8144 23.8581C15.1074 23.8372 15.1738 24.2222 14.919 24.5024C14.6945 24.748 14.3959 24.7001 14.3735 24.4179C14.3721 24.3913 14.373 24.3647 14.3764 24.3383C14.3876 24.2216 14.4363 24.1117 14.5153 24.0251C14.5943 23.9385 14.6992 23.8799 14.8144 23.8581Z" fill="#1D1F20"/>
<path d="M14.8875 21.1673C15.2088 21.2503 15.3092 21.7886 15.0285 21.9722C14.8385 22.095 14.5295 21.9639 14.5066 21.5648C14.5135 21.2273 14.7334 21.13 14.8875 21.1673Z" fill="#1D1F20"/>
<path d="M14.8701 26.7732C14.9268 26.7169 14.9922 26.6701 15.0638 26.6347C15.0876 26.6879 14.4464 27.2777 14.3802 27.2663C14.3802 27.2663 14.373 27.2591 14.3949 27.2303C14.54 27.0647 14.699 26.9117 14.8701 26.7732Z" fill="#1D1F20"/>
<path d="M15.4028 25.2303C15.5576 25.1446 15.6235 25.2114 15.578 25.3617C15.4797 25.6648 15.0787 26.0007 15.0001 25.8483C14.9869 25.8101 14.9863 25.7687 14.9984 25.7301C15.0701 25.5211 15.2133 25.3441 15.4028 25.2303Z" fill="#1D1F20"/>
<path d="M15.1659 26.1018C15.2918 26.011 15.3666 25.9971 15.3626 26.0585C15.3276 26.2656 14.8087 26.7658 14.7261 26.6724C14.7082 26.6542 14.7229 26.6133 14.7327 26.5893C14.8397 26.3971 14.9876 26.2306 15.1659 26.1018Z" fill="#1D1F20"/>
<path d="M15.5748 24.2067C15.7596 24.1514 15.8333 24.3279 15.7149 24.5717C15.5709 24.8672 15.2903 25.0147 15.2107 24.8298C15.1947 24.782 15.1904 24.7311 15.1983 24.6814C15.2181 24.5778 15.2627 24.4805 15.3283 24.3978C15.3938 24.3152 15.4784 24.2496 15.5748 24.2067Z" fill="#1D1F20"/>
<path d="M15.719 21.8885C15.9838 21.9433 16.0218 22.4378 15.7846 22.5952C15.6188 22.7062 15.4099 22.577 15.3961 22.2599C15.3824 21.9428 15.5901 21.8695 15.719 21.8885Z" fill="#1D1F20"/>
<path d="M15.6807 23.0819C15.9242 23.0667 15.9678 23.4431 15.7529 23.6911C15.5757 23.8947 15.3579 23.8414 15.3389 23.5942C15.3366 23.5693 15.3368 23.5443 15.3393 23.5194C15.3394 23.4189 15.3729 23.3212 15.4348 23.2419C15.4966 23.1627 15.5831 23.1063 15.6807 23.0819Z" fill="#1D1F20"/>
<path d="M15.975 25.073C16.0174 25.0312 16.1132 24.9366 16.1117 24.9908C16.1156 25.1403 15.7035 25.7268 15.6412 25.6565C15.628 25.6431 15.6403 25.6023 15.6453 25.5806C15.7251 25.3936 15.8366 25.2219 15.975 25.073Z" fill="#1D1F20"/>
<path d="M15.7537 25.7131C15.7958 25.654 15.8425 25.5983 15.8933 25.5465C15.8662 25.65 15.4212 26.2809 15.3719 26.2624C15.3659 26.2564 15.372 26.248 15.3842 26.2215C15.4967 26.0446 15.6201 25.8747 15.7537 25.7131Z" fill="#1D1F20"/>
<path d="M16.1436 24.2818C16.2356 24.2077 16.2874 24.2238 16.2759 24.3237C16.2517 24.5417 15.9477 24.9856 15.8616 24.8741C15.8352 24.8474 15.8464 24.7908 15.8514 24.7571C15.9002 24.5735 16.0018 24.4082 16.1436 24.2818Z" fill="#1D1F20"/>
<path d="M16.3163 22.4349C16.5091 22.4435 16.5151 22.8473 16.326 23.0123C16.2085 23.1139 16.0715 23.0407 16.0767 22.7912C16.0818 22.5417 16.2283 22.4331 16.3163 22.4349Z" fill="#1D1F20"/>
<path d="M16.2577 23.3919C16.3967 23.3363 16.4391 23.5029 16.3473 23.7252C16.2556 23.9476 16.0582 24.092 16.0049 23.9482C15.9915 23.9062 15.9877 23.8617 15.9936 23.818C16.0018 23.7314 16.0299 23.6479 16.0757 23.574C16.1215 23.5 16.1838 23.4378 16.2577 23.3919Z" fill="#1D1F20"/>
<path d="M16.311 21.4472C16.5141 21.5462 16.5354 22.002 16.341 22.0573C16.2445 22.0831 16.1053 21.9809 16.0912 21.7144C16.095 21.4854 16.2076 21.3958 16.311 21.4472Z" fill="#1D1F20"/>
<path d="M16.5185 24.0609C16.5358 24.0189 16.5592 23.9796 16.5879 23.9445C16.5898 24.0385 16.3511 24.6431 16.3044 24.5982L16.3071 24.538C16.3621 24.3721 16.4321 24.2117 16.5161 24.0585L16.5185 24.0609Z" fill="#1D1F20"/>
<path d="M16.3727 24.5982C16.4008 24.5393 16.4277 24.4792 16.4509 24.4179L16.3836 24.5922C16.3311 24.7088 16.2662 24.8662 16.2125 24.9815C16.1861 25.0393 16.1555 25.0951 16.1211 25.1484L16.1285 25.1147C16.2019 24.9393 16.2933 24.7724 16.3727 24.5982Z" fill="#1D1F20"/>
<path d="M16.625 23.427C16.6517 23.4007 16.6882 23.3527 16.6927 23.3962C16.7076 23.5204 16.5301 23.9856 16.458 23.9442C16.44 23.926 16.4428 23.8705 16.4465 23.8452C16.4781 23.6956 16.5392 23.5539 16.6262 23.4282L16.625 23.427Z" fill="#1D1F20"/>
<path d="M16.703 21.9919C16.816 22.0409 16.8005 22.4132 16.6845 22.4582C16.6362 22.4747 16.5679 22.4176 16.5666 22.2344C16.5653 22.0512 16.6585 21.9759 16.703 21.9919Z" fill="#1D1F20"/>
<path d="M16.6874 22.7244C16.772 22.6816 16.7734 22.8528 16.7181 23.0247C16.6628 23.1967 16.5817 23.2649 16.5448 23.1814C16.5324 23.1425 16.5286 23.1014 16.5335 23.0608C16.5346 22.9971 16.5488 22.9344 16.5753 22.8765C16.6017 22.8186 16.6399 22.7668 16.6874 22.7244Z" fill="#1D1F20"/>
<path d="M16.7129 23.5065L16.6993 23.5679L16.6895 23.6016L16.6945 23.5654C16.7169 23.4547 16.7452 23.3452 16.764 23.2357L16.7129 23.5065Z" fill="#1D1F20"/>
<path d="M16.8563 22.2853L16.8491 22.4818L16.8451 22.5456C16.8386 22.6191 16.8254 22.6033 16.8254 22.6009C16.8255 22.5985 16.8136 22.5719 16.8164 22.4972C16.8198 22.4251 16.8332 22.3538 16.8563 22.2853Z" fill="#1D1F20"/>
<path d="M16.8301 22.738L16.8362 22.732L16.831 22.7947L16.8006 23.0331C16.7956 23.0717 16.7881 23.1198 16.7772 23.1234C16.7663 23.1269 16.775 23.0824 16.7788 23.0595C16.7867 22.9487 16.8139 22.8404 16.8301 22.738Z" fill="#1D1F20"/>
<path d="M16.8546 21.8261L16.8557 21.849L16.8578 21.902L16.8613 22.1094C16.838 22.0482 16.8273 21.9829 16.8299 21.9175C16.8282 21.8066 16.8452 21.7898 16.8512 21.7959L16.8546 21.8261Z" fill="#1D1F20"/>
<path d="M3.60739 21.602C3.6055 21.5152 3.60481 21.4296 3.59686 21.3488L3.59 21.2885C3.52573 21.352 3.60221 22.06 3.63583 22.0819C3.63802 21.9192 3.61851 21.7564 3.60739 21.602Z" fill="#1D1F20"/>
<path d="M3.71365 21.4539C3.73601 21.3133 3.74694 21.1711 3.74635 21.0286C3.67975 21.08 3.65408 21.9368 3.67773 22.0117C3.6945 21.8298 3.70166 21.6431 3.71365 21.4539Z" fill="#1D1F20"/>
<path d="M3.65997 21.5087C3.676 21.3828 3.67879 21.2556 3.66829 21.1291C3.59925 21.1853 3.63531 22.0003 3.65918 22.0391C3.66747 21.8631 3.65888 21.6895 3.65997 21.5087Z" fill="#1D1F20"/>
<path d="M3.7714 21.4526C3.80504 21.3053 3.8261 21.1555 3.83437 21.0046C3.75637 21.1463 3.69377 21.9318 3.70898 22.0078C3.73661 21.8248 3.74255 21.6392 3.7714 21.4526Z" fill="#1D1F20"/>
<path d="M3.82871 21.4945C3.90919 21.1419 3.9253 21.0685 3.91461 21.0431C3.83477 21.0907 3.71159 21.9288 3.7207 22.0156C3.77236 21.8448 3.79031 21.6666 3.82871 21.4945Z" fill="#1D1F20"/>
<path d="M3.92615 21.7249C3.99451 21.5807 4.08852 21.3825 4.06704 21.3462C3.98758 21.3312 3.76172 22.007 3.75879 22.0938L3.78322 22.0409C3.82846 21.9339 3.87729 21.8306 3.92615 21.7249Z" fill="#1D1F20"/>
<path d="M3.881 21.5874C3.93635 21.4518 3.97485 21.31 3.99564 21.1651C3.89379 21.2656 3.74368 21.9721 3.74805 22.0469L3.76159 22C3.79502 21.8519 3.81966 21.7653 3.881 21.5874Z" fill="#1D1F20"/>
<path d="M3.95988 21.8882C4.18962 21.568 4.12093 21.5663 4.11124 21.5735C4.02078 21.5837 3.78034 22.0798 3.77148 22.1484L3.77876 22.1413C3.79937 22.1209 3.81281 22.0909 3.82983 22.0669C3.87116 22.0093 3.91612 21.9482 3.95988 21.8882Z" fill="#1D1F20"/>
<path d="M3.98172 22.0755C4.1779 21.9226 4.18323 21.8383 4.14227 21.8356C4.03503 21.8288 3.79305 22.1803 3.78199 22.2151L3.98172 22.0755Z" fill="#1D1F20"/>
<path d="M3.76198 20.4128L3.81274 20.1902C3.81835 20.1701 3.82211 20.1495 3.82396 20.1288C3.71571 20.3852 3.65523 20.6593 3.64551 20.9375C3.66081 20.8837 3.67321 20.829 3.68266 20.7738C3.71113 20.6499 3.73595 20.5319 3.76198 20.4128Z" fill="#1D1F20"/>
<path d="M4.02874 20.1667C4.08193 20.0387 4.11644 19.9038 4.1312 19.766C4.03458 19.7991 3.81767 20.5883 3.84718 20.6909C3.86533 20.6802 3.88004 20.6393 4.02874 20.1667Z" fill="#1D1F20"/>
<path d="M3.89052 20.233C3.92928 20.1194 3.95624 20.002 3.97099 19.8828C3.90332 19.9113 3.71822 20.6235 3.74023 20.7695C3.7513 20.7466 3.75954 20.7223 3.76477 20.6974C3.81272 20.5422 3.85102 20.387 3.89052 20.233Z" fill="#1D1F20"/>
<path d="M4.16852 20.2146C4.27507 19.9345 4.31323 19.8034 4.29168 19.7791C4.17359 19.7735 3.91521 20.6443 3.95343 20.7024C3.96674 20.6941 3.99095 20.6774 4.16852 20.2146Z" fill="#1D1F20"/>
<path d="M4.30338 20.3842C4.4718 20.0383 4.48334 19.9239 4.44112 19.9296C4.32049 19.9456 4.02305 20.6993 4.05859 20.8008C4.15475 20.671 4.23681 20.5314 4.30338 20.3842Z" fill="#1D1F20"/>
<path d="M4.52225 21.0367C4.74798 20.7803 4.77185 20.6202 4.70195 20.6197C4.56218 20.6115 4.22891 21.1106 4.24006 21.2601C4.26738 21.3266 4.51861 21.0403 4.52225 21.0367Z" fill="#1D1F20"/>
<path d="M4.42614 20.6691C4.63301 20.3452 4.64232 20.1994 4.57227 20.223C4.41768 20.2749 4.14036 20.8889 4.15659 20.9951C4.19007 21.0411 4.4152 20.6847 4.42614 20.6691Z" fill="#1D1F20"/>
<path d="M4.5897 21.4689C4.82578 21.2958 4.87272 21.1081 4.77762 21.0869C4.62956 21.0558 4.28983 21.427 4.2926 21.5657C4.3174 21.6514 4.5328 21.5107 4.5897 21.4689Z" fill="#1D1F20"/>
<path d="M3.80859 20.1055L3.81597 20.0814C3.84539 19.9997 3.87722 19.9179 3.90904 19.8386C3.88321 19.924 3.84159 20.0298 3.80859 20.1055Z" fill="#1D1F20"/>
<path d="M4.43163 19.0218C4.49534 18.9228 4.54355 18.8146 4.57459 18.701C4.47317 18.7292 4.12778 19.4392 4.14532 19.5273C4.25564 19.3677 4.35145 19.1985 4.43163 19.0218Z" fill="#1D1F20"/>
<path d="M4.22395 19.2154C4.26424 19.1301 4.30328 19.0532 4.34963 18.9619C4.32852 18.9888 4.31093 19.0182 4.29727 19.0496L4.20213 19.2369C4.10576 19.3982 4.02905 19.5705 3.97363 19.75L3.98212 19.7416C4.07356 19.5699 4.13973 19.3896 4.22395 19.2154Z" fill="#1D1F20"/>
<path d="M4.64619 19.0062C4.79117 18.7505 4.84747 18.6086 4.79073 18.6239C4.6639 18.6676 4.25316 19.4205 4.33245 19.4644C4.45528 19.325 4.56064 19.1711 4.64619 19.0062Z" fill="#1D1F20"/>
<path d="M4.86064 19.172C5.0261 18.9176 5.09593 18.7313 5.02116 18.738C4.86922 18.749 4.44801 19.4403 4.52082 19.5577C4.59057 19.5847 4.857 19.1756 4.86064 19.172Z" fill="#1D1F20"/>
<path d="M5.2309 20.0374C5.4819 19.7897 5.54361 19.5514 5.40504 19.5444C5.20018 19.5358 4.8211 20.037 4.85377 20.2156C4.90253 20.3232 5.14845 20.1188 5.2309 20.0374Z" fill="#1D1F20"/>
<path d="M5.06282 19.5299C5.28872 19.247 5.33335 19.0424 5.22239 19.0537C5.04147 19.0741 4.64506 19.6499 4.6959 19.813C4.76407 19.9015 5.06038 19.5347 5.06282 19.5299Z" fill="#1D1F20"/>
<path d="M5.35555 20.6597C5.63759 20.4603 5.70548 20.1968 5.54414 20.1668C5.34068 20.128 4.95388 20.5098 4.97667 20.7269C5.01087 20.8513 5.24661 20.736 5.35555 20.6597Z" fill="#1D1F20"/>
<path d="M5.47466 22.1176C5.76058 22.075 5.87422 21.819 5.7219 21.6938C5.53839 21.5443 5.10825 21.7173 5.09845 21.9426C5.11681 22.097 5.33351 22.1395 5.47466 22.1176Z" fill="#1D1F20"/>
<path d="M5.4423 21.3646C5.72748 21.2437 5.8183 20.9743 5.65967 20.896C5.47101 20.8019 5.05345 21.0871 5.05814 21.3077C5.08495 21.4585 5.32631 21.4096 5.4423 21.3646Z" fill="#1D1F20"/>
<path d="M5.46218 22.8947C5.73558 22.9291 5.87299 22.7288 5.7523 22.5556C5.59217 22.3255 5.14102 22.385 5.10366 22.5848L5.10111 22.6065C5.10492 22.7753 5.31886 22.8756 5.46218 22.8947Z" fill="#1D1F20"/>
<path d="M5.25073 17.9573C5.45718 17.7009 5.44891 17.6731 5.45018 17.6622C5.41895 17.6451 5.24314 17.8163 5.10595 17.9804C4.99056 18.0954 4.90097 18.2337 4.84315 18.386L4.84914 18.3921C4.99613 18.2599 5.13057 18.1143 5.25073 17.9573Z" fill="#1D1F20"/>
<path d="M4.96864 18.0917C5.02816 18.0162 5.08769 17.9382 5.15201 17.8652C4.99298 18.0533 4.78773 18.3086 4.64069 18.5064C4.62269 18.5307 4.60604 18.5559 4.59082 18.582L4.60052 18.5725C4.72803 18.4154 4.84353 18.2511 4.96864 18.0917Z" fill="#1D1F20"/>
<path d="M5.53021 18.0536C5.72562 17.8296 5.80374 17.6662 5.71084 17.6812C5.52022 17.7112 5.01151 18.3212 5.10621 18.4074C5.18565 18.4248 5.43798 18.1566 5.53021 18.0536Z" fill="#1D1F20"/>
<path d="M5.80767 18.395C6.0417 18.164 6.12386 17.932 5.97433 17.943C5.74885 17.9571 5.28642 18.4878 5.3602 18.645C5.42965 18.7202 5.67064 18.5327 5.80767 18.395Z" fill="#1D1F20"/>
<path d="M6.24392 19.7136C6.56094 19.511 6.62906 19.2089 6.43772 19.1581C6.19343 19.0925 5.74628 19.4884 5.78213 19.7381C5.8366 19.9 6.09508 19.8102 6.24392 19.7136Z" fill="#1D1F20"/>
<path d="M6.05106 18.9707C6.34058 18.7304 6.39757 18.4753 6.23016 18.4536C5.98688 18.4206 5.5357 18.8851 5.59341 19.1085C5.66016 19.2319 5.90932 19.089 6.05106 18.9707Z" fill="#1D1F20"/>
<path d="M6.38057 20.5897C6.7238 20.4378 6.80301 20.096 6.58414 20.0125C6.3304 19.9156 5.90544 20.2296 5.92311 20.4973C5.96297 20.6832 6.21501 20.6621 6.38057 20.5897Z" fill="#1D1F20"/>
<path d="M6.46357 21.5562C6.81 21.473 6.90736 21.1181 6.70204 20.9877C6.45951 20.8318 6.01574 21.0661 6.01522 21.3518C6.04049 21.5569 6.29099 21.5924 6.46357 21.5562Z" fill="#1D1F20"/>
<path d="M5.95945 17.1249C6.03698 17.0604 6.11571 16.997 6.19084 16.9301L6.03709 17.0435C5.8796 17.175 5.67003 17.3483 5.51852 17.4883L5.47366 17.5325L5.48578 17.5206C5.65044 17.3988 5.80195 17.2588 5.95945 17.1249Z" fill="#1D1F20"/>
<path d="M6.29835 17.0988C6.48974 16.941 6.57966 16.8211 6.52904 16.8208C6.39051 16.8065 5.74737 17.3215 5.7878 17.4134L5.80104 17.4171C5.98272 17.3382 6.1506 17.2307 6.29835 17.0988Z" fill="#1D1F20"/>
<path d="M6.63584 17.3604C6.88167 17.1704 6.98164 16.9831 6.83461 16.9797C6.58277 16.9671 6.01582 17.4404 6.11865 17.5785C6.20508 17.637 6.47237 17.4858 6.63584 17.3604Z" fill="#1D1F20"/>
<path d="M7.21561 18.7223C7.53609 18.5449 7.64048 18.2239 7.40468 18.1499C7.11355 18.0587 6.63278 18.4326 6.68777 18.7066C6.76389 18.8758 7.04264 18.8235 7.21561 18.7223Z" fill="#1D1F20"/>
<path d="M6.95478 17.9277C7.24161 17.7332 7.33601 17.4699 7.13011 17.4359C6.84233 17.3869 6.34321 17.8053 6.42506 18.024C6.50984 18.156 6.79622 18.0363 6.95478 17.9277Z" fill="#1D1F20"/>
<path d="M7.41778 19.7015C7.76701 19.5532 7.88376 19.1816 7.61445 19.0688C7.34514 18.9561 6.85883 19.2492 6.89423 19.5737C6.94956 19.7922 7.23411 19.7773 7.41778 19.7015Z" fill="#1D1F20"/>
<path d="M7.54501 20.8105C7.92049 20.7059 8.04959 20.2861 7.74678 20.1321C7.4824 20.0001 7.01692 20.2367 7.02817 20.5706C7.07726 20.8241 7.35907 20.8622 7.54501 20.8105Z" fill="#1D1F20"/>
<path d="M7.16 16.3882C7.25733 16.3444 7.3491 16.2892 7.43339 16.2237C7.43339 16.2237 7.41652 16.2236 7.30291 16.2759L6.95351 16.4506L6.75154 16.5637C6.69028 16.592 6.6339 16.6299 6.58453 16.6758L6.60021 16.6747C6.71739 16.631 7.11525 16.4132 7.16 16.3882Z" fill="#1D1F20"/>
<path d="M7.54578 16.5169C7.78038 16.3907 7.89078 16.2722 7.79931 16.2499C7.60554 16.2015 6.86914 16.5929 6.96014 16.6924L6.96853 16.7009C7.06714 16.7377 7.36559 16.6157 7.54578 16.5169Z" fill="#1D1F20"/>
<path d="M7.91959 16.9886C8.20856 16.84 8.31347 16.631 8.12092 16.5814C7.85858 16.5121 7.21779 16.8379 7.32982 17.0484C7.43038 17.1624 7.73582 17.0814 7.91959 16.9886Z" fill="#1D1F20"/>
<path d="M8.51482 18.7856C8.89167 18.6532 8.99639 18.2791 8.70187 18.148C8.40736 18.017 7.87663 18.2821 7.93967 18.62C8.01179 18.8532 8.31912 18.8565 8.51482 18.7856Z" fill="#1D1F20"/>
<path d="M8.25262 17.77C8.59465 17.6169 8.69408 17.3199 8.43429 17.2265C8.13598 17.1256 7.58821 17.4171 7.67084 17.7069C7.74929 17.8883 8.06288 17.8543 8.25262 17.77Z" fill="#1D1F20"/>
<path d="M8.70045 19.9675C9.09643 19.8618 9.21721 19.4215 8.8964 19.2541C8.57559 19.0868 8.11004 19.3354 8.14157 19.7021C8.19536 19.9772 8.50004 20.0216 8.70045 19.9675Z" fill="#1D1F20"/>
<path d="M8.82665 22.6532C8.91347 22.655 8.99875 22.6302 9.07097 22.582C9.14318 22.5338 9.19886 22.4646 9.23049 22.3838C9.26212 22.3029 9.26818 22.2143 9.24785 22.1299C9.22751 22.0454 9.18177 21.9692 9.11679 21.9115C8.84341 21.6734 8.3327 21.8156 8.31093 22.2277C8.31684 22.2895 8.33487 22.3495 8.364 22.4044C8.39313 22.4592 8.43277 22.5078 8.48067 22.5473C8.52857 22.5868 8.58379 22.6165 8.64315 22.6347C8.70252 22.6528 8.76487 22.6591 8.82665 22.6532Z" fill="#1D1F20"/>
<path d="M8.80769 21.2804C9.21433 21.2073 9.3593 20.7527 9.04964 20.536C8.76518 20.3375 8.2614 20.5281 8.26622 20.9283C8.27698 20.9878 8.29981 21.0445 8.3333 21.0949C8.3668 21.1453 8.41024 21.1883 8.46096 21.2213C8.51169 21.2543 8.56862 21.2765 8.62825 21.2867C8.68788 21.2969 8.74895 21.2947 8.80769 21.2804Z" fill="#1D1F20"/>
<path d="M8.51638 15.9307C8.62419 15.9044 8.7273 15.8616 8.8221 15.8039C8.75381 15.7347 7.90479 16.0121 7.87919 16.0613L7.89236 16.0746C8.10461 16.0473 8.31363 15.9991 8.51638 15.9307Z" fill="#1D1F20"/>
<path d="M8.93265 16.2617C9.18626 16.1815 9.31111 16.0655 9.21384 16.0057C9.02053 15.8826 8.24663 16.0954 8.28421 16.2596L8.30577 16.2814C8.41249 16.3726 8.73822 16.3242 8.93265 16.2617Z" fill="#1D1F20"/>
<path d="M9.65506 17.9261C10.016 17.8286 10.13 17.5124 9.85981 17.3526C9.54755 17.1672 8.95932 17.3716 9.03191 17.7265C9.11732 17.9537 9.44258 17.9825 9.65506 17.9261Z" fill="#1D1F20"/>
<path d="M9.3229 16.948C9.63927 16.8538 9.75508 16.6364 9.55209 16.5205C9.24701 16.3424 8.60802 16.5706 8.68121 16.8242L8.69071 16.8484C8.80293 17.0275 9.13335 17.0009 9.3229 16.948Z" fill="#1D1F20"/>
<path d="M9.88734 19.132C10.2784 19.0431 10.4001 18.6498 10.0976 18.4452C9.79509 18.2406 9.23586 18.4332 9.28287 18.8325C9.35715 19.1066 9.68222 19.1667 9.88734 19.132Z" fill="#1D1F20"/>
<path d="M10.117 21.9346C10.2081 21.9312 10.296 21.9005 10.3692 21.8463C10.4423 21.7921 10.4974 21.717 10.5271 21.6309C10.5568 21.5448 10.5598 21.4517 10.5357 21.3639C10.5115 21.276 10.4614 21.1975 10.3918 21.1386C10.3193 21.0812 10.2326 21.0445 10.1409 21.0325C10.0492 21.0205 9.95596 21.0335 9.87114 21.0703C9.78633 21.107 9.7131 21.1661 9.65923 21.2412C9.60536 21.3163 9.57288 21.4046 9.56524 21.4968C9.57141 21.5623 9.59077 21.6259 9.62215 21.6837C9.65353 21.7415 9.69628 21.7924 9.74783 21.8333C9.79939 21.8742 9.85868 21.9043 9.92213 21.9217C9.98558 21.9391 10.0519 21.9435 10.117 21.9346Z" fill="#1D1F20"/>
<path d="M10.0491 20.4799C10.4629 20.4141 10.5971 19.9389 10.2743 19.7137C9.95139 19.4885 9.45238 19.6887 9.46672 20.1082C9.48008 20.1711 9.50582 20.2307 9.54245 20.2836C9.57908 20.3365 9.62587 20.3815 9.68007 20.4161C9.73428 20.4507 9.79483 20.4742 9.85818 20.4851C9.92153 20.4961 9.98642 20.4943 10.0491 20.4799Z" fill="#1D1F20"/>
<path d="M10.0903 23.4297C10.1823 23.4289 10.272 23.4009 10.348 23.3491C10.4241 23.2974 10.483 23.2242 10.5175 23.1389C10.5519 23.0537 10.5603 22.9601 10.5415 22.87C10.5228 22.7799 10.4778 22.6973 10.4121 22.6328C10.3433 22.5701 10.2586 22.5274 10.1673 22.5093C10.076 22.4912 9.9815 22.4984 9.89401 22.53C9.80651 22.5616 9.72932 22.6166 9.67077 22.6888C9.61222 22.7611 9.57453 22.8481 9.56175 22.9402C9.56207 23.0078 9.57627 23.0745 9.60347 23.1363C9.63067 23.1982 9.67028 23.2538 9.71985 23.2997C9.76942 23.3455 9.82789 23.3808 9.89162 23.4031C9.95536 23.4255 10.023 23.4345 10.0903 23.4297Z" fill="#1D1F20"/>
<path d="M9.99772 15.8202C10.2184 15.8013 10.3573 15.7552 10.3177 15.72C10.2267 15.6278 9.32597 15.6853 9.31094 15.7793L9.33011 15.7987C9.54994 15.8429 9.77557 15.8502 9.99772 15.8202Z" fill="#1D1F20"/>
<path d="M10.4195 16.3491C10.7006 16.3113 10.8351 16.1905 10.6983 16.0859C10.45 15.8925 9.7011 15.9559 9.73478 16.1671L9.75142 16.2058C9.86869 16.3464 10.212 16.3741 10.4195 16.3491Z" fill="#1D1F20"/>
<path d="M11.0878 18.3631C11.4557 18.3163 11.5819 17.9881 11.3168 17.7705C10.9906 17.5031 10.4171 17.6497 10.4512 17.9923L10.457 18.0297C10.5457 18.3208 10.8888 18.3871 11.0878 18.3631Z" fill="#1D1F20"/>
<path d="M10.793 17.2274C11.1404 17.1816 11.2575 16.9437 11.0139 16.7697C10.6791 16.5323 10.0672 16.6546 10.1293 16.9479L10.1388 16.9769C10.2483 17.2091 10.5976 17.2525 10.793 17.2274Z" fill="#1D1F20"/>
<path d="M11.2946 19.6907C11.7204 19.637 11.8363 19.1991 11.4967 18.9544C11.1571 18.7098 10.6547 18.8678 10.6895 19.2911C10.7233 19.4206 10.8038 19.5331 10.9155 19.6068C11.0272 19.6806 11.1622 19.7105 11.2946 19.6907Z" fill="#1D1F20"/>
<path d="M11.4371 22.6999C11.5342 22.6942 11.6273 22.6591 11.7039 22.5992C11.7805 22.5394 11.837 22.4576 11.866 22.3648C11.8949 22.2719 11.8949 22.1725 11.866 22.0796C11.837 21.9867 11.7805 21.9048 11.7039 21.8448C11.6425 21.7905 11.5685 21.7524 11.4886 21.734C11.4088 21.7156 11.3256 21.7175 11.2467 21.7395C11.1678 21.7615 11.0957 21.8028 11.0369 21.8598C10.9782 21.9168 10.9346 21.9876 10.9102 22.0658C10.8858 22.144 10.8814 22.2271 10.8973 22.3074C10.9133 22.3878 10.9491 22.4629 11.0014 22.526C11.0538 22.589 11.1211 22.6379 11.1972 22.6683C11.2733 22.6987 11.3558 22.7096 11.4371 22.6999Z" fill="#1D1F20"/>
<path d="M11.4139 21.1621C11.505 21.1578 11.5925 21.1257 11.6647 21.0701C11.7369 21.0144 11.7902 20.9379 11.8175 20.8509C11.8447 20.7638 11.8445 20.6705 11.817 20.5836C11.7894 20.4966 11.7358 20.4202 11.6633 20.3647C11.3504 20.0985 10.8312 20.2492 10.8308 20.7072C10.8391 20.7754 10.8608 20.8412 10.8947 20.901C10.9285 20.9608 10.9738 21.0134 11.028 21.0556C11.0821 21.0979 11.1441 21.1291 11.2103 21.1473C11.2766 21.1656 11.3457 21.1706 11.4139 21.1621Z" fill="#1D1F20"/>
<path d="M11.0886 15.7298C11.1909 15.7414 11.2933 15.7529 11.3957 15.7693C11.0982 15.725 10.7007 15.6789 10.4008 15.6563L10.4079 15.6636C10.5297 15.6608 10.8043 15.6965 11.0886 15.7298Z" fill="#1D1F20"/>
<path d="M11.5145 16.0641C11.7362 16.0849 11.8593 16.0569 11.8223 15.9999C11.7255 15.8558 10.8525 15.7159 10.83 15.8436L10.8479 15.8786C11.054 15.9881 11.2815 16.0514 11.5145 16.0641Z" fill="#1D1F20"/>
<path d="M12.2507 17.784C12.5798 17.7899 12.6921 17.5568 12.468 17.3299C12.1805 17.0386 11.6091 17.0467 11.611 17.342C11.6114 17.3645 11.6149 17.3868 11.6214 17.4083C11.7175 17.6633 12.0471 17.7814 12.2507 17.784Z" fill="#1D1F20"/>
<path d="M11.9172 16.7732C12.1895 16.7871 12.3119 16.6735 12.185 16.5255C11.9612 16.2672 11.2735 16.1817 11.2468 16.4045C11.2469 16.4295 11.2525 16.4543 11.2633 16.4769C11.3766 16.6645 11.7135 16.7633 11.9172 16.7732Z" fill="#1D1F20"/>
<path d="M12.5037 19.0236C12.8654 19.0141 12.976 18.6581 12.6967 18.397C12.3839 18.1043 11.8771 18.202 11.8942 18.5541L11.9 18.5939C11.9404 18.7213 12.0212 18.8321 12.1301 18.9097C12.239 18.9872 12.3701 19.0272 12.5037 19.0236Z" fill="#1D1F20"/>
<path d="M12.7385 21.9325C12.8299 21.9205 12.9156 21.8816 12.9848 21.8208C13.054 21.76 13.1035 21.68 13.1272 21.591C13.1508 21.5019 13.1475 21.4078 13.1176 21.3206C13.0877 21.2334 13.0326 21.157 12.9593 21.1011C12.8936 21.0406 12.8114 21.0007 12.7231 20.9867C12.6349 20.9726 12.5445 20.9849 12.4632 21.0221C12.382 21.0593 12.3136 21.1196 12.2666 21.1956C12.2196 21.2715 12.1961 21.3597 12.1991 21.449C12.2027 21.5162 12.2195 21.582 12.2486 21.6426C12.2777 21.7033 12.3185 21.7577 12.3686 21.8026C12.4187 21.8475 12.4772 21.8821 12.5407 21.9044C12.6041 21.9267 12.6714 21.9362 12.7385 21.9325Z" fill="#1D1F20"/>
<path d="M12.668 20.4275C13.0502 20.4048 13.1674 19.9633 12.8726 19.6816C12.5778 19.3999 12.0972 19.5436 12.095 19.9124L12.0971 19.9582C12.1187 20.0926 12.1886 20.2145 12.2938 20.3009C12.3989 20.3873 12.532 20.4324 12.668 20.4275Z" fill="#1D1F20"/>
<path d="M12.711 23.4803C12.8085 23.468 12.9002 23.427 12.9743 23.3625C13.0484 23.2979 13.1016 23.2128 13.1272 23.118C13.1529 23.0231 13.1497 22.9227 13.1182 22.8296C13.0867 22.7364 13.0282 22.6547 12.9502 22.5949C12.8771 22.5478 12.7928 22.5212 12.706 22.5178C12.6192 22.5144 12.5331 22.5343 12.4567 22.5755C12.3802 22.6167 12.3163 22.6776 12.2714 22.752C12.2266 22.8263 12.2025 22.9114 12.2017 22.9982C12.1979 23.0649 12.2087 23.1316 12.2334 23.1936C12.258 23.2557 12.2959 23.3116 12.3444 23.3575C12.3929 23.4034 12.4509 23.4382 12.5142 23.4594C12.5775 23.4806 12.6447 23.4878 12.711 23.4803Z" fill="#1D1F20"/>
<path d="M12.5262 16.1268C12.6173 16.1602 12.7106 16.1874 12.8054 16.2083C12.7982 16.201 12.7958 16.1986 12.7285 16.1668C12.5048 16.0832 12.2101 15.9763 11.9876 15.9012C11.9553 15.8912 11.9223 15.8838 11.8889 15.8789L11.9045 15.8946C12.0174 15.9533 12.3386 16.0652 12.5262 16.1268Z" fill="#1D1F20"/>
<path d="M12.9262 16.6342C13.1163 16.6861 13.2321 16.6725 13.1952 16.5963C13.1035 16.404 12.3652 16.1096 12.2982 16.2381C12.2896 16.2585 12.3003 16.2791 12.3123 16.2984C12.4853 16.4604 12.6965 16.5759 12.9262 16.6342Z" fill="#1D1F20"/>
<path d="M13.5651 18.5509C13.8469 18.5938 13.9544 18.3655 13.7642 18.1147C13.5239 17.7936 13.0471 17.7156 13.0044 17.9901C13.0012 18.0244 13.0039 18.0591 13.0122 18.0926C13.0553 18.2112 13.1293 18.3162 13.2265 18.3968C13.3237 18.4773 13.4406 18.5305 13.5651 18.5509Z" fill="#1D1F20"/>
<path d="M13.2736 17.4671C13.5143 17.517 13.6246 17.4153 13.5148 17.2434C13.3285 16.948 12.7488 16.7462 12.6813 16.9543C12.6723 16.9876 12.6751 17.0229 12.6891 17.0544C12.7536 17.1591 12.8386 17.2497 12.9391 17.3206C13.0395 17.3916 13.1533 17.4414 13.2736 17.4671Z" fill="#1D1F20"/>
<path d="M13.7644 19.8225C14.0969 19.8393 14.186 19.459 13.9153 19.1775C13.6446 18.896 13.2622 18.9451 13.2387 19.2583C13.2373 19.2853 13.2383 19.3123 13.2418 19.3391C13.2655 19.4651 13.3291 19.5801 13.4232 19.6672C13.5173 19.7542 13.637 19.8087 13.7644 19.8225Z" fill="#1D1F20"/>
<path d="M13.9006 22.6972C14.2769 22.6492 14.3971 22.1112 14.084 21.8619C13.8333 21.6613 13.4563 21.8178 13.4393 22.2299C13.4346 22.2919 13.4432 22.3542 13.4647 22.4127C13.4861 22.4711 13.5198 22.5243 13.5635 22.5686C13.6073 22.6129 13.66 22.6473 13.7181 22.6694C13.7763 22.6916 13.8385 22.7011 13.9006 22.6972Z" fill="#1D1F20"/>
<path d="M13.8757 21.2328C14.2277 21.2184 14.3282 20.7502 14.0405 20.4734C13.7793 20.2233 13.3761 20.3289 13.3832 20.746C13.3894 20.8741 13.4435 20.9951 13.5347 21.0853C13.6259 21.1754 13.7476 21.2281 13.8757 21.2328Z" fill="#1D1F20"/>
<path d="M13.82 16.8277C13.8952 16.8762 13.9764 16.9144 14.0616 16.9415C14.0632 16.8849 13.3331 16.4314 13.2463 16.4356L13.2618 16.4634C13.4384 16.5987 13.6251 16.7205 13.82 16.8277Z" fill="#1D1F20"/>
<path d="M14.4697 18.3428C14.6729 18.4202 14.7663 18.3328 14.6722 18.143C14.5126 17.8212 14.0237 17.5514 13.9598 17.7535C13.9524 17.788 13.9547 17.8239 13.9664 17.8572C14.0638 18.0789 14.2447 18.2534 14.4697 18.3428Z" fill="#1D1F20"/>
<path d="M14.1745 17.4519C14.338 17.5302 14.438 17.5297 14.406 17.4439C14.3242 17.2131 13.6843 16.8001 13.628 16.9395C13.6237 16.9645 13.6287 16.9903 13.642 17.0119C13.7802 17.2006 13.9632 17.3519 14.1745 17.4519Z" fill="#1D1F20"/>
<path d="M14.6874 19.4298C14.9281 19.4893 15.0186 19.2802 14.8598 19.02C14.6713 18.7029 14.2888 18.5724 14.2223 18.801C14.2111 18.8443 14.21 18.8897 14.2191 18.9335C14.2483 19.0493 14.3067 19.1557 14.3887 19.2426C14.4707 19.3295 14.5735 19.3939 14.6874 19.4298Z" fill="#1D1F20"/>
<path d="M14.8979 21.9975C15.2295 21.9721 15.2953 21.4639 14.9978 21.2304C14.8011 21.0747 14.498 21.1534 14.4945 21.5427C14.5154 21.8791 14.7448 22.0072 14.8979 21.9975Z" fill="#1D1F20"/>
<path d="M14.8349 20.6683C15.1264 20.6944 15.1986 20.3092 14.946 20.0266C14.7246 19.778 14.4254 19.8217 14.3996 20.1036C14.3982 20.1265 14.3992 20.159 14.4003 20.1843C14.411 20.301 14.459 20.4111 14.5373 20.4983C14.6157 20.5856 14.72 20.6452 14.8349 20.6683Z" fill="#1D1F20"/>
<path d="M14.8732 23.3628C15.1967 23.2831 15.3036 22.7463 15.0324 22.5539C14.8439 22.4261 14.5322 22.5541 14.5045 22.9528C14.5012 23.2963 14.7212 23.3979 14.8732 23.3628Z" fill="#1D1F20"/>
<path d="M14.9241 17.7569C14.9796 17.8148 15.045 17.8623 15.1173 17.8969C15.1393 17.8464 14.5078 17.2453 14.4402 17.2569C14.4402 17.2569 14.4402 17.2569 14.4544 17.2932C14.5975 17.4608 14.7547 17.616 14.9241 17.7569Z" fill="#1D1F20"/>
<path d="M15.438 19.3066C15.5918 19.3944 15.6644 19.3347 15.616 19.1788C15.5214 18.8744 15.1245 18.5306 15.0428 18.6831C15.0292 18.7211 15.0281 18.7625 15.0397 18.8012C15.1089 19.0112 15.2499 19.1902 15.438 19.3066Z" fill="#1D1F20"/>
<path d="M15.2119 18.4322C15.3367 18.5247 15.4113 18.5397 15.4021 18.4721C15.3696 18.2646 14.8568 17.7571 14.7731 17.8494C14.7549 17.8673 14.7691 17.9084 14.7786 17.9326C14.8843 18.1291 15.0323 18.2998 15.2119 18.4322Z" fill="#1D1F20"/>
<path d="M15.5995 20.3342C15.7836 20.3922 15.8594 20.2167 15.7428 19.97C15.6023 19.6725 15.3236 19.5211 15.2417 19.7049C15.2251 19.7525 15.2203 19.8033 15.2276 19.8531C15.2464 19.9573 15.29 20.0554 15.3547 20.1391C15.4195 20.2229 15.5034 20.2898 15.5995 20.3342Z" fill="#1D1F20"/>
<path d="M15.7081 22.6458C15.9724 22.5959 16.0247 22.1081 15.7823 21.94C15.6178 21.8268 15.4073 21.9531 15.3897 22.27C15.3722 22.5868 15.5862 22.6679 15.7081 22.6458Z" fill="#1D1F20"/>
<path d="M15.6919 21.4611C15.9341 21.4784 15.9834 21.1039 15.7704 20.8517C15.5956 20.6456 15.3772 20.6959 15.3552 20.9428C15.3526 20.9677 15.3525 20.9927 15.3547 21.0176C15.3536 21.1184 15.3862 21.2168 15.4473 21.2971C15.5084 21.3774 15.5944 21.4351 15.6919 21.4611Z" fill="#1D1F20"/>
<path d="M16.0081 19.4744C16.05 19.5169 16.1447 19.6127 16.1438 19.5585C16.1495 19.4091 15.7445 18.8168 15.6826 18.8875C15.6693 18.9007 15.6799 18.9405 15.6846 18.9623C15.7621 19.1503 15.8716 19.3236 16.0081 19.4744Z" fill="#1D1F20"/>
<path d="M15.7946 18.8315C15.8359 18.8919 15.8827 18.9483 15.9346 19C15.9075 18.8949 15.4774 18.2651 15.4207 18.2756C15.4207 18.2756 15.4206 18.2901 15.4325 18.3167C15.5427 18.4954 15.6636 18.6673 15.7946 18.8315Z" fill="#1D1F20"/>
<path d="M16.1689 20.2608C16.26 20.3362 16.3131 20.3197 16.3017 20.2207C16.2801 20.0024 15.9815 19.5544 15.894 19.6647C15.8673 19.691 15.8779 19.7477 15.8825 19.7815C15.929 19.9658 16.0286 20.1324 16.1689 20.2608Z" fill="#1D1F20"/>
<path d="M16.3191 22.1125C16.5108 22.1078 16.5217 21.7041 16.3347 21.5364C16.2184 21.4332 16.083 21.5045 16.0766 21.76C16.0702 22.0155 16.2299 22.1142 16.3191 22.1125Z" fill="#1D1F20"/>
<path d="M16.273 21.1541C16.4113 21.2117 16.4569 21.0469 16.3666 20.8221C16.2764 20.5972 16.0808 20.45 16.0257 20.5931C16.0119 20.6349 16.0075 20.6794 16.0129 20.7232C16.021 20.8099 16.0486 20.8938 16.0936 20.9684C16.1387 21.043 16.2 21.1065 16.273 21.1541Z" fill="#1D1F20"/>
<path d="M16.3038 23.1014C16.5081 23.0052 16.535 22.5497 16.3413 22.4917C16.2462 22.4633 16.1046 22.5648 16.0885 22.8299C16.0847 23.0564 16.1963 23.1476 16.3038 23.1014Z" fill="#1D1F20"/>
<path d="M16.5394 20.492C16.5562 20.5343 16.5791 20.5738 16.6074 20.6094C16.6092 20.5142 16.3778 19.9063 16.3294 19.9517L16.3326 20.0108C16.3861 20.1774 16.4554 20.3385 16.5394 20.492Z" fill="#1D1F20"/>
<path d="M16.3986 19.9515C16.4259 20.0107 16.4521 20.0712 16.4746 20.1328L16.4094 19.9576C16.3583 19.8403 16.2965 19.6832 16.243 19.5659C16.2182 19.5073 16.1883 19.451 16.1536 19.3977L16.1606 19.4315C16.2319 19.608 16.3225 19.7774 16.3986 19.9515Z" fill="#1D1F20"/>
<path d="M16.6413 21.125C16.6677 21.1517 16.7096 21.1942 16.7086 21.1568C16.7251 21.0328 16.5531 20.5651 16.4817 20.6068C16.4636 20.6248 16.4656 20.6802 16.4691 20.7055C16.498 20.8554 16.5566 20.998 16.6413 21.125Z" fill="#1D1F20"/>
<path d="M16.7065 22.5545C16.8176 22.5071 16.809 22.137 16.6924 22.0892C16.6443 22.072 16.5753 22.1281 16.5717 22.3113C16.5682 22.4945 16.6545 22.5771 16.7065 22.5545Z" fill="#1D1F20"/>
<path d="M16.6967 21.8246C16.7821 21.8697 16.7843 21.6974 16.7323 21.5259C16.6803 21.3544 16.5976 21.2827 16.5597 21.3656C16.5469 21.4043 16.5425 21.4454 16.5469 21.486C16.5472 21.5497 16.5607 21.6127 16.5865 21.6709C16.6123 21.7292 16.6498 21.7815 16.6967 21.8246Z" fill="#1D1F20"/>
<path d="M16.7284 21.0515L16.7155 20.9899L16.706 20.9561L16.7118 20.9935C16.7317 21.1033 16.7587 21.2132 16.7773 21.3242L16.7284 21.0515Z" fill="#1D1F20"/>
<path d="M16.8574 22.2692L16.8502 22.0727L16.8482 22.0076C16.8426 21.934 16.8304 21.9484 16.8292 21.952C16.828 21.9556 16.817 21.9809 16.8189 22.0556C16.8213 22.1283 16.8343 22.2002 16.8574 22.2692Z" fill="#1D1F20"/>
<path d="M16.8428 21.8125L16.8383 21.7498C16.8303 21.6786 16.8213 21.5821 16.8108 21.5109C16.8063 21.4723 16.7993 21.4241 16.7885 21.4204C16.7777 21.4167 16.7858 21.4614 16.7893 21.4843C16.7946 21.6061 16.8241 21.7111 16.8428 21.8125Z" fill="#1D1F20"/>
<path d="M16.8494 22.7302L16.8519 22.7086L16.8535 22.6543L16.8596 22.4471C16.8336 22.507 16.8217 22.572 16.8247 22.6373C16.8216 22.7481 16.8383 22.7651 16.8444 22.7591L16.8494 22.7302Z" fill="#1D1F20"/>
<path d="M16.3386 20.4647C16.4157 21.0639 16.4571 21.6671 16.4627 22.2712C16.4509 22.8729 16.4042 23.4735 16.3229 24.0697C16.2293 24.8514 16.0304 25.6167 15.7318 26.3449L17.1046 26.3533C17.5228 26.355 17.9292 25.5274 18.1332 24.0824C18.2112 23.5013 18.2514 22.9158 18.2535 22.3295L18.2526 22.2776L18.2529 22.2246C18.2587 21.6378 18.2252 21.0513 18.1526 20.4689C17.9673 19.0225 17.5746 18.1856 17.1527 18.1851L15.7799 18.1743C16.0693 18.9068 16.2588 19.6747 16.3435 20.4575L16.3386 20.4647Z" fill="#454749"/>
<path d="M16.3388 20.4647L18.1479 20.4762C17.9626 19.0297 17.5699 18.1928 17.1481 18.1923L15.7753 18.1815C16.0646 18.914 16.2541 19.6819 16.3388 20.4647Z" fill="#1D1F20"/>
<path d="M18.3657 20.4777C18.6271 22.5032 18.3761 24.9483 17.8024 25.9363C17.7388 26.052 17.6572 26.1568 17.5607 26.2468L39.1718 25.6902C39.222 25.632 39.2668 25.5694 39.3056 25.5031C39.7843 24.6712 39.9956 22.6176 39.7768 20.9141C39.6641 20.0262 39.4544 19.416 39.2138 19.148L17.6267 18.3053C17.9409 18.5775 18.2196 19.3352 18.3645 20.4765L18.3657 20.4777Z" fill="#454749"/>
<path d="M19.4968 21.9381C19.3908 21.9374 19.2818 22.0258 19.1794 22.2059C18.8116 22.8373 18.6553 24.3766 18.8234 25.6675C18.9408 26.5844 19.1908 27.1141 19.4571 27.1171L27.5086 26.9239C27.6147 26.9246 27.7237 26.8338 27.8273 26.6549C28.1878 26.0282 28.3478 24.4781 28.1808 23.1908C28.0634 22.274 27.8111 21.7443 27.546 21.7424L19.4944 21.9357L19.4968 21.9381Z" fill="#454749"/>
<path d="M27.1908 23.187C27.2589 23.7457 27.2728 24.3097 27.2324 24.8711L27.1908 23.187Z" fill="#454749"/>
<path d="M19.7528 24.5539L19.7527 24.5756L19.8226 24.5785L19.7534 24.4647L19.7528 24.5539ZM18.9207 26.2235C18.9359 26.2995 19.0426 26.7909 19.2559 27.0117C19.0827 26.7795 18.9678 26.5092 18.9207 26.2235Z" fill="white"/>
<path d="M18.9184 26.2137L18.9243 26.2198C18.9714 26.5055 19.0863 26.7758 19.2595 27.008C19.3103 27.0686 19.3827 27.1072 19.4613 27.1155C19.8779 26.5355 20.12 25.8485 20.1591 25.1352L19.6329 24.2528C19.6329 24.2528 19.2285 26.1472 18.9943 26.2106L18.922 26.2101L18.9184 26.2137Z" fill="#747576"/>
<path d="M18.3655 20.4791L39.7743 20.9131C39.6615 20.0252 39.4518 19.415 39.2112 19.1469L17.6242 18.3043C17.9419 18.5801 18.2254 19.333 18.3655 20.4791Z" fill="#1D1F20"/>
<path d="M28.174 23.1288L28.182 23.1903C28.2039 23.3676 28.2208 23.5498 28.2354 23.7295L39.5668 23.6989C39.5909 23.505 39.6102 23.3039 39.6223 23.0954L28.18 23.1276L28.174 23.1288ZM18.6011 23.7598L18.7976 23.76C18.823 23.5432 18.8447 23.3445 18.8784 23.1555L18.6554 23.1551C18.6421 23.3623 18.6228 23.5635 18.6011 23.7598Z" fill="#BABABB"/>
<path d="M18.7958 23.7593L27.2043 23.7361L27.1895 23.1852C27.2138 23.3649 27.2295 23.5507 27.2404 23.7364L28.2324 23.7349C28.2215 23.5516 28.2045 23.3694 28.179 23.1957L28.171 23.1342L18.8827 23.1513C18.849 23.3403 18.8224 23.5438 18.8019 23.7558L18.7958 23.7593Z" fill="#BABABB"/>
<path d="M27.1909 23.1848L27.2057 23.7357L27.2418 23.736C27.2309 23.5503 27.2151 23.3645 27.1909 23.1848Z" fill="#BABABB"/>
<path d="M28.1109 25.9768L28.2375 25.9741C28.3838 25.4576 28.4775 24.9277 28.517 24.3922L19.648 24.041L19.4648 24.2434C19.3839 25.0637 19.218 25.7809 18.9864 26.2084L19.0383 26.2075C19.079 26.158 19.116 26.1055 19.1489 26.0504C19.3718 25.6627 19.5349 25.0081 19.625 24.2506L28.3351 24.5862C28.2988 25.0552 28.2239 25.5203 28.1109 25.9768Z" fill="black"/>
<path d="M23.0474 27.0309C23.0474 27.0309 23.5252 26.7462 23.643 25.4007L27.5545 25.5533C27.5089 26.3172 27.1867 26.7838 27.0315 26.9346C27.0315 26.9346 27.456 26.7025 27.6371 25.4623L23.5798 25.2857L23.5707 25.3977C23.4163 26.6116 23.1546 26.8388 23.0474 27.0309Z" fill="#BABABB"/>
<path d="M10.9609 19.194C11.4006 22.6178 10.9755 26.7466 10.0108 28.4177C9.73553 28.8955 9.44603 29.1334 9.16399 29.1314L11.8156 29.1499C12.1 29.1519 12.3895 28.9141 12.6648 28.4363C13.6283 26.7664 14.051 22.6375 13.6137 19.2113C13.2946 16.7634 12.6233 15.3557 11.9134 15.352L9.2618 15.3335C9.96928 15.3396 10.6394 16.7485 10.9525 19.1927L10.9609 19.194Z" fill="#454749"/>
<path d="M10.9596 19.1923L13.6111 19.2108C13.2933 16.7618 12.622 15.3541 11.9121 15.3503L9.26047 15.3318C9.97517 15.3404 10.6465 16.7481 10.9596 19.1923Z" fill="#1D1F20"/>
<path d="M39.9938 20.9207C40.2113 22.6229 40.0012 24.6778 39.5225 25.5097C39.3849 25.7462 39.2419 25.8657 39.0997 25.8647L40.4147 25.8727C40.5557 25.8749 40.701 25.7554 40.8375 25.5177C41.3162 24.6881 41.5275 22.6321 41.3087 20.9287C41.1534 19.7138 40.8213 19.0136 40.467 19.0087L39.1556 19.002C39.5063 19.0056 39.8396 19.7071 39.9962 20.9231L39.9938 20.9207Z" fill="#454749"/>
<path d="M39.9926 20.9206L41.3076 20.9285C41.1522 19.7137 40.8201 19.0135 40.4658 19.0086L39.1544 19.0019C39.5028 19.0031 39.836 19.7045 39.9926 20.9206Z" fill="#1D1F20"/>
<path d="M16.5426 23.982L17.9118 23.9771C17.9383 23.7832 17.9624 23.5821 17.9794 23.3737L16.6077 23.3786C16.5908 23.5845 16.5678 23.7869 16.5426 23.982Z" fill="#BABABB"/>
<path d="M40.1918 23.9264L41.0681 23.924C41.0957 23.7314 41.1187 23.529 41.1356 23.3206L40.2581 23.3217C40.2412 23.5301 40.2183 23.7325 40.1918 23.9264Z" fill="#BABABB"/>
<path d="M11.2623 25.8084L13.0316 25.8207C13.099 25.4379 13.1557 25.0345 13.2016 24.6154L11.4323 24.603C11.3876 25.021 11.3285 25.4243 11.2623 25.8084Z" fill="#BABABB"/>
<path d="M20.1535 25.1372L19.6297 24.2549L28.3337 24.5941L27.6354 25.4631L20.1535 25.1372Z" fill="#1D1F20"/>
<path d="M27.6337 25.4702C27.6337 25.4702 27.4976 26.6396 27.0282 26.9425L27.5007 26.9362C27.6067 26.9369 27.7158 26.8461 27.8193 26.6672C28.0447 26.2746 28.2884 25.4302 28.3259 24.6072L27.6337 25.4702Z" fill="#0C0C0D"/>
<path d="M19.4569 27.1149C19.4569 27.1149 20.0164 26.6849 20.2217 25.2218L23.1859 25.3703C23.1393 25.9672 22.9363 26.5411 22.5973 27.0344C22.5973 27.0344 23.117 26.5908 23.2635 25.2841L21.038 25.1733L20.1547 25.1346C20.1529 25.2095 20.1468 25.2844 20.1365 25.3586C20.0992 25.698 20.0136 26.0302 19.8822 26.3452C19.7864 26.5858 19.6641 26.8149 19.5177 27.0285C19.48 27.0849 19.4569 27.1149 19.4569 27.1149Z" fill="#BABABB"/>
<path d="M19.8825 26.3455C20.0144 26.0301 20.1005 25.6975 20.138 25.3577C20.0957 25.6966 20.0098 26.0286 19.8825 26.3455ZM19.4512 27.1211C19.4512 27.1211 19.4778 27.0948 19.512 27.0347C19.4877 27.0587 19.473 27.0923 19.4512 27.1211Z" fill="#D0D1D1"/>
<path d="M20.1539 25.1352L21.0396 25.174L20.2262 25.1333L20.1539 25.1328L20.1539 25.1352Z" fill="#A6A6A7"/>
</g>
<defs>
<clipPath id="clip0_686_6799">
<rect width="30.6674" height="30.6674" fill="white" transform="translate(22.1748 44) rotate(-134.627)"/>
</clipPath>
</defs>
</svg>
