<svg width="523" height="637" viewBox="0 0 523 637" fill="none" xmlns="http://www.w3.org/2000/svg">
<path d="M172.052 360.644C171.662 361.626 171.263 362.609 170.893 363.585L170.729 364.068C171.284 362.604 171.875 361.13 172.467 359.656C172.33 359.982 172.186 360.31 172.052 360.644Z" fill="#0AA8E8"/>
<path d="M250.621 274.117C252.469 273.157 254.327 272.221 256.207 271.336C254.335 272.219 252.469 273.157 250.621 274.117Z" fill="#0AA8E8"/>
<path d="M161.691 446.867L161.787 447.568L161.797 447.605L161.691 446.867Z" fill="#0AA8E8"/>
<path d="M339.175 255.652C340.171 255.719 341.17 255.784 342.17 255.867C341.174 255.796 340.175 255.718 339.175 255.652Z" fill="#0AA8E8"/>
<path d="M208.441 541.209C209.18 541.957 209.89 542.723 210.644 543.459C209.926 542.775 209.24 542.016 208.53 541.298L208.441 541.209Z" fill="#0AA8E8"/>
<path d="M202.595 534.995C203.321 535.809 204.017 536.64 204.763 537.444C204.059 536.681 203.402 535.897 202.713 535.126L202.595 534.995Z" fill="#0AA8E8"/>
<path d="M258.871 270.118C260.686 269.299 262.512 268.507 264.379 267.766C262.512 268.507 260.686 269.299 258.871 270.118Z" fill="#0AA8E8"/>
<path d="M324.521 255.29C325.249 255.275 325.982 255.293 326.712 255.286C325.982 255.293 325.249 255.275 324.521 255.29Z" fill="#0AA8E8"/>
<path d="M163.819 387.42C164.147 385.911 164.515 384.405 164.889 382.902C164.515 384.405 164.146 385.907 163.819 387.42Z" fill="#0AA8E8"/>
<path d="M313.78 590.585C314.628 590.656 315.476 590.713 316.327 590.779C316.157 590.768 315.985 590.748 315.815 590.736C315.15 590.674 314.473 590.636 313.78 590.585Z" fill="#0AA8E8"/>
<path d="M162.3 395.36C162.552 393.846 162.849 392.337 163.146 390.828C162.846 392.325 162.549 393.834 162.3 395.36Z" fill="#0AA8E8"/>
<path d="M416.242 566.125C415.211 566.761 414.162 567.362 413.121 567.974C414.162 567.362 415.211 566.761 416.242 566.125Z" fill="#0AA8E8"/>
<path d="M236.477 564.077C236.869 564.332 237.258 564.605 237.651 564.859C237.338 564.658 237.038 564.436 236.724 564.23L236.477 564.077Z" fill="#0AA8E8"/>
<path d="M214.88 547.389C215.553 548.002 216.196 548.636 216.884 549.241C216.219 548.656 215.593 548.039 214.944 547.446L214.88 547.389Z" fill="#0AA8E8"/>
<path d="M267.107 266.67C268.966 265.948 270.839 265.266 272.721 264.613C270.839 265.266 268.966 265.931 267.107 266.67Z" fill="#0AA8E8"/>
<path d="M331.794 255.314C332.786 255.337 333.783 255.377 334.78 255.417C333.779 255.378 332.786 255.337 331.794 255.314Z" fill="#0AA8E8"/>
<path d="M229.887 559.578C230.083 559.723 230.273 559.873 230.472 560.012C230.31 559.898 230.153 559.77 229.995 559.654L229.887 559.578Z" fill="#0AA8E8"/>
<path d="M314.791 255.807C315.749 255.735 316.708 255.649 317.665 255.59C316.708 255.649 315.749 255.735 314.791 255.807Z" fill="#0AA8E8"/>
<path d="M243.274 568.269C243.851 568.606 244.422 568.966 245.001 569.293C244.577 569.056 244.167 568.784 243.747 568.542L243.274 568.269Z" fill="#0AA8E8"/>
<path d="M161.924 448.594C162.053 449.436 162.179 450.314 162.325 451.169C162.223 450.578 162.15 449.98 162.057 449.387C162.017 449.121 161.963 448.855 161.924 448.594Z" fill="#0AA8E8"/>
<path d="M346.632 590.127C347.462 590.032 348.288 589.907 349.115 589.803C349.078 589.813 349.037 589.824 349 589.834C348.207 589.915 347.42 590.038 346.632 590.127Z" fill="#0AA8E8"/>
<path d="M163.307 456.375C163.483 457.262 163.649 458.142 163.841 459.025C163.701 458.387 163.595 457.745 163.463 457.105L163.307 456.375Z" fill="#0AA8E8"/>
<path d="M409.707 569.949C408.616 570.557 407.518 571.141 406.412 571.709C407.517 571.137 408.616 570.557 409.707 569.949Z" fill="#0AA8E8"/>
<path d="M165.055 464.113C165.295 465.009 165.493 465.912 165.733 466.808C165.552 466.133 165.405 465.453 165.232 464.776C165.173 464.555 165.11 464.335 165.055 464.113Z" fill="#0AA8E8"/>
<path d="M179.478 344.715C179.063 345.506 178.609 346.263 178.208 347.076C177.921 347.64 177.636 348.212 177.378 348.772L177.3 348.937C177.994 347.502 178.73 346.095 179.478 344.715Z" fill="#0AA8E8"/>
<path d="M324.503 591.122C323.433 591.102 322.364 591.07 321.294 591.026C322.361 591.071 323.43 591.103 324.503 591.122Z" fill="#0AA8E8"/>
<path d="M291.642 587.23C290.715 587.04 289.803 586.798 288.886 586.579C289.805 586.802 290.721 587.03 291.642 587.23Z" fill="#0AA8E8"/>
<path d="M192.963 323.332C191.995 324.63 191.054 325.926 190.134 327.238C191.054 325.926 192.004 324.628 192.963 323.332Z" fill="#0AA8E8"/>
<path d="M299.045 588.705C298.407 588.595 297.768 588.455 297.133 588.34C297.768 588.455 298.412 588.616 299.045 588.705Z" fill="#0AA8E8"/>
<path d="M188.07 330.289C187.178 331.624 186.299 332.956 185.454 334.318C186.301 332.964 187.178 331.624 188.07 330.289Z" fill="#0AA8E8"/>
<path d="M201.126 313.119C201.528 312.656 201.923 312.181 202.326 311.723C201.911 312.185 201.528 312.656 201.126 313.119Z" fill="#0AA8E8"/>
<path d="M403.01 573.469C401.896 574.024 400.779 574.568 399.659 575.099C400.78 574.571 401.897 574.027 403.01 573.469Z" fill="#0AA8E8"/>
<path d="M160.033 419.301C160.07 417.801 160.145 416.299 160.221 414.797C160.145 416.299 160.069 417.797 160.033 419.301Z" fill="#0AA8E8"/>
<path d="M160.406 411.3C160.51 409.79 160.662 408.281 160.807 406.773C160.662 408.281 160.51 409.79 160.406 411.3Z" fill="#0AA8E8"/>
<path d="M160.035 427.309C159.999 425.819 160.008 424.33 160.008 422.84C160.008 424.33 159.999 425.819 160.035 427.309Z" fill="#0AA8E8"/>
<path d="M161.187 443.255C161.013 441.802 160.884 440.341 160.748 438.883C160.884 440.341 161.012 441.798 161.187 443.255Z" fill="#0AA8E8"/>
<path d="M259.746 576.761C259.417 576.613 259.092 576.446 258.746 576.301C259.092 576.446 259.417 576.613 259.746 576.761Z" fill="#0AA8E8"/>
<path d="M160.427 435.321C160.321 433.846 160.262 432.367 160.191 430.891C160.258 432.35 160.317 433.83 160.427 435.321Z" fill="#0AA8E8"/>
<path d="M181.175 341.548C181.95 340.156 182.757 338.782 183.57 337.398C182.737 338.788 181.95 340.156 181.175 341.548Z" fill="#0AA8E8"/>
<path d="M364.747 587.062C363.609 587.321 362.469 587.565 361.326 587.795C362.47 587.567 363.61 587.323 364.747 587.062Z" fill="#0AA8E8"/>
<path d="M207.192 306.468C207.741 305.882 208.309 305.336 208.869 304.773C208.311 305.34 207.745 305.895 207.192 306.468Z" fill="#0AA8E8"/>
<path d="M379.213 583.188C378.155 583.528 377.083 583.828 376.019 584.144C377.077 583.808 378.15 583.507 379.213 583.188Z" fill="#0AA8E8"/>
<path d="M372.031 585.275C370.898 585.579 369.769 585.881 368.63 586.147C369.765 585.865 370.899 585.583 372.031 585.275Z" fill="#0AA8E8"/>
<path d="M388.857 579.723C387.745 580.152 386.641 580.597 385.522 581.002C386.641 580.597 387.745 580.152 388.857 579.723Z" fill="#0AA8E8"/>
<path d="M396.139 576.703C395.029 577.193 393.926 577.691 392.81 578.156C393.926 577.691 395.03 577.197 396.139 576.703Z" fill="#0AA8E8"/>
<path d="M173.927 356.173C174.522 354.813 175.146 353.457 175.775 352.109C175.475 352.755 175.154 353.39 174.862 354.033C174.569 354.677 174.239 355.458 173.927 356.173Z" fill="#0AA8E8"/>
<path d="M332.024 591.112C330.979 591.138 329.927 591.139 328.881 591.147C329.929 591.13 330.979 591.138 332.024 591.112Z" fill="#0AA8E8"/>
<path d="M198.989 315.677C198.13 316.709 197.245 317.709 196.406 318.767C195.675 319.686 195.007 320.628 194.3 321.559C218.552 440.83 304.918 428.518 389.329 460.79C389.084 460.693 388.838 460.593 388.586 460.503C368.193 440.24 346.772 420.179 325.054 400.732C310.067 393.139 297.214 381.923 287.66 368.102C267.521 350.977 247.462 334.628 227.999 319.39C248.069 347.07 285.538 387.637 354.739 429.803C288.359 413.905 230.975 354.925 198.989 315.677Z" fill="#0AA8E8"/>
<path d="M197.163 528.606C197.856 529.459 198.504 530.338 199.229 531.178C198.579 530.388 197.948 529.575 197.304 528.774L197.163 528.606Z" fill="#0AA8E8"/>
<path d="M339.496 590.763C338.593 590.825 337.684 590.854 336.781 590.903C337.687 590.866 338.596 590.838 339.496 590.763Z" fill="#0AA8E8"/>
<path d="M250.413 572.219C251.111 572.584 251.802 572.969 252.505 573.32C252.177 573.158 251.859 572.971 251.534 572.804C251.209 572.637 250.785 572.413 250.413 572.219Z" fill="#0AA8E8"/>
<path d="M357.307 588.553C356.201 588.748 355.101 588.946 353.995 589.12C355.101 588.946 356.201 588.748 357.307 588.553Z" fill="#0AA8E8"/>
<path d="M465.604 326.993C466.305 327.971 466.972 328.954 467.635 329.956C466.972 328.954 466.288 327.976 465.604 326.993Z" fill="#0AA8E8"/>
<path d="M477.808 347.414C478.319 348.421 478.851 349.427 479.34 350.449C478.847 349.428 478.32 348.425 477.808 347.414Z" fill="#0AA8E8"/>
<path d="M490.035 379.274C490.364 380.501 490.67 381.76 490.977 383.002C490.67 381.76 490.371 380.512 490.035 379.274Z" fill="#0AA8E8"/>
<path d="M485.337 364.554C485.742 365.642 486.099 366.744 486.481 367.842C486.099 366.744 485.742 365.642 485.337 364.554Z" fill="#0AA8E8"/>
<path d="M169.635 479.32C169.962 480.245 170.268 481.176 170.61 482.092C170.338 481.354 170.097 480.603 169.832 479.859L169.635 479.32Z" fill="#0AA8E8"/>
<path d="M487.855 371.859C488.241 373.071 488.577 374.261 488.93 375.464C488.577 374.261 488.236 373.055 487.855 371.859Z" fill="#0AA8E8"/>
<path d="M481.368 354.914C481.762 355.794 482.18 356.665 482.557 357.55C482.18 356.665 481.762 355.794 481.368 354.914Z" fill="#0AA8E8"/>
<path d="M474.058 340.394C474.635 341.418 475.227 342.435 475.784 343.465C475.227 342.435 474.635 341.418 474.058 340.394Z" fill="#0AA8E8"/>
<path d="M175.694 494.124C176.128 495.056 176.537 495.994 176.986 496.917C176.607 496.142 176.263 495.331 175.909 494.535L175.694 494.124Z" fill="#0AA8E8"/>
<path d="M266.805 579.7C267.177 579.846 267.553 579.987 267.924 580.129C267.797 580.079 267.677 580.024 267.55 579.975C267.3 579.879 267.042 579.799 266.805 579.7Z" fill="#0AA8E8"/>
<path d="M179.244 501.344C179.729 502.271 180.182 503.21 180.695 504.125C180.257 503.326 179.863 502.511 179.437 501.705L179.244 501.344Z" fill="#0AA8E8"/>
<path d="M469.996 333.603C470.629 334.609 471.267 335.613 471.877 336.633C471.246 335.618 470.629 334.609 469.996 333.603Z" fill="#0AA8E8"/>
<path d="M460.889 320.585C461.616 321.53 462.334 322.477 463.038 323.433C462.329 322.48 461.613 321.531 460.889 320.585Z" fill="#0AA8E8"/>
<path d="M161.153 403.316C161.334 401.799 161.555 400.285 161.775 398.766C161.555 400.285 161.334 401.799 161.153 403.316Z" fill="#0AA8E8"/>
<path d="M491.869 386.762C492.141 388.004 492.403 389.293 492.654 390.559C492.403 389.293 492.146 388.025 491.869 386.762Z" fill="#0AA8E8"/>
<path d="M430.561 555.572L430.942 555.882C439.705 549.067 447.769 541.399 455.016 532.991C453.807 531.491 452.609 529.997 451.378 528.494L451.202 528.279C449.031 525.631 446.814 522.971 444.553 520.301C443.921 536.499 435.41 549.911 430.561 555.572Z" fill="#0AA8E8"/>
<path d="M273.593 296.263C278.385 300.383 283.131 304.488 287.831 308.577C288.269 307.315 288.733 306.069 289.256 304.846C283.935 301.843 278.714 298.982 273.593 296.263Z" fill="#0AA8E8"/>
<path d="M281.338 584.601C282.152 584.821 282.97 585.076 283.788 585.299C283.495 585.22 283.211 585.125 282.918 585.046C282.391 584.897 281.866 584.753 281.338 584.601Z" fill="#0AA8E8"/>
<path d="M165.734 379.556C166.134 378.054 166.579 376.558 167.025 375.066C166.579 376.558 166.134 378.054 165.734 379.556Z" fill="#0AA8E8"/>
<path d="M306.344 589.798C306.943 589.874 307.538 589.916 308.152 590.002C308.07 589.989 307.988 589.976 307.906 589.967C307.381 589.906 306.86 589.857 306.344 589.798Z" fill="#0AA8E8"/>
<path d="M331.995 271.113C332.44 270.993 332.899 270.936 333.351 270.841C325.842 265.254 318.764 260.323 312.118 256.048C299.277 257.261 286.619 259.944 274.39 264.044C283.047 269.418 293.491 276.129 305.013 284.002C312.308 278.028 321.381 273.536 331.995 271.113Z" fill="#0AA8E8"/>
<path d="M403.596 286.887C400.949 281.099 397.344 274.502 394.063 268.835C383.705 264.394 372.923 261.015 361.882 258.751C365.55 262.884 369.439 267.467 373.507 272.52C384.293 275.529 394.474 280.39 403.596 286.887Z" fill="#0AA8E8"/>
<path d="M420.709 563.235L420.742 563.227C420.632 563.304 420.519 563.374 420.403 563.449C420.5 563.353 420.615 563.322 420.709 563.235Z" fill="#0AA8E8"/>
<path d="M168.029 371.757C168.508 370.27 169.028 368.793 169.549 367.316C169.028 368.793 168.512 370.269 168.029 371.757Z" fill="#0AA8E8"/>
<path d="M192.125 522.043C192.774 522.93 193.394 523.834 194.059 524.712C193.447 523.903 192.878 523.073 192.282 522.255L192.125 522.043Z" fill="#0AA8E8"/>
<path d="M356.259 257.645C357.2 257.805 358.136 257.993 359.073 258.167C358.136 257.993 357.2 257.805 356.259 257.645Z" fill="#0AA8E8"/>
<path d="M187.468 515.309C188.061 516.215 188.632 517.136 189.245 518.033C188.69 517.222 188.177 516.386 187.637 515.566L187.468 515.309Z" fill="#0AA8E8"/>
<path d="M167.16 471.76C167.432 472.674 167.694 473.59 167.982 474.499C167.757 473.792 167.565 473.072 167.347 472.359L167.16 471.76Z" fill="#0AA8E8"/>
<path d="M245.127 277.118L245.121 277.098C243.956 277.756 242.796 278.418 241.647 279.103C242.784 278.421 243.958 277.782 245.127 277.118Z" fill="#0AA8E8"/>
<path d="M402.381 272.655C403.079 273.002 403.774 273.338 404.466 273.696C403.774 273.338 403.079 273.002 402.381 272.655Z" fill="#0AA8E8"/>
<path d="M479.228 496.127C479.913 494.707 480.618 493.295 481.256 491.866C469.569 480.547 457.613 469.078 445.39 457.459C454.653 467.879 463.409 478.388 471.57 488.652C474.143 491.154 476.696 493.646 479.228 496.127Z" fill="#0AA8E8"/>
<path d="M347.194 256.368C347.936 256.455 348.68 256.514 349.42 256.609C348.681 256.518 347.936 256.455 347.194 256.368Z" fill="#0AA8E8"/>
<path d="M243.222 280.949L247.735 284.703L249.77 286.406C251.876 288.18 253.987 289.953 256.101 291.725L257.485 292.897L262.699 297.318L264.89 299.182L269.589 303.184L271.63 304.93C273.804 306.791 275.983 308.663 278.169 310.548L279.024 311.287C280.967 312.962 282.913 314.644 284.862 316.334L285.642 317.002C285.9 315.513 286.235 314.046 286.609 312.596C277.12 304.342 267.707 296.239 258.372 288.288C253.059 285.597 247.911 283.057 242.928 280.668L243.222 280.949Z" fill="#0AA8E8"/>
<path d="M274.009 582.315C274.607 582.517 275.206 582.719 275.807 582.921C275.542 582.834 275.283 582.732 275.018 582.645C274.682 582.534 274.327 582.436 274.009 582.315Z" fill="#0AA8E8"/>
<path d="M395.072 269.236C395.905 269.597 396.736 269.97 397.564 270.356C396.738 269.979 395.907 269.605 395.072 269.236Z" fill="#0AA8E8"/>
<path d="M410.108 276.733C410.82 277.134 411.531 277.544 412.241 277.954C411.531 277.544 410.82 277.134 410.108 276.733Z" fill="#0AA8E8"/>
<path d="M450.474 308.349C451.259 309.182 452.018 310.036 452.784 310.882C452.018 310.036 451.259 309.182 450.474 308.349Z" fill="#0AA8E8"/>
<path d="M172.474 486.785C172.854 487.713 173.214 488.647 173.605 489.551C173.278 488.788 172.986 488.011 172.672 487.245L172.474 486.785Z" fill="#0AA8E8"/>
<path d="M454.95 350.066C463.71 368.228 450.011 371.705 450.011 371.705C450.011 371.705 444.734 364.969 437.756 355.699C436.228 367.395 430.935 378.276 422.677 386.698C436.216 402.865 448.263 420.01 457.62 437.832C444.03 422.317 429.548 407.606 414.248 393.774C407.849 398.146 400.727 401.352 393.211 403.243C423.272 431.051 453.69 459.816 482.881 487.997C495.478 457.844 499.003 424.671 493.023 392.545C469.692 328.184 447.461 334.487 454.95 350.066ZM466.963 376.901C489.477 402.903 488.974 452.501 488.974 452.501L466.963 376.901Z" fill="#0AA8E8"/>
<path d="M444.773 302.574C445.553 303.325 446.3 304.098 447.058 304.864C446.299 304.094 445.552 303.321 444.773 302.574Z" fill="#0AA8E8"/>
<path d="M455.852 314.37C456.618 315.265 457.357 316.158 458.104 317.081C457.36 316.171 456.618 315.265 455.852 314.37Z" fill="#0AA8E8"/>
<path d="M424.657 285.923C425.202 286.309 425.745 286.697 426.285 287.087C425.745 286.697 425.202 286.309 424.657 285.923Z" fill="#0AA8E8"/>
<path d="M417.762 281.309C418.042 281.488 418.328 281.657 418.608 281.835C418.325 281.644 418.039 281.476 417.762 281.309Z" fill="#0AA8E8"/>
<path d="M183.18 508.403C183.719 509.319 184.232 510.252 184.795 511.157C184.299 510.352 183.848 509.522 183.367 508.708L183.18 508.403Z" fill="#0AA8E8"/>
<path d="M438.745 297.001C439.432 297.602 440.082 298.23 440.759 298.842C440.082 298.23 439.432 297.602 438.745 297.001Z" fill="#0AA8E8"/>
<path d="M287.027 318.243C288.596 319.605 290.168 320.974 291.744 322.349L293.923 324.247C296.04 326.094 298.158 327.948 300.275 329.809L301.051 330.478L307.295 335.978L309.466 337.895L314.231 342.116L316.439 344.072C318.476 345.885 320.517 347.702 322.56 349.525L323.204 350.094L329.958 356.141L331.95 357.93L336.97 362.447L339.045 364.316L344.83 369.543L345.895 370.508C347.92 372.341 349.944 374.178 351.966 376.018C359.308 380.413 366.56 385.26 373.711 390.513C344.669 363.905 315.329 337.609 286.605 312.626C286.23 314.076 285.895 315.543 285.637 317.032L287.027 318.243Z" fill="#82D9FC"/>
<path d="M414.252 393.784C373.147 356.497 328.805 327.062 289.25 304.823C288.727 306.046 288.26 307.28 287.825 308.554C303.073 321.808 317.752 334.784 331.454 347.028C351.518 364.967 372.284 383.875 393.225 403.254C400.738 401.362 407.856 398.156 414.252 393.784Z" fill="#82D9FC"/>
<path d="M405.253 301.563C409.144 301.634 407.342 295.076 403.6 286.885C394.478 280.382 384.296 275.515 373.506 272.501C390.897 294.094 411.674 324.346 433.414 365.901C394.944 321.845 361.218 291.581 333.351 270.831C332.899 270.926 332.446 271.004 331.995 271.103C321.377 273.51 312.308 278.018 305.014 283.997C340.809 308.466 387.018 344.232 422.679 386.691C430.954 378.265 436.257 367.373 437.786 355.663C422.189 334.922 398.107 301.43 405.253 301.563Z" fill="#82D9FC"/>
<path d="M246.152 569.933C247.56 570.722 248.98 571.473 250.407 572.217C250.779 572.411 251.152 572.609 251.526 572.794C249.725 571.878 247.931 570.929 246.152 569.933Z" fill="#048FC7"/>
<path d="M162.062 449.387C162.156 449.98 162.228 450.579 162.33 451.17C162.464 451.98 162.626 452.783 162.772 453.59C162.516 452.194 162.285 450.791 162.062 449.387Z" fill="#048FC7"/>
<path d="M163.463 457.102C163.595 457.741 163.701 458.384 163.841 459.021C164.002 459.767 164.188 460.511 164.362 461.258C164.04 459.876 163.747 458.49 163.463 457.102Z" fill="#048FC7"/>
<path d="M310.394 590.252C311.53 590.386 312.65 590.489 313.793 590.582C314.47 590.637 315.129 590.662 315.826 590.726C314.014 590.597 312.204 590.439 310.394 590.252Z" fill="#048FC7"/>
<path d="M253.165 573.653C255.017 574.574 256.887 575.449 258.762 576.297C259.091 576.445 259.417 576.613 259.762 576.757L260.297 576.986C257.894 575.935 255.516 574.824 253.165 573.653Z" fill="#048FC7"/>
<path d="M318.132 590.887C319.187 590.946 320.238 590.989 321.293 591.031C322.347 591.072 323.43 591.107 324.501 591.127C324.567 591.109 324.643 591.132 324.713 591.131C322.519 591.094 320.326 591.012 318.132 590.887Z" fill="#048FC7"/>
<path d="M412.23 541.083C462.826 483.202 326.237 471.18 326.237 471.18C328.121 471.047 388.988 472.735 417.444 489.68C408.64 480.154 399.508 470.618 390.049 461.069L389.328 460.785C304.917 428.512 218.551 440.825 194.299 321.553L194.284 321.496C193.823 322.098 193.407 322.722 192.96 323.328C191.993 324.627 191.051 325.922 190.131 327.234C189.429 328.247 188.746 329.267 188.068 330.286C187.176 331.621 186.297 332.953 185.452 334.315C184.809 335.337 184.193 336.375 183.576 337.408C182.755 338.781 181.948 340.155 181.18 341.558C180.581 342.595 180.04 343.652 179.481 344.705C178.738 346.105 178.001 347.513 177.302 348.928L177.261 349.004L176.355 350.86C176.156 351.278 175.976 351.703 175.781 352.119C175.151 353.467 174.528 354.822 173.932 356.183L173.677 356.769C173.363 357.493 173.059 358.224 172.755 358.954C172.659 359.186 172.574 359.441 172.475 359.66C171.883 361.134 171.284 362.579 170.737 364.072C170.327 365.159 169.948 366.247 169.561 367.342C169.035 368.798 168.52 370.295 168.042 371.782C167.688 372.885 167.366 373.989 167.035 375.095C166.589 376.587 166.143 378.082 165.743 379.584C165.441 380.695 165.175 381.814 164.888 382.935C164.514 384.438 164.146 385.944 163.818 387.452C163.572 388.579 163.358 389.71 163.14 390.843C162.843 392.352 162.545 393.861 162.294 395.375C162.104 396.518 161.946 397.66 161.778 398.801C161.556 400.312 161.335 401.827 161.156 403.352C161.025 404.501 160.898 405.662 160.803 406.814C160.659 408.321 160.507 409.831 160.403 411.34C160.321 412.507 160.274 413.672 160.218 414.84C160.143 416.342 160.063 417.846 160.031 419.345C160.005 420.523 160.013 421.7 160.004 422.859C160.004 424.35 159.996 425.839 160.031 427.329C160.06 428.518 160.127 429.701 160.182 430.887C160.253 432.363 160.312 433.843 160.418 435.318C160.506 436.513 160.622 437.714 160.743 438.905C160.88 440.363 161.008 441.824 161.183 443.277C161.33 444.482 161.516 445.682 161.685 446.886L161.795 447.624C162.811 450.728 175.503 488.065 199.657 496.056C224.861 504.398 235.593 490.781 248.12 520.043C260.648 549.304 281.481 574.486 298.22 558.269C314.958 542.052 350.948 539.287 350.342 589.662C351.561 589.498 352.776 589.338 353.991 589.144C355.098 588.971 356.198 588.772 357.303 588.577C358.646 588.336 359.983 588.091 361.322 587.82C362.465 587.59 363.605 587.346 364.743 587.088C366.046 586.796 367.339 586.484 368.63 586.165C369.759 585.862 370.899 585.601 372.031 585.293C373.364 584.936 374.687 584.537 376.01 584.143C377.074 583.827 378.147 583.527 379.204 583.186C381.321 582.511 383.425 581.791 385.517 581.026C386.637 580.621 387.741 580.176 388.853 579.746C390.175 579.23 391.494 578.723 392.815 578.172C393.931 577.706 395.034 577.209 396.144 576.719C397.319 576.197 398.488 575.652 399.661 575.118C400.833 574.585 401.899 574.045 403.012 573.488C404.125 572.931 405.285 572.336 406.415 571.739C407.544 571.143 408.615 570.575 409.709 569.98C410.803 569.384 411.989 568.672 413.126 568.007C414.168 567.395 415.217 566.794 416.248 566.158C417.279 565.523 418.256 564.866 419.261 564.215L419.286 564.064L419.316 564.174C419.691 563.938 420.033 563.71 420.391 563.474C420.507 563.399 420.62 563.33 420.73 563.252C422.593 562.022 424.432 560.749 426.248 559.432C426.747 559.07 427.259 558.723 427.762 558.356L430.522 555.569L430.573 555.612C435.417 549.93 443.933 536.538 444.565 520.341C440.469 515.493 436.26 510.629 431.939 505.748L431.061 504.765C433.895 514.045 429.205 525.947 412.23 541.083ZM306.407 542.993C296.073 528.431 277.631 538.682 277.631 538.682C277.631 538.682 295.619 522.187 306.407 542.993ZM286.661 457.438C188.953 441.43 181.872 340.688 181.872 340.688C181.872 340.688 192.965 427.115 286.661 457.438ZM185.836 442.217C185.836 442.217 256.064 534.145 390.638 501.799C260.545 553.602 185.836 442.217 185.836 442.217ZM263.993 534.532C248.863 507.664 284.441 526.528 284.441 526.528C252.014 517.298 267.3 533.83 274.069 542.503C280.839 551.176 293.58 545.241 293.58 545.241C298.456 550.02 279.124 561.4 263.993 534.532Z" fill="#048FC7"/>
<path d="M285.066 585.642C286.334 585.973 287.608 586.276 288.881 586.575C289.815 586.79 290.716 587.026 291.637 587.226C293.46 587.615 295.299 587.999 297.132 588.328C297.77 588.45 298.408 588.591 299.045 588.692C299.431 588.759 299.817 588.809 300.204 588.877C295.124 588.04 290.079 586.961 285.066 585.642Z" fill="#048FC7"/>
<path d="M335.058 590.996C335.635 590.973 336.209 590.938 336.789 590.91C337.692 590.861 338.6 590.832 339.504 590.77C340.086 590.732 340.665 590.669 341.241 590.624C339.18 590.785 337.119 590.909 335.058 590.996Z" fill="#048FC7"/>
<path d="M302.384 589.217C303.702 589.421 305.016 589.63 306.338 589.802C306.856 589.869 307.375 589.909 307.892 589.973C306.053 589.755 304.218 589.497 302.384 589.217Z" fill="#048FC7"/>
<path d="M262.038 577.728C263.621 578.399 265.204 579.071 266.805 579.699C267.051 579.795 267.292 579.88 267.55 579.973C265.702 579.262 263.868 578.504 262.038 577.728Z" fill="#048FC7"/>
<path d="M277.595 583.48C278.839 583.872 280.088 584.246 281.341 584.603C281.869 584.755 282.394 584.899 282.923 585.056C281.14 584.554 279.364 584.029 277.595 583.48Z" fill="#048FC7"/>
<path d="M172.675 487.274C172.99 488.04 173.281 488.817 173.608 489.579C173.823 490.087 174.053 490.583 174.276 491.089C173.716 489.818 173.198 488.541 172.675 487.274Z" fill="#048FC7"/>
<path d="M187.635 515.563C188.175 516.383 188.688 517.218 189.243 518.03L189.811 518.842C189.045 517.767 188.358 516.658 187.635 515.563Z" fill="#048FC7"/>
<path d="M343.544 590.414C344.567 590.32 345.59 590.243 346.616 590.13C347.403 590.042 348.19 589.919 348.978 589.817C347.183 590.044 345.372 590.243 343.544 590.414Z" fill="#048FC7"/>
<path d="M192.279 522.252C192.875 523.07 193.444 523.9 194.055 524.709C194.219 524.928 194.394 525.14 194.558 525.359C193.776 524.337 193.035 523.29 192.279 522.252Z" fill="#048FC7"/>
<path d="M179.431 501.691C179.857 502.497 180.251 503.313 180.689 504.112C180.901 504.493 181.125 504.872 181.337 505.253C180.684 504.095 180.061 502.899 179.431 501.691Z" fill="#048FC7"/>
<path d="M167.349 472.364C167.567 473.077 167.76 473.797 167.984 474.504C168.188 475.133 168.403 475.755 168.614 476.378C168.169 475.046 167.753 473.689 167.349 472.364Z" fill="#048FC7"/>
<path d="M270.043 580.899C271.361 581.383 272.678 581.864 274.003 582.311C274.337 582.427 274.676 582.529 275.012 582.641C273.35 582.087 271.693 581.506 270.043 580.899Z" fill="#048FC7"/>
<path d="M175.877 494.543C176.243 495.322 176.588 496.132 176.953 496.924L177.618 498.246C177.027 497.019 176.454 495.782 175.877 494.543Z" fill="#048FC7"/>
<path d="M214.944 547.444C215.594 548.037 216.22 548.654 216.885 549.239L217.01 549.345C216.3 548.725 215.635 548.074 214.944 547.444Z" fill="#048FC7"/>
<path d="M223.482 554.766C225.592 556.437 227.731 558.038 229.892 559.594L230.001 559.67C227.797 558.073 225.622 556.451 223.482 554.766Z" fill="#048FC7"/>
<path d="M239.183 565.8C240.538 566.646 241.9 567.47 243.269 568.269L243.741 568.542C242.214 567.653 240.695 566.739 239.183 565.8Z" fill="#048FC7"/>
<path d="M232.119 561.131C233.563 562.138 235.013 563.131 236.479 564.084L236.727 564.241C235.185 563.234 233.649 562.197 232.119 561.131Z" fill="#048FC7"/>
<path d="M202.709 535.126C203.398 535.897 204.055 536.681 204.759 537.444L205.098 537.791C204.262 536.928 203.502 536.009 202.709 535.126Z" fill="#048FC7"/>
<path d="M208.529 541.307C209.239 542.025 209.919 542.763 210.643 543.468L210.884 543.697C210.078 542.914 209.316 542.1 208.529 541.307Z" fill="#048FC7"/>
<path d="M197.303 528.776C197.955 529.575 198.565 530.394 199.227 531.181L199.656 531.684C198.848 530.73 198.085 529.746 197.303 528.776Z" fill="#048FC7"/>
<path d="M165.23 464.773C165.411 465.448 165.55 466.13 165.731 466.805C165.912 467.48 166.1 468.184 166.308 468.843C165.932 467.505 165.567 466.143 165.23 464.773Z" fill="#048FC7"/>
<path d="M183.363 508.715C183.844 509.529 184.294 510.36 184.791 511.165C184.992 511.492 185.201 511.813 185.407 512.14C184.701 511.009 184.038 509.863 183.363 508.715Z" fill="#048FC7"/>
<path d="M325.771 591.171C326.804 591.184 327.837 591.161 328.871 591.156C329.904 591.151 330.968 591.147 332.013 591.121C332.536 591.108 333.05 591.097 333.572 591.08C330.981 591.161 328.38 591.191 325.771 591.171Z" fill="#048FC7"/>
<path d="M169.837 479.858C170.102 480.603 170.343 481.354 170.615 482.092C170.828 482.657 171.057 483.214 171.274 483.779C170.772 482.479 170.302 481.167 169.837 479.858Z" fill="#048FC7"/>
<path d="M433.411 365.907C411.671 324.352 390.895 294.1 373.504 272.508C369.438 267.459 365.547 262.872 361.879 258.739L361.835 258.689C360.908 258.499 359.991 258.35 359.068 258.177C358.144 258.003 357.192 257.803 356.253 257.655C353.98 257.265 351.696 256.922 349.402 256.628C348.662 256.533 347.918 256.473 347.176 256.387C345.502 256.196 343.828 256.017 342.15 255.875C341.15 255.792 340.151 255.727 339.155 255.66C337.686 255.566 336.22 255.488 334.757 255.427C333.76 255.387 332.763 255.348 331.77 255.324C330.077 255.287 328.388 255.284 326.695 255.299C325.965 255.306 325.232 255.287 324.504 255.303C322.215 255.351 319.928 255.455 317.643 255.598C316.685 255.657 315.726 255.743 314.768 255.816C313.81 255.888 312.951 255.939 312.044 256.024C312.06 256.038 312.078 256.049 312.097 256.058C318.732 260.354 325.809 265.285 333.331 270.852C361.216 291.588 394.936 321.831 433.411 365.907Z" fill="#23BBF7"/>
<path d="M207.196 306.46C205.546 308.173 203.923 309.919 202.329 311.71C201.926 312.168 201.531 312.642 201.129 313.105C200.401 313.94 199.667 314.768 198.953 315.622L198.987 315.665C230.985 354.91 288.352 413.895 354.736 429.791C285.535 387.625 248.066 347.058 227.997 319.379C221.574 314.354 215.225 309.455 208.951 304.683L208.871 304.761C208.313 305.327 207.749 305.89 207.196 306.46Z" fill="#2287E6"/>
<path d="M241.262 279.313L242.925 280.695C247.914 283.094 253.063 285.634 258.37 288.315C253.929 284.537 249.514 280.802 245.126 277.111C243.962 277.774 242.787 278.413 241.634 279.099C241.514 279.175 241.387 279.24 241.262 279.313Z" fill="#23BBF7"/>
<path d="M414.252 393.785C429.552 407.617 444.034 422.328 457.624 437.843C448.262 420.004 436.215 402.859 422.676 386.692C387.028 344.23 340.818 308.464 305.026 284.002C293.503 276.129 283.059 269.418 274.403 264.043L274.36 264.015C273.814 264.201 273.277 264.424 272.732 264.614C270.851 265.267 268.977 265.949 267.119 266.67C266.203 267.027 265.287 267.39 264.373 267.761C262.53 268.509 260.704 269.301 258.865 270.114C257.973 270.515 257.083 270.907 256.199 271.324C254.319 272.209 252.461 273.145 250.614 274.105C249.985 274.427 249.341 274.722 248.715 275.052C257.086 282.109 265.372 289.168 273.574 296.226C278.692 298.965 283.913 301.826 289.237 304.81C328.804 327.063 373.146 356.498 414.252 393.785Z" fill="#23BBF7"/>
<path d="M352.677 376.677L354.475 378.317L359.622 383.01L361.691 384.893L367.439 390.161L368.491 391.125L375.324 397.418L376.821 398.814L382.182 403.77L384.072 405.521L389.85 410.887L390.837 411.806C393.116 413.931 395.392 416.054 397.664 418.175L398.944 419.367L404.51 424.579L406.175 426.145C408.129 427.986 410.083 429.823 412.035 431.655L412.867 432.437C415.154 434.589 417.433 436.742 419.705 438.895L420.616 439.756C422.539 441.579 424.451 443.39 426.351 445.19L427.932 446.691L433.522 452.01L434.541 452.983C436.813 455.145 439.074 457.304 441.323 459.46L441.376 459.508L447.819 465.673C448.2 466.044 448.583 466.411 448.966 466.777L451.32 469.018L451.221 468.926C458.123 475.573 464.905 482.14 471.568 488.626C463.408 478.362 454.651 467.854 445.388 457.433C422.09 435.31 398.015 412.807 373.723 390.525C366.575 385.285 359.319 380.425 351.978 376.031L352.677 376.677Z" fill="#23BBF7"/>
<path d="M405.253 301.563C398.107 301.43 422.189 334.922 437.774 355.666C444.757 364.957 450.029 371.673 450.029 371.673C450.029 371.673 463.727 368.195 454.967 350.033C447.458 334.46 469.71 328.151 493.025 392.534L493.107 392.757C492.973 392.013 492.797 391.275 492.651 390.534C492.404 389.285 492.143 388 491.866 386.737C491.589 385.474 491.277 384.229 490.972 382.974C490.666 381.719 490.366 380.484 490.03 379.245C489.693 378.007 489.302 376.709 488.927 375.442C488.57 374.222 488.233 373.032 487.852 371.837C487.421 370.492 486.941 369.156 486.477 367.821C486.095 366.722 485.739 365.62 485.333 364.532C484.457 362.177 483.529 359.841 482.552 357.522C482.174 356.636 481.757 355.766 481.363 354.885C480.7 353.393 480.045 351.898 479.338 350.421C478.849 349.399 478.317 348.393 477.806 347.386C477.14 346.064 476.48 344.746 475.78 343.443C475.224 342.413 474.631 341.397 474.054 340.372C473.34 339.112 472.625 337.853 471.875 336.607C471.264 335.587 470.627 334.583 469.993 333.577C469.227 332.353 468.461 331.13 467.634 329.926C466.973 328.933 466.29 327.954 465.604 326.963C464.766 325.767 463.911 324.578 463.039 323.397C462.344 322.439 461.617 321.494 460.891 320.549C459.978 319.369 459.043 318.203 458.097 317.045C457.354 316.135 456.617 315.249 455.845 314.334C454.846 313.159 453.819 312.009 452.783 310.858C452.017 310.011 451.258 309.158 450.473 308.324C449.357 307.137 448.21 305.98 447.053 304.821C446.296 304.056 445.549 303.282 444.769 302.531C443.467 301.271 442.112 300.043 440.757 298.814C440.08 298.202 439.429 297.574 438.742 296.973C436.674 295.16 434.563 293.385 432.387 291.662C430.381 290.068 428.339 288.55 426.284 287.063C425.744 286.673 425.201 286.284 424.656 285.898C422.656 284.488 420.642 283.107 418.598 281.796C418.318 281.617 418.032 281.448 417.751 281.269C415.929 280.113 414.077 279.009 412.238 277.923C411.528 277.513 410.817 277.103 410.105 276.702C408.236 275.651 406.357 274.637 404.468 273.662C403.775 273.303 403.08 272.968 402.382 272.62C400.785 271.829 399.18 271.065 397.568 270.328C396.738 269.948 395.908 269.575 395.076 269.207C394.729 269.059 394.386 268.892 394.039 268.744L394.052 268.789C397.332 274.486 400.941 281.069 403.584 286.841C407.334 295.06 409.144 301.634 405.253 301.563Z" fill="#23BBF7"/>
<path d="M466.959 376.898L488.971 452.503C488.971 452.503 489.46 402.904 466.959 376.898Z" fill="#2287E6"/>
<path d="M325.055 400.73C312.647 389.613 300.183 378.737 287.661 368.1C297.214 381.921 310.068 393.137 325.055 400.73Z" fill="#2287E6"/>
<path d="M286.66 457.443C192.964 427.119 181.871 340.693 181.871 340.693C181.871 340.693 188.952 441.434 286.66 457.443Z" fill="#1775CD" stroke="#1774CB"/>
<path d="M185.832 442.217C185.417 442.496 185.417 442.496 185.418 442.497L185.421 442.501L185.432 442.517L185.474 442.579C185.511 442.634 185.566 442.715 185.64 442.82C185.787 443.032 186.006 443.344 186.297 443.748C186.88 444.556 187.75 445.732 188.902 447.209C191.207 450.164 194.644 454.325 199.174 459.154C208.233 468.81 221.671 481.146 239.188 491.861C274.235 513.298 325.6 528.234 390.819 502.264L390.517 501.313C323.368 517.453 272.294 502.587 238.009 483.7C220.863 474.254 207.912 463.8 199.249 455.71C194.918 451.665 191.66 448.212 189.486 445.771C188.399 444.551 187.583 443.585 187.04 442.924C186.768 442.594 186.565 442.34 186.43 442.169C186.362 442.084 186.312 442.019 186.278 441.977L186.241 441.929L186.232 441.917L186.23 441.914C186.23 441.914 186.23 441.914 185.832 442.217ZM185.832 442.217L185.417 442.496L186.23 441.914L185.832 442.217Z" fill="#1775CD" stroke="#1775CD"/>
<path d="M326.232 471.17C326.232 471.17 462.824 483.204 412.225 541.074C429.208 525.918 433.89 514.036 431.062 504.71C426.629 499.707 422.087 494.69 417.436 489.658C388.981 472.718 328.12 471.05 326.232 471.17Z" fill="#1775CD" stroke="#1775CD"/>
<path d="M298.226 558.248C281.488 574.465 260.654 549.283 248.126 520.021C235.599 490.76 224.867 504.376 199.663 496.035C175.508 488.04 162.817 450.706 161.801 447.603L161.791 447.566L161.739 447.37C161.799 447.792 161.881 448.178 161.942 448.586C161.981 448.848 162.035 449.114 162.076 449.379C162.299 450.784 162.53 452.186 162.763 453.579C162.934 454.513 163.113 455.442 163.3 456.369L163.456 457.098C163.74 458.487 164.032 459.873 164.351 461.243C164.572 462.196 164.803 463.143 165.04 464.092C165.099 464.313 165.159 464.534 165.218 464.755C165.562 466.122 165.915 467.488 166.314 468.845C166.575 469.819 166.871 470.778 167.165 471.743L167.352 472.342C167.759 473.684 168.171 475.025 168.616 476.357C168.942 477.343 169.292 478.324 169.638 479.305L169.835 479.844C170.3 481.153 170.77 482.465 171.272 483.765C171.659 484.77 172.072 485.769 172.476 486.77L172.678 487.246C173.204 488.521 173.721 489.798 174.279 491.061C174.729 492.085 175.21 493.096 175.679 494.11L175.878 494.525C176.456 495.765 177.028 497.001 177.636 498.224C178.156 499.264 178.707 500.291 179.247 501.322L179.44 501.682C180.066 502.873 180.689 504.07 181.347 505.248C181.937 506.305 182.561 507.343 183.179 508.388L183.361 508.694C184.034 509.829 184.7 510.988 185.406 512.118C186.069 513.185 186.775 514.233 187.465 515.288L187.635 515.545C188.366 516.638 189.066 517.744 189.828 518.82C190.59 519.896 191.365 520.956 192.141 522.019L192.298 522.231C193.054 523.269 193.795 524.316 194.577 525.338C195.418 526.429 196.307 527.506 197.18 528.587L197.321 528.755C198.103 529.725 198.866 530.709 199.674 531.663C200.627 532.78 201.625 533.871 202.608 534.971L202.726 535.102C203.522 535.993 204.296 536.9 205.118 537.776C206.2 538.937 207.338 540.057 208.457 541.19L208.547 541.28C209.334 542.074 210.095 542.887 210.902 543.67C212.199 544.927 213.554 546.142 214.899 547.365L214.963 547.422C215.653 548.053 216.319 548.703 217.029 549.324C219.127 551.167 221.282 552.969 223.493 554.729C225.636 556.43 227.812 558.053 230.011 559.634C230.169 559.749 230.326 559.878 230.488 559.992C231.03 560.378 231.589 560.728 232.133 561.108C233.658 562.161 235.194 563.198 236.741 564.218C237.054 564.419 237.355 564.641 237.668 564.846C238.187 565.146 238.706 565.445 239.208 565.784C240.721 566.726 242.238 567.635 243.762 568.51C244.182 568.752 244.592 569.024 245.015 569.261C245.438 569.499 245.787 569.686 246.172 569.898C247.952 570.894 249.761 571.839 251.549 572.767C251.874 572.934 252.192 573.121 252.52 573.283L253.18 573.619C255.539 574.787 257.913 575.905 260.3 576.972C260.882 577.229 261.474 577.46 262.059 577.711C263.889 578.488 265.723 579.246 267.571 579.956C267.698 580.006 267.818 580.061 267.945 580.11C268.644 580.362 269.355 580.61 270.068 580.883C271.718 581.49 273.374 582.069 275.036 582.621C275.301 582.708 275.56 582.809 275.825 582.896C276.42 583.088 277.016 583.27 277.61 583.457C279.377 584.009 281.153 584.532 282.936 585.024C283.229 585.104 283.513 585.198 283.806 585.278L285.083 585.624C290.093 586.944 295.139 588.025 300.222 588.867C300.947 588.984 301.675 589.083 302.402 589.195C304.231 589.477 306.054 589.738 307.909 589.951C307.99 589.96 308.073 589.973 308.155 589.986C308.906 590.074 309.659 590.148 310.412 590.227C312.217 590.419 314.028 590.577 315.844 590.701C316.013 590.712 316.185 590.732 316.355 590.744C316.954 590.785 317.552 590.826 318.141 590.866C320.334 590.988 322.528 591.07 324.722 591.11C325.078 591.116 325.435 591.138 325.792 591.144C328.395 591.174 330.996 591.143 333.593 591.053C334.084 591.035 334.574 591 335.068 590.977C337.131 590.889 339.191 590.766 341.247 590.606C342.023 590.543 342.797 590.467 343.57 590.392C345.383 590.221 347.196 590.028 349.009 589.811C349.046 589.801 349.086 589.79 349.123 589.78C349.547 589.724 349.948 589.7 350.358 589.643L350.351 589.618C350.955 539.266 314.954 542.042 298.226 558.248Z" fill="#0AA8E8"/>
<path d="M293.581 545.25C293.581 545.25 280.839 551.185 274.069 542.512C267.3 533.838 252.012 517.294 284.441 526.536C284.441 526.536 248.863 507.672 263.994 534.54C279.124 561.408 298.456 550.029 293.581 545.25Z" fill="#1775CD" stroke="#1775CD"/>
<path d="M306.406 542.993C295.624 522.208 277.63 538.682 277.63 538.682C277.63 538.682 296.072 528.432 306.406 542.993Z" fill="#1775CD" stroke="#1775CD"/>
<path d="M44.0995 179.113L43.9142 178.585L44.0995 179.113Z" fill="#E6F8FF"/>
<path d="M43.4695 177.356L43.2661 176.728L43.4695 177.356Z" fill="#E6F8FF"/>
<path d="M44.4164 161.379C44.4769 161.328 44.5322 161.274 44.5937 161.227C44.5322 161.274 44.4769 161.328 44.4164 161.379Z" fill="#E6F8FF"/>
<path d="M42.0891 165.116L42.1816 164.777L42.0891 165.116Z" fill="#E6F8FF"/>
<path d="M41.8673 170.502C41.848 170.332 41.8246 170.163 41.8105 169.996C41.8246 170.163 41.848 170.332 41.8673 170.502Z" fill="#E6F8FF"/>
<path d="M41.7374 167.431C41.7417 167.316 41.7551 167.203 41.7675 167.086C41.7551 167.203 41.7417 167.316 41.7374 167.431Z" fill="#E6F8FF"/>
<path d="M41.7299 168.99L41.7128 168.648L41.7299 168.99Z" fill="#E6F8FF"/>
<path d="M42.0814 171.968C42.0366 171.801 42.0254 171.629 41.998 171.461C42.0265 171.633 42.0499 171.802 42.0814 171.968Z" fill="#E6F8FF"/>
<path d="M43.6275 162.139C43.7008 162.054 43.774 161.969 43.8535 161.891C43.774 161.969 43.7008 162.054 43.6275 162.139Z" fill="#E6F8FF"/>
<path d="M41.8597 166.25C41.8759 166.114 41.9024 165.984 41.9238 165.852C41.9024 165.984 41.8759 166.114 41.8597 166.25Z" fill="#E6F8FF"/>
<path d="M43.0208 162.948C43.0798 162.858 43.1439 162.771 43.207 162.68C43.1428 162.767 43.0869 162.852 43.0208 162.948Z" fill="#E6F8FF"/>
<path d="M50.6285 159.399C50.7762 159.394 50.929 159.392 51.0655 159.395C50.929 159.392 50.7762 159.394 50.6285 159.399Z" fill="#E6F8FF"/>
<path d="M42.5414 163.816C42.5608 163.786 42.5777 163.755 42.5918 163.723C42.5777 163.755 42.5608 163.786 42.5414 163.816Z" fill="#E6F8FF"/>
<path d="M46.7586 185.48L46.4518 184.809L46.7586 185.48Z" fill="#E6F8FF"/>
<path d="M601.465 626.426L601.329 626.278C491.608 513.292 276.991 311.972 173.058 250.838C58.5651 183.512 92.3383 245.285 142.976 311.356C145.507 315.68 148.787 320.786 152.974 326.841C166.485 342.266 175.65 352.27 175.65 352.27C175.873 351.793 176.114 351.321 176.343 350.848L177.248 348.992L177.368 348.749C177.654 348.182 177.91 347.617 178.198 347.054L178.276 346.888C171.448 338.994 161.381 327.162 151.066 314.37C149.243 312.105 147.417 309.818 145.588 307.508C143.759 305.198 141.966 302.902 140.209 300.619C138.415 298.286 136.646 295.962 134.904 293.649C133.124 291.277 131.389 288.923 129.716 286.609C107.308 255.601 96.1875 231.491 140.267 257.871C143.109 259.573 146.065 261.394 149.073 263.276C151.417 264.738 153.804 266.253 156.236 267.823C158.573 269.325 160.946 270.871 163.354 272.462C165.669 273.992 168.021 275.562 170.407 277.17C172.727 278.738 175.074 280.337 177.449 281.969C181.836 284.988 186.321 288.132 190.906 291.402L194.299 289.975L195.329 284L197.676 289.588L203.652 290.617L198.067 292.96L197.522 296.144C198.679 296.978 199.812 297.788 200.978 298.638C203.613 300.619 206.29 302.655 208.96 304.684C215.229 309.452 221.578 314.351 228.006 319.38C247.468 334.618 267.527 350.967 287.666 368.092C300.155 378.705 312.62 389.582 325.06 400.722C346.768 420.18 368.189 440.242 388.578 460.488C388.826 460.579 389.068 460.681 389.321 460.775L390.041 461.056C399.478 470.587 408.609 480.123 417.436 489.666C422.084 494.699 426.626 499.716 431.062 504.718L431.939 505.702C450.618 520.338 469.213 535.347 486.767 551.315C517.281 579.079 544.198 610.554 566.889 645.007C567.919 647.361 568.931 649.747 569.901 652.14C570.93 654.687 571.948 657.243 572.932 659.82C620.767 685.014 649.075 687.644 601.465 626.426ZM545.826 590.434L536.608 588.857L545.23 585.231L546.807 576.014L550.432 584.635L559.648 586.208L551.027 589.834L549.454 599.05L545.826 590.434Z" fill="#E6F8FF"/>
<path d="M60.4916 160.721C60.7017 160.77 60.9077 160.82 61.12 160.877C60.92 160.816 60.715 160.77 60.4916 160.721Z" fill="#E6F8FF"/>
<path d="M56.28 159.833C56.422 159.857 56.5702 159.887 56.7133 159.914C56.5648 159.867 56.4165 159.836 56.28 159.833Z" fill="#E6F8FF"/>
<path d="M58.2733 160.202C58.4905 160.245 58.7099 160.296 58.9334 160.345C58.7099 160.296 58.4905 160.245 58.2733 160.202Z" fill="#E6F8FF"/>
<path d="M44.9853 181.378L44.7842 180.889L44.9853 181.378Z" fill="#E6F8FF"/>
<path d="M54.0637 159.517C54.1861 159.533 54.3011 159.537 54.4234 159.552C54.3011 159.537 54.1817 159.516 54.0637 159.517Z" fill="#E6F8FF"/>
<path d="M52.1979 159.397C52.3693 159.399 52.5377 159.406 52.7113 159.417C52.5377 159.406 52.3693 159.399 52.1979 159.397Z" fill="#E6F8FF"/>
<path d="M45.8597 183.485L45.5597 182.79L45.8597 183.485Z" fill="#E6F8FF"/>
<path d="M115.379 301.354L115.294 301.253L115.379 301.354Z" fill="#E6F8FF"/>
<path d="M179.991 230.533L181.898 231.973L179.991 230.533Z" fill="#E6F8FF"/>
<path d="M167.567 221.283L168.74 222.139L167.567 221.283Z" fill="#E6F8FF"/>
<path d="M107.549 292.162L107.243 291.806L107.549 292.162Z" fill="#E6F8FF"/>
<path d="M174.224 226.2L175.867 227.421L174.224 226.2Z" fill="#E6F8FF"/>
<path d="M63.0013 193.354C66.6843 188.79 81.9323 186.449 142.705 222.066C240.474 279.37 424.617 445.255 559.122 577.073C555.25 572.849 551.216 568.48 546.95 563.928C540.082 556.84 532.804 549.425 525.119 541.684C523.113 539.652 521.079 537.603 519.017 535.537C516.995 533.51 514.951 531.462 512.886 529.393C510.851 527.361 508.794 525.31 506.718 523.242C504.641 521.174 502.573 519.121 500.516 517.082C493.626 510.248 486.531 503.264 479.233 496.129C476.701 493.651 474.148 491.159 471.574 488.655C464.919 482.175 458.136 475.608 451.227 468.954C429.063 448.413 407.049 428.352 385.831 409.376C312.609 343.907 211.361 257.665 144.722 218.614C119.976 204.113 100.358 194.463 86.4162 189.93C72.6675 185.464 63.9923 185.763 59.8918 190.847C57.9208 193.308 57.1738 196.836 57.6962 201.387C57.9323 203.299 58.313 205.19 58.8351 207.045C63.4764 214.385 68.8493 222.231 74.6962 230.341C73.2398 228.32 71.8132 226.317 70.4163 224.332C59.963 204.546 60.4489 196.542 63.0013 193.354Z" fill="#E6F8FF"/>
<path d="M124.481 191.98C124.033 191.701 123.581 191.423 123.132 191.153C123.586 191.439 124.037 191.717 124.481 191.98Z" fill="#E6F8FF"/>
<path d="M103.653 287.535C103.547 287.401 103.44 287.277 103.331 287.148C103.44 287.277 103.547 287.401 103.653 287.535Z" fill="#E6F8FF"/>
<path d="M79.2146 236.55L80.1619 237.827C79.8473 237.389 79.5226 236.963 79.2146 236.55Z" fill="#E6F8FF"/>
<path d="M85.9989 245.597L88.5944 249.001L85.9997 245.584L85.9989 245.597Z" fill="#E6F8FF"/>
<path d="M512.388 623.169C515.212 625.06 518.043 626.932 520.881 628.785C518.05 626.936 515.219 625.064 512.388 623.169Z" fill="#E6F8FF"/>
<path d="M503.109 616.884C506.051 618.899 509.006 620.898 511.972 622.883C509.006 620.898 506.051 618.899 503.109 616.884Z" fill="#E6F8FF"/>
<path d="M91.5013 272.955L91.1504 272.528L91.5013 272.955Z" fill="#E6F8FF"/>
<path d="M87.3426 267.913L86.6845 267.094L87.3426 267.913Z" fill="#E6F8FF"/>
<path d="M95.6468 277.959L94.9931 277.157L95.6468 277.959Z" fill="#E6F8FF"/>
<path d="M521.582 629.217C524.323 631.005 527.059 632.767 529.789 634.502C527.064 632.777 524.329 631.015 521.582 629.217Z" fill="#E6F8FF"/>
<path d="M83.6065 263.35L82.6465 262.173L83.6065 263.35Z" fill="#E6F8FF"/>
<path d="M91.5161 266.697L90.9285 265.978L91.5161 266.697Z" fill="#E6F8FF"/>
<path d="M54.5209 200.014L54.1116 199.322L54.5209 200.014Z" fill="#E6F8FF"/>
<path d="M49.093 190.254L48.7451 189.577L49.093 190.254Z" fill="#E6F8FF"/>
<path d="M47.7114 187.503L47.5976 187.258L47.7114 187.503Z" fill="#E6F8FF"/>
<path d="M133.617 197.743L134.078 198.057L133.617 197.743Z" fill="#E6F8FF"/>
<path d="M55.9757 202.444L55.5968 201.814L55.9757 202.444Z" fill="#E6F8FF"/>
<path d="M144.028 204.653L145.641 205.761L144.028 204.653Z" fill="#E6F8FF"/>
<path d="M52.9825 197.381L52.7586 197.003L52.9825 197.381Z" fill="#E6F8FF"/>
<path d="M138.925 201.219L140.409 202.207L138.925 201.219Z" fill="#E6F8FF"/>
<path d="M79.1729 236.482C77.6641 234.44 76.1823 232.411 74.7273 230.395C76.1761 232.409 77.658 234.438 79.1729 236.482Z" fill="#E6F8FF"/>
<path d="M78.3827 167.211L79.3744 167.639L78.3827 167.211Z" fill="#E6F8FF"/>
<path d="M75.2325 165.853C75.4443 165.941 75.6635 166.04 75.8731 166.119L75.2325 165.853Z" fill="#E6F8FF"/>
<path d="M71.6905 164.414L72.2471 164.628L71.6905 164.414Z" fill="#E6F8FF"/>
<path d="M89.9247 172.682C90.2884 172.861 90.6554 173.052 91.0202 173.235L89.9247 172.682Z" fill="#E6F8FF"/>
<path d="M161.459 216.832L163.239 218.109L161.459 216.832Z" fill="#E6F8FF"/>
<path d="M149.975 208.727L150.804 209.299L149.975 208.727Z" fill="#E6F8FF"/>
<path d="M68.6021 163.25L69.431 163.549L68.6021 163.25Z" fill="#E6F8FF"/>
<path d="M65.9301 162.32L66.6524 162.565L65.9301 162.32Z" fill="#E6F8FF"/>
<path d="M50.27 192.498L49.8665 191.729L50.27 192.498Z" fill="#E6F8FF"/>
<path d="M93.8266 174.672L95.0459 175.31L93.8266 174.672Z" fill="#E6F8FF"/>
<path d="M98.2651 177.006L99.1119 177.453L98.2651 177.006Z" fill="#E6F8FF"/>
<path d="M51.4835 194.72L51.1553 194.116L51.4835 194.72Z" fill="#E6F8FF"/>
<path d="M103.331 179.75L104.317 180.284L103.331 179.75Z" fill="#E6F8FF"/>
<path d="M155.975 212.934L157.599 214.083L155.975 212.934Z" fill="#E6F8FF"/>
<path d="M81.8162 168.767L82.7669 169.205L81.8162 168.767Z" fill="#E6F8FF"/>
<path d="M127.883 194.088L129.322 194.992L127.883 194.088Z" fill="#E6F8FF"/>
<path d="M113.789 185.632L112.499 184.89L113.785 185.633L113.789 185.632Z" fill="#E6F8FF"/>
<path d="M107.739 182.204C108.223 182.473 108.71 182.751 109.195 183.024C108.71 182.751 108.223 182.473 107.739 182.204Z" fill="#E6F8FF"/>
<path d="M186.286 235.315L187.744 236.402L186.286 235.315Z" fill="#E6F8FF"/>
<path d="M193.468 240.847L195.203 242.201L193.468 240.847Z" fill="#E6F8FF"/>
<path d="M199.47 245.538L201.589 247.162L199.47 245.538Z" fill="#E6F8FF"/>
<path d="M474.332 558.207L472.851 556.184C473.106 556.528 473.36 556.872 473.606 557.218C473.852 557.564 474.102 557.874 474.332 558.207Z" fill="#E6F8FF"/>
<path d="M205.976 250.653C206.533 251.096 207.088 251.53 207.642 251.96C207.092 251.529 206.537 251.095 205.976 250.653Z" fill="#E6F8FF"/>
<path d="M147.591 321.107L147.525 321.027L147.591 321.107Z" fill="#E6F8FF"/>
<path d="M193.297 293.119C193.909 293.555 194.53 294.007 195.143 294.448L194.683 293.352L193.297 293.119Z" fill="#E6F8FF"/>
<path d="M150.391 323.88L151.706 325.383L150.391 323.88Z" fill="#E6F8FF"/>
<path d="M175.111 353.474C168.31 345.634 161.853 338.088 155.739 330.838L155.985 331.132C159.567 336.174 163.724 341.803 168.539 348.107C170.364 350.499 172.258 352.951 174.223 355.462C174.032 355.894 173.859 356.331 173.694 356.761L173.949 356.175C174.262 355.46 174.561 354.744 174.884 354.035L175.111 353.474Z" fill="#E6F8FF"/>
<path d="M170.797 363.81L170.895 363.569C171.265 362.593 171.663 361.61 172.053 360.628L172.42 359.754C172.338 359.956 172.244 360.161 172.147 360.371C169.072 356.74 165.942 353.05 162.757 349.3C157.727 343.716 151.036 336.219 143.24 327.378C141.348 325.228 139.396 323.003 137.382 320.701L131.603 314.073C129.726 311.911 127.817 309.695 125.876 307.427C124.001 305.261 122.095 303.055 120.157 300.809C113.774 293.347 107.099 285.486 100.347 277.387C109.834 290.278 120.828 304.468 133.329 319.959C142.116 330.841 151.042 341.606 159.695 351.861C165.894 358.749 169.609 362.796 169.731 362.925L170.797 363.81Z" fill="#E6F8FF"/>
<path d="M456.82 535.216L458.004 536.705C457.615 536.217 457.225 535.726 456.82 535.216Z" fill="#E6F8FF"/>
<path d="M226.425 267.098L228.406 268.715L226.425 267.098Z" fill="#E6F8FF"/>
<path d="M219.873 261.783L222.057 263.552L219.873 261.783Z" fill="#E6F8FF"/>
<path d="M234.555 273.773L236.097 275.043L234.555 273.773Z" fill="#E6F8FF"/>
<path d="M169.343 356.562L169.131 356.326L169.343 356.562Z" fill="#E6F8FF"/>
<path d="M213.648 256.764L215.252 258.053L213.648 256.764Z" fill="#E6F8FF"/>
<path d="M467.59 549.065C468.144 549.794 468.711 550.549 469.259 551.288C468.711 550.549 468.139 549.808 467.59 549.065Z" fill="#E6F8FF"/>
<path d="M462.285 542.142L463.845 544.153L462.285 542.142Z" fill="#E6F8FF"/>
<path d="M247.721 284.711L249.756 286.415L247.721 284.711Z" fill="#E6F8FF"/>
<path d="M262.689 297.329L264.88 299.193L262.689 297.329Z" fill="#E6F8FF"/>
<path d="M278.163 310.571L279.02 311.311L278.163 310.571Z" fill="#E6F8FF"/>
<path d="M451.2 528.28L451.376 528.495L451.2 528.28Z" fill="#E6F8FF"/>
<path d="M269.58 303.206L271.622 304.952L269.58 303.206Z" fill="#E6F8FF"/>
<path d="M256.093 291.744L257.478 292.917L256.093 291.744Z" fill="#E6F8FF"/>
<path d="M287.025 318.244L285.635 317.034L284.856 316.366L287.025 318.244Z" fill="#E6F8FF"/>
<path d="M336.975 362.468L339.049 364.336L336.975 362.468Z" fill="#E6F8FF"/>
<path d="M329.958 356.159L331.95 357.949L329.958 356.159Z" fill="#E6F8FF"/>
<path d="M322.568 349.537L323.21 350.105L322.568 349.537Z" fill="#E6F8FF"/>
<path d="M344.837 369.561L345.902 370.526L344.837 369.561Z" fill="#E6F8FF"/>
<path d="M300.279 329.809L301.055 330.479L300.279 329.809Z" fill="#E6F8FF"/>
<path d="M291.74 322.351L293.919 324.249L291.74 322.351Z" fill="#E6F8FF"/>
<path d="M307.301 335.992L309.472 337.91L307.301 335.992Z" fill="#E6F8FF"/>
<path d="M314.238 342.128L316.445 344.084L314.238 342.128Z" fill="#E6F8FF"/>
<path d="M243.221 280.948L242.922 280.7L241.258 279.317L240.959 279.068L243.221 280.948Z" fill="#E6F8FF"/>
<path d="M384.086 405.532L382.196 403.781L384.086 405.532Z" fill="#E6F8FF"/>
<path d="M406.191 426.155L404.526 424.589L406.191 426.155Z" fill="#E6F8FF"/>
<path d="M433.536 452.014L434.555 452.986L433.536 452.014Z" fill="#E6F8FF"/>
<path d="M412.048 431.664L412.88 432.445L412.048 431.664Z" fill="#E6F8FF"/>
<path d="M397.678 418.182L398.958 419.374L397.678 418.182Z" fill="#E6F8FF"/>
<path d="M389.865 410.896L390.853 411.816L389.865 410.896Z" fill="#E6F8FF"/>
<path d="M419.723 438.9L420.634 439.762L419.723 438.9Z" fill="#E6F8FF"/>
<path d="M426.362 445.201L427.944 446.702L426.362 445.201Z" fill="#E6F8FF"/>
<path d="M441.337 459.475L441.391 459.524L441.337 459.475Z" fill="#E6F8FF"/>
<path d="M447.843 465.717C448.223 466.088 448.606 466.455 448.99 466.822C448.602 466.439 448.214 466.056 447.843 465.717Z" fill="#E6F8FF"/>
<path d="M375.304 397.418L376.82 398.822L375.304 397.418Z" fill="#E6F8FF"/>
<path d="M367.419 390.155L368.471 391.119L367.419 390.155Z" fill="#E6F8FF"/>
<path d="M359.62 383.008L361.689 384.892L359.62 383.008Z" fill="#E6F8FF"/>
<path d="M352.675 376.684L354.474 378.324L352.675 376.684Z" fill="#E6F8FF"/>
<path d="M82.6547 262.168L83.6144 263.345L86.6749 267.093L87.3328 267.912L91.1353 272.531L91.4866 272.959L94.9667 277.16L95.6201 277.963C98.2063 281.07 100.767 284.132 103.303 287.15C103.412 287.278 103.52 287.403 103.626 287.537L107.229 291.802L107.535 292.158C110.146 295.238 112.722 298.265 115.264 301.241L115.348 301.341L117.958 304.39C119.899 306.65 121.81 308.87 123.689 311.053L129.476 317.727C131.46 320.01 133.407 322.237 135.292 324.394C137.323 326.708 139.289 328.943 141.188 331.1C148.544 339.445 154.888 346.544 159.712 351.898L159.699 351.853C151.046 341.598 142.12 330.833 133.334 319.951C120.855 304.498 109.864 290.311 100.364 277.389C97.4225 273.863 94.4729 270.3 91.5148 266.7L90.9274 265.98C87.9743 262.387 85.023 258.763 82.0736 255.108C63.8844 232.58 49.9399 214.097 39.2687 198.881C5.6227 150.901 4.80632 135.714 8.61428 131.011C12.0033 126.806 25.2295 124.511 74.7297 151.96C78.9935 154.325 83.5041 156.891 88.3252 159.716C98.6543 165.769 109.968 173.058 122.067 181.364L122.803 177.046C111.331 169.194 100.435 162.188 90.3403 156.273C85.9573 153.704 81.7372 151.289 77.6799 149.03C66.8595 142.997 57.225 138.068 48.7763 134.244C48.5661 134.147 48.356 134.05 48.1472 133.974C42.8934 131.565 37.5145 129.438 32.0335 127.603C18.2848 123.137 9.60963 123.436 5.53368 128.513C3.56273 130.975 2.8157 134.502 3.33399 139.055C4.37379 148.106 10.3482 161.354 21.3399 179.076C25.784 186.237 31.0758 194.14 37.1218 202.731C48.3828 218.693 62.3765 237.048 79.0116 257.621L82.6547 262.168Z" fill="#C0EBFC"/>
<path d="M130.294 182.233C128.811 181.197 127.346 180.178 125.878 179.168L126.927 181.658L130.294 182.233Z" fill="#C0EBFC"/>
<path d="M577.323 581.775C562.417 566.478 546.354 550.299 529.51 533.611L523.284 527.457C521.213 525.411 519.134 523.361 517.046 521.307L510.757 515.132L504.443 508.958C497.344 502.025 490.155 495.036 482.876 487.994C453.665 459.822 423.277 431.088 393.211 403.26C372.27 383.881 351.505 364.977 331.44 347.033C317.747 334.788 303.068 321.811 287.811 308.559C283.123 304.479 278.381 300.381 273.588 296.267C265.4 289.228 257.114 282.17 248.729 275.093C238.817 266.736 228.816 258.42 218.828 250.223C216.522 248.333 214.214 246.453 211.906 244.581C209.599 242.709 207.309 240.856 205.037 239.021C202.735 237.171 200.438 235.328 198.146 233.493C195.854 231.658 193.558 229.831 191.259 228.013C171.22 212.132 151.573 197.268 133.181 184.278L128.846 186.097C147.008 198.838 166.825 213.743 187.805 230.306C190.079 232.096 192.363 233.906 194.656 235.735C196.95 237.564 199.234 239.393 201.511 241.224C203.779 243.045 206.059 244.885 208.352 246.743C210.644 248.602 212.94 250.471 215.238 252.351C225.015 260.338 234.972 268.589 245.106 277.103L245.112 277.123C249.504 280.818 253.919 284.553 258.356 288.327C267.674 296.259 277.086 304.361 286.593 312.635C315.326 337.615 344.665 363.911 373.719 390.529C398.019 412.809 422.106 435.309 445.396 457.465C457.592 469.059 469.548 480.528 481.262 491.872C488.512 498.89 495.641 505.83 502.65 512.692C504.764 514.756 506.865 516.816 508.954 518.872L515.198 525.012L521.399 531.137L527.578 537.263C544.272 553.834 559.998 569.704 574.442 584.537C576.533 586.757 578.577 588.933 580.575 591.066L583.509 594.226L586.367 597.318C587.56 598.612 588.714 599.876 589.869 601.141L591.823 603.279C593.104 604.689 594.323 606.064 595.565 607.427L596.671 608.643C608.885 620.847 620.624 632.718 631.715 644.104L635.947 648.626L636.015 648.699L635.415 647.948C633.822 645.929 632.188 643.872 630.461 641.748L630.419 641.707C628.662 639.547 626.817 637.31 624.924 635.038L623.492 633.326C621.868 631.39 620.196 629.417 618.477 627.405L617.441 626.192C615.407 623.814 613.305 621.389 611.134 618.916L609.596 617.171C607.805 615.132 605.969 613.059 604.09 610.952L602.386 609.076C600.06 606.484 597.674 603.84 595.227 601.143L593.946 599.733C591.84 597.427 589.687 595.081 587.487 592.695L585.357 590.39C582.749 587.577 580.074 584.712 577.323 581.775Z" fill="#C0EBFC"/>
<path d="M173.667 356.761C173.853 356.325 174.026 355.889 174.196 355.462C172.253 352.946 170.364 350.488 168.529 348.089C163.714 341.786 159.558 336.157 155.975 331.115L155.73 330.821C152.947 327.515 150.231 324.274 147.582 321.096L147.517 321.017L147.171 320.593C145.235 318.275 143.384 316.013 141.538 313.772L139.629 311.456L141.575 313.714C143.543 316.001 145.462 318.223 147.303 320.365L150.368 323.884L151.682 325.386L152.95 326.844C148.763 320.789 145.485 315.691 142.952 311.359C92.3578 245.303 58.5779 183.505 173.054 250.836C276.992 311.986 491.604 513.289 601.325 626.276L601.461 626.424L600.586 625.317C599.604 624.058 598.591 622.782 597.563 621.479L596.337 619.966C595.32 618.704 594.302 617.443 593.226 616.126L591.82 614.429C590.747 613.125 589.666 611.824 588.54 610.485L586.992 608.651C585.851 607.304 584.707 605.949 583.513 604.55L581.765 602.528C580.574 601.142 579.379 599.757 578.131 598.324L576.294 596.23L576.175 596.095C574.918 594.678 573.686 593.255 572.395 591.808L570.188 589.33L566.304 584.996L563.771 582.202C562.49 580.792 561.205 579.382 559.874 577.915L559.177 577.146L559.099 577.071C424.608 445.253 240.465 279.369 142.688 222.066C81.9232 186.448 66.6916 188.784 62.9923 193.353C60.4275 196.544 59.9499 204.546 70.4165 224.333C71.8243 226.314 73.2509 228.317 74.6964 230.341L74.7333 230.397C76.1875 232.41 77.6693 234.439 79.1788 236.484L79.1942 236.541C79.5054 236.966 79.83 237.392 80.1453 237.816L81.0358 237.442L82.5547 228.564L86.0421 236.868L94.9235 238.385L86.6175 241.878L85.9825 245.595L88.5772 249.012C93.6528 257.679 101.716 269.495 114.137 285.76C116.836 289.289 119.728 292.995 122.712 296.786C124.485 299.041 126.311 301.34 128.19 303.683C129.995 305.935 131.828 308.211 133.721 310.531C135.547 312.782 137.407 315.059 139.319 317.383C141.153 319.614 143.055 321.902 144.968 324.199C153.221 334.123 162.163 344.643 171.794 355.759C171.421 356.508 171.047 357.275 170.652 358.042L169.304 356.562L169.092 356.325C167.458 354.532 165.316 352.164 162.715 349.266L162.722 349.29C165.891 353.047 169.019 356.731 172.105 360.341C172.186 360.135 172.28 359.93 172.379 359.724L172.713 358.928C173.032 358.22 173.353 357.485 173.667 356.761Z" fill="#C0EBFC"/>
<path d="M59.8972 190.862C63.9977 185.778 72.6729 185.479 86.4216 189.945C100.351 194.481 119.982 204.128 144.728 218.629C211.361 257.66 312.617 343.9 385.831 409.371C407.05 428.347 429.059 448.408 451.227 468.949L451.326 469.041L448.972 466.8C448.589 466.434 448.206 466.067 447.825 465.695L441.382 459.53L441.329 459.483C439.083 457.329 436.823 455.17 434.548 453.005L433.529 452.033L427.938 446.714L426.357 445.213C424.451 443.403 422.54 441.591 420.622 439.779L419.711 438.918C417.438 436.771 415.159 434.618 412.873 432.459L412.041 431.678C410.089 429.846 408.135 428.009 406.181 426.168L404.516 424.602L398.95 419.39L397.671 418.198C395.401 416.076 393.125 413.953 390.843 411.829L389.856 410.91L384.078 405.544L382.188 403.793L376.823 398.807L375.291 397.394L368.458 391.101L367.406 390.138L361.694 384.886L359.644 383.011L354.498 378.318L352.699 376.678L351.992 376.034C349.967 374.195 347.944 372.358 345.92 370.523L344.855 369.559L339.07 364.331L336.996 362.463L331.976 357.946L329.984 356.156L323.229 350.11L322.586 349.541C320.545 347.715 318.504 345.897 316.464 344.088L314.257 342.132L309.491 337.911L307.32 335.994L301.077 330.494L300.301 329.825C298.181 327.965 296.063 326.11 293.949 324.263L291.77 322.365C290.194 320.99 288.622 319.621 287.052 318.258L284.881 316.372C282.934 314.678 280.988 312.996 279.044 311.325L278.188 310.585C276.004 308.697 273.825 306.825 271.649 304.967L269.608 303.221L264.909 299.219L262.718 297.356L257.504 292.935L256.096 291.738C253.977 289.95 251.867 288.177 249.765 286.42L247.73 284.716L243.217 280.962L240.96 279.081L236.097 275.053L234.555 273.783C232.496 272.087 230.446 270.403 228.405 268.731L226.424 267.114C224.965 265.921 223.509 264.737 222.057 263.562L219.873 261.793C218.324 260.537 216.782 259.294 215.249 258.065L213.645 256.776L211.213 254.832L207.65 251.99C207.091 251.544 206.537 251.109 205.984 250.683L204.318 249.376L201.593 247.155L199.484 245.502L197.447 243.904L195.228 242.17L193.493 240.816L190.537 238.539C189.609 237.823 188.68 237.103 187.771 236.395L186.327 235.292C185.422 234.6 184.517 233.905 183.62 233.224L181.936 231.948L180.029 230.508C178.644 229.462 177.266 228.426 175.896 227.402L174.253 226.181C172.409 224.807 170.585 223.453 168.781 222.119L167.608 221.262C166.152 220.191 164.701 219.139 163.255 218.106L161.475 216.829C160.182 215.898 158.9 214.981 157.629 214.076L156.006 212.928C154.264 211.694 152.539 210.481 150.831 209.29L150.003 208.719C148.549 207.709 147.114 206.716 145.698 205.742L144.086 204.636C142.869 203.81 141.661 202.997 140.464 202.195L138.981 201.207C137.348 200.119 135.73 199.056 134.128 198.018L133.667 197.703C132.169 196.792 130.715 195.89 129.307 194.996L127.868 194.093L126.381 193.176L125.974 195.565L124.48 192.019C124.032 191.74 123.581 191.462 123.132 191.192C121.629 190.28 120.134 189.365 118.676 188.519C117.112 187.592 115.564 186.723 114.044 185.814L113.586 185.74L113.764 185.666L112.477 184.923L109.171 183.039C108.685 182.765 108.199 182.488 107.715 182.219C106.552 181.566 105.408 180.928 104.282 180.306L103.305 179.766C101.87 178.981 100.464 178.217 99.0862 177.472L98.2384 177.024C97.1492 176.439 96.0765 175.872 95.0201 175.322L93.8036 174.692C92.8512 174.197 91.9166 173.72 90.9935 173.253C90.6288 173.07 90.262 172.879 89.8984 172.7C87.3989 171.444 85.0129 170.284 82.7406 169.221L81.7902 168.783C80.9559 168.401 80.1359 168.025 79.3393 167.686L78.348 167.259C77.4959 166.882 76.6598 166.522 75.8398 166.177C75.6266 166.085 75.4071 165.986 75.1984 165.911C74.1749 165.483 73.1806 165.078 72.2153 164.693L71.6581 164.479C70.8887 164.176 70.1319 163.888 69.3959 163.612L68.5659 163.312C67.9168 163.071 67.2709 162.842 66.6283 162.626L65.9051 162.381L65.3948 162.211C63.8912 161.737 62.4631 161.3 61.1083 160.94C60.8958 160.883 60.6895 160.833 60.4791 160.784C59.9426 160.647 59.4176 160.52 58.9082 160.402C58.6844 160.353 58.4443 160.307 58.2473 160.259C57.7105 160.143 57.188 160.042 56.6798 159.956C56.5365 159.929 56.388 159.898 56.2459 159.875C55.6083 159.77 54.9895 159.686 54.3967 159.616C54.2741 159.601 54.159 159.597 54.0365 159.581C53.5847 159.531 53.1362 159.494 52.6932 159.477C52.5194 159.466 52.3508 159.459 52.1792 159.456C51.7938 159.441 51.425 159.439 51.0635 159.449C50.9105 159.45 50.7574 159.452 50.626 159.452C50.1579 159.472 49.7065 159.505 49.278 159.559L49.2248 159.573C48.8004 159.625 48.3837 159.706 47.9702 159.8C47.8516 159.831 47.7371 159.862 47.6185 159.894C47.4139 159.949 47.2094 160.003 47.0171 160.055L46.1969 164.847L44.6794 161.229C44.6539 161.246 44.6295 161.264 44.6063 161.284C44.5445 161.331 44.4889 161.386 44.4281 161.437C44.2302 161.597 44.0421 161.769 43.8646 161.952C43.7848 162.03 43.7112 162.116 43.6377 162.201C43.4906 162.372 43.3497 162.55 43.2237 162.751C43.1605 162.842 43.0962 162.929 43.0371 163.02C42.8781 163.271 42.7343 163.532 42.6066 163.801C42.5926 163.834 42.5759 163.864 42.5567 163.894C42.4187 164.21 42.3006 164.534 42.2032 164.865L42.1103 165.206C42.0465 165.442 41.9868 165.677 41.9429 165.939C41.9215 166.072 41.895 166.202 41.8787 166.338C41.8371 166.608 41.8057 166.883 41.7859 167.169C41.7735 167.287 41.76 167.4 41.7558 167.515C41.7358 167.915 41.7273 168.325 41.7395 168.747L41.7566 169.089C41.7744 169.417 41.7922 169.745 41.8268 170.087C41.8409 170.254 41.8643 170.423 41.8836 170.593C41.9197 170.908 41.9651 171.225 42.0167 171.549C42.0606 171.712 42.0676 171.886 42.1003 172.057C42.1731 172.476 42.2581 172.891 42.355 173.334L42.4175 173.568C42.5523 174.071 42.671 174.596 42.834 175.122L42.9841 175.682L43.3245 176.806L43.5282 177.435C43.6378 177.844 43.8006 178.239 43.9506 178.668L44.1362 179.197C44.3494 179.78 44.5795 180.393 44.8143 180.975L45.0157 181.464C45.2012 181.928 45.3959 182.393 45.5981 182.869L45.8985 183.565L46.4898 184.888L46.7969 185.56L47.1774 186.374L47.6363 187.334L47.7503 187.58C48.0812 188.258 48.4287 188.95 48.7815 189.645L49.1298 190.323L49.9143 191.827L50.3176 192.596L51.1913 194.221L51.52 194.825C51.9341 195.569 52.3597 196.323 52.7917 197.084L53.0158 197.463C53.3851 198.105 53.7618 198.758 54.1467 199.409L54.5559 200.101L55.6298 201.901L56.0092 202.531C56.9248 204.039 57.8773 205.576 58.8665 207.141C58.3444 205.286 57.9637 203.395 57.7276 201.483C57.1683 196.81 57.9085 193.306 59.8972 190.862Z" fill="#C0EBFC"/>
<path d="M564.204 666.274L564.588 664.04L563.746 663.533C562.908 663.022 562.082 662.524 561.235 662.014C559.284 660.821 557.304 659.598 555.293 658.345C545.794 652.442 536.171 646.243 526.615 639.9C508.566 627.909 490.79 615.403 474.632 603.366C472.316 601.645 470.053 599.941 467.814 598.244C465.508 596.494 463.257 594.769 461.033 593.046C458.75 591.276 456.511 589.527 454.318 587.8C452.026 585.988 449.795 584.204 447.623 582.448C438.805 575.31 430.957 568.6 424.535 562.631L424.935 562.226C430.209 566.512 438.994 573.593 449.04 581.288C451.269 582.997 453.551 584.723 455.886 586.468C458.151 588.167 460.445 589.868 462.768 591.569C465.092 593.27 467.406 594.944 469.712 596.591C471.954 598.183 474.187 599.741 476.393 601.25L476.751 601.492C489.205 609.992 497.493 614.598 503.113 616.884C506.055 618.899 509.009 620.898 511.976 622.883L512.391 623.158C515.216 625.049 518.047 626.921 520.885 628.774L521.591 629.233C524.332 631.021 527.068 632.783 529.798 634.518L530.695 635.084C533.366 636.774 536.025 638.439 538.671 640.08L539.647 640.695C542.256 642.305 544.848 643.88 547.424 645.42L548.461 646.019C551.01 647.537 553.534 649.018 556.031 650.462L557.068 651.061C559.555 652.49 562.009 653.879 564.427 655.227L565.384 655.755C565.595 655.87 565.798 655.973 566.005 656.093L567.035 650.118L570.583 658.567C571.219 658.909 571.878 659.276 572.506 659.608C572.669 659.691 572.84 659.79 573.015 659.87C572.031 657.293 571.013 654.738 569.984 652.19C569.02 649.818 568.004 647.42 566.972 645.058C544.281 610.605 517.364 579.129 486.85 551.366C469.296 535.398 450.701 520.389 432.022 505.752C436.349 510.643 440.558 515.507 444.648 520.345C446.9 523.012 449.117 525.671 451.297 528.322L451.473 528.538C452.705 530.041 453.903 531.535 455.111 533.035C455.714 533.777 456.326 534.524 456.919 535.264C457.32 535.762 457.71 536.254 458.103 536.753C459.549 538.573 460.974 540.383 462.377 542.184L463.937 544.195C465.202 545.838 466.45 547.475 467.682 549.106C468.237 549.834 468.803 550.59 469.352 551.329C470.575 552.965 471.77 554.596 472.955 556.22L474.436 558.244C475.886 560.255 477.307 562.256 478.697 564.248L479.24 565.015C480.807 567.265 482.224 569.362 483.54 571.342C485.308 574.016 486.846 576.449 488.178 578.657C489.954 581.601 491.356 584.15 492.427 586.331C498.223 598.294 493.771 599.316 484.337 594.575C482.088 593.446 479.558 591.989 476.81 590.274C474.551 588.863 472.153 587.274 469.648 585.551C467.403 584.013 465.075 582.362 462.696 580.632C460.452 578.997 458.166 577.301 455.839 575.542C451.128 571.982 446.326 568.231 441.626 564.484L441.443 565.537L440.684 563.732L438.759 563.406L439.756 562.986C436.781 560.604 433.865 558.229 431.049 555.919L430.668 555.609L430.617 555.565L427.856 558.352C431.251 561.564 435.089 565.008 439.29 568.612C434.331 564.68 430.139 561.292 427.159 558.859C426.892 559.058 426.611 559.234 426.343 559.429C424.525 560.74 422.686 562.013 420.825 563.248L420.792 563.257C420.524 563.434 420.269 563.63 420.001 563.807L420.387 564.168C422.563 566.216 424.971 568.398 427.479 570.624L427.681 570.658L427.567 570.688C429.788 572.662 432.133 574.695 434.602 576.787L434.661 576.416L434.938 577.074C436.074 578.041 437.177 578.986 438.347 579.979L439.34 580.152L438.821 580.374C440.665 581.905 442.574 583.468 444.522 585.045C446.684 586.799 448.917 588.585 451.214 590.385C453.408 592.126 455.659 593.885 457.96 595.663C460.175 597.387 462.44 599.119 464.753 600.857C466.998 602.562 469.267 604.273 471.585 606.002C487.483 617.885 504.993 630.217 522.793 642.081C532.936 648.846 543.173 655.473 553.255 661.719C555.109 662.875 556.992 664.032 558.88 665.188L560.097 665.932C560.768 666.344 561.452 666.752 562.129 667.167L564.204 666.274Z" fill="#9FE4FF"/>
<path d="M46.1864 164.785L47.0067 159.993L47.7043 155.904L56.0114 152.416L47.13 150.898L43.6415 142.591L42.1237 151.472L33.8165 154.961L42.6979 156.478L44.6689 161.167L46.1864 164.785Z" fill="white"/>
<path d="M86.6311 241.869L94.9372 238.376L86.0558 236.859L82.5672 228.552L81.0494 237.433L80.1589 237.807L80.1548 237.809L72.7434 240.926L81.6247 242.443L85.1133 250.751L85.9953 245.599L85.9961 245.586L86.6311 241.869Z" fill="white"/>
<path d="M193.305 293.123L194.692 293.356L195.152 294.452L197.039 298.944L197.511 296.156L198.056 292.972L203.641 290.629L197.672 289.607L195.324 284.019L194.307 289.991L190.915 291.418L188.72 292.339L193.305 293.123Z" fill="white"/>
<path d="M443.468 562.807L441.543 562.477L440.784 560.677L440.458 562.601L439.65 562.94L438.654 563.361L440.579 563.691L441.338 565.491L441.52 564.438L441.667 563.562L443.468 562.807Z" fill="white"/>
</svg>
