<svg width="196" height="231" viewBox="0 0 196 231" fill="none" xmlns="http://www.w3.org/2000/svg">
<path d="M54.3633 159.146C54.3633 159.146 53.2823 201.212 52.277 205.111C51.2717 209.01 0.0769196 230.848 0.0769196 230.848H195.63C195.63 230.848 139.992 211.13 138.495 206.613C136.998 202.096 138.322 160.247 138.322 160.247L54.3633 159.146Z" fill="url(#paint0_linear_1112_3256)"/>
<path d="M52.4716 203.983C52.4716 203.983 48.3909 203.506 47.9423 203.983C47.4937 204.46 47.9423 207.692 47.9423 207.692L0.0769196 230.864H195.63L143.992 208.804C143.992 208.804 142.214 203.923 138.495 206.635L139.771 208.473C139.771 208.473 122.448 227.085 93.5701 227.085C64.692 227.085 52.4716 203.983 52.4716 203.983Z" fill="url(#paint1_linear_1112_3256)"/>
<g style="mix-blend-mode:multiply" opacity="0.6">
<path d="M54.0714 177.503C54.0714 177.503 63.7137 180.214 66.0486 184.401C68.3835 188.587 83.3711 220.002 95.1969 220.501C107.023 221 114.687 204.292 120.686 200.436C126.686 196.581 137.549 196.309 137.549 196.309L138.338 160.263L54.3633 159.178L54.0714 177.503Z" fill="#B42F97"/>
</g>
<path style="mix-blend-mode:multiply" opacity="0.6" d="M111.439 175.165L107.596 214.72C107.596 214.72 114.941 206.467 118.686 200.447C122.432 194.428 129.431 165.29 129.431 165.29L111.439 175.165Z" fill="url(#paint2_linear_1112_3256)"/>
<path style="mix-blend-mode:multiply" opacity="0.6" d="M144.008 208.804C144.008 208.804 131.447 220.192 118.513 225.517C118.513 225.517 144.192 217.329 151.375 211.96L144.008 208.804Z" fill="url(#paint3_linear_1112_3256)"/>
<path style="mix-blend-mode:multiply" opacity="0.6" d="M47.9423 207.692C54.6391 214.209 61.8511 220.17 69.5077 225.517C69.5077 225.517 53.2553 221.179 39.327 211.862L47.9423 207.692Z" fill="url(#paint4_linear_1112_3256)"/>
<g style="mix-blend-mode:multiply" opacity="0.6">
<path d="M60.0059 213.511C60.0059 213.511 73.1073 225.517 95.8131 225.517C118.519 225.517 132.263 214.72 132.263 214.72C132.263 214.72 116.633 227.079 93.5863 227.079C70.54 227.079 60.0059 213.511 60.0059 213.511Z" fill="#B42F97"/>
</g>
<path d="M152.18 94.8135C152.18 94.8135 160.358 82.3027 165.914 82.3407C169.292 82.3407 177.443 89.4718 177.351 96.2668C177.226 105.361 169.206 115.692 167.206 120.99C165.206 126.288 160.028 133.197 156.585 133.87C153.142 134.542 148.656 127.996 148.656 127.996C148.656 127.996 150.332 103.056 152.18 94.8135Z" fill="url(#paint5_linear_1112_3256)"/>
<path style="mix-blend-mode:multiply" opacity="0.6" d="M152.78 108.121C152.78 108.121 166.217 91.4729 171.103 91.4729C175.989 91.4729 175.967 100.941 174.021 106.348C172.654 110.09 169.989 115.497 169.989 115.497C169.989 115.497 172.103 109.689 172.351 105.345C172.74 98.6583 171.27 93.7993 169.579 93.8102C166.487 93.8102 164.049 98.0726 163.66 99.5802C163.271 101.088 166.109 107.682 165.357 112.281C164.606 116.879 161.86 118.631 160.942 118.132C160.023 117.633 161.444 112.449 160.612 110.61C159.78 108.772 157.369 106.099 155.947 106.679C154.526 107.259 152.78 108.121 152.78 108.121Z" fill="url(#paint6_linear_1112_3256)"/>
<path style="mix-blend-mode:multiply" opacity="0.6" d="M152.78 108.121C152.78 108.121 156.093 106.136 157.104 106.771C158.115 107.405 160.666 109.71 160.774 111.163C160.882 112.617 159.963 116.749 160.774 117.459C161.585 118.17 164.503 113.528 164.633 109.412C164.763 105.296 162.471 100.551 162.471 99.9976C162.471 99.4444 163.012 96.8035 163.012 96.8035C163.012 96.8035 155.196 104.217 152.78 108.121Z" fill="url(#paint7_linear_1112_3256)"/>
<path d="M42.7212 94.8135C42.7212 94.8135 34.5437 82.3027 28.9875 82.3407C25.6094 82.3407 17.4589 89.4718 17.5508 96.2668C17.6751 105.361 25.6959 115.692 27.6957 120.99C29.6955 126.288 34.8734 133.197 38.3163 133.87C41.7592 134.542 46.2452 127.996 46.2452 127.996C46.2452 127.996 44.5697 103.056 42.7212 94.8135Z" fill="url(#paint8_linear_1112_3256)"/>
<path style="mix-blend-mode:multiply" opacity="0.6" d="M42.1321 108.121C42.1321 108.121 28.6956 91.4729 23.8096 91.4729C18.9236 91.4729 18.9453 100.941 20.891 106.348C22.2584 110.09 24.923 115.497 24.923 115.497C24.923 115.497 22.8097 109.689 22.5611 105.345C22.172 98.6583 23.6421 93.7993 25.3338 93.8102C28.4254 93.8102 30.863 98.0726 31.2521 99.5802C31.6413 101.088 28.8037 107.682 29.555 112.281C30.3063 116.879 33.0519 118.631 33.9708 118.132C34.8896 117.633 33.4681 112.449 34.3005 110.61C35.1328 108.772 37.5434 106.099 38.9648 106.679C40.3863 107.259 42.1321 108.121 42.1321 108.121Z" fill="url(#paint9_linear_1112_3256)"/>
<path style="mix-blend-mode:multiply" opacity="0.6" d="M42.1321 108.121C42.1321 108.121 38.8189 106.136 37.8082 106.771C36.7975 107.405 34.2464 109.71 34.1383 111.163C34.0302 112.617 34.949 116.749 34.1383 117.459C33.3276 118.17 30.409 113.528 30.2792 109.412C30.1495 105.296 32.4412 100.551 32.4412 99.9976C32.4412 99.4444 31.9007 96.8035 31.9007 96.8035C31.9007 96.8035 39.7053 104.217 42.1321 108.121Z" fill="url(#paint10_linear_1112_3256)"/>
<path d="M151.575 67.8559C151.548 78.9458 154.348 90.7245 154.542 96.8036C154.84 106.169 151.191 113.821 150.759 123.577C150.326 133.333 149.137 141.142 147.873 144.878C147.069 147.218 146.001 149.458 144.689 151.554C144.614 151.673 144.543 151.803 144.457 151.922C143.442 153.514 142.325 155.038 141.111 156.483C139.291 158.634 137.315 160.646 135.198 162.503C123.881 172.459 109.709 178.061 108.687 178.457C104.028 180.29 90.9757 180.198 86.3168 178.365C84.8304 177.779 70.9129 173.484 59.6222 164.303C56.5134 161.834 53.7245 158.985 51.3203 155.822C50.0254 154.086 48.8962 152.233 47.9477 150.285C47.1058 148.56 46.4307 146.759 45.9317 144.905C44.9048 141.109 40.7106 105.155 39.8242 95.8275C39.8674 90.2798 39.862 82.0098 39.7648 71.7984C39.6404 59.5913 39.1378 46.5871 40.7106 42.5415C43.6022 35.1284 77.7987 15.1936 96.9211 15.1936C110.331 15.1936 131.188 25.0146 143.403 33.4364C148.602 37.0156 152.24 40.3398 153.105 42.5415C154.445 45.9743 154.921 55.638 154.953 65.9579C154.926 66.896 151.575 66.8743 151.575 67.8559Z" fill="url(#paint11_linear_1112_3256)"/>
<path style="mix-blend-mode:multiply" opacity="0.6" d="M150.705 69.9491C150.678 80.795 154.975 92.2863 154.542 96.8036C153.645 105.947 153.18 114.157 151.688 124.683C150.745 131.497 149.154 138.205 146.938 144.715C146.14 147.014 145.079 149.213 143.776 151.266C143.7 151.38 143.63 151.51 143.543 151.63C142.528 153.192 141.41 154.685 140.198 156.098C138.375 158.207 136.398 160.177 134.285 161.993C136.847 155.946 143.576 138.674 145.867 130.702C146.948 126.874 147.981 117.85 148.078 114.916C148.181 111.733 148.24 108.544 146.867 105.697C146.513 104.926 146.033 104.221 145.446 103.609C143.214 101.37 139.798 100.86 136.798 101.982C131.058 104.152 120.119 101.722 113.498 99.8838C111.76 99.4021 110.214 98.3932 109.07 96.9952C107.926 95.5972 107.241 93.8785 107.109 92.0748C106.708 86.6241 107.283 81.1455 108.806 75.8981L112.449 72.3894L144.695 67.6986C144.695 67.6986 141.587 60.3884 141.862 55.9037C142.138 51.4189 143.808 39.5697 142.435 36.4136C147.635 40.0958 151.272 43.5231 152.137 45.7899C153.364 49.0436 153.872 57.7204 153.986 67.3678C154.013 68.2843 150.705 68.9893 150.705 69.9491Z" fill="url(#paint12_linear_1112_3256)"/>
<path style="mix-blend-mode:multiply" opacity="0.6" d="M44.213 70.1336C44.24 81.153 38.8567 86.4675 39.8891 96.8036C40.7809 106.077 41.7321 114.987 43.2239 125.648C44.1651 132.557 45.7558 139.36 47.9747 145.968C48.7718 148.306 49.8346 150.544 51.142 152.638C51.2176 152.758 51.2933 152.888 51.3744 153.007C52.3906 154.591 53.5081 156.107 54.72 157.546C56.5422 159.678 58.5185 161.671 60.6329 163.511C58.071 157.378 51.342 139.835 49.0503 131.771C47.9693 127.888 46.937 118.756 46.8451 115.762C46.737 112.509 46.6776 109.293 48.0504 106.386C48.4019 105.606 48.8826 104.891 49.4719 104.271C50.6 103.186 52.0186 102.455 53.5544 102.166C55.0901 101.877 56.6765 102.043 58.1196 102.644C63.8596 104.813 74.8044 102.378 81.42 100.513C83.1673 100.011 84.718 98.9813 85.8612 97.5637C87.0043 96.146 87.6843 94.4093 87.8085 92.59C88.2102 87.0642 87.6357 81.5107 86.1114 76.1856L82.4739 72.6227L50.2232 67.8613C50.2232 67.8613 53.3309 60.4482 53.0553 55.8983C52.7796 51.3485 51.1095 39.3312 52.4824 36.1262C47.2829 39.8626 43.6454 43.3442 42.7536 45.6435C41.5321 48.9027 41.0511 57.7367 40.9106 67.498C40.9052 68.4416 44.213 69.1574 44.213 70.1336Z" fill="url(#paint13_linear_1112_3256)"/>
<g style="mix-blend-mode:multiply" opacity="0.6">
<path d="M145.484 151.554C145.3 151.754 145.116 151.971 144.943 152.193C143.747 153.653 142.628 155.176 141.592 156.754C130.096 170.469 110.374 178.267 109.163 178.739C104.504 180.572 91.4514 180.474 86.7924 178.647C84.9007 177.904 62.957 171.136 51.8068 156.082C50.6826 154.108 49.5746 152.231 48.4287 150.545C48.8449 150.962 54.6119 156.83 61.2869 162.394C68.2159 168.159 79.885 177.513 97.548 177.513C115.211 177.513 128.269 166.022 131.015 163.999C133.501 162.204 143.268 153.495 145.176 151.819L145.484 151.554Z" fill="#CB4397"/>
</g>
<path d="M110.639 81.9446C113.669 82.4884 116.752 82.6867 119.827 82.5357C121.356 82.4606 122.873 82.2317 124.356 81.8524C130.458 80.2255 131.777 79.0759 136.722 79.065C141.668 79.0542 149.694 80.9522 149.694 80.9522C148.884 78.8716 147.838 76.8918 146.575 75.052C146.039 74.2747 145.38 73.5898 144.624 73.0239L145.105 74.4338C145.013 74.2223 143.916 72.2321 134.836 71.6031C125.248 70.936 113.39 73.3818 113.39 73.3818L111.855 78.4739C111.296 77.5246 111.015 76.4363 111.044 75.334C111.044 75.334 108.877 78.0401 110.639 81.9446Z" fill="url(#paint14_linear_1112_3256)"/>
<g style="mix-blend-mode:multiply" opacity="0.6">
<path d="M119.843 82.5357C121.372 82.4606 122.889 82.2317 124.372 81.8524C130.474 80.2255 131.793 79.0759 136.739 79.065C141.684 79.0542 149.71 80.9522 149.71 80.9522C148.901 78.8716 147.854 76.8918 146.592 75.052C143.506 74.5097 139.025 74.1572 134.647 75.7407C134.647 75.7407 135.096 74.5423 137.793 73.4306C137.793 73.4306 129.82 72.0911 119.859 82.5357C119.848 82.5357 119.843 82.5411 119.843 82.5357Z" fill="#B42F97"/>
</g>
<path d="M84.0413 82.3678C80.9897 82.8232 77.8964 82.9305 74.8207 82.6877C73.295 82.5601 71.7854 82.2841 70.313 81.8634C64.265 80.063 62.984 78.8645 58.0386 78.7019C53.0931 78.5392 45.0291 80.1877 45.0291 80.1877C45.899 78.1341 47.0035 76.1887 48.3206 74.3906C48.8833 73.6304 49.564 72.9657 50.3367 72.4221L49.7962 73.8158C49.8935 73.6043 51.0555 71.6466 60.1411 71.2995C69.7455 70.9253 81.5227 73.729 81.5227 73.729L82.9063 78.8645C83.4969 77.9343 83.8118 76.8547 83.8143 75.7518C83.8143 75.7518 85.9114 78.5229 84.0413 82.3678Z" fill="url(#paint15_linear_1112_3256)"/>
<g style="mix-blend-mode:multiply" opacity="0.6">
<path d="M74.8206 82.6823C73.295 82.5547 71.7854 82.2786 70.313 81.858C64.265 80.0576 62.984 78.8591 58.0386 78.6964C53.0931 78.5337 45.0291 80.1823 45.0291 80.1823C45.899 78.1286 47.0035 76.1832 48.3206 74.3852C51.423 73.9134 55.9253 73.7182 60.2438 75.4318C60.2438 75.4318 59.8276 74.2225 57.163 73.0294C57.163 73.0294 65.1784 71.9449 74.8206 82.6769V82.6823Z" fill="#B42F97"/>
</g>
<path d="M113.817 94.6126C113.444 95.9358 124.297 98.6419 131.15 99.3577C138.003 100.074 142.23 95.643 142.695 94.2981C143.16 92.9532 142.219 88.5823 132.82 87.2482C123.421 85.9142 114.671 91.6083 113.817 94.6126Z" fill="url(#paint16_linear_1112_3256)"/>
<path d="M134.987 93.962C133.82 97.8774 129.874 100.068 126.167 98.8427C122.459 97.6171 120.405 93.4685 121.567 89.5532C122.729 85.6378 126.68 83.4469 130.388 84.6725C134.096 85.8981 136.177 90.0412 134.987 93.962Z" fill="url(#paint17_linear_1112_3256)"/>
<path d="M134.593 93.8318C133.512 97.5194 129.783 99.5855 126.291 98.4413C122.8 97.2971 120.886 93.3817 121.967 89.6941C123.048 86.0065 126.778 83.9403 130.269 85.0846C133.761 86.2288 135.69 90.1442 134.593 93.8318Z" fill="#562929"/>
<path style="mix-blend-mode:multiply" d="M132.393 93.1051C132.244 93.6635 131.984 94.1859 131.628 94.641C131.273 95.0961 130.829 95.4745 130.325 95.7535C129.82 96.0325 129.264 96.2064 128.691 96.2648C128.118 96.3232 127.539 96.2648 126.988 96.0932C125.88 95.696 124.967 94.8832 124.443 93.8255C123.919 92.7678 123.824 91.5474 124.178 90.4208C124.327 89.8623 124.587 89.3398 124.943 88.8845C125.298 88.4292 125.741 88.0506 126.246 87.7711C126.75 87.4916 127.306 87.3172 127.879 87.2581C128.453 87.199 129.032 87.2566 129.583 87.4273C130.692 87.8256 131.604 88.6394 132.128 89.698C132.652 90.7566 132.747 91.9778 132.393 93.1051Z" fill="url(#paint18_linear_1112_3256)"/>
<path d="M113.238 95.1062C113.238 95.1062 119.54 83.2245 131.512 83.7668C139.473 84.1139 143.527 92.8394 143.527 92.8394C139.727 89.7937 135.049 88.0609 130.188 87.8991C122.167 87.6659 113.238 95.1062 113.238 95.1062Z" fill="#BF6666"/>
<path d="M115.227 93.2515L116.233 96.1365C116.233 96.1365 113.492 95.2091 113.26 95.0519C113.028 94.8946 115.227 93.2515 115.227 93.2515Z" fill="#A04E45"/>
<path d="M119.859 97.2427C119.859 97.2427 128.891 100.334 134.588 99.6722C140.738 98.9618 142.695 94.3035 142.695 94.3035C142.695 94.3035 140.203 98.8696 133.815 99.1841C128.226 99.4607 119.859 97.2427 119.859 97.2427Z" fill="#965953"/>
<path d="M133.431 93.7178C132.723 93.8805 134.863 95.2796 136.858 95.567C138.647 95.8219 139.884 95.2417 139.836 94.9814C139.787 94.7211 136.231 93.0616 133.431 93.7178Z" fill="white"/>
<path d="M131.95 93.425C131.447 92.8339 130.539 92.7471 130.328 93.0779C130.118 93.4087 130.653 94.3035 131.085 94.3686C131.518 94.4337 132.231 93.7558 131.95 93.425Z" fill="white"/>
<g style="mix-blend-mode:multiply" opacity="0.6">
<path d="M113.811 94.4933C113.811 94.4933 128.664 85.155 142.695 94.3035C142.695 94.3035 141.738 88.5389 132.339 87.0585C122.94 85.578 113.811 94.4933 113.811 94.4933Z" fill="#B42F97"/>
</g>
<path d="M113.238 95.1061C113.238 95.1061 121.027 87.7146 129.874 88.9402C138.722 90.1658 142.695 94.3035 142.695 94.3035L143.776 93.105C143.776 93.105 137.047 87.3404 129.031 87.5031C119.421 87.6984 113.238 95.1061 113.238 95.1061Z" fill="#270039"/>
<path d="M120.502 97.4488C120.502 97.4488 127.48 101.386 135.366 100.784C141.165 100.339 141.998 95.4207 141.998 95.4207C141.998 95.4207 138.371 103.175 120.502 97.4488Z" fill="#AD6B62"/>
<path d="M80.1174 94.3632C80.5119 95.6756 69.6968 98.5443 62.8597 99.3632C56.0226 100.182 51.7257 95.8111 51.2393 94.4825C50.7528 93.1539 51.6338 88.7613 61.0112 87.2917C70.3887 85.8221 79.2256 91.3589 80.1174 94.3632Z" fill="url(#paint19_linear_1112_3256)"/>
<path d="M58.9412 94.0162C60.1627 97.9153 64.146 100.047 67.8322 98.7776C71.5183 97.5086 73.5181 93.3221 72.2966 89.423C71.0751 85.5239 67.0971 83.3927 63.411 84.6562C59.7249 85.9198 57.7197 90.1171 58.9412 94.0162Z" fill="url(#paint20_linear_1112_3256)"/>
<path d="M59.3357 93.8806C60.487 97.5519 64.2325 99.5584 67.7024 98.3653C71.1724 97.1723 73.0587 93.2298 71.9074 89.5585C70.7562 85.8871 66.9944 83.8752 63.5353 85.0737C60.0762 86.2722 58.1845 90.2092 59.3357 93.8806Z" fill="#562929"/>
<path style="mix-blend-mode:multiply" d="M61.5409 93.1214C61.6985 93.673 61.9645 94.1873 62.3235 94.634C62.6824 95.0806 63.1269 95.4506 63.6307 95.7221C64.1345 95.9935 64.6875 96.161 65.2568 96.2145C65.8262 96.2679 66.4005 96.2064 66.9458 96.0335C68.0446 95.6153 68.9396 94.7867 69.4434 93.7213C69.9471 92.6559 70.0205 91.4362 69.6482 90.3177C69.492 89.7653 69.2266 89.2501 68.868 88.8026C68.5094 88.3551 68.0648 87.9846 67.5606 87.7129C67.0564 87.4412 66.5029 87.2741 65.9331 87.2213C65.3632 87.1685 64.7886 87.2312 64.2433 87.4056C63.1445 87.8239 62.2494 88.6524 61.7457 89.7179C61.242 90.7833 61.1686 92.0029 61.5409 93.1214Z" fill="url(#paint21_linear_1112_3256)"/>
<path d="M80.7065 94.8458C80.7065 94.8458 74.9342 83.4576 62.2706 83.7504C54.32 84.3253 50.3799 92.9966 50.3799 92.9966C54.1328 89.897 58.7828 88.0958 63.638 87.861C71.6696 87.5302 80.7065 94.8458 80.7065 94.8458Z" fill="#BF6666"/>
<path d="M78.4527 92.7256L77.7284 95.9143C77.7284 95.9143 80.4579 94.949 80.6849 94.7809C80.9119 94.6128 78.4527 92.7256 78.4527 92.7256Z" fill="#A04E45"/>
<path d="M74.1126 97.0747C74.1126 97.0747 65.1351 100.296 59.4276 99.7211C53.2661 99.1029 51.2393 94.4717 51.2393 94.4717C51.2393 94.4717 53.8012 98.9998 60.1897 99.2222C65.7837 99.412 74.1126 97.0747 74.1126 97.0747Z" fill="#965953"/>
<path d="M60.5086 93.7505C61.222 93.9023 59.1033 95.334 57.1089 95.6485C55.3253 95.9251 54.0822 95.3665 54.1255 95.1062C54.1687 94.8459 57.6873 93.1377 60.5086 93.7505Z" fill="white"/>
<path d="M61.9733 93.4358C62.4651 92.8339 63.3732 92.7362 63.5947 93.067C63.8163 93.3978 63.2867 94.2926 62.8543 94.3686C62.4219 94.4445 61.6976 93.7666 61.9733 93.4358Z" fill="white"/>
<g style="mix-blend-mode:multiply" opacity="0.6">
<path d="M80.1282 94.2386C80.1282 94.2386 65.1351 85.1172 51.2393 94.4718C51.2393 94.4718 51.9473 88.8048 61.3247 87.1834C70.7021 85.5619 80.1282 94.2386 80.1282 94.2386Z" fill="#B42F97"/>
</g>
<path d="M80.7065 94.846C80.7065 94.846 72.81 87.563 63.9839 88.9187C55.1578 90.2744 51.2393 94.4718 51.2393 94.4718L50.1259 93.2896C50.1259 93.2896 56.7738 87.422 64.7892 87.4708C74.3991 87.525 80.7065 94.846 80.7065 94.846Z" fill="#270039"/>
<path d="M73.5073 97.2915C73.5073 97.2915 66.5837 101.332 58.6926 100.844C52.8878 100.486 51.9851 95.5779 51.9851 95.5779C51.9851 95.5779 55.6929 103.289 73.5073 97.2915Z" fill="#AD6B62"/>
<path d="M109.947 112.048C104.056 109.39 102.623 101.744 97.8615 101.744C93.0999 101.744 91.673 109.396 85.7817 112.048C79.8904 114.699 76.7934 120.149 77.3988 123.897C79.0097 124.343 80.5765 124.937 82.0794 125.67C84.0467 126.7 90.311 128.181 97.8615 128.181C105.412 128.181 111.682 126.7 113.644 125.67C115.152 124.936 116.724 124.343 118.341 123.897C118.93 120.149 115.833 114.705 109.947 112.048Z" fill="url(#paint22_linear_1112_3256)"/>
<path d="M109.947 111.348C104.056 108.571 102.661 101.739 97.8994 101.739C93.1377 101.739 91.673 108.571 85.7817 111.348C79.8904 114.125 76.7934 119.802 77.3988 123.734C79.0135 124.201 80.5806 124.82 82.0794 125.583C84.0467 126.668 90.311 128.203 97.8615 128.203C105.412 128.203 111.682 126.657 113.644 125.583C115.148 124.82 116.721 124.201 118.341 123.734C118.93 119.802 115.833 114.135 109.947 111.348Z" fill="url(#paint23_linear_1112_3256)"/>
<path style="mix-blend-mode:multiply" opacity="0.6" d="M113.963 114.027C113.963 114.027 112.53 113.403 111.509 113.864C110.487 114.325 109.855 123.051 109.855 123.051C109.855 123.051 108.374 113.68 109.855 111.256C111.419 111.848 112.825 112.797 113.963 114.027Z" fill="url(#paint24_linear_1112_3256)"/>
<path style="mix-blend-mode:multiply" opacity="0.6" d="M81.6362 114.135C81.6362 114.135 83.1117 113.398 84.1332 113.859C85.1547 114.32 85.7871 123.045 85.7871 123.045C85.7871 123.045 87.2734 113.674 85.7871 111.25C84.2072 111.891 82.7892 112.876 81.6362 114.135Z" fill="url(#paint25_linear_1112_3256)"/>
<path d="M106.385 115.61C105.72 115.448 105.201 117.568 105.418 118.257C105.634 118.946 106.785 118.761 107.217 118.257C107.65 117.753 107.082 115.762 106.385 115.61Z" fill="#FFCCB8"/>
<path d="M108.774 127.004C108.774 127.004 112.06 124.195 113.341 123.75C114.622 123.305 117.162 124.119 117.162 124.119C116.188 124.384 115.247 124.759 114.357 125.236C113.006 125.968 110.325 127.15 108.774 127.004Z" fill="#862254"/>
<path d="M79.485 124.439C79.8598 124.021 80.3321 123.704 80.8594 123.514C81.3867 123.325 81.9526 123.27 82.5064 123.354C84.3224 123.696 86.7546 127.02 86.7546 127.02C86.7546 127.02 84.1494 126.299 82.6739 125.751C81.1984 125.204 79.485 124.439 79.485 124.439Z" fill="#862254"/>
<path d="M159.19 46.69L164.114 49.7214C160.952 37.4764 144.289 31.9016 141.511 31.0556L141.111 30.9363C138.679 22.6067 132.269 13.5829 125.583 8.3389C125.432 8.21417 125.313 8.12198 125.221 8.04064C125.16 7.99593 125.102 7.947 125.048 7.89421C123.252 6.50261 121.269 5.3742 119.157 4.54283C115.91 3.27211 112.402 2.82144 108.941 3.23048C103.597 0.812548 97.6148 0.201646 91.8946 1.48971C84.8156 3.10992 78.0405 5.8561 71.8264 9.62414L69.7833 10.8552C69.7563 10.8552 69.7455 10.8552 69.7293 10.8552C67.0268 12.5146 64.8649 13.9896 63.1191 14.9657H63.0705C62.2222 15.5024 61.2878 15.8877 60.3086 16.1046C56.1144 16.7499 52.8715 6.96689 52.8715 6.96689C49.0881 13.0623 53.7525 22.0807 53.7525 22.0807C53.7525 22.0807 44.8769 23.6616 41.4308 33.5693C39.9823 40.0632 38.7053 56.4752 34.3437 53.9405C36.0138 48.9948 40.4621 38.021 40.7161 37.4462L40.0458 40.4916L39.473 44.7693C36.376 59.2648 39.8188 91.6137 39.8188 91.6137C45.2237 73.8536 46.6451 55.8819 46.6451 55.8819C51.0501 62.6064 71.3291 67.6334 72.2533 67.7365C70.2922 67.0655 68.4907 65.9946 66.962 64.5912C66.935 64.5912 66.9241 64.5532 66.9079 64.5532C60.995 59.1628 58.5142 48.3332 62.5084 42.8289C66.9728 36.6521 75.1828 30.9851 90.3812 38.3278C92.3394 39.2929 94.4605 39.8815 96.6346 40.0632H96.9481C99.3663 40.2254 101.793 39.9235 104.099 39.1738C122.789 33.1435 127.107 34.4504 129.804 35.6923C132.847 37.086 148.689 49.3744 148.283 54.4611C147.44 65.1769 154.283 93.5443 154.283 93.5443L158.228 64.9328C162.071 70.8981 161.336 75.2364 161.336 75.2364C162.79 70.1846 163.186 64.8854 162.498 59.6726C161.325 51.6737 159.309 46.972 159.19 46.69ZM110.774 4.11442C118.881 5.05259 120.227 11.6415 120.227 11.6415C117.581 8.55278 114.373 5.99821 110.774 4.11442Z" fill="url(#paint26_linear_1112_3256)"/>
<path style="mix-blend-mode:multiply" d="M125.221 8.04057L125.005 7.8833H125.048C125.102 7.93982 125.16 7.99238 125.221 8.04057Z" fill="url(#paint27_linear_1112_3256)"/>
<g style="mix-blend-mode:multiply" opacity="0.6">
<path d="M158.142 63.6368L154.229 92.5736C154.229 92.5736 152.067 56.4459 146.862 49.331C143.857 45.215 132.761 35.7736 129.712 34.3962C127.302 33.3116 118.362 35.1446 107.32 38.1923C95.8671 43.1055 87.9328 36.0827 81.9172 35.3506C68.2645 33.6966 65.9999 35.5893 61.7085 41.5165C57.7197 47.0208 60.9248 57.8559 66.8377 63.2409C51.5095 51.8202 58.2926 32.791 58.2926 32.791C49.6124 31.1316 43.1104 35.5025 41.0403 37.1294C58.6763 21.4408 82.2307 34.342 82.2307 34.342L84.8466 34.4233C84.8466 34.4233 80.4309 22.9429 72.2695 20.1447C64.1082 17.3464 53.6066 20.8497 53.6066 20.8497C53.6066 20.8497 64.9568 13.1762 73.4748 15.199C81.9929 17.2217 89.3489 34.1142 89.3489 34.1142C91.046 34.8138 95.1051 34.304 95.1051 34.304C95.1051 34.304 89.43 17.0048 80.8687 13.7402C73.3505 10.8823 65.1946 13.0406 63.3245 13.6046C69.1313 11.6555 75.2844 10.966 81.3767 11.5818C91.6189 12.6664 98.202 35.0687 98.202 35.0687H103.634C103.634 35.0687 103.834 17.1729 95.224 10.3075C86.9599 3.72941 70.967 10.4701 69.713 10.8986L74.6693 8.01897L79.4256 5.67625C80.0255 5.46476 87.9544 2.60144 97.7534 9.70008C107.725 16.9343 107.406 33.4255 107.406 33.4255C111.493 33.5611 122.173 32.1294 122.173 32.1294C124.334 23.6316 120.551 11.5493 120.184 10.3996C123.87 18.3172 123.697 31.5492 124.897 32.0318C126.096 32.5144 134.555 30.7628 134.555 30.7628C135.198 16.251 123.848 7.52548 121.632 5.67625C128.318 10.9311 137.403 19.841 139.83 28.1761C139.83 28.1761 140.852 30.855 141.122 30.9364C141.122 30.9364 140.203 35.5296 145.386 37.6879C150.418 39.7758 158.563 45.0144 159.071 45.3506C150.083 41.24 139.376 39.3365 139.376 39.3365L147.413 48.2844C152.225 52.41 155.916 57.6919 158.142 63.6368Z" fill="#B42F97"/>
</g>
<g style="mix-blend-mode:multiply" opacity="0.6">
<path d="M50.3042 53.5989C50.3042 53.5989 53.1093 61.4676 46.6451 55.8819C46.9694 60.3125 41.0349 80.7191 39.8188 91.5053C39.8188 91.5053 36.8678 55.3451 39.9647 40.8495L40.0458 40.4916L40.4079 39.0979C40.4079 50.2963 48.8827 57.0858 48.8827 57.0858C44.8237 46.4352 51.8608 41.2237 52.2067 40.9851C48.0774 48.1108 50.3042 53.5989 50.3042 53.5989Z" fill="#B42F97"/>
</g>
<g style="mix-blend-mode:soft-light">
<path d="M94.1808 9.01685C98.0056 10.2709 101.943 11.15 105.936 11.6416C112.514 12.4333 119.054 10.34 119.054 10.34L120.265 11.7337C121.006 14.1545 121.613 16.6149 122.081 19.1035C120.67 17.5188 118.764 16.4631 116.676 16.1101C113.136 15.4756 104.726 18.3335 104.726 18.3335C104.726 18.3335 100.899 11.4626 94.1808 9.01685Z" fill="#C4D9E0"/>
</g>
<g style="mix-blend-mode:soft-light">
<path d="M84.8304 14.0493C87.1568 15.5642 89.146 17.5452 90.6731 19.8681L98.7101 17.7423C98.7101 17.7423 96.586 12.7261 91.7432 10.6328L84.8304 14.0493Z" fill="#C4D9E0"/>
</g>
<g style="mix-blend-mode:soft-light">
<path d="M77.1826 16.7228C77.1826 16.7228 81.3119 19.1794 83.1657 21.5493L86.6248 20.8714C86.6248 20.8714 84.9061 16.5764 81.901 15.5027C81.0868 15.1802 80.1918 15.1246 79.3442 15.3438C78.4966 15.563 77.74 16.0457 77.1826 16.7228Z" fill="#C4D9E0"/>
</g>
<g style="mix-blend-mode:soft-light">
<path d="M145.846 37.2866C145.846 37.2866 150.359 39.8896 154.964 42.6174C154.964 42.6174 155.423 40.2964 154.964 38.8213C154.504 37.3463 147.743 34.7595 147.743 34.7595L145.846 37.2866Z" fill="#C4D9E0"/>
</g>
<g style="mix-blend-mode:soft-light">
<path d="M41.1268 34.803C41.1268 34.803 50.2394 29.5861 60.2492 29.7542C60.2492 29.7542 54.4065 27.5579 54.7038 26.4571C55.001 25.3562 57.4494 21.5764 57.4494 21.5764C57.4494 21.5764 43.0996 23.0298 41.1268 34.803Z" fill="#C4D9E0"/>
</g>
<path style="mix-blend-mode:multiply" opacity="0.6" d="M77.3609 121.684C77.3609 121.684 69.0158 125.399 65.7675 132.904L77.3609 121.684Z" fill="url(#paint28_linear_1112_3256)"/>
<path style="mix-blend-mode:multiply" opacity="0.6" d="M118.341 121.294C118.341 121.294 125.799 125.133 129.631 132.736L118.341 121.294Z" fill="url(#paint29_linear_1112_3256)"/>
<path d="M52.5364 165.653C52.5364 165.653 55.1199 174.2 57.6818 176.781C57.4294 174.36 57.3176 171.927 57.3467 169.493L52.5364 165.653Z" fill="url(#paint30_linear_1112_3256)"/>
<path d="M154.553 99.5421C154.553 99.5421 153.18 110.388 152.786 114.184C152.326 118.696 150.51 132.08 146.219 136.646C141.76 141.413 129.891 144 129.891 144C129.891 144 130.658 134.092 129.593 132.926C128.226 131.429 109.32 128.311 107.801 128.587C106.282 128.864 97.9534 130.67 97.7372 130.719C97.7372 130.719 89.1813 128.869 87.6626 128.582C86.1438 128.295 67.2376 131.407 65.8702 132.92C64.7892 134.086 65.1135 145.079 65.1135 145.079C65.1135 145.079 55.3307 143.354 49.7583 136.277C45.8777 131.348 44.0616 119.683 43.5968 115.166C42.5591 107.818 39.8945 90.8979 39.8945 90.8979C39.8945 90.8979 41.797 121.478 42.2726 139.829C42.2002 145.341 43.4339 150.79 45.8722 155.729C50.688 165.404 57.9629 176.282 65.1135 180.442C72.5236 184.748 86.306 188.278 92.0891 189.634C93.7641 190.027 95.4725 190.259 97.1913 190.328C98.6254 190.383 100.061 190.251 101.461 189.937C107.152 188.663 122.659 184.921 130.35 180.453C137.506 176.288 144.786 165.398 149.602 155.718C152.051 150.8 152.899 145.344 153.196 139.856C154.218 120.643 154.553 99.5421 154.553 99.5421ZM107.061 160.643C103.78 158.441 107.601 158.267 106.931 155.583C106.883 155.394 106.796 155.217 106.673 155.065C106.551 154.914 106.397 154.791 106.223 154.704C104.061 153.669 97.948 154.162 97.7318 154.189C97.7318 154.189 91.4568 153.647 89.23 154.704C89.0553 154.789 88.9012 154.911 88.7788 155.062C88.6564 155.213 88.5687 155.389 88.5219 155.578C87.8517 158.262 91.673 158.441 88.3922 160.637C84.5169 163.24 66.7188 140.762 72.2696 136.532C77.5609 138.078 80.2741 140.1 88.349 136.467C91.2082 135.176 93.2458 135.079 94.4619 135.231C94.8763 135.287 95.2979 135.257 95.6999 135.141C96.1019 135.025 96.4755 134.827 96.7968 134.558C97.0523 134.308 97.3725 134.136 97.721 134.059C98.0729 134.135 98.3967 134.308 98.656 134.558C98.9779 134.826 99.3514 135.025 99.7531 135.141C100.155 135.258 100.576 135.29 100.991 135.236C102.207 135.084 104.234 135.182 107.104 136.467C115.179 140.106 117.914 138.094 123.183 136.538C128.734 140.767 110.936 163.24 107.061 160.643ZM43.6617 114.602C42.6239 107.254 39.8783 90.9196 39.8783 90.9196C39.8783 90.9196 41.851 120.914 42.3267 139.265" fill="url(#paint31_linear_1112_3256)"/>
<g style="mix-blend-mode:multiply" opacity="0.6">
<path d="M69.4536 181.841C69.4536 181.841 66.4377 169.026 65.9729 160.838C65.5081 152.649 65.3784 146.505 65.6054 144.797C65.8324 143.088 61.2815 161.971 62.2057 169.466C63.1029 176.781 63.9407 178.777 63.9407 178.777L69.4536 181.841Z" fill="#B42F97"/>
</g>
<g style="mix-blend-mode:multiply" opacity="0.6">
<path d="M152.548 145.247C152.548 145.247 151.191 135.99 148.813 131.315C148.813 131.315 150.656 148.452 147.073 157.096C149.894 153.691 151.781 149.607 152.548 145.247Z" fill="#B42F97"/>
</g>
<g style="mix-blend-mode:multiply" opacity="0.6">
<path d="M117.568 158.322C117.568 158.322 121.086 151.814 121.54 147.443C121.54 147.443 114.514 159.086 107.488 162.085C107.471 162.107 113.217 161.901 117.568 158.322Z" fill="#B42F97"/>
</g>
<g style="mix-blend-mode:multiply" opacity="0.6">
<path d="M75.3071 154.905C75.3071 154.905 72.4641 148.067 72.4479 143.685C72.4479 143.685 78.2689 155.973 84.9764 159.688C84.9764 159.688 79.2796 158.907 75.3071 154.905Z" fill="#B42F97"/>
</g>
<g style="mix-blend-mode:multiply" opacity="0.6">
<path d="M118.341 121.684C118.341 121.684 118.254 123.902 117.26 124.33C116.265 124.759 114.687 123.381 112.498 123.517C111.476 123.582 108.444 125.54 97.748 125.54C87.0518 125.54 84.4575 123.512 82.8955 123.203C80.7336 122.78 79.7228 124.249 78.7067 123.821C77.6906 123.392 77.4096 121.684 77.4096 121.684L77.3825 124.629C77.3825 124.629 79.004 125.995 85.8465 131.874C91.3379 136.608 103.92 136.424 109.768 130.936C115.616 125.448 118.341 124.629 118.341 124.629V121.684Z" fill="#B42F97"/>
</g>
<g style="mix-blend-mode:soft-light">
<path d="M137.895 141.115C137.895 141.115 141.446 160.231 132.199 173.956C132.199 173.956 144.419 159.818 139.311 140.236L137.895 141.115Z" fill="#C4D9E0"/>
</g>
<path d="M46.2614 155.74C46.2614 155.74 47.2451 161.429 48.6828 163.289C48.7122 161.716 48.8331 160.146 49.0449 158.587L46.2614 155.74Z" fill="url(#paint32_linear_1112_3256)"/>
<path d="M149.445 154.449C149.445 154.449 148.429 160.133 146.975 161.982C146.955 160.408 146.845 158.836 146.646 157.275L149.445 154.449Z" fill="url(#paint33_linear_1112_3256)"/>
<g style="mix-blend-mode:multiply" opacity="0.6">
<path d="M139.549 169.856C138.366 171.787 135.398 174.01 130.95 176.83C129.922 177.448 128.836 177.964 127.707 178.37C128.421 177.096 129.372 175.263 130.577 172.66C133.761 165.784 135.171 146.087 134.869 147.79C134.566 149.493 132.55 155.382 129.588 163.072C128.729 165.323 127.534 167.871 126.28 170.355C124.755 173.419 122.569 176.105 119.882 178.217C117.194 180.329 114.072 181.815 110.741 182.568H110.666C105.428 183.728 103.407 179.037 98.3912 173.105C97.7318 175.924 90.7271 184.379 84.7872 182.22H84.7385C83.1211 181.597 81.694 180.56 80.5982 179.214C79.5024 177.867 78.7759 176.256 78.4905 174.542C78.0456 172.233 77.7334 169.901 77.5555 167.557C77.2799 162.676 77.1988 159.032 77.3339 158.012C77.469 156.993 74.7558 168.229 75.3071 172.687C75.7881 176.591 76.2367 177.947 76.3232 178.18C71.7453 175.686 67.6052 173.121 67.6052 173.121L69.4969 182.237L76.7231 185.122L86.7654 188.262L92.4999 189.775C96.1822 190.592 100.002 190.551 103.666 189.655L107.698 188.674C107.698 188.674 112.449 187.361 119.378 185.181C124.107 183.582 128.652 181.479 132.934 178.907L137.944 174.189C137.944 174.189 140.727 167.931 139.549 169.856Z" fill="#B42F97"/>
</g>
<g style="mix-blend-mode:multiply" opacity="0.6">
<path d="M42.2726 136.678C42.2726 136.678 42.1753 142.861 42.8131 145.756C43.843 151.126 45.9384 156.232 48.9746 160.773C52.4716 166.385 55.4605 170.827 57.6656 173.202C57.6656 173.202 56.2442 161.575 58.3142 154.954C60.3843 148.332 62.0976 146.95 62.0976 146.95C62.0976 146.95 53.4066 152.812 53.4066 162.226C46.537 154.932 42.2726 136.678 42.2726 136.678Z" fill="#B42F97"/>
</g>
<path d="M143.824 165.046C143.824 165.046 143.451 166.673 143.327 166.971C144.473 165.8 145.905 161.613 145.905 161.613L143.824 165.046Z" fill="url(#paint34_linear_1112_3256)"/>
<g style="mix-blend-mode:multiply" opacity="0.6">
<path d="M75.5719 142.194C75.5719 142.194 84.171 154.363 96.3752 154.45C108.579 154.536 117.995 142.123 117.995 142.123L75.5719 142.194Z" fill="#B42F97"/>
</g>
<path d="M72.2533 138.371C72.2533 138.371 80.7011 150.898 95.678 151.012C110.655 151.125 121.621 138.729 121.621 138.729C121.621 138.729 105.947 142.481 95.2023 142.4C84.4575 142.319 72.2533 138.371 72.2533 138.371Z" fill="#EA8389"/>
<path d="M96.9589 137.237C87.7112 133.441 81.6632 143.202 72.5993 137.633C72.5993 137.633 70.9237 142.232 96.9211 142.421L96.9589 137.237Z" fill="#CD6B69"/>
<path d="M96.9589 137.237C107.531 132.308 111.368 142.877 120.502 137.411C120.502 137.411 122.913 142.611 96.9157 142.421L96.9589 137.237Z" fill="#CD6B69"/>
<path d="M71.3507 137.714C71.3507 137.714 72.356 137.107 72.9722 137.172C73.5883 137.237 77.9825 142.259 96.9373 142.4C115.892 142.541 119.757 137.205 120.524 137.389C121.292 137.573 122.573 138.067 122.573 138.067C122.573 138.067 117.708 142.828 96.9373 142.676C76.1665 142.525 71.3507 137.714 71.3507 137.714Z" fill="#862254"/>
<g style="mix-blend-mode:soft-light">
<path d="M103.942 146.012L105.315 148.549C105.315 148.549 112.882 146.125 118.016 142.123L103.942 146.012Z" fill="#FFCCB8"/>
</g>
<g style="mix-blend-mode:multiply" opacity="0.6">
<path d="M52.9958 167.096C52.9958 167.096 55.12 174.146 57.6819 176.754C57.2819 173.5 57.2873 172.736 57.2873 172.736L52.9958 167.096Z" fill="#B42F97"/>
</g>
<path d="M85.2682 187.112L98.9317 192.817C98.9317 192.817 97.1859 190.61 96.9535 189.411C96.7211 188.213 85.2682 187.112 85.2682 187.112Z" fill="url(#paint35_linear_1112_3256)"/>
<g style="mix-blend-mode:multiply" opacity="0.6">
<path d="M85.2682 187.112L98.9317 192.817C98.9317 192.817 97.1859 190.61 96.9535 189.411C96.7211 188.213 85.2682 187.112 85.2682 187.112Z" fill="#B42F97"/>
</g>
<g style="mix-blend-mode:soft-light">
<path d="M59.0925 174.33C59.0925 174.33 63.2921 178.094 64.6973 178.734C61.6868 173.007 61.8598 164.33 62.303 161.874C62.7462 159.417 63.3569 152.655 63.3569 152.655C63.3569 152.655 58.6223 160.295 58.0278 164.433C57.6948 167.406 57.7184 170.408 58.098 173.376L59.0925 174.33Z" fill="#C4D9E0"/>
</g>
<g style="mix-blend-mode:soft-light">
<path d="M107.898 182.302C111.495 178.898 114.778 175.175 117.708 171.179C121.159 166.413 123.622 161.001 124.951 155.263C126.572 148.403 126.734 145.843 126.734 145.843C126.734 145.843 126.864 156.505 125.653 161.613C124.464 166.521 120.275 177.009 115.892 180.051C111.509 183.094 107.898 182.302 107.898 182.302Z" fill="#C4D9E0"/>
</g>
<g style="mix-blend-mode:soft-light">
<path d="M140.814 140.442C141.679 141.626 142.741 142.652 143.954 143.474C145.862 144.726 148.424 144.054 148.424 144.054L148.375 144.217C148.093 145.248 147.912 146.305 147.835 147.373C147.767 148.337 147.615 149.293 147.381 150.231C147.381 150.231 147.332 148.457 146.354 147.644C145.376 146.83 142.03 147.807 142.03 147.807C142.03 147.807 142.387 142.812 140.814 140.442Z" fill="#C4D9E0"/>
</g>
<g style="mix-blend-mode:soft-light">
<path d="M52.4391 155.426C52.4391 155.426 50.1853 147.834 51.2393 139.943C51.2393 139.943 49.3638 144.406 48.7368 144.092C48.1099 143.777 46.0344 141.565 46.0344 141.565C46.0344 141.565 45.5912 153.012 52.4391 155.426Z" fill="#C4D9E0"/>
</g>
<defs>
<linearGradient id="paint0_linear_1112_3256" x1="97.8615" y1="230.864" x2="97.8615" y2="159.162" gradientUnits="userSpaceOnUse">
<stop stop-color="#CC9279"/>
<stop offset="0.06" stop-color="#CE937A"/>
<stop offset="0.54" stop-color="#DB9C7D"/>
<stop offset="1" stop-color="#DF9F7E"/>
</linearGradient>
<linearGradient id="paint1_linear_1112_3256" x1="97.8615" y1="230.864" x2="97.8615" y2="203.771" gradientUnits="userSpaceOnUse">
<stop offset="0.01" stop-color="#F4CE84"/>
<stop offset="1" stop-color="#F2DA83"/>
</linearGradient>
<linearGradient id="paint2_linear_1112_3256" x1="118.513" y1="214.72" x2="118.513" y2="165.29" gradientUnits="userSpaceOnUse">
<stop stop-color="#FFEADB"/>
<stop offset="0.99" stop-color="#D177F4"/>
</linearGradient>
<linearGradient id="paint3_linear_1112_3256" x1="134.944" y1="225.517" x2="134.944" y2="208.804" gradientUnits="userSpaceOnUse">
<stop stop-color="#FFEADB"/>
<stop offset="0.99" stop-color="#D177F4"/>
</linearGradient>
<linearGradient id="paint4_linear_1112_3256" x1="54.4173" y1="225.517" x2="54.4173" y2="207.692" gradientUnits="userSpaceOnUse">
<stop stop-color="#FFEADB"/>
<stop offset="0.99" stop-color="#D177F4"/>
</linearGradient>
<linearGradient id="paint5_linear_1112_3256" x1="148.932" y1="129.19" x2="172.476" y2="83.3427" gradientUnits="userSpaceOnUse">
<stop stop-color="#EBBF97"/>
<stop offset="0.85" stop-color="#DB8879"/>
</linearGradient>
<linearGradient id="paint6_linear_1112_3256" x1="164.017" y1="118.213" x2="164.017" y2="91.4729" gradientUnits="userSpaceOnUse">
<stop stop-color="#FFEADB"/>
<stop offset="0.99" stop-color="#B42F97" stop-opacity="0.6"/>
</linearGradient>
<linearGradient id="paint7_linear_1112_3256" x1="158.709" y1="117.535" x2="158.709" y2="96.8035" gradientUnits="userSpaceOnUse">
<stop stop-color="#FFEADB"/>
<stop offset="0.99" stop-color="#B42F97" stop-opacity="0.6"/>
</linearGradient>
<linearGradient id="paint8_linear_1112_3256" x1="42.3051" y1="130.025" x2="24.277" y2="81.7239" gradientUnits="userSpaceOnUse">
<stop stop-color="#EBBF97"/>
<stop offset="0.85" stop-color="#DB8879"/>
</linearGradient>
<linearGradient id="paint9_linear_1112_3256" x1="30.8846" y1="118.213" x2="30.8846" y2="91.4729" gradientUnits="userSpaceOnUse">
<stop stop-color="#FFEADB"/>
<stop offset="0.99" stop-color="#B42F97" stop-opacity="0.6"/>
</linearGradient>
<linearGradient id="paint10_linear_1112_3256" x1="36.1867" y1="117.535" x2="36.1867" y2="96.8035" gradientUnits="userSpaceOnUse">
<stop stop-color="#FFEADB"/>
<stop offset="0.99" stop-color="#B42F97" stop-opacity="0.6"/>
</linearGradient>
<linearGradient id="paint11_linear_1112_3256" x1="97.24" y1="179.807" x2="97.24" y2="15.1665" gradientUnits="userSpaceOnUse">
<stop offset="0.01" stop-color="#D57E61"/>
<stop offset="0.15" stop-color="#DE9A77"/>
<stop offset="0.31" stop-color="#EBBF95"/>
<stop offset="0.48" stop-color="#E8B290"/>
<stop offset="0.61" stop-color="#E5A68B"/>
<stop offset="1" stop-color="#CE8D65"/>
</linearGradient>
<linearGradient id="paint12_linear_1112_3256" x1="130.793" y1="161.993" x2="130.793" y2="36.3865" gradientUnits="userSpaceOnUse">
<stop stop-color="#FFEADB"/>
<stop offset="0.99" stop-color="#D17EAE"/>
</linearGradient>
<linearGradient id="paint13_linear_1112_3256" x1="63.8326" y1="163.495" x2="63.8326" y2="36.0828" gradientUnits="userSpaceOnUse">
<stop stop-color="#FFEADB"/>
<stop offset="0.99" stop-color="#D17EAE"/>
</linearGradient>
<linearGradient id="paint14_linear_1112_3256" x1="137.934" y1="80.691" x2="135.322" y2="98.3902" gradientUnits="userSpaceOnUse">
<stop stop-color="#36063B"/>
<stop offset="1" stop-color="#4D0E2E"/>
</linearGradient>
<linearGradient id="paint15_linear_1112_3256" x1="75.1617" y1="83.9231" x2="77.2532" y2="101.642" gradientUnits="userSpaceOnUse">
<stop stop-color="#36063B"/>
<stop offset="1" stop-color="#4D0E2E"/>
</linearGradient>
<linearGradient id="paint16_linear_1112_3256" x1="127.538" y1="98.8749" x2="129.566" y2="86.7066" gradientUnits="userSpaceOnUse">
<stop stop-color="#EEE2FF"/>
<stop offset="1" stop-color="#BDC9FB"/>
</linearGradient>
<linearGradient id="paint17_linear_1112_3256" x1="124.588" y1="98.7011" x2="129.041" y2="84.6453" gradientUnits="userSpaceOnUse">
<stop stop-color="#4D0E2E"/>
<stop offset="1" stop-color="#36063B"/>
</linearGradient>
<linearGradient id="paint18_linear_1112_3256" x1="125.449" y1="95.9655" x2="128.17" y2="87.3775" gradientUnits="userSpaceOnUse">
<stop stop-color="#CAA7DB"/>
<stop offset="0.99" stop-color="#8460B8"/>
</linearGradient>
<linearGradient id="paint19_linear_1112_3256" x1="67.1623" y1="98.4503" x2="64.9346" y2="86.3624" gradientUnits="userSpaceOnUse">
<stop stop-color="#EEE2FF"/>
<stop offset="1" stop-color="#BDC9FB"/>
</linearGradient>
<linearGradient id="paint20_linear_1112_3256" x1="67.6626" y1="98.363" x2="63.0607" y2="84.3077" gradientUnits="userSpaceOnUse">
<stop stop-color="#4D0E2E"/>
<stop offset="1" stop-color="#36063B"/>
</linearGradient>
<linearGradient id="paint21_linear_1112_3256" x1="66.7729" y1="95.6274" x2="63.9629" y2="87.0449" gradientUnits="userSpaceOnUse">
<stop stop-color="#CAA7DB"/>
<stop offset="0.99" stop-color="#8460B8"/>
</linearGradient>
<linearGradient id="paint22_linear_1112_3256" x1="97.8615" y1="128.202" x2="97.8615" y2="101.738" gradientUnits="userSpaceOnUse">
<stop stop-color="#F97C99"/>
<stop offset="0.15" stop-color="#FB8297"/>
<stop offset="0.57" stop-color="#FE8E94"/>
<stop offset="1" stop-color="#FF9293"/>
</linearGradient>
<linearGradient id="paint23_linear_1112_3256" x1="97.8615" y1="127.644" x2="97.8615" y2="101.185" gradientUnits="userSpaceOnUse">
<stop offset="0.04" stop-color="#EF7966"/>
<stop offset="0.16" stop-color="#EE907E"/>
<stop offset="0.31" stop-color="#ECA998"/>
<stop offset="0.45" stop-color="#EBB8A7"/>
<stop offset="0.56" stop-color="#EBBDAD"/>
<stop offset="1" stop-color="#E5B487"/>
</linearGradient>
<linearGradient id="paint24_linear_1112_3256" x1="111.579" y1="123.051" x2="111.579" y2="111.256" gradientUnits="userSpaceOnUse">
<stop stop-color="#FFEADB"/>
<stop offset="0.99" stop-color="#B42F97" stop-opacity="0.6"/>
</linearGradient>
<linearGradient id="paint25_linear_1112_3256" x1="84.0413" y1="123.051" x2="84.0413" y2="111.256" gradientUnits="userSpaceOnUse">
<stop stop-color="#FFEADB"/>
<stop offset="0.99" stop-color="#B42F97" stop-opacity="0.6"/>
</linearGradient>
<linearGradient id="paint26_linear_1112_3256" x1="99.2073" y1="93.566" x2="99.2073" y2="0.83353" gradientUnits="userSpaceOnUse">
<stop stop-color="#36062C"/>
<stop offset="1" stop-color="#441B3E"/>
</linearGradient>
<linearGradient id="paint27_linear_1112_3256" x1="125.005" y1="7.95922" x2="125.221" y2="7.95922" gradientUnits="userSpaceOnUse">
<stop stop-color="#FFEADB"/>
<stop offset="0.99" stop-color="#D177F4"/>
</linearGradient>
<linearGradient id="paint28_linear_1112_3256" x1="68.6114" y1="133.72" x2="73.2121" y2="120.079" gradientUnits="userSpaceOnUse">
<stop stop-color="#FFEADB"/>
<stop offset="0.99" stop-color="#B42F97" stop-opacity="0.6"/>
</linearGradient>
<linearGradient id="paint29_linear_1112_3256" x1="125.977" y1="133.02" x2="120.122" y2="119.255" gradientUnits="userSpaceOnUse">
<stop stop-color="#FFEADB"/>
<stop offset="0.99" stop-color="#B42F97" stop-opacity="0.6"/>
</linearGradient>
<linearGradient id="paint30_linear_1112_3256" x1="53.2415" y1="171.426" x2="57.5172" y2="170.901" gradientUnits="userSpaceOnUse">
<stop stop-color="#36062C"/>
<stop offset="1" stop-color="#441B3E"/>
</linearGradient>
<linearGradient id="paint31_linear_1112_3256" x1="39.8891" y1="140.637" x2="154.548" y2="140.637" gradientUnits="userSpaceOnUse">
<stop stop-color="#36062C"/>
<stop offset="1" stop-color="#441B3E"/>
</linearGradient>
<linearGradient id="paint32_linear_1112_3256" x1="46.2614" y1="159.515" x2="49.0449" y2="159.515" gradientUnits="userSpaceOnUse">
<stop stop-color="#36062C"/>
<stop offset="1" stop-color="#441B3E"/>
</linearGradient>
<linearGradient id="paint33_linear_1112_3256" x1="148.727" y1="157.396" x2="145.943" y2="157.368" gradientUnits="userSpaceOnUse">
<stop stop-color="#36062C"/>
<stop offset="1" stop-color="#441B3E"/>
</linearGradient>
<linearGradient id="paint34_linear_1112_3256" x1="143.327" y1="164.292" x2="145.905" y2="164.292" gradientUnits="userSpaceOnUse">
<stop stop-color="#36062C"/>
<stop offset="1" stop-color="#441B3E"/>
</linearGradient>
<linearGradient id="paint35_linear_1112_3256" x1="85.2682" y1="189.965" x2="98.9317" y2="189.965" gradientUnits="userSpaceOnUse">
<stop stop-color="#36062C"/>
<stop offset="1" stop-color="#441B3E"/>
</linearGradient>
</defs>
</svg>
