<svg width="195" height="230" viewBox="0 0 195 230" fill="none" xmlns="http://www.w3.org/2000/svg">
<g clip-path="url(#clip0_1112_3350)">
<path d="M121.479 21.2883H137.368L154.546 55.6442C143.813 51.2837 160.126 69.023 149.393 64.6626L121.479 21.2883Z" fill="#4C4040"/>
<path d="M69.0859 29.0183H53.1963L36.0184 63.3741C46.7518 59.0137 30.4383 76.753 41.1718 72.3925L69.0859 29.0183Z" fill="#614B49"/>
<path d="M42.272 97.1914C42.272 97.1914 35.3327 85.8079 27.2472 86.3545C21.766 86.7226 17.8818 90.426 17.9708 97.1356C18.0933 106.11 26.023 116.305 27.9873 121.542C29.9517 126.779 35.0768 133.589 38.4824 134.247C41.888 134.906 46.3119 128.458 46.3119 128.458C46.3119 128.458 44.0972 105.329 42.272 97.1914Z" fill="url(#paint0_linear_1112_3350)"/>
<path style="mix-blend-mode:multiply" opacity="0.6" d="M42.272 108.843C42.272 108.843 28.9946 92.406 24.1755 92.406C19.3565 92.406 19.3509 101.754 21.2985 107.091C22.6452 110.783 25.2773 116.121 25.2773 116.121C25.2773 116.121 23.1905 110.387 22.9457 106.082C22.5562 99.4837 24.0197 94.6872 25.6891 94.6983C28.7386 94.6983 31.1481 98.9037 31.5321 100.393C31.916 101.882 29.117 108.391 29.8626 112.931C30.6083 117.471 33.3183 119.2 34.2254 118.703C35.1324 118.207 33.7301 113.093 34.5537 111.28C35.3773 109.467 37.7645 106.818 39.1613 107.404C40.558 107.989 42.272 108.843 42.272 108.843Z" fill="url(#paint1_linear_1112_3350)"/>
<path style="mix-blend-mode:multiply" opacity="0.6" d="M42.272 108.843C42.272 108.843 38.9999 106.879 38.0038 107.504C37.0077 108.129 34.4813 110.41 34.3756 111.843C34.2699 113.277 35.1769 117.354 34.3756 118.062C33.5743 118.77 30.6862 114.158 30.5582 110.114C30.4302 106.071 32.7006 101.369 32.7006 100.822C32.7006 100.276 32.172 97.6655 32.172 97.6655C32.172 97.6655 39.8847 104.983 42.272 108.843Z" fill="url(#paint2_linear_1112_3350)"/>
<path d="M54.826 160.266C54.826 160.266 53.368 200.746 52.3831 204.595C51.3981 208.443 0.80368 230 0.80368 230H194.055C194.055 230 139.076 210.535 137.596 206.078C136.115 201.622 136.054 163.289 136.054 163.289L54.826 160.266Z" fill="url(#paint3_linear_1112_3350)"/>
<path d="M52.5556 203.463C52.5556 203.463 48.5211 202.994 48.1038 203.463C47.6864 203.931 48.1038 207.127 48.1038 207.127L0.80368 229.994H194.055L143.027 208.243C143.027 208.243 141.268 203.402 137.596 206.095L138.853 207.914C138.853 207.914 121.736 226.28 93.2225 226.28C64.7089 226.28 52.5556 203.463 52.5556 203.463Z" fill="url(#paint4_linear_1112_3350)"/>
<g style="mix-blend-mode:multiply" opacity="0.6">
<path d="M54.1582 177.679C54.1582 177.679 63.685 180.361 65.9888 184.489C68.2926 188.616 83.1059 219.626 94.7973 220.128C106.489 220.63 114.057 204.127 119.978 200.334C125.899 196.541 136.644 196.257 136.644 196.257L136.026 162.296L54.8371 160.969L54.1582 177.679Z" fill="#D177B8"/>
</g>
<path style="mix-blend-mode:multiply" opacity="0.6" d="M110.056 183.15L107.045 214.065C107.045 214.065 114.279 205.917 118.002 199.977C121.725 194.037 128.62 170.751 128.62 170.751L110.056 183.15Z" fill="url(#paint5_linear_1112_3350)"/>
<path style="mix-blend-mode:multiply" opacity="0.6" d="M143.027 208.226C143.027 208.226 130.612 219.442 117.835 224.724C117.835 224.724 143.205 216.637 150.305 211.338L143.027 208.226Z" fill="url(#paint6_linear_1112_3350)"/>
<path style="mix-blend-mode:multiply" opacity="0.6" d="M48.1038 207.127C54.7213 213.561 61.849 219.446 69.4166 224.724C69.4166 224.724 53.3513 220.424 39.5898 211.243L48.1038 207.127Z" fill="url(#paint7_linear_1112_3350)"/>
<g style="mix-blend-mode:multiply" opacity="0.6">
<path d="M60.0234 212.866C60.0234 212.866 72.9669 224.724 95.3983 224.724C117.83 224.724 131.419 214.065 131.419 214.065C131.419 214.065 115.993 226.263 93.2058 226.263C70.4183 226.263 60.0234 212.866 60.0234 212.866Z" fill="#D177B8"/>
</g>
<path d="M151.697 97.1914C151.697 97.1914 158.636 85.8079 166.721 86.3545C172.197 86.7226 176.092 90.4372 175.975 97.13C175.853 106.104 167.923 116.299 165.959 121.537C163.995 126.774 158.864 133.584 155.464 134.242C152.064 134.9 147.634 128.453 147.634 128.453C147.634 128.453 149.866 105.329 151.697 97.1914Z" fill="url(#paint8_linear_1112_3350)"/>
<path style="mix-blend-mode:multiply" opacity="0.6" d="M151.697 108.843C151.697 108.843 164.963 92.406 169.804 92.406C174.645 92.406 174.629 101.754 172.681 107.091C171.334 110.783 168.702 116.121 168.702 116.121C168.702 116.121 170.789 110.387 171.034 106.082C171.418 99.4837 169.96 94.6872 168.291 94.6983C165.236 94.6983 162.832 98.9037 162.448 100.393C162.064 101.882 164.863 108.391 164.117 112.931C163.371 117.471 160.661 119.2 159.754 118.703C158.847 118.207 160.25 113.093 159.426 111.28C158.602 109.467 156.215 106.818 154.818 107.404C153.422 107.989 151.697 108.843 151.697 108.843Z" fill="url(#paint9_linear_1112_3350)"/>
<path style="mix-blend-mode:multiply" opacity="0.6" d="M151.697 108.843C151.697 108.843 154.969 106.879 155.965 107.504C156.961 108.129 159.487 110.41 159.593 111.843C159.699 113.277 158.792 117.354 159.593 118.062C160.394 118.77 163.282 114.158 163.41 110.114C163.538 106.071 161.268 101.369 161.268 100.822C161.268 100.276 161.797 97.6655 161.797 97.6655C161.797 97.6655 154.084 104.983 151.697 108.843Z" fill="url(#paint10_linear_1112_3350)"/>
<path d="M153.333 97.2498C157.846 112.404 154.056 118.36 152.776 128.344C151.496 138.327 148.931 146.247 147.362 150.006C146.468 151.928 145.271 153.693 143.817 155.232C139.332 160.291 132.203 165.612 127.373 170.598C125.667 172.347 123.824 173.959 121.864 175.417H121.836C119.27 177.365 116.485 179.007 113.539 180.308C108.937 182.204 97.0009 182.204 97.0009 182.204C97.0009 182.204 85.0646 182.204 80.457 180.308C75.2743 177.973 70.5816 174.672 66.6287 170.581C60.9193 164.686 53.0229 158.266 49.0442 152.432C48.4543 151.579 47.3748 148.5 47.0186 147.669C45.6052 144.323 44.0971 137.775 42.7227 129.091C42.3943 127.022 42.0048 124.958 41.5819 122.906C38.8997 109.894 40.5413 104.969 42.6559 95.6045C43.1678 82.5088 43.3682 86.7644 42.3331 79.6421C42.8895 42.3313 55.4397 27.5154 72.5214 19.5706C80.4626 17.1763 88.6693 12.9926 96.962 13.0202C110.206 13.0202 127.491 24.2945 127.491 24.2945C127.491 24.2945 145.098 35.4601 149.822 53.9264C153.428 73.0066 150.522 87.7069 153.333 97.2498Z" fill="url(#paint11_linear_1112_3350)"/>
<path style="mix-blend-mode:multiply" opacity="0.6" d="M145.915 143.422C143.689 151.788 138.375 162.006 134.585 166.881C131.419 170.947 122.782 180.043 122.031 180.741C123.976 179.285 125.801 177.675 127.49 175.927C133.11 169.089 145.52 158.587 145.943 155.932C147.929 152.229 151.313 142.898 152.62 132.558C153.867 122.485 156.85 119.021 153.11 103.84C148.781 91.1288 159.181 72.3833 152.142 49.6108C150.767 43.9107 143.795 31.9138 138.72 28.2048C148.736 42.6112 144.106 54.8647 143.823 59.3768C143.82 59.4232 143.82 59.4698 143.823 59.5162C143.522 66.0195 136.744 71.0949 130.245 71.028L122.17 71.6415L110.985 77.6093C110.985 77.6093 106.917 85.9363 107.407 95.072C107.702 100.649 109.6 104.225 117.891 107.643C122.154 109.4 132.843 106.645 138.48 106.099C140.629 105.852 142.796 106.372 144.602 107.565C145.804 108.397 146.799 109.495 147.51 110.775C148.22 112.055 148.626 113.482 148.697 114.944C149.014 119.997 148.363 134.248 145.915 143.422Z" fill="url(#paint12_linear_1112_3350)"/>
<path style="mix-blend-mode:multiply" opacity="0.6" d="M48.1928 143.539C50.4187 151.905 55.733 162.123 59.5281 166.992C62.6945 171.058 71.3309 180.16 72.0821 180.858C70.1373 179.402 68.3118 177.792 66.6232 176.044C61.0028 169.206 48.8161 158.671 48.165 156.049C46.1784 152.346 43.4239 142.418 42.0438 132.552C40.7083 122.769 37.592 119.01 41.3148 103.828C43.9435 77.6481 35.8925 64.6884 43.9302 47.0283C44.8874 44.7973 51.3202 30.7702 56.4063 27.0613C46.3898 41.4677 49.968 54.9816 50.2518 59.4937C50.2518 59.5384 50.2518 59.583 50.2518 59.6276C50.5523 66.1364 57.3301 71.2118 63.8241 71.1393L70.6019 71.0724L83.1114 77.7652C86.1922 82.1322 87.6867 87.4254 87.3462 92.7628C87.0512 98.3402 83.9628 104.671 75.4266 107.409C68.6153 109.595 61.2532 106.801 55.6384 106.255C53.4895 106.008 51.3226 106.528 49.5172 107.721C48.3146 108.553 47.3195 109.651 46.6091 110.931C45.8988 112.211 45.4924 113.638 45.4216 115.1C45.0988 120.109 45.7499 134.381 48.1928 143.539Z" fill="url(#paint13_linear_1112_3350)"/>
<g style="mix-blend-mode:multiply" opacity="0.6">
<path d="M143.756 155.776C138.352 160.673 132.137 167.522 127.306 172.508C125.601 174.259 123.759 175.871 121.797 177.327C119.23 179.274 116.446 180.916 113.5 182.219C108.893 184.115 96.9565 184.115 96.9565 184.115C96.9565 184.115 85.0201 184.115 80.4181 182.219C75.2343 179.883 70.5399 176.582 66.5842 172.492C60.8804 166.596 52.3441 159.251 48.3653 153.417C52.3774 157.954 56.7006 162.205 61.3033 166.139C68.1479 171.834 79.5055 182.687 96.9565 182.687C114.407 182.687 127.484 169.714 130.206 167.729C132.927 165.743 143.4 156.055 143.756 155.776Z" fill="#D177B8"/>
</g>
<path d="M109.611 129.033C106.383 129.59 105.832 128.202 103.067 128.202C100.301 128.202 99.3771 130.048 96.9453 130.048C94.5135 130.048 93.5787 128.202 90.8241 128.202C88.0696 128.202 87.4853 129.585 84.28 129.033C81.3808 128.531 80.0453 122.217 81.3474 118.257C81.3495 118.248 81.3495 118.238 81.3474 118.229C81.4918 117.808 81.6783 117.403 81.9039 117.019C84.024 113.321 92.6883 109.445 96.9731 109.445C101.258 109.445 109.872 113.304 112.009 117.019C112.35 117.64 112.601 118.307 112.755 118.999C113.678 122.959 112.332 128.564 109.611 129.033Z" fill="url(#paint14_linear_1112_3350)"/>
<g style="mix-blend-mode:multiply" opacity="0.6">
<path d="M109.611 129.033C106.383 129.59 105.832 128.202 103.067 128.202C100.301 128.202 99.3771 130.048 96.9453 130.048C94.5135 130.048 93.5787 128.202 90.8241 128.202C88.0696 128.202 87.4853 129.585 84.28 129.033C81.3808 128.531 80.0453 122.217 81.3474 118.257C81.2472 118.631 80.4292 122.256 82.1487 125.14C82.456 125.642 82.9305 126.019 83.4885 126.205C84.0465 126.391 84.6521 126.373 85.1982 126.155C87.7357 125.167 92.9888 123.5 98.6871 123.996C102.016 124.238 105.3 124.907 108.459 125.987C109.07 126.211 109.744 126.19 110.34 125.928C110.936 125.666 111.408 125.184 111.658 124.582C112.389 122.813 112.768 120.919 112.771 119.004C113.678 122.959 112.332 128.564 109.611 129.033Z" fill="#D077B7"/>
</g>
<path d="M108.498 129.155C110.078 128.983 105.804 124.348 101.848 128.313C101.848 128.313 107.301 129.289 108.498 129.155Z" fill="url(#paint15_linear_1112_3350)"/>
<path d="M85.3039 129.139C83.7235 128.955 88.0251 124.348 91.9816 128.341C91.9593 128.363 86.5003 129.278 85.3039 129.139Z" fill="url(#paint16_linear_1112_3350)"/>
<path style="mix-blend-mode:multiply" opacity="0.6" d="M82.4437 116.238C84.6306 115.123 86.4447 117.872 87.6133 118.871C88.7819 119.869 86.428 115.491 83.7792 114.593L82.4437 116.238Z" fill="url(#paint17_linear_1112_3350)"/>
<path style="mix-blend-mode:multiply" opacity="0.6" d="M111.308 116.216C109.126 115.044 107.307 117.889 106.138 118.943C104.97 119.997 107.385 115.446 110.034 114.515L111.308 116.216Z" fill="url(#paint18_linear_1112_3350)"/>
<path opacity="0.7" d="M100.023 119.746C99.7889 120.248 99.3215 121.916 100.64 122.1C101.165 122.146 101.692 122.063 102.177 121.858C102.662 121.653 103.09 121.332 103.423 120.923C103.519 120.549 103.464 120.152 103.269 119.818C103.074 119.485 102.755 119.242 102.382 119.144C101.403 118.96 100.412 118.882 100.023 119.746Z" fill="#FFCDBD"/>
<g style="mix-blend-mode:multiply" opacity="0.6">
<path d="M76.1388 143.74C76.1388 143.74 84.8866 158.275 96.7728 158.275C107.524 158.275 116.65 144.036 116.65 144.036C116.65 144.036 108.242 152.039 100.323 152.798C92.4045 153.556 76.1388 143.74 76.1388 143.74Z" fill="#D177B8"/>
</g>
<path d="M72.1267 138.007C72.1267 138.007 80.6017 151.504 86.5003 153.35C92.3989 155.196 103.25 154.214 106.706 153.35C110.824 152.329 121.207 138.743 121.207 138.743C121.207 138.743 109.26 149 96.3721 149C83.4843 149 72.1267 138.007 72.1267 138.007Z" fill="#E28684"/>
<path d="M72.1267 138.007C72.1267 138.007 79.2328 141.041 95.3983 141.041C111.564 141.041 122.142 138.007 122.142 138.007C122.142 138.007 109.872 149 95.582 149.479C83.7903 149.278 72.1267 138.007 72.1267 138.007Z" fill="#C4654C"/>
<path d="M76.7176 140.706C76.7176 140.706 85.8493 148.67 95.582 148.977C107.641 149.356 117.173 140.299 117.173 140.299C117.173 140.299 104.563 143.171 95.2815 143.171C85.9995 143.171 76.7176 140.706 76.7176 140.706Z" fill="white"/>
<path d="M112.905 141.169L112.655 143.835L118.397 139.814L112.905 141.169Z" fill="#4E1B3D"/>
<path d="M80.6462 141.587L81.1471 144.036L75.0259 139.97L80.6462 141.587Z" fill="#4E1B3D"/>
<g style="mix-blend-mode:soft-light">
<path d="M101.047 150.545L102.516 153.936C102.516 153.936 105.643 153.752 107.524 153.015C109.405 152.279 113.89 147.561 115.387 145.503L113.79 145.062C109.913 147.656 105.593 149.515 101.047 150.545Z" fill="#FFCCB8"/>
</g>
<g style="mix-blend-mode:multiply" opacity="0.6">
<path d="M80.7297 142.006C85.5899 143.207 90.5761 143.821 95.5819 143.835C103.757 143.835 112.872 141.515 112.872 141.515L112.905 141.169C112.905 141.169 103.028 143.171 95.2814 143.171C90.362 143.144 85.4581 142.613 80.6462 141.587L80.7297 142.006Z" fill="#D177B8"/>
</g>
<path style="mix-blend-mode:multiply" opacity="0.6" d="M127 137.025C118.731 123.148 112.744 118.832 112.744 118.832V119.947L127 137.025Z" fill="url(#paint19_linear_1112_3350)"/>
<path style="mix-blend-mode:multiply" opacity="0.6" d="M66.9682 136.45C75.2318 122.58 81.225 118.257 81.225 118.257V119.373L66.9682 136.45Z" fill="url(#paint20_linear_1112_3350)"/>
<path d="M85.2093 7.98665C91.5127 5.3771 98.4149 4.57197 105.148 5.66089C116.578 7.42892 128.892 15.4492 128.892 15.4492L95.1479 29.0859L75.2986 14.1943L85.2093 7.98665Z" fill="#3A2A1B"/>
<path d="M97.474 0.674805C97.474 0.674805 93.1057 1.56718 78.7654 7.55171C73.145 9.88864 70.1456 10.6806 61.4869 16.3138L52.678 22.2927C47.9146 25.2376 40.7472 34.2506 38.1318 39.2145C35.9059 43.47 33.8859 49.6219 33.6244 51.5963C32.8898 57.1737 33.9026 62.8012 34.4647 68.373C35.4329 77.9382 35.7501 87.9218 35.9115 89.9854C35.9115 90.2085 42.6838 98.3515 42.6838 98.3515C42.6838 98.3515 42.578 86.639 42.578 72.8628C42.7338 70.0072 42.7283 64.4187 42.5391 60.0851C43.5407 52.9125 43.7021 47.5025 46.5457 42.7952C55.6551 27.6749 73.6236 22.3931 73.6236 22.3931C73.6236 22.3931 72.455 36.9891 99.928 34.5518C114.107 33.2969 111.647 26.5762 115.303 22.6776C119.366 18.3384 130.751 24.4735 135.03 28.0876C143.984 35.6338 146.805 44.5409 148.269 47.9264C149.938 51.7525 150.383 54.6639 150.845 58.2668C151.33 61.215 151.499 64.2065 151.352 67.1906C151.279 70.604 150.333 77.7877 150.239 80.3588C149.766 86.7077 150.42 93.0901 152.17 99.2104L157.434 90.3647L159.448 67.6089C160.277 62.3829 159.938 55.7961 159.938 55.7961C159.087 46.7049 154.267 36.9612 148.252 29.4262C146.198 26.8846 143.922 24.531 141.452 22.3931C134.095 16.1911 129.243 14.1944 129.243 14.1944C126.021 12.5212 124.825 12.1029 118.008 8.90144C118.008 8.90144 111.386 4.40607 97.474 0.674805Z" fill="url(#paint21_linear_1112_3350)"/>
<g style="mix-blend-mode:soft-light" opacity="0.5">
<path d="M159.003 71.9704C158.363 78.8083 157.951 85.5402 157.428 90.3758C155.202 94.28 152.164 99.2215 152.164 99.2215C152.164 99.2215 148.391 87.4532 150.673 75.5678C150.94 69.7004 151.741 61.7415 150.639 56.8446C150.639 56.8446 151.68 56.7275 154.974 59.2652C160.606 65.021 159.131 70.6096 159.131 70.6096C159.131 70.6096 157.172 66.2927 154.023 63.6657C154.484 65.9302 155.289 68.1104 156.41 70.1299C156.989 71.2175 158.185 71.5298 159.003 71.9704Z" fill="#FFD9BB"/>
</g>
<g style="mix-blend-mode:soft-light" opacity="0.5">
<path d="M34.793 71.8869C35.4329 78.7247 35.6555 84.91 35.9059 89.9855C38.0171 92.8899 40.2776 95.6824 42.6782 98.3515C42.6782 98.3515 42.962 90.599 42.5335 75.6683C42.6114 68.5962 42.3332 61.9982 42.9842 56.8558C42.9842 56.8558 41.9436 56.7387 38.6493 59.2764C33.4407 65.3056 34.6539 70.3977 34.6539 70.3977C34.6539 70.3977 36.4624 66.3095 39.6009 63.7048C39.14 65.9694 38.3349 68.1495 37.2136 70.169C36.6405 71.2176 35.611 71.4741 34.793 71.8869Z" fill="#FFD9BB"/>
</g>
<path opacity="0.49" d="M55.8944 20.3238L63.8853 15.003C78.5595 13.5138 76.3336 16.8547 76.3336 16.8547C76.3336 16.8547 73.7961 20.3294 73.8629 22.4599C69.2108 23.8877 69.873 23.9714 66.8847 25.1482C66.8847 25.1482 48.1316 33.1183 44.342 48.6402C43.4072 53.5036 43.4795 53.5538 42.5558 60.0682C42.7283 64.4018 42.6337 67.5084 42.5891 73.1806C43.4076 80.689 43.754 98.2078 42.923 98.3848C42.923 98.3848 36.1619 90.214 36.1508 90.0187C35.8614 86.7783 35.7612 73.4651 33.6912 59.3766L33.7301 55.3107C33.5187 53.2694 34.1419 50.2911 34.5147 48.9469C36.1842 43.3249 40.9754 30.2013 55.8944 20.3238Z" fill="url(#paint22_linear_1112_3350)"/>
<path opacity="0.49" d="M117.423 11.6064C117.423 11.6064 110.162 7.47915 104.307 5.198L125.064 17.6579L117.423 11.6064Z" fill="#3A2A1B"/>
<g style="mix-blend-mode:soft-light" opacity="0.5">
<path d="M143.845 36.5652C143.845 36.5652 147.339 40.9155 150.94 43.1409C154.54 45.3663 155.603 43.8548 155.603 43.8548C155.603 43.8548 157.829 48.5175 157.373 52.087C157.373 52.087 155.063 46.9224 152.776 45.924C150.489 44.9257 149.348 45.924 149.348 45.924C149.348 45.924 145.086 38.4113 143.845 36.5652Z" fill="#FFD9BB"/>
</g>
<g style="mix-blend-mode:soft-light" opacity="0.5">
<path d="M48.1038 39.5771C45.9029 41.4363 43.5729 43.1362 41.1312 44.6637C37.3361 47.0006 36.2176 45.4222 36.2176 45.4222C36.2176 45.4222 33.8859 50.3248 34.3422 54.0783C34.3422 54.0783 36.7796 48.6404 39.1891 47.5918C41.5986 46.5433 43.6409 48.7854 43.6409 48.7854C43.6409 48.7854 44.7037 43.1355 48.1038 39.5771Z" fill="#FFD9BB"/>
</g>
<path opacity="0.49" d="M96.7227 32.5495C96.7227 32.5495 93.868 20.9095 96.962 15.7449C100.056 10.5802 106.311 15.2429 106.311 15.2429L107.079 15.7504C107.079 15.7504 100.084 9.16355 93.9738 13.2964C87.8637 17.4292 93.9738 31.7408 93.9738 31.7408L96.7227 32.5495Z" fill="#3A2A1B"/>
<g style="mix-blend-mode:soft-light" opacity="0.5">
<path d="M92.7328 13.8486C92.7328 13.8486 90.9855 16.7656 90.3623 17.7026C89.739 18.6396 86.339 19.9336 85.9105 19.3256L85.4931 18.7065C84.5273 20.476 84.1034 22.4917 84.2745 24.5014C84.2745 24.5014 85.3206 21.4562 87.1292 21.2554C88.4435 21.1372 89.7658 21.1372 91.0801 21.2554C91.0801 21.2554 89.8948 19.4037 92.7328 13.8486Z" fill="#FFD9BB"/>
</g>
<path d="M85.5766 79.9573C86.1998 77.849 86.9622 75.4396 86.8899 72.1155L85.6935 71.9704C85.5103 71.9464 85.3241 71.9605 85.1466 72.0119C84.9691 72.0633 84.8041 72.151 84.662 72.2693C84.5198 72.3877 84.4037 72.5342 84.3207 72.6997C84.2377 72.8651 84.1898 73.046 84.1798 73.2309C84.1186 74.8707 83.7235 76.7614 81.9929 79.4609C82.6823 77.4119 83.0576 75.27 83.1059 73.1082C83.0996 72.6879 82.9417 72.2841 82.6614 71.9714C82.3811 71.6587 81.9974 71.4583 81.5811 71.4071C62.5387 67.2966 58.4096 68.5236 57.4303 68.8192C56.4242 69.2481 55.4867 69.8231 54.6479 70.5259L54.954 68.9419C51.4529 71.845 49.1056 75.9092 48.3375 80.3979C48.3207 80.4983 48.3297 80.6013 48.3638 80.6972C48.398 80.7931 48.456 80.8786 48.5324 80.9457C48.6088 81.0128 48.701 81.0591 48.8004 81.0804C48.8997 81.1017 49.0028 81.0971 49.0999 81.0671C50.8973 80.554 54.9985 79.4497 57.7141 79.2322C62.8225 78.8195 74.5696 80.1134 82.5717 81.742C83.2046 81.8772 83.8652 81.7686 84.4219 81.4379C84.9787 81.1072 85.3909 80.5786 85.5766 79.9573Z" fill="url(#paint23_linear_1112_3350)"/>
<g style="mix-blend-mode:multiply" opacity="0.6">
<path d="M80.2122 81.279C80.2122 81.279 81.2083 74.5862 78.8155 71.2397C79.0538 73.4258 79.0799 75.6299 78.8934 77.821C78.8934 77.821 73.5624 70.2135 67.9309 68.9697L81.6423 71.4294C81.8668 71.4626 82.0825 71.5403 82.2767 71.658C82.4708 71.7757 82.6397 71.9309 82.7734 72.1147C82.907 72.2986 83.0028 72.5072 83.0551 72.7285C83.1074 72.9498 83.1152 73.1794 83.078 73.4037C83.0083 75.4631 82.6486 77.5023 82.0096 79.4608C82.0096 79.4608 84.1854 76.3932 84.1576 73.2643C84.1718 73.0747 84.2246 72.8899 84.3126 72.7215C84.4007 72.553 84.5223 72.4044 84.6698 72.2848C84.8173 72.1652 84.9876 72.077 85.1704 72.0258C85.3531 71.9746 85.5444 71.9615 85.7324 71.9871L86.8899 72.1377C86.8899 72.1377 87.1347 75.0881 85.6267 79.84C85.468 80.5058 85.0531 81.0818 84.4724 81.4422C83.8918 81.8027 83.1926 81.9184 82.5271 81.7642L80.2122 81.279Z" fill="#D177B8"/>
</g>
<path d="M109.277 79.9516C108.659 77.8378 107.891 75.4339 107.969 72.1098L109.16 71.9648C109.343 71.9416 109.529 71.9562 109.707 72.008C109.884 72.0597 110.049 72.1473 110.192 72.2654C110.334 72.3835 110.451 72.5296 110.535 72.6947C110.618 72.8598 110.668 73.0404 110.679 73.2253C110.74 74.865 111.135 76.7557 112.866 79.4552C112.177 77.4062 111.801 75.2643 111.753 73.1026C111.766 72.688 111.926 72.2915 112.204 71.9848C112.483 71.678 112.862 71.481 113.272 71.4293C132.32 67.3188 136.449 68.5458 137.429 68.8414C138.435 69.2693 139.373 69.8445 140.211 70.5481L139.911 68.9697C143.405 71.8654 145.75 75.9193 146.521 80.3978C146.538 80.4982 146.529 80.6012 146.495 80.6971C146.461 80.793 146.403 80.8785 146.327 80.9456C146.25 81.0127 146.158 81.0591 146.059 81.0803C145.959 81.1016 145.856 81.097 145.759 81.0671C143.956 80.5539 139.86 79.4496 137.145 79.2321C132.036 78.8194 120.284 80.1078 112.282 81.7419C111.648 81.8755 110.988 81.7656 110.431 81.434C109.874 81.1024 109.462 80.5733 109.277 79.9516Z" fill="url(#paint24_linear_1112_3350)"/>
<g style="mix-blend-mode:multiply" opacity="0.6">
<path d="M114.641 81.2736C114.641 81.2736 113.651 74.5808 116.038 71.2344C115.8 73.4187 115.776 75.621 115.966 77.8101C115.966 77.8101 121.291 70.2081 126.928 68.9644L113.211 71.4017C112.987 71.4349 112.771 71.5126 112.577 71.6303C112.382 71.748 112.214 71.9033 112.08 72.0871C111.946 72.2709 111.851 72.4795 111.798 72.7008C111.746 72.9221 111.738 73.1517 111.775 73.3761C111.845 75.4354 112.205 77.4746 112.844 79.4331C112.844 79.4331 110.668 76.3655 110.69 73.2366C110.677 73.0472 110.625 72.8626 110.537 72.6942C110.45 72.5257 110.329 72.3771 110.182 72.2574C110.034 72.1377 109.864 72.0495 109.682 71.9982C109.5 71.947 109.309 71.9338 109.121 71.9594L107.963 72.11C107.963 72.11 107.719 75.0604 109.221 79.8124C109.382 80.4778 109.799 81.0528 110.38 81.413C110.961 81.7731 111.66 81.8893 112.326 81.7365L114.641 81.2736Z" fill="#D177B8"/>
</g>
<path d="M82.1654 94.7317C82.2322 96.9627 73.8629 99.0653 66.5842 98.7642C59.556 98.4686 55.5772 95.0664 55.6607 90.465C55.7441 85.8637 60.5298 82.8017 68.1924 83.5212C76.5951 84.302 81.9929 89.4444 82.1654 94.7317Z" fill="url(#paint25_linear_1112_3350)"/>
<path d="M70.5481 99.0825C74.4061 98.7863 77.2893 95.3493 76.9879 91.4058C76.6865 87.4622 73.3147 84.5054 69.4567 84.8016C65.5987 85.0978 62.7155 88.5348 63.0169 92.4783C63.3182 96.4219 66.6901 99.3787 70.5481 99.0825Z" fill="url(#paint26_linear_1112_3350)"/>
<path d="M70.5162 98.6654C74.1474 98.3866 76.8611 95.1505 76.5773 91.4372C76.2935 87.724 73.1198 84.9399 69.4886 85.2186C65.8573 85.4974 63.1437 88.7335 63.4274 92.4467C63.7112 96.16 66.8849 98.9441 70.5162 98.6654Z" fill="url(#paint27_linear_1112_3350)"/>
<path style="mix-blend-mode:multiply" d="M71.2376 96.1378C73.601 95.9483 75.3606 93.837 75.1679 91.422C74.9751 89.0071 72.903 87.203 70.5396 87.3925C68.1762 87.582 66.4166 89.6933 66.6094 92.1083C66.8021 94.5232 68.8743 96.3273 71.2376 96.1378Z" fill="url(#paint28_linear_1112_3350)"/>
<g style="mix-blend-mode:multiply" opacity="0.6">
<path d="M81.2639 91.2012C81.2639 91.2012 66.7567 88.7639 55.8443 92.1605V89.0427C55.8443 89.0427 56.3618 85.5569 66.9738 84.7426C77.5857 83.9283 81.2639 91.2012 81.2639 91.2012Z" fill="#B42F97"/>
</g>
<path d="M81.2083 91.1009C81.2083 91.1009 79.8561 87.6485 74.475 84.8933C72.41 83.8584 70.1579 83.2518 67.8535 83.11C65.5491 82.9681 63.2398 83.2939 61.064 84.0679C55.3602 86.0701 55.6774 89.9799 55.6774 89.9799C55.6774 89.9799 71.125 81.809 81.2083 91.1009Z" fill="#AF6969"/>
<path d="M66.0778 92.0323C66.7289 91.759 67.5636 91.9263 67.6304 92.2052C67.6972 92.484 66.9014 92.9525 66.5174 92.8856C66.1335 92.8187 65.7106 92.1884 66.0778 92.0323Z" fill="white"/>
<path d="M64.6644 91.8651C65.2209 92.1495 62.8447 92.5622 60.9805 92.2555C59.3111 91.9822 58.4319 91.285 58.5655 91.14C58.699 90.995 62.4329 90.7273 64.6644 91.8651Z" fill="white"/>
<path d="M76.9624 97.7379C73.3093 98.9308 69.4704 99.4486 65.6326 99.2661C59.2722 98.9593 57.3857 95.1946 57.3857 95.1946C57.3857 95.1946 62.2326 101.095 76.9624 97.7379Z" fill="#AF5F72"/>
<path d="M81.7481 92.3948C81.8446 93.1493 81.7718 93.9159 81.5349 94.6387C81.2981 95.3614 80.9032 96.022 80.3792 96.5722C80.3792 96.5722 82.5438 96.0145 82.6551 94.899C82.7664 93.7835 81.7481 92.3948 81.7481 92.3948Z" fill="#C4657C"/>
<path d="M81.4921 94.9604C78.3753 99.0476 73.9027 101.882 68.8824 102.953C68.8824 102.953 78.9935 102.005 82.5828 95.1445L81.4921 94.9604Z" fill="#C4657C"/>
<path d="M81.7481 92.3949C81.7481 92.3949 76.4393 85.8136 68.4929 86.9626C60.5465 88.1115 55.6941 91.7424 55.6941 91.7424L54.6757 90.6269C54.6757 90.6269 62.3606 85.4622 69.5892 85.6072C81.0469 86.5331 81.7481 92.3949 81.7481 92.3949Z" fill="#270039"/>
<path d="M112.254 94.8545C112.182 97.0854 120.551 99.1881 127.835 98.8869C134.858 98.5913 138.837 95.1891 138.753 90.5934C138.67 85.9976 133.884 82.9245 126.221 83.6439C117.819 84.4304 112.421 89.5727 112.254 94.8545Z" fill="url(#paint29_linear_1112_3350)"/>
<path d="M131.387 92.5949C131.689 88.6514 128.806 85.2144 124.948 84.9182C121.09 84.6221 117.718 87.5788 117.416 91.5224C117.115 95.466 119.998 98.9029 123.856 99.1991C127.714 99.4953 131.086 96.5385 131.387 92.5949Z" fill="url(#paint30_linear_1112_3350)"/>
<path d="M130.977 92.5635C131.261 88.8503 128.547 85.6141 124.916 85.3354C121.285 85.0566 118.111 87.8408 117.827 91.554C117.543 95.2672 120.257 98.5033 123.888 98.7821C127.519 99.0609 130.693 96.2767 130.977 92.5635Z" fill="url(#paint31_linear_1112_3350)"/>
<path style="mix-blend-mode:multiply" d="M128.669 92.3863C128.853 89.9784 127.092 87.8797 124.735 87.6988C122.379 87.5179 120.319 89.3233 120.135 91.7312C119.951 94.1391 121.712 96.2377 124.069 96.4186C126.425 96.5995 128.485 94.7942 128.669 92.3863Z" fill="url(#paint32_linear_1112_3350)"/>
<g style="mix-blend-mode:multiply" opacity="0.6">
<path d="M113.155 91.3295C113.155 91.3295 127.657 88.8866 138.575 92.2832L138.547 89.1711C138.547 89.1711 138.03 85.6796 127.418 84.8653C116.806 84.051 113.155 91.3295 113.155 91.3295Z" fill="#B42F97"/>
</g>
<path d="M113.211 91.2292C113.211 91.2292 114.563 87.7712 119.944 85.016C122.009 83.9807 124.262 83.3744 126.566 83.2335C128.871 83.0926 131.18 83.42 133.355 84.1961C139.065 86.1984 138.742 90.1025 138.742 90.1025C138.742 90.1025 123.289 81.9317 113.211 91.2292Z" fill="#AF6969"/>
<path d="M128.341 92.1607C127.685 91.8874 126.856 92.0547 126.789 92.3336C126.722 92.6125 127.512 93.0754 127.902 93.0085C128.291 92.9415 128.709 92.3113 128.341 92.1607Z" fill="white"/>
<path d="M129.749 91.9877C129.193 92.2777 131.575 92.6904 133.439 92.3837C135.108 92.1104 135.982 91.4132 135.848 91.2682C135.715 91.1232 131.981 90.8499 129.749 91.9877Z" fill="white"/>
<path d="M117.451 97.8607C121.108 99.0541 124.951 99.5737 128.792 99.3944C135.153 99.0877 137.045 95.3174 137.045 95.3174C137.045 95.3174 132.187 101.218 117.451 97.8607Z" fill="#AF5F72"/>
<path d="M112.655 92.5232C112.561 93.2768 112.636 94.0419 112.875 94.7627C113.113 95.4834 113.51 96.1417 114.035 96.6895C114.035 96.6895 111.875 96.1318 111.764 95.0163C111.653 93.9008 112.655 92.5232 112.655 92.5232Z" fill="#C4657C"/>
<path d="M112.916 95.0886C116.031 99.1746 120.502 102.009 125.52 103.081C125.52 103.081 115.415 102.133 111.825 95.2727L112.916 95.0886Z" fill="#C4657C"/>
<path d="M112.655 92.5231C112.655 92.5231 117.963 85.9362 125.904 87.0851C133.845 88.2341 138.703 91.8649 138.703 91.8649L139.721 90.7494C139.721 90.7494 132.036 85.5848 124.808 85.7298C113.372 86.6724 112.655 92.5231 112.655 92.5231Z" fill="#270039"/>
<g style="mix-blend-mode:soft-light" opacity="0.5">
<path d="M98.3587 14.78C98.3587 14.78 96.5892 16.5034 96.4 22.4433C96.4 22.4433 96.8563 20.9207 97.1846 20.7701C97.5129 20.6195 99.5051 21.9749 102.877 23.3971C106.25 24.8193 110.039 24.6799 110.356 24.7357C111.28 24.903 110.913 26.1746 110.913 26.1746C110.913 26.1746 113.695 24.9699 111.942 18.885C111.942 18.885 111.942 19.61 110.985 19.7997C110.762 19.8443 104.235 19.1248 101.748 18.1767C98.8651 17.0612 98.4645 16.3919 98.2975 15.9903C98.2292 15.5873 98.2501 15.1741 98.3587 14.78Z" fill="#FFD9BB"/>
</g>
<path opacity="0.49" d="M97.3682 2.03003C97.3682 2.03003 91.9371 8.28227 91.9204 8.29343C87.4074 13.7537 83.5232 19.1135 84.0964 24.1611C84.6862 29.3592 90.6961 30.7758 97.2848 32.7168C104.981 31.2165 106.5 30.391 106.5 30.391C106.5 30.391 113.411 28.2047 112.938 22.1588C112.515 16.7097 104.335 4.36137 102.877 3.60285C104.396 4.34464 114.658 16.6985 114.368 21.8242C112.894 31.6515 107.502 32.8674 107.502 32.8674C98.9653 36.0297 87.5576 34.39 87.5576 34.39C87.5576 34.39 75.5601 33.8936 73.6737 23.5364C72.0989 18.4387 87.1403 4.20521 87.1403 4.20521L89.9672 3.42995C84.1965 6.65368 72.3437 25.0367 77.5745 28.874C82.8054 32.7112 91.2192 33.5478 91.2192 33.5478C91.2192 33.5478 83.2116 28.4668 82.8721 24.3563C82.5271 20.3517 84.447 15.4325 85.443 13.9266L92.4379 2.86106" fill="#3A2A1B"/>
<g style="mix-blend-mode:soft-light" opacity="0.5">
<path d="M83.5455 18.0315C83.5455 18.0315 82.0096 20.2067 80.6518 20.3907C79.709 20.4522 78.7685 20.2412 77.9418 19.7828L77.2907 21.6345C77.2907 21.6345 77.9696 23.3523 79.1104 22.75C79.1104 22.75 81.5255 21.2273 82.7163 23.5141C82.6079 21.6486 82.8903 19.781 83.5455 18.0315Z" fill="#FFD9BB"/>
</g>
<path d="M87.8859 164.722C87.8859 164.722 91.3138 159.63 96.3944 159.63C101.475 159.63 105.326 164.722 105.326 164.722L98.3142 163.607C97.0424 163.403 95.7464 163.403 94.4745 163.607L87.8859 164.722Z" fill="url(#paint33_linear_1112_3350)"/>
<path d="M115.927 160.026C114.814 161.186 110.15 166.005 108.353 166.334C107.607 168.426 109.466 176.992 96.6671 176.992C96.6671 176.992 85.354 178.348 85.354 166.334C76.545 162.357 69.962 147.276 73.6681 139.563L73.7015 139.518C79.2161 138.531 76.968 138.782 86.8008 137.995C93.139 137.482 101.302 137.744 101.302 137.744C101.302 137.744 106.133 137.867 110.902 138.347C119.065 138.804 115.582 138.52 120.601 139.122C121.564 140.829 121.753 144.699 121.814 145.954C121.604 151.202 119.514 156.198 115.927 160.026ZM97.0733 204.216C100.028 204.216 105.515 204.048 108.364 203.267C116.05 201.085 123.44 197.964 130.367 193.976C141.93 185.61 144.924 175.079 150.4 162.408C151.847 159.061 153.338 152.296 154.295 148.631C155.074 145.514 155.632 142.346 155.965 139.15C161.869 112.702 152.81 96.2432 152.81 96.2432C152.381 97.4086 152.172 98.6434 152.192 99.8852C152.637 103.048 153.772 104.738 154.418 109.261C155.392 116.021 154.729 121.626 152.264 129.139C150.901 133.305 148.959 137.505 146.905 139.964C139.799 149.58 131.263 151.409 131.263 151.409C131.263 151.409 130.044 143.355 128.659 139.964C127.93 137.996 126.459 136.394 124.563 135.502C119.21 132.937 108.715 130.996 102.571 130.639C102.571 130.639 99.5774 131.754 98.9319 131.927C96.9731 132.385 95.504 132.346 94.0127 131.559C93.0717 131.109 92.0896 130.75 91.0801 130.488C79.7114 132.669 79.0603 132.379 72.2324 134.526C68.7044 135.854 68.0644 136.411 66.74 139.741C65.1875 143.645 64.2303 151.398 64.2303 151.398C64.2303 151.398 55.2433 150.522 46.9797 137.454C44.4088 132.775 43.9247 131.615 42.8451 128.369C41.031 122.909 40.5302 120.282 40.3966 114.955C40.3966 114.548 40.7305 109.478 40.8084 109.043C42.194 101.363 41.8379 104.386 42.7227 100.069C43.0677 97.0463 42.3944 91.5303 42.3944 91.5303C42.3944 91.5303 30.7641 116.461 40.4078 153.534C41.9844 159.966 44.2727 166.201 47.2301 172.123C52.1382 182.073 58.0702 190.122 65.3544 194.399C71.494 197.887 77.9665 200.749 84.6751 202.944C88.755 203.783 92.9085 204.209 97.0733 204.216ZM65.4323 189.084C70.7188 192.185 75.6603 195.593 84.753 197.629C88.8978 198.469 93.1172 198.884 97.346 198.867" fill="url(#paint34_linear_1112_3350)"/>
<path opacity="0.38" d="M85.3874 166.334C85.2761 171.404 87.502 177.182 96.6448 177.037C106.889 177.037 107.835 171.794 108.381 166.362L107.947 166.485C100.566 168.589 92.7395 168.536 85.3874 166.334Z" fill="#3A2A1B"/>
<path opacity="0.38" d="M118.024 199.319C123.01 197.794 127.775 195.621 132.198 192.855L136.65 186.106C136.65 186.106 140.283 173.908 137.657 180.043C136.739 182.18 133.717 185.063 129.137 187.974C128.078 188.61 126.96 189.141 125.798 189.558C126.533 188.248 127.512 186.363 128.753 183.685C132.031 176.608 130.662 156.234 130.35 157.996C130.039 159.758 130.784 165.894 127.74 173.825C126.85 176.139 125.626 178.755 124.329 181.309C122.76 184.462 120.51 187.226 117.743 189.399C114.975 191.573 111.76 193.102 108.331 193.875H108.253C105.777 194.433 104.013 192.76 102.332 190.194C101.665 189.183 100.772 188.341 99.7246 187.736C98.6769 187.13 97.5029 186.778 96.2956 186.706C95.0883 186.634 93.8809 186.844 92.769 187.321C91.657 187.798 90.6711 188.528 89.8892 189.452C87.3684 192.375 84.369 194.522 81.6089 193.518H81.5644C79.8995 192.876 78.4304 191.81 77.3023 190.425C76.1741 189.04 75.426 187.384 75.1316 185.621C74.6689 183.245 74.3456 180.845 74.1633 178.432C73.8795 173.412 73.7961 169.664 73.9408 168.621C74.0854 167.578 71.2808 179.129 71.8484 183.713C72.3437 187.723 72.8056 189.118 72.9002 189.363C68.1813 186.798 59.6728 182.972 59.6728 182.972L61.5092 191.388L72.9669 198.332L81.8705 201.94L89.4051 203.502L102.655 203.691L118.024 199.319Z" fill="#3A2A1B"/>
<path opacity="0.38" d="M41.1646 142.865C41.1646 142.865 40.4078 148.855 40.7639 151.738C41.2604 157.095 42.8596 162.291 45.4605 166.998C48.4432 172.837 51.0252 177.483 53.0341 180.043C53.0341 180.043 52.8171 168.593 55.6384 162.396C58.4597 156.2 60.3461 155.057 60.3461 155.057C60.3461 155.057 50.8305 159.77 49.8288 168.911C43.5852 161.08 41.1646 142.865 41.1646 142.865Z" fill="#3A2A1B"/>
<path opacity="0.38" d="M152.209 141.415C152.209 141.415 153.032 147.717 152.704 150.751C152.281 156.35 150.741 161.806 148.174 166.797C145.258 172.932 142.749 177.829 140.74 180.523C140.74 180.523 140.834 168.47 137.957 161.95C135.08 155.431 133.166 154.215 133.166 154.215C133.166 154.215 142.704 159.179 143.817 168.799C149.988 160.562 152.209 141.415 152.209 141.415Z" fill="#3A2A1B"/>
<path opacity="0.38" d="M61.409 191.092C60.1941 186.513 59.3071 181.854 58.7546 177.149C58.4049 172.095 59.1158 167.024 60.8414 162.263C62.3884 157.756 62.9616 157.243 62.9616 157.243C62.9616 157.243 59.1831 161.381 57.6528 165.431C56.1837 169.335 54.6034 178.911 55.9389 183.869C57.1557 186.683 59.0322 189.161 61.409 191.092Z" fill="#3A2A1B"/>
<g style="mix-blend-mode:soft-light" opacity="0.5">
<path d="M126.856 148.609C127.585 151.046 127.816 153.605 127.535 156.133C127.253 158.661 126.466 161.106 125.22 163.322C125.22 163.322 127.151 157.527 126.856 148.609Z" fill="#FFD9BB"/>
</g>
<g style="mix-blend-mode:soft-light" opacity="0.5">
<path d="M120.323 165.882C125.164 161.42 125.887 151.063 125.887 151.063L120.323 165.882Z" fill="#FFD9BB"/>
</g>
<g style="mix-blend-mode:soft-light" opacity="0.5">
<path d="M62.5721 163.635L70.1735 148.381C70.1735 148.381 65.2153 152.647 62.5721 163.635Z" fill="#FFD9BB"/>
</g>
<g style="mix-blend-mode:soft-light" opacity="0.5">
<path d="M134.218 165.732L134.952 177.612C134.952 177.612 136.466 173.306 134.218 165.732Z" fill="#FFD9BB"/>
</g>
<g style="mix-blend-mode:soft-light" opacity="0.5">
<path d="M70.6186 150.784C64.2916 163.612 68.3315 172.146 68.3315 172.146L70.6186 150.784Z" fill="#FFD9BB"/>
</g>
</g>
<defs>
<linearGradient id="paint0_linear_1112_3350" x1="32.1664" y1="134.298" x2="32.1664" y2="86.3322" gradientUnits="userSpaceOnUse">
<stop stop-color="#EBBFAD"/>
<stop offset="0.81" stop-color="#DB9F91"/>
</linearGradient>
<linearGradient id="paint1_linear_1112_3350" x1="31.1648" y1="118.804" x2="31.1648" y2="92.406" gradientUnits="userSpaceOnUse">
<stop stop-color="#FFEADB"/>
<stop offset="0.99" stop-color="#A865A6"/>
</linearGradient>
<linearGradient id="paint2_linear_1112_3350" x1="36.4123" y1="118.135" x2="36.4123" y2="97.6655" gradientUnits="userSpaceOnUse">
<stop stop-color="#FFEADB"/>
<stop offset="0.99" stop-color="#D177F4"/>
</linearGradient>
<linearGradient id="paint3_linear_1112_3350" x1="97.4294" y1="230" x2="97.4294" y2="160.266" gradientUnits="userSpaceOnUse">
<stop stop-color="#D57C9D"/>
<stop offset="0.13" stop-color="#DB8F9D"/>
<stop offset="0.4" stop-color="#E7B39C"/>
<stop offset="0.54" stop-color="#EBC19C"/>
<stop offset="0.56" stop-color="#E9BD9A"/>
<stop offset="0.67" stop-color="#DCA18A"/>
<stop offset="0.78" stop-color="#D28D7E"/>
<stop offset="0.89" stop-color="#CC8177"/>
<stop offset="1" stop-color="#CA7D75"/>
</linearGradient>
<linearGradient id="paint4_linear_1112_3350" x1="97.4294" y1="230" x2="97.4294" y2="203.256" gradientUnits="userSpaceOnUse">
<stop offset="0.01" stop-color="#8684F4"/>
<stop offset="1" stop-color="#839AF2"/>
</linearGradient>
<linearGradient id="paint5_linear_1112_3350" x1="117.835" y1="214.065" x2="117.835" y2="170.774" gradientUnits="userSpaceOnUse">
<stop stop-color="#FFEADB"/>
<stop offset="0.99" stop-color="#D177F4"/>
</linearGradient>
<linearGradient id="paint6_linear_1112_3350" x1="134.068" y1="224.724" x2="134.068" y2="208.226" gradientUnits="userSpaceOnUse">
<stop stop-color="#FFEADB"/>
<stop offset="0.99" stop-color="#D177F4"/>
</linearGradient>
<linearGradient id="paint7_linear_1112_3350" x1="54.4976" y1="224.724" x2="54.4976" y2="207.127" gradientUnits="userSpaceOnUse">
<stop stop-color="#FFEADB"/>
<stop offset="0.99" stop-color="#D177F4"/>
</linearGradient>
<linearGradient id="paint8_linear_1112_3350" x1="161.797" y1="134.298" x2="161.797" y2="86.3322" gradientUnits="userSpaceOnUse">
<stop stop-color="#EBBFAD"/>
<stop offset="0.81" stop-color="#DB9F91"/>
</linearGradient>
<linearGradient id="paint9_linear_1112_3350" x1="162.798" y1="118.804" x2="162.798" y2="92.406" gradientUnits="userSpaceOnUse">
<stop stop-color="#FFEADB"/>
<stop offset="0.99" stop-color="#A865A6"/>
</linearGradient>
<linearGradient id="paint10_linear_1112_3350" x1="157.556" y1="118.135" x2="157.556" y2="97.6655" gradientUnits="userSpaceOnUse">
<stop stop-color="#FFEADB"/>
<stop offset="0.99" stop-color="#D177F4"/>
</linearGradient>
<linearGradient id="paint11_linear_1112_3350" x1="96.7171" y1="183.34" x2="96.7171" y2="31.5736" gradientUnits="userSpaceOnUse">
<stop offset="0.01" stop-color="#D58F9D"/>
<stop offset="0.23" stop-color="#E2ABA6"/>
<stop offset="0.37" stop-color="#EBBFAD"/>
<stop offset="0.6" stop-color="#E7B2A2"/>
<stop offset="0.68" stop-color="#E5AD9D"/>
<stop offset="1" stop-color="#DFA596"/>
</linearGradient>
<linearGradient id="paint12_linear_1112_3350" x1="131.157" y1="180.724" x2="131.157" y2="28.1881" gradientUnits="userSpaceOnUse">
<stop stop-color="#FFEADB"/>
<stop offset="0.72" stop-color="#D5B2D0"/>
</linearGradient>
<linearGradient id="paint13_linear_1112_3350" x1="63.4847" y1="180.858" x2="63.4847" y2="27.0613" gradientUnits="userSpaceOnUse">
<stop stop-color="#FFEADB"/>
<stop offset="0.72" stop-color="#D5B2D0"/>
</linearGradient>
<linearGradient id="paint14_linear_1112_3350" x1="96.9342" y1="109.997" x2="96.9342" y2="129.217" gradientUnits="userSpaceOnUse">
<stop stop-color="#DB9F91"/>
<stop offset="1" stop-color="#F9A6A7"/>
</linearGradient>
<linearGradient id="paint15_linear_1112_3350" x1="108.837" y1="127.945" x2="101.848" y2="127.945" gradientUnits="userSpaceOnUse">
<stop stop-color="#721E24"/>
<stop offset="1" stop-color="#510036"/>
</linearGradient>
<linearGradient id="paint16_linear_1112_3350" x1="84.9731" y1="127.877" x2="91.9622" y2="127.918" gradientUnits="userSpaceOnUse">
<stop stop-color="#721E24"/>
<stop offset="1" stop-color="#510036"/>
</linearGradient>
<linearGradient id="paint17_linear_1112_3350" x1="82.4437" y1="116.807" x2="87.9194" y2="116.807" gradientUnits="userSpaceOnUse">
<stop stop-color="#FFEADB"/>
<stop offset="0.99" stop-color="#D177F4"/>
</linearGradient>
<linearGradient id="paint18_linear_1112_3350" x1="105.838" y1="116.807" x2="111.308" y2="116.807" gradientUnits="userSpaceOnUse">
<stop stop-color="#FFEADB"/>
<stop offset="0.99" stop-color="#D177F4"/>
</linearGradient>
<linearGradient id="paint19_linear_1112_3350" x1="122.53" y1="135.501" x2="113.839" y2="114.964" gradientUnits="userSpaceOnUse">
<stop stop-color="#FFEADB"/>
<stop offset="0.99" stop-color="#D177F4"/>
</linearGradient>
<linearGradient id="paint20_linear_1112_3350" x1="71.5088" y1="134.873" x2="80.1969" y2="114.343" gradientUnits="userSpaceOnUse">
<stop stop-color="#FFEADB"/>
<stop offset="0.99" stop-color="#D177F4"/>
</linearGradient>
<linearGradient id="paint21_linear_1112_3350" x1="97.0232" y1="105.2" x2="96.3077" y2="4.69054" gradientUnits="userSpaceOnUse">
<stop stop-color="#9B807C"/>
<stop offset="0.41" stop-color="#5A4A4B"/>
<stop offset="1" stop-color="#403635"/>
</linearGradient>
<linearGradient id="paint22_linear_1112_3350" x1="46.4566" y1="99.1322" x2="60.4978" y2="-5.15083" gradientUnits="userSpaceOnUse">
<stop offset="0.06" stop-color="#9B807C"/>
<stop offset="0.42" stop-color="#6D504B"/>
<stop offset="0.65" stop-color="#6B4F4A"/>
<stop offset="0.78" stop-color="#624A45"/>
<stop offset="0.89" stop-color="#55413C"/>
<stop offset="0.98" stop-color="#413530"/>
<stop offset="1" stop-color="#3C322D"/>
</linearGradient>
<linearGradient id="paint23_linear_1112_3350" x1="86.7282" y1="73.852" x2="47.5421" y2="78.4764" gradientUnits="userSpaceOnUse">
<stop stop-color="#31201A"/>
<stop offset="1" stop-color="#8B6863"/>
</linearGradient>
<linearGradient id="paint24_linear_1112_3350" x1="107.683" y1="73.6918" x2="146.869" y2="78.3161" gradientUnits="userSpaceOnUse">
<stop stop-color="#31201A"/>
<stop offset="1" stop-color="#8B6863"/>
</linearGradient>
<linearGradient id="paint25_linear_1112_3350" x1="68.7562" y1="100.516" x2="67.5014" y2="84.866" gradientUnits="userSpaceOnUse">
<stop stop-color="#EEE2FF"/>
<stop offset="1" stop-color="#BDC9FB"/>
</linearGradient>
<linearGradient id="paint26_linear_1112_3350" x1="70.5481" y1="99.0825" x2="69.4518" y2="84.802" gradientUnits="userSpaceOnUse">
<stop stop-color="#471F4B"/>
<stop offset="1" stop-color="#310A39"/>
</linearGradient>
<linearGradient id="paint27_linear_1112_3350" x1="70.5162" y1="98.6654" x2="69.4839" y2="85.219" gradientUnits="userSpaceOnUse">
<stop stop-color="#57335B"/>
<stop offset="1" stop-color="#310A39"/>
</linearGradient>
<linearGradient id="paint28_linear_1112_3350" x1="71.2376" y1="96.1378" x2="70.536" y2="87.3872" gradientUnits="userSpaceOnUse">
<stop stop-color="#A79ABD"/>
<stop offset="0.99" stop-color="#724A60"/>
</linearGradient>
<linearGradient id="paint29_linear_1112_3350" x1="125.043" y1="98.9096" x2="126.242" y2="83.3" gradientUnits="userSpaceOnUse">
<stop stop-color="#EEE2FF"/>
<stop offset="1" stop-color="#BDC9FB"/>
</linearGradient>
<linearGradient id="paint30_linear_1112_3350" x1="123.857" y1="99.1936" x2="124.953" y2="84.9131" gradientUnits="userSpaceOnUse">
<stop stop-color="#471F4B"/>
<stop offset="1" stop-color="#310A39"/>
</linearGradient>
<linearGradient id="paint31_linear_1112_3350" x1="123.889" y1="98.7765" x2="124.921" y2="85.3302" gradientUnits="userSpaceOnUse">
<stop stop-color="#57335B"/>
<stop offset="1" stop-color="#310A39"/>
</linearGradient>
<linearGradient id="paint32_linear_1112_3350" x1="124.069" y1="96.4186" x2="124.739" y2="87.6935" gradientUnits="userSpaceOnUse">
<stop stop-color="#A79ABD"/>
<stop offset="0.99" stop-color="#724A60"/>
</linearGradient>
<linearGradient id="paint33_linear_1112_3350" x1="96.6058" y1="146.824" x2="96.6058" y2="174.611" gradientUnits="userSpaceOnUse">
<stop stop-color="#31201A"/>
<stop offset="0.04" stop-color="#382620"/>
<stop offset="0.28" stop-color="#5C423D"/>
<stop offset="0.51" stop-color="#765752"/>
<stop offset="0.71" stop-color="#86645F"/>
<stop offset="0.87" stop-color="#8B6863"/>
</linearGradient>
<linearGradient id="paint34_linear_1112_3350" x1="97.218" y1="96.0256" x2="97.218" y2="240.803" gradientUnits="userSpaceOnUse">
<stop stop-color="#9B807C"/>
<stop offset="0.41" stop-color="#5A4A4B"/>
<stop offset="1" stop-color="#403635"/>
</linearGradient>
<clipPath id="clip0_1112_3350">
<rect width="193.252" height="229.325" fill="white" transform="translate(0.80368 0.674805)"/>
</clipPath>
</defs>
</svg>
