<svg width="197" height="25" viewBox="0 0 197 25" fill="none" xmlns="http://www.w3.org/2000/svg">
<path d="M167.998 22.598C167.457 22.318 166.929 21.9447 166.416 21.478C165.567 20.6847 164.913 19.77 164.456 18.734C163.999 17.698 163.77 16.606 163.77 15.458C163.77 14.0393 164.148 12.6767 164.904 11.37C165.669 10.0633 166.673 9.08333 167.914 8.43V10.236C167.018 11.0293 166.355 11.8227 165.926 12.616C165.497 13.4 165.282 14.3427 165.282 15.444C165.282 16.5733 165.506 17.5627 165.954 18.412C166.402 19.252 167.083 20.0407 167.998 20.778V22.598ZM176.121 15.486C176.121 16.5127 175.785 17.39 175.113 18.118C174.441 18.8367 173.597 19.196 172.579 19.196C171.609 19.196 170.801 18.888 170.157 18.272C169.523 17.6467 169.154 16.844 169.051 15.864H170.507C170.619 16.452 170.853 16.9327 171.207 17.306C171.562 17.6793 172.024 17.866 172.593 17.866C173.181 17.866 173.671 17.6373 174.063 17.18C174.465 16.7227 174.665 16.1953 174.665 15.598C174.665 14.9633 174.483 14.4033 174.119 13.918C173.755 13.4233 173.265 13.176 172.649 13.176C171.837 13.176 171.217 13.5353 170.787 14.254L169.527 13.96L170.395 8.64H175.127V9.97H171.599L171.207 12.266C171.599 11.986 172.08 11.846 172.649 11.846C173.667 11.846 174.497 12.196 175.141 12.896C175.795 13.5867 176.121 14.45 176.121 15.486ZM182.669 8.64L178.637 20.4H177.041L181.073 8.64H182.669ZM190.873 15.486C190.873 16.5127 190.537 17.39 189.865 18.118C189.193 18.8367 188.348 19.196 187.331 19.196C186.36 19.196 185.553 18.888 184.909 18.272C184.274 17.6467 183.906 16.844 183.803 15.864H185.259C185.371 16.452 185.604 16.9327 185.959 17.306C186.314 17.6793 186.776 17.866 187.345 17.866C187.933 17.866 188.423 17.6373 188.815 17.18C189.216 16.7227 189.417 16.1953 189.417 15.598C189.417 14.9633 189.235 14.4033 188.871 13.918C188.507 13.4233 188.017 13.176 187.401 13.176C186.589 13.176 185.968 13.5353 185.539 14.254L184.279 13.96L185.147 8.64H189.879V9.97H186.351L185.959 12.266C186.351 11.986 186.832 11.846 187.401 11.846C188.418 11.846 189.249 12.196 189.893 12.896C190.546 13.5867 190.873 14.45 190.873 15.486ZM196.147 15.57C196.147 16.9887 195.764 18.3513 194.999 19.658C194.243 20.9647 193.244 21.9447 192.003 22.598V20.792C192.908 19.9893 193.571 19.2007 193.991 18.426C194.42 17.642 194.635 16.6947 194.635 15.584C194.635 14.4547 194.411 13.47 193.963 12.63C193.515 11.79 192.833 10.9967 191.919 10.25V8.43C193.197 9.08333 194.219 10.0727 194.985 11.398C195.759 12.7233 196.147 14.114 196.147 15.57Z" fill="#33344B"/>
<path d="M24.0031 9.05202C23.8009 8.44626 23.2897 8.01173 22.6702 7.91708L16.3811 6.97488L13.5502 0.965434C13.2688 0.369997 12.6932 0 12.047 0C11.4008 0 10.8251 0.369997 10.5438 0.965434L7.75416 6.95337L1.42377 7.91708C0.804241 8.01173 0.293989 8.44626 0.0909213 9.05202C-0.116449 9.67414 0.0367123 10.3487 0.491034 10.8125L5.06953 15.4986L3.98794 22.1035C3.88038 22.7634 4.14712 23.4096 4.68577 23.7891C5.20377 24.1565 5.86976 24.1926 6.4239 23.8872L12.0074 20.7689L17.6701 23.8872C18.2259 24.1926 18.8902 24.1548 19.4082 23.7891C19.9469 23.4096 20.2145 22.7634 20.106 22.1035L19.0227 15.49L23.603 10.8125C24.0573 10.3487 24.2104 9.67414 24.0031 9.05202Z" fill="#FFB800"/>
<path d="M54.9796 9.05202C54.7774 8.44626 54.2663 8.01173 53.6468 7.91708L47.3577 6.97488L44.5268 0.965434C44.2454 0.369997 43.6698 0 43.0236 0C42.3774 0 41.8017 0.369997 41.5203 0.965434L38.7307 6.95337L32.4003 7.91708C31.7808 8.01173 31.2706 8.44626 31.0675 9.05202C30.8601 9.67414 31.0133 10.3487 31.4676 10.8125L36.0461 15.4986L34.9645 22.1035C34.8569 22.7634 35.1237 23.4096 35.6623 23.7891C36.1803 24.1565 36.8463 24.1926 37.4005 23.8872L42.984 20.7689L48.6467 23.8872C49.2025 24.1926 49.8668 24.1548 50.3848 23.7891C50.9234 23.4096 51.191 22.7634 51.0826 22.1035L49.9993 15.49L54.5795 10.8125C55.0338 10.3487 55.187 9.67414 54.9796 9.05202Z" fill="#FFB800"/>
<path d="M85.956 9.05202C85.7538 8.44626 85.2427 8.01173 84.6232 7.91708L78.3341 6.97488L75.5032 0.965434C75.2218 0.369997 74.6462 0 73.9999 0C73.3537 0 72.7781 0.369997 72.4967 0.965434L69.7071 6.95337L63.3767 7.91708C62.7572 8.01173 62.2469 8.44626 62.0439 9.05202C61.8365 9.67414 61.9897 10.3487 62.444 10.8125L67.0225 15.4986L65.9409 22.1035C65.8333 22.7634 66.1001 23.4096 66.6387 23.7891C67.1567 24.1565 67.8227 24.1926 68.3769 23.8872L73.9604 20.7689L79.623 23.8872C80.1789 24.1926 80.8432 24.1548 81.3612 23.7891C81.8998 23.4096 82.1674 22.7634 82.059 22.1035L80.9757 15.49L85.5559 10.8125C86.0102 10.3487 86.1634 9.67414 85.956 9.05202Z" fill="#FFB800"/>
<path d="M116.933 9.05202C116.731 8.44626 116.22 8.01173 115.6 7.91708L109.311 6.97488L106.48 0.965434C106.199 0.369997 105.623 0 104.977 0C104.331 0 103.755 0.369997 103.474 0.965434L100.684 6.95337L94.3537 7.91708C93.7342 8.01173 93.2239 8.44626 93.0208 9.05202C92.8135 9.67414 92.9666 10.3487 93.421 10.8125L97.9995 15.4986L96.9179 22.1035C96.8103 22.7634 97.077 23.4096 97.6157 23.7891C98.1337 24.1565 98.7997 24.1926 99.3538 23.8872L104.937 20.7689L110.6 23.8872C111.156 24.1926 111.82 24.1548 112.338 23.7891C112.877 23.4096 113.144 22.7634 113.036 22.1035L111.953 15.49L116.533 10.8125C116.987 10.3487 117.14 9.67414 116.933 9.05202Z" fill="#FFB800"/>
<path d="M147.909 9.05202C147.707 8.44626 147.196 8.01173 146.576 7.91708L140.287 6.97488L137.456 0.965434C137.175 0.369997 136.599 0 135.953 0C135.307 0 134.731 0.369997 134.45 0.965434L131.66 6.95337L125.33 7.91708C124.71 8.01173 124.2 8.44626 123.997 9.05202C123.79 9.67414 123.943 10.3487 124.397 10.8125L128.976 15.4986L127.894 22.1035C127.787 22.7634 128.053 23.4096 128.592 23.7891C129.11 24.1565 129.776 24.1926 130.33 23.8872L135.914 20.7689L141.576 23.8872C142.132 24.1926 142.796 24.1548 143.314 23.7891C143.853 23.4096 144.121 22.7634 144.012 22.1035L142.929 15.49L147.509 10.8125C147.964 10.3487 148.117 9.67414 147.909 9.05202Z" fill="#FFB800"/>
</svg>
