<svg width="196" height="235" viewBox="0 0 196 235" fill="none" xmlns="http://www.w3.org/2000/svg">
<path d="M54.8477 165.962C54.8477 165.962 53.4085 205.371 52.4122 209.265C51.4159 213.159 0.215393 234.973 0.215393 234.973H195.785C195.785 234.973 140.145 215.272 138.645 210.768C137.145 206.264 137.112 168.68 137.112 168.68L54.8477 165.962Z" fill="url(#paint0_linear_1112_3179)"/>
<path d="M52.6059 208.122C52.6059 208.122 48.521 207.645 48.0782 208.122C47.6353 208.599 48.0782 211.822 48.0782 211.822L0.215393 234.973H195.785L144.147 212.937C144.147 212.937 142.37 208.039 138.645 210.768L139.924 212.604C139.924 212.604 122.598 231.191 93.7213 231.191C64.8442 231.191 52.6059 208.122 52.6059 208.122Z" fill="url(#paint1_linear_1112_3179)"/>
<g style="mix-blend-mode:multiply">
<path d="M54.1835 181.654C54.1835 181.654 63.8258 184.372 66.1616 188.548C68.4975 192.725 83.4867 224.102 95.3099 224.601C107.133 225.101 114.805 208.405 120.799 204.567C126.794 200.729 137.665 200.446 137.665 200.446L137.112 168.658L54.8477 165.94L54.1835 181.654Z" fill="#C65894"/>
</g>
<path style="mix-blend-mode:multiply" opacity="0.85" d="M110.775 187.566L107.731 218.849C107.731 218.849 115.076 210.602 118.801 204.589C122.526 198.577 129.545 175.042 129.545 175.042L110.775 187.566Z" fill="url(#paint2_linear_1112_3179)"/>
<path style="mix-blend-mode:multiply" opacity="0.85" d="M144.147 212.937C144.147 212.937 131.582 224.291 118.652 229.632C118.652 229.632 144.33 221.451 151.509 216.082L144.147 212.937Z" fill="url(#paint3_linear_1112_3179)"/>
<path style="mix-blend-mode:multiply" opacity="0.85" d="M48.0947 211.822C54.7957 218.337 62.0154 224.293 69.682 229.632C69.682 229.632 53.4307 225.278 39.4986 215.993L48.0947 211.822Z" fill="url(#paint4_linear_1112_3179)"/>
<g style="mix-blend-mode:multiply" opacity="0.6">
<path d="M60.1448 217.635C60.1448 217.635 73.2466 229.632 95.9464 229.632C118.646 229.632 132.396 218.849 132.396 218.849C132.396 218.849 116.77 231.191 93.7213 231.191C70.6728 231.191 60.1448 217.635 60.1448 217.635Z" fill="#D177B8"/>
</g>
<path d="M36.7255 102.648C36.7255 102.648 28.9209 90.7338 23.6237 90.7615C20.4022 90.7615 12.6253 97.5561 12.7139 104.029C12.8301 112.693 20.4631 122.538 22.3949 127.585C24.3267 132.633 29.2419 139.233 32.5243 139.855C35.8066 140.476 40.0854 134.264 40.0854 134.264C40.0854 134.264 38.4912 110.507 36.7255 102.648Z" fill="url(#paint5_linear_1112_3179)"/>
<path style="mix-blend-mode:multiply" opacity="0.85" d="M36.1498 115.327C36.1498 115.327 23.3359 99.4641 18.6753 99.4641C14.0146 99.4641 14.0091 108.488 15.9077 113.641C17.2084 117.202 19.7823 122.355 19.7823 122.355C19.7823 122.355 17.7675 116.808 17.5239 112.682C17.1531 106.314 18.5645 101.683 20.1753 101.694C23.1255 101.694 25.4448 105.754 25.8156 107.191C26.1865 108.627 23.4853 114.911 24.1994 119.293C24.9134 123.675 27.5205 125.345 28.4116 124.868C29.3028 124.391 27.9356 119.449 28.7271 117.701C29.5187 115.954 31.8268 113.397 33.1553 113.957C34.4837 114.518 36.1498 115.327 36.1498 115.327Z" fill="url(#paint6_linear_1112_3179)"/>
<path style="mix-blend-mode:multiply" opacity="0.85" d="M36.1498 115.328C36.1498 115.328 32.9948 113.436 32.0316 114.041C31.0685 114.645 28.633 116.847 28.5279 118.228C28.4227 119.61 29.3028 123.548 28.5279 124.23C27.7529 124.912 24.9688 120.48 24.8414 116.559C24.7141 112.637 26.9116 108.117 26.9116 107.59C26.9116 107.063 26.4024 104.545 26.4024 104.545C26.4024 104.545 33.8472 111.606 36.1498 115.328Z" fill="url(#paint7_linear_1112_3179)"/>
<path d="M156.834 103.064C156.834 103.064 163.996 90.745 169.288 90.4898C172.504 90.3345 180.629 96.691 180.884 103.164C181.227 111.817 174.109 122.056 172.47 127.203C170.832 132.35 166.249 139.178 163.005 139.988C159.762 140.798 155.156 134.807 155.156 134.807C155.156 134.807 155.477 111.001 156.834 103.064Z" fill="url(#paint8_linear_1112_3179)"/>
<path style="mix-blend-mode:multiply" opacity="0.85" d="M158.079 115.694C158.079 115.694 170.04 99.1702 174.684 98.9206C179.329 98.671 179.816 107.684 178.21 112.926C177.103 116.553 174.834 121.834 174.834 121.834C174.834 121.834 176.555 116.204 176.572 112.055C176.605 105.676 174.95 101.128 173.345 101.222C170.4 101.405 168.297 105.56 168.004 107.013C167.71 108.466 170.771 114.601 170.262 119.01C169.753 123.42 167.251 125.234 166.348 124.801C165.446 124.368 166.537 119.371 165.651 117.663C164.765 115.954 162.33 113.536 161.013 114.163C159.695 114.789 158.079 115.694 158.079 115.694Z" fill="url(#paint9_linear_1112_3179)"/>
<path style="mix-blend-mode:multiply" opacity="0.85" d="M158.079 115.694C158.079 115.694 161.134 113.636 162.131 114.185C163.127 114.734 165.673 116.808 165.845 118.178C166.016 119.548 165.358 123.536 166.166 124.174C166.974 124.812 169.52 120.236 169.437 116.315C169.354 112.393 166.93 107.995 166.896 107.468C166.863 106.941 167.245 104.401 167.245 104.401C167.245 104.401 160.188 111.855 158.079 115.694Z" fill="url(#paint10_linear_1112_3179)"/>
<path d="M155.666 131.995C153.527 146.069 147.277 159.193 137.704 169.712C133.934 173.822 134.106 173.628 130.403 177.383C128.471 179.302 126.423 181.098 124.27 182.763C121.474 184.863 118.446 186.634 115.248 188.044C108.655 190.262 97.1088 190.262 97.1088 190.262C97.1088 190.262 83.9296 190.262 78.8427 188.204C73.1387 185.683 67.9597 182.108 63.5767 177.666C57.2776 171.276 50.0653 166.867 44.6962 154.925C44.1795 153.66 43.7035 152.403 43.2681 151.153C40.2281 142.474 38.4588 133.4 38.0152 124.213C37.6056 116.254 37.0963 108.96 36.1332 100.363C34.9487 89.8907 32.6571 48.5241 35.8011 40.1709C38.9451 31.8177 76.2633 9.40381 97.1033 9.40381C111.727 9.40381 134.477 20.4471 147.817 29.9263C153.479 33.9476 157.453 37.6915 158.394 40.1709C161.549 48.5241 159.097 89.3305 158.129 99.8247C157.21 109.681 156.435 119.16 155.942 129.377C155.905 130.201 155.818 131.021 155.682 131.834C155.682 131.901 155.671 131.945 155.666 131.995Z" fill="url(#paint11_linear_1112_3179)"/>
<path style="mix-blend-mode:multiply" opacity="0.6" d="M157.774 103.757C156.8 113.43 156.435 119.288 155.948 129.399C155.461 139.511 151.376 148.258 149.638 152.035C146.632 158.53 137.715 171.049 130.486 177.804L130.425 177.865C130.257 177.993 130.05 178.058 129.839 178.047C129.628 178.037 129.428 177.952 129.273 177.809C129.118 177.665 129.019 177.471 128.993 177.261C128.967 177.052 129.015 176.839 129.13 176.662C132.39 172.718 135.888 168.298 137.261 166.029C140.123 161.303 147.252 140.659 149.732 132.267C152.018 124.502 151.332 109.881 151.741 108.361C151.772 108.231 151.772 108.097 151.741 107.967C151.566 106.745 150.975 105.621 150.066 104.787C149.158 103.953 147.99 103.459 146.759 103.391C146.605 103.379 146.451 103.408 146.311 103.474C133.58 109.648 115.685 105.554 112.386 104.722C112.226 104.682 112.081 104.598 111.966 104.48C111.852 104.361 111.773 104.213 111.738 104.051C109.491 93.6956 110.205 76.662 110.249 75.6691C110.249 75.6359 111.578 78.5146 111.583 78.4813L112.021 75.658C112.087 75.2365 120.755 70.6661 121.181 70.6661L147.689 70.411C147.833 70.4039 147.972 70.3625 148.096 70.2903C148.22 70.2182 148.325 70.1173 148.401 69.9961C148.478 69.875 148.525 69.7371 148.538 69.5941C148.551 69.4511 148.53 69.307 148.475 69.1741C147.54 66.911 145.658 61.8803 145.89 58.4746C146.156 54.6752 147.479 45.601 146.997 40.9307C146.98 40.7606 147.011 40.589 147.088 40.4362C147.164 40.2834 147.283 40.1559 147.43 40.0689C147.577 39.9818 147.746 39.9389 147.916 39.9452C148.087 39.9515 148.252 40.0067 148.392 40.1043C153.059 43.3213 156.269 46.261 157.099 48.2855C160.299 55.9454 158.749 94.0728 157.774 103.757Z" fill="url(#paint12_linear_1112_3179)"/>
<path style="mix-blend-mode:multiply" opacity="0.6" d="M36.4985 103.757C37.4783 113.431 37.4174 119.371 38.4193 129.394C39.4211 139.417 43.3566 148.635 45.0947 152.401C48.0948 158.896 57.0119 171.415 64.2409 178.171L64.3018 178.232C64.47 178.379 64.6868 178.458 64.9099 178.453C65.133 178.448 65.3464 178.36 65.5083 178.206C65.6702 178.052 65.769 177.844 65.7854 177.621C65.8018 177.398 65.7346 177.176 65.597 177C62.3368 173.057 58.8386 168.636 57.4658 166.373C54.6041 161.642 47.4748 140.997 44.995 132.605C42.709 124.84 43.3954 110.219 42.9858 108.705C42.9582 108.573 42.9582 108.437 42.9858 108.306C43.1614 107.084 43.7535 105.961 44.6615 105.127C45.5696 104.293 46.7376 103.799 47.9674 103.73C48.1204 103.718 48.2737 103.748 48.4103 103.818C61.1412 109.986 79.0364 105.898 82.3354 105.061C82.4913 105.017 82.6323 104.931 82.7434 104.813C82.8545 104.694 82.9316 104.548 82.9664 104.39C85.1805 94.0341 84.4941 77.0005 84.4499 76.0077C84.4499 75.9799 83.1214 78.8531 83.1159 78.8198L82.6786 75.9966C82.6177 75.575 73.9441 71.0046 73.5179 71.0046L46.9877 70.7217C46.8441 70.7159 46.704 70.6753 46.5794 70.6035C46.4548 70.5316 46.3494 70.4306 46.2721 70.3091C46.1949 70.1876 46.1482 70.0492 46.1359 69.9056C46.1237 69.7621 46.1462 69.6177 46.2017 69.4848C47.1372 67.2218 49.0136 62.191 48.7811 58.7854C48.5154 54.986 47.1925 45.9117 47.6741 41.2415C47.6904 41.0713 47.6579 40.8999 47.5804 40.7475C47.5029 40.5952 47.3836 40.4682 47.2365 40.3814C47.0895 40.2946 46.9208 40.2517 46.7502 40.2576C46.5797 40.2636 46.4143 40.3182 46.2737 40.415C41.6075 43.6376 38.3971 46.5718 37.5668 48.6018C34.4284 56.3005 35.5299 94.073 36.4985 103.757Z" fill="url(#paint13_linear_1112_3179)"/>
<path d="M153.302 84.3774C153.302 84.3774 144.689 79.513 135.772 79.6683C132.558 79.7396 129.356 80.0866 126.202 80.7055C121.872 81.6154 117.617 82.8483 113.471 84.394C112.491 82.534 111.889 80.4981 111.699 78.4037C111.509 76.3093 111.735 74.1979 112.364 72.1915C115.441 69.0576 118.846 69.9728 118.846 69.9728C116.792 72.7905 115.552 78.7087 115.552 78.7087C117.266 75.8909 119.163 73.1894 121.231 70.6218C121.231 70.6218 137.322 69.0465 143.499 71.3317C146.178 72.3246 148.431 74.6597 149.311 75.2976C152.71 77.8268 153.302 84.3774 153.302 84.3774Z" fill="url(#paint14_linear_1112_3179)"/>
<g style="mix-blend-mode:multiply">
<path d="M153.302 84.3775C153.302 84.3775 145.049 79.6351 135.512 79.746C132.396 79.7793 131.377 79.8514 122.781 81.4599C134.72 76.2184 144.324 76.8895 145.304 76.9783C147.612 77.1891 142.824 73.1899 142.824 73.1899C144.834 73.647 146.792 74.3068 148.669 75.159C152.605 76.9949 153.302 84.3775 153.302 84.3775Z" fill="#CF478B"/>
</g>
<path d="M41.5134 84.8988C41.5134 84.8988 50.0542 79.9068 58.9714 79.9346C62.1919 79.9525 65.4049 80.2476 68.575 80.8165C72.9164 81.6617 77.1886 82.8316 81.3557 84.3164C82.3071 82.4448 82.8799 80.4033 83.0414 78.3092C83.2029 76.2151 82.9498 74.1096 82.2967 72.1138C79.1693 69.0244 75.7818 70.0117 75.7818 70.0117C77.8796 72.785 79.2025 78.7032 79.2025 78.7032C77.4495 75.9098 75.5135 73.236 73.4072 70.6995C73.4072 70.6995 57.2942 69.3572 51.1502 71.7311C48.4878 72.7628 46.2682 75.1146 45.3991 75.7857C42.0061 78.3371 41.5134 84.8988 41.5134 84.8988Z" fill="url(#paint15_linear_1112_3179)"/>
<g style="mix-blend-mode:multiply">
<path d="M41.5134 84.8988C41.5134 84.8988 49.6944 80.0344 59.226 80.0067C62.3479 80.0067 63.3608 80.0566 71.9569 81.5376C59.9401 76.468 50.3697 77.2778 49.3679 77.3831C47.0652 77.6327 51.7923 73.5615 51.7923 73.5615C49.7918 74.0472 47.8462 74.7367 45.9859 75.6193C42.1057 77.5052 41.5134 84.8988 41.5134 84.8988Z" fill="#CF478B"/>
</g>
<path d="M162.169 97.0069L157.691 101.855L155.477 57.7702C153.651 45.2681 146.123 39.8214 138.667 42.0511C129.113 44.9131 123.722 29.1885 98.8137 28.6227C73.9054 28.057 65.5361 41.7682 58.0028 40.2152C43.5393 34.957 43.2127 54.8693 42.5485 57.7702L36.5041 102.337L32.6682 98.4546C34.7937 73.9663 34.0465 56.5888 35.5908 44.1311C36.4321 37.3642 38.768 28.7281 43.3401 23.775C44.8401 22.1554 46.6224 20.447 48.3217 18.783C52.1964 14.9559 59.1375 11.456 64.4014 8.79914C75.4111 3.23743 87.5845 0.383296 99.9137 0.472998C112.243 0.5627 124.374 3.59365 135.302 9.31498C140.051 11.7999 145.536 14.1239 149.217 17.6349C153.092 21.34 153.833 22.7267 155.035 24.5737C158.952 30.4302 161.474 37.1099 162.407 44.0978C163.957 56.5721 160.459 74.2381 162.169 97.0069Z" fill="url(#paint16_linear_1112_3179)"/>
<path d="M162.169 97.0069L158.372 100.002L155.145 56.5887C154.498 53.7267 151.824 36.7374 137.671 40.5036C136.825 40.6597 135.967 40.7359 135.108 40.731C127.801 40.2151 120.456 29.1219 97.5738 28.5673C85.3078 28.7059 78.2007 32.1115 61.3073 38.052C60.2602 38.4178 59.1346 38.4963 58.0471 38.2794C42.1223 35.2121 42.8585 53.76 42.2164 56.5832L36.1886 100.607L32.7568 97.3785C34.7107 71.3538 33.1055 55.4905 34.6443 43.0217C35.4856 36.2549 38.768 28.6893 43.3622 23.7362C42.5541 33.0711 76.5235 23.5254 96.8874 23.5254C117.251 23.5254 144.789 30.1203 154.199 23.5254C158.793 28.473 161.251 36.1495 162.092 42.9385C163.636 55.3907 160.044 72.5186 162.169 97.0069Z" fill="url(#paint17_linear_1112_3179)"/>
<g style="mix-blend-mode:multiply">
<path d="M73.5566 147.348C73.5566 147.348 79.2966 165.963 97.3579 165.963C113.327 165.963 120.451 147.348 120.451 147.348C120.451 147.348 110.183 156.5 101.327 157.365C92.4704 158.231 73.5566 147.348 73.5566 147.348Z" fill="#D0478C"/>
</g>
<path d="M69.7816 140.454C69.7816 140.454 79.2579 159.467 85.8613 161.603C92.4648 163.738 104.565 162.479 108.456 161.603C112.347 160.726 124.021 141.801 124.021 141.801C124.021 141.801 111.318 153.006 96.8985 153.006C82.4793 153.006 69.7816 140.454 69.7816 140.454Z" fill="#D18C81"/>
<path d="M69.7816 140.454C69.7816 140.454 77.9294 138.945 96.0184 138.945C114.107 138.945 125.726 140.437 125.726 140.437C125.726 140.437 110.227 153.555 96.0184 153.555C84.0735 153.571 69.7816 140.454 69.7816 140.454Z" fill="url(#paint18_linear_1112_3179)"/>
<path d="M123.401 139.062C123.401 139.062 126.229 141.319 127.469 143.077C127.469 143.077 127.884 139.943 126.645 138.357C125.405 136.771 123.401 139.062 123.401 139.062Z" fill="#75294F"/>
<path d="M71.8462 139.062C71.8462 139.062 69.0178 141.319 67.7779 143.077C67.7779 143.077 67.3627 139.943 68.6082 138.357C69.8536 136.771 71.8462 139.062 71.8462 139.062Z" fill="#75294F"/>
<path d="M74.9128 143.543C74.9128 143.543 85.1307 152.645 96.0184 152.972C109.508 153.41 120.163 143.055 120.163 143.055C120.163 143.055 106.059 146.339 95.6752 146.339C85.2912 146.339 74.9128 143.543 74.9128 143.543Z" fill="#FFECEC"/>
<path d="M115.392 144.07L115.109 147.121L121.536 142.528L115.392 144.07Z" fill="#4E1B3D"/>
<path d="M79.3132 144.553L79.8723 147.348L73.0252 142.706L79.3132 144.553Z" fill="#4E1B3D"/>
<g style="mix-blend-mode:soft-light">
<path d="M102.124 154.792L103.784 158.674C103.784 158.674 107.283 158.463 109.386 157.62C111.489 156.777 116.504 151.38 118.176 149.034L116.388 148.524C112.064 151.484 107.226 153.609 102.124 154.792Z" fill="#FFCCB8"/>
</g>
<g style="mix-blend-mode:multiply" opacity="0.6">
<path d="M79.4073 145.046C84.8363 146.422 90.413 147.126 96.0129 147.143C105.151 147.143 115.347 144.492 115.347 144.492L115.386 144.092C115.386 144.092 104.316 146.383 95.6697 146.383C90.1678 146.351 84.6842 145.745 79.3077 144.575L79.4073 145.046Z" fill="#D177B8"/>
</g>
<path style="mix-blend-mode:multiply" opacity="0.6" d="M131.881 164.914C130.397 164.359 132.988 158.258 133.569 148.585C133.729 146.33 133.604 144.064 133.198 141.84C131.864 135.129 128.405 133.415 125.067 132.966C114.805 132.527 98.4041 134.552 97.3635 134.679C96.3284 134.552 79.9276 132.527 69.6599 132.966C66.3387 133.415 62.8627 135.129 61.5342 141.84C61.1253 144.063 61.0007 146.33 61.1633 148.585C61.7445 158.28 64.335 164.354 62.8239 164.914C55.2905 169.451 41.3972 142.606 40.0854 139.993C41.3529 149.422 47.0043 161.031 52.1355 166.744C55.3791 170.361 62.2815 176.506 62.2815 176.506C62.2815 176.506 71.5363 184.599 79.4018 187.966C87.3614 190.623 96.6328 190.268 97.3635 190.234C98.0941 190.201 107.438 190.234 115.397 187.583C121.591 184.566 127.021 181.132 129.717 178.653C131.433 177.083 133.425 174.859 135.008 173.178C137.399 170.638 138.656 168.486 140.77 165.968C143.162 162.773 143.621 162.773 147.474 155.84C153.186 144.508 153.413 141.252 154.088 138.967C149.25 146.261 137.538 168.209 131.881 164.914ZM97.1033 174.998C97.1033 174.998 91.6235 174.948 87.8872 174.027C84.4222 173.178 81.9203 172.058 77.6804 169.889C72.8813 167.432 71.9957 169.335 67.8609 151.414C66.8701 147.143 66.228 142.694 67.8609 139.133C68.1491 138.385 68.6328 137.728 69.2613 137.231C69.7106 136.892 70.2251 136.65 70.7724 136.521C75.2006 135.439 77.7412 136.399 83.6528 136.837C89.4371 137.264 96.3118 137.664 97.2196 137.68H111.611C116.842 137.292 118.181 136.992 121.912 136.748C122.673 136.707 123.437 136.707 124.198 136.748C124.982 136.83 125.738 137.084 126.412 137.492C127.09 138.044 127.607 138.771 127.907 139.594C129.484 144.686 128.123 147.753 126.988 151.436C121.58 168.98 121.801 166.04 116.471 169.312C114.118 170.749 110.67 172.812 108.118 173.594C104.56 174.72 100.829 175.195 97.1033 174.998Z" fill="url(#paint19_linear_1112_3179)"/>
<path d="M142.547 163.833C138.152 169.063 139.226 169.557 127.901 180.605C125.818 182.467 123.585 184.153 121.226 185.647C117.495 188.077 116.039 188.709 113.393 189.341C108.163 190.856 96.9981 191.033 96.9981 191.033C96.9981 191.033 84.9978 190.778 80.1988 189.369C77.791 188.659 72.5713 186.147 66.4937 181.049C64.3184 178.991 54.3938 169.729 50.0487 163.982C53.79 168.002 57.7913 171.771 62.0268 175.264C68.7465 180.744 79.8723 189.247 96.9981 189.247C108.101 189.29 118.936 185.83 127.967 179.357C130.569 177.494 142.193 164.099 142.547 163.833Z" fill="url(#paint20_linear_1112_3179)"/>
<path style="mix-blend-mode:multiply" opacity="0.35" d="M113.72 103.602C118.762 108.292 125.455 110.786 132.329 110.535C141.058 110.263 144.678 109.714 147.042 102.542L142.06 103.591C135.695 105.834 128.812 106.155 122.266 104.512L113.72 103.602Z" fill="url(#paint21_linear_1112_3179)"/>
<path d="M144.695 102.764C144.695 102.764 141.329 106.924 133.835 107.202C126.34 107.479 118.812 105.698 114.7 102.687C115.21 101.46 115.853 100.292 116.615 99.2034C118.929 95.8255 123.506 91.2162 131.278 91.2107C142.06 91.2107 144.252 100.146 144.628 102.304C144.678 102.598 144.695 102.764 144.695 102.764Z" fill="url(#paint22_linear_1112_3179)"/>
<path d="M128.964 107.329C134.549 107.329 139.077 102.792 139.077 97.1957C139.077 91.599 134.549 87.062 128.964 87.062C123.379 87.062 118.851 91.599 118.851 97.1957C118.851 102.792 123.379 107.329 128.964 107.329Z" fill="url(#paint23_linear_1112_3179)"/>
<path d="M137.998 99.3859C139.214 94.3796 136.15 89.3333 131.154 88.1147C126.158 86.8962 121.122 89.9668 119.906 94.9731C118.69 99.9794 121.754 105.026 126.75 106.244C131.746 107.463 136.782 104.392 137.998 99.3859Z" fill="url(#paint24_linear_1112_3179)"/>
<path style="mix-blend-mode:multiply" d="M134.677 97.2318C134.696 94.0736 132.157 91.4977 129.005 91.4784C125.854 91.4591 123.283 94.0037 123.264 97.1619C123.245 100.32 125.784 102.896 128.936 102.915C132.087 102.935 134.658 100.39 134.677 97.2318Z" fill="url(#paint25_linear_1112_3179)"/>
<g style="mix-blend-mode:multiply" opacity="0.6">
<path d="M144.695 102.765C142.63 100.18 138.435 97.4897 132.174 95.9644C124.425 94.073 117.024 98.6489 116.615 99.1925C118.923 95.8146 123.39 92.0263 131.161 92.0208C141.944 92.0263 144.318 100.601 144.695 102.765Z" fill="#CF77B6"/>
</g>
<path d="M118.071 97.3009C118.071 97.3009 120.894 88.0879 130.099 86.6403C141.612 84.8265 143.964 99.819 143.964 99.819C143.964 99.819 134.781 82.5191 118.071 97.3009Z" fill="#BC6340"/>
<path d="M118.807 104.867C119.632 105.177 134.056 106.286 143.018 104.256C143.261 104.201 138.922 108.139 132.44 108.139C123.556 108.161 118.807 104.867 118.807 104.867Z" fill="#75233D"/>
<path d="M116.615 99.1924C116.615 99.1924 113.294 101.966 113.355 102.942C113.416 103.918 116.897 104.012 116.897 104.012C116.897 104.012 115.309 102.615 115.469 102.021C115.63 101.428 116.615 99.1924 116.615 99.1924Z" fill="#870A2C"/>
<path d="M144.496 101.616C144.496 101.616 144.7 97.129 144.08 95.6315C143.46 94.1339 138.274 90.0848 131.427 89.4969C124.58 88.909 119.593 94.7218 116.969 98.6821C116.969 98.6821 124.879 90.2291 133.547 92.5254C142.215 94.8217 144.496 101.616 144.496 101.616Z" fill="#2E031E"/>
<path style="mix-blend-mode:multiply" opacity="0.35" d="M81.5383 102.515C79.1289 105.005 76.23 106.968 73.025 108.279C69.82 109.59 66.3785 110.22 62.918 110.13C54.0617 109.931 50.8734 108.799 48.366 101.417L53.4196 102.454C59.8955 104.707 66.8945 104.975 73.5234 103.225L81.5383 102.515Z" fill="url(#paint26_linear_1112_3179)"/>
<path d="M49.9158 102.892C49.9158 102.892 53.3034 107.03 60.7925 107.252C68.2816 107.473 75.7928 105.66 79.8833 102.626C79.3676 101.403 78.7198 100.24 77.9516 99.159C75.6212 95.7978 71.016 91.2218 63.2556 91.2662C52.4842 91.3327 50.3476 100.268 49.9712 102.432C49.938 102.731 49.9158 102.892 49.9158 102.892Z" fill="url(#paint27_linear_1112_3179)"/>
<path d="M65.6081 107.363C71.1871 107.363 75.7098 102.831 75.7098 97.24C75.7098 91.6495 71.1871 87.1174 65.6081 87.1174C60.0291 87.1174 55.5064 91.6495 55.5064 97.24C55.5064 102.831 60.0291 107.363 65.6081 107.363Z" fill="url(#paint28_linear_1112_3179)"/>
<path d="M67.8596 106.275C72.8424 105.028 75.8731 99.9696 74.6289 94.9765C73.3847 89.9834 68.3367 86.9465 63.354 88.1932C58.3712 89.44 55.3405 94.4984 56.5847 99.4914C57.8288 104.484 62.8768 107.521 67.8596 106.275Z" fill="url(#paint29_linear_1112_3179)"/>
<path style="mix-blend-mode:multiply" d="M71.1322 95.859C71.4054 96.9554 71.348 98.1085 70.9671 99.1722C70.5863 100.236 69.8991 101.163 68.9926 101.835C68.0861 102.507 67.001 102.895 65.8745 102.949C64.748 103.004 63.6307 102.722 62.6641 102.14C61.6974 101.558 60.9247 100.701 60.4438 99.6791C59.9629 98.6568 59.7954 97.5146 59.9624 96.3969C60.1294 95.2793 60.6235 94.2363 61.3821 93.4001C62.1407 92.5639 63.1298 91.9719 64.2243 91.699C64.9505 91.5172 65.7053 91.4806 66.4456 91.5913C67.1859 91.702 67.8971 91.9579 68.5387 92.3442C69.1802 92.7306 69.7395 93.2399 70.1845 93.8429C70.6295 94.446 70.9516 95.1311 71.1322 95.859Z" fill="url(#paint30_linear_1112_3179)"/>
<g style="mix-blend-mode:multiply" opacity="0.6">
<path d="M49.9823 102.432C52.0303 99.8359 56.0212 96.7686 62.2648 95.2211C70.0141 93.2909 77.5309 98.6378 77.9516 99.1759C75.6213 95.8146 71.016 91.2387 63.2557 91.283C52.4842 91.333 50.3476 100.269 49.9823 102.432Z" fill="#CF77B6"/>
</g>
<path d="M76.4847 97.29C76.4847 97.29 73.612 88.0993 64.407 86.7071C52.8993 84.9599 50.6354 99.9524 50.6354 99.9524C50.6354 99.9524 59.7187 82.6192 76.4847 97.29Z" fill="#BC6340"/>
<path d="M75.7707 104.85C74.9515 105.16 60.5489 106.358 51.5819 104.384C51.3384 104.328 55.6946 108.267 62.1707 108.211C71.0713 108.167 75.7707 104.85 75.7707 104.85Z" fill="#75233D"/>
<path d="M77.9516 99.1702C77.9516 99.1702 81.2727 101.894 81.2284 102.897C81.1841 103.901 77.697 104.007 77.697 104.007C77.697 104.007 79.28 102.598 79.114 102.01C78.9479 101.422 77.9516 99.1702 77.9516 99.1702Z" fill="#870A2C"/>
<path d="M50.1151 101.783C50.1151 101.783 49.8826 97.3011 50.497 95.8035C51.1114 94.3059 56.2592 90.2014 63.0951 89.5802C69.9311 88.959 74.946 94.733 77.5918 98.6711C77.5918 98.6711 69.6432 90.2735 60.9862 92.6197C52.3292 94.9659 50.1151 101.783 50.1151 101.783Z" fill="#2E031E"/>
<path d="M118.702 125.566C117.921 127.469 110.244 127.047 107.936 127.885C105.627 128.722 103.784 131.213 97.5959 131.213C91.4076 131.213 89.5755 128.711 87.2618 127.885C84.948 127.058 77.2984 127.469 76.4958 125.566C74.8906 121.684 76.767 118.816 79.0143 116.958C79.9911 116.166 81.0553 115.489 82.186 114.939C83.1896 114.437 84.1299 113.817 84.9868 113.092C87.6571 110.952 90.7755 109.445 94.1088 108.683C96.4025 108.128 98.7949 108.128 101.089 108.683C104.422 109.445 107.54 110.952 110.211 113.092C111.068 113.817 112.008 114.437 113.011 114.939C114.201 115.515 115.316 116.234 116.333 117.08C118.502 118.933 120.274 121.75 118.702 125.566Z" fill="url(#paint31_linear_1112_3179)"/>
<g style="mix-blend-mode:multiply" opacity="0.6">
<path d="M118.702 125.567C117.921 127.469 110.244 127.047 107.936 127.885C105.627 128.723 103.784 131.213 97.5959 131.213C91.4076 131.213 89.5755 128.711 87.2618 127.885C84.948 127.059 77.2984 127.469 76.4958 125.567C74.8906 121.684 76.767 118.816 79.0143 116.958C76.8279 121.789 77.6693 124.779 79.0143 124.845C80.3594 124.912 84.6436 123.736 88.247 124.291C91.8504 124.845 93.2287 125.611 97.4133 125.611C101.598 125.611 102.982 124.845 106.58 124.291C110.177 123.736 114.478 124.918 115.818 124.845C117.157 124.773 118.004 121.789 115.818 116.953L116.321 117.075C118.502 118.933 120.274 121.75 118.702 125.567Z" fill="#D077B7"/>
</g>
<path d="M81.5384 127.147C82.4889 126.849 83.4927 126.76 84.4807 126.888C85.4687 127.015 86.4175 127.355 87.2617 127.885L81.5384 127.147Z" fill="url(#paint32_linear_1112_3179)"/>
<path d="M113.487 127.147C112.537 126.849 111.533 126.76 110.545 126.888C109.557 127.015 108.608 127.355 107.764 127.885L113.487 127.147Z" fill="url(#paint33_linear_1112_3179)"/>
<g style="mix-blend-mode:multiply">
<path d="M81.5384 115.272C84.162 115.372 83.138 119.743 83.138 119.743C83.138 119.743 85.2137 116.332 83.6915 114.046L81.5384 115.272Z" fill="#CD86EF"/>
</g>
<g style="mix-blend-mode:multiply">
<path d="M113.487 115.272C110.864 115.372 111.888 119.743 111.888 119.743C111.888 119.743 109.812 116.332 111.334 114.046L113.487 115.272Z" fill="#CD86EF"/>
</g>
<path opacity="0.7" d="M102.196 119.743C101.221 121.013 101.969 121.789 102.196 122.205C102.423 122.621 105.185 122.621 105.417 122.205C105.65 121.789 105.644 119.776 105.417 119.743C105.19 119.709 102.594 119.227 102.196 119.743Z" fill="#FFCDBD"/>
<g style="mix-blend-mode:multiply">
<path d="M76.8777 126.143C76.8777 126.143 76.839 125.139 78.9534 124.912C81.0679 124.685 84.6602 123.52 88.568 124.562C91.6047 125.442 94.7648 125.817 97.9225 125.672C100.352 125.511 106.275 123.73 109.546 124.152C112.818 124.574 114.412 124.912 115.735 124.912C117.058 124.912 118.298 125.428 118.176 126.143C118.054 126.859 108.799 135.617 97.524 135.617C86.2488 135.617 76.8777 126.143 76.8777 126.143Z" fill="#EA88BE"/>
</g>
<path style="mix-blend-mode:multiply" opacity="0.6" d="M76.7006 119.532C76.7006 119.532 71.2318 125.827 70.6838 134.092L76.7006 119.532Z" fill="url(#paint34_linear_1112_3179)"/>
<path style="mix-blend-mode:multiply" opacity="0.6" d="M118.552 119.532C118.552 119.532 124.015 125.827 124.569 134.092L118.552 119.532Z" fill="url(#paint35_linear_1112_3179)"/>
<path d="M60.7758 98.9372C61.4954 99.1258 59.2703 100.496 57.2167 100.734C55.379 100.945 54.1281 100.318 54.1834 100.058C54.2388 99.797 57.9308 98.1884 60.7758 98.9372Z" fill="white"/>
<path d="M62.3036 98.6765C62.8294 98.083 63.7649 98.022 63.9641 98.3659C64.1634 98.7098 63.5988 99.6084 63.1505 99.6638C62.7021 99.7193 62.0047 99.0093 62.3036 98.6765Z" fill="white"/>
<path d="M133.398 98.9372C132.678 99.1258 134.903 100.496 136.957 100.734C138.794 100.945 140.045 100.318 139.99 100.058C139.935 99.797 136.243 98.1884 133.398 98.9372Z" fill="white"/>
<path d="M131.875 98.6765C131.322 98.083 130.409 98.022 130.215 98.3659C130.021 98.7098 130.58 99.6084 131.023 99.6638C131.466 99.7193 132.169 99.0093 131.875 98.6765Z" fill="white"/>
<defs>
<linearGradient id="paint0_linear_1112_3179" x1="98" y1="234.973" x2="98" y2="165.962" gradientUnits="userSpaceOnUse">
<stop stop-color="#BE6249"/>
<stop offset="0.47" stop-color="#B55A3F"/>
<stop offset="1" stop-color="#B2573B"/>
</linearGradient>
<linearGradient id="paint1_linear_1112_3179" x1="98" y1="234.973" x2="98" y2="207.911" gradientUnits="userSpaceOnUse">
<stop offset="0.01" stop-color="#F48484"/>
<stop offset="1" stop-color="#EA2727"/>
</linearGradient>
<linearGradient id="paint2_linear_1112_3179" x1="118.652" y1="218.849" x2="118.652" y2="175.042" gradientUnits="userSpaceOnUse">
<stop stop-color="#FFE9DA"/>
<stop offset="0.99" stop-color="#B495B8"/>
</linearGradient>
<linearGradient id="paint3_linear_1112_3179" x1="135.08" y1="229.632" x2="135.08" y2="212.937" gradientUnits="userSpaceOnUse">
<stop stop-color="#FFE9DA"/>
<stop offset="0.99" stop-color="#B44CF3"/>
</linearGradient>
<linearGradient id="paint4_linear_1112_3179" x1="54.5543" y1="229.632" x2="54.5543" y2="211.822" gradientUnits="userSpaceOnUse">
<stop stop-color="#FFE9DA"/>
<stop offset="0.99" stop-color="#B44CF3"/>
</linearGradient>
<linearGradient id="paint5_linear_1112_3179" x1="34.0077" y1="138.096" x2="20.8945" y2="90.7477" gradientUnits="userSpaceOnUse">
<stop stop-color="#BA5F40"/>
<stop offset="0.57" stop-color="#AD4531"/>
<stop offset="1" stop-color="#A63629"/>
</linearGradient>
<linearGradient id="paint6_linear_1112_3179" x1="25.4337" y1="124.945" x2="25.4337" y2="99.4641" gradientUnits="userSpaceOnUse">
<stop stop-color="#FFE9DA"/>
<stop offset="0.99" stop-color="#B44CF3"/>
</linearGradient>
<linearGradient id="paint7_linear_1112_3179" x1="30.4929" y1="124.296" x2="30.4929" y2="104.545" gradientUnits="userSpaceOnUse">
<stop stop-color="#FFE9DA"/>
<stop offset="0.99" stop-color="#B44CF3"/>
</linearGradient>
<linearGradient id="paint8_linear_1112_3179" x1="148.487" y1="142.426" x2="187.546" y2="78.4247" gradientUnits="userSpaceOnUse">
<stop stop-color="#BA5F40"/>
<stop offset="0.57" stop-color="#AD4531"/>
<stop offset="1" stop-color="#A63629"/>
</linearGradient>
<linearGradient id="paint9_linear_1112_3179" x1="169.296" y1="124.724" x2="167.938" y2="99.2788" gradientUnits="userSpaceOnUse">
<stop stop-color="#FFE9DA"/>
<stop offset="0.99" stop-color="#B44CF3"/>
</linearGradient>
<linearGradient id="paint10_linear_1112_3179" x1="164.21" y1="124.345" x2="163.157" y2="104.622" gradientUnits="userSpaceOnUse">
<stop stop-color="#FFE9DA"/>
<stop offset="0.99" stop-color="#B44CF3"/>
</linearGradient>
<linearGradient id="paint11_linear_1112_3179" x1="97.0867" y1="190.268" x2="97.0867" y2="9.42599" gradientUnits="userSpaceOnUse">
<stop stop-color="#C26354"/>
<stop offset="0.1" stop-color="#C0624E"/>
<stop offset="0.39" stop-color="#BB6140"/>
<stop offset="0.45" stop-color="#BA5D40"/>
<stop offset="0.71" stop-color="#B54F41"/>
<stop offset="0.82" stop-color="#BE5841"/>
<stop offset="1" stop-color="#C86140"/>
</linearGradient>
<linearGradient id="paint12_linear_1112_3179" x1="134.588" y1="178.115" x2="134.588" y2="39.888" gradientUnits="userSpaceOnUse">
<stop stop-color="white"/>
<stop offset="0.99" stop-color="#A76774"/>
</linearGradient>
<linearGradient id="paint13_linear_1112_3179" x1="60.0397" y1="178.481" x2="60.0397" y2="40.2597" gradientUnits="userSpaceOnUse">
<stop stop-color="white"/>
<stop offset="0.99" stop-color="#A76774"/>
</linearGradient>
<linearGradient id="paint14_linear_1112_3179" x1="133.636" y1="71.7144" x2="132.872" y2="86.9508" gradientUnits="userSpaceOnUse">
<stop stop-color="#6A1424"/>
<stop offset="1" stop-color="#2E002C"/>
</linearGradient>
<linearGradient id="paint15_linear_1112_3179" x1="61.0428" y1="69.9421" x2="61.9585" y2="85.1729" gradientUnits="userSpaceOnUse">
<stop stop-color="#6A1424"/>
<stop offset="1" stop-color="#2E002C"/>
</linearGradient>
<linearGradient id="paint16_linear_1112_3179" x1="97.7399" y1="-23.2714" x2="97.7399" y2="110.824" gradientUnits="userSpaceOnUse">
<stop stop-color="#39002E"/>
<stop offset="0.56" stop-color="#9A333B"/>
</linearGradient>
<linearGradient id="paint17_linear_1112_3179" x1="97.6236" y1="86.4572" x2="97.6236" y2="-36.5444" gradientUnits="userSpaceOnUse">
<stop stop-color="#850E3B"/>
<stop offset="0.38" stop-color="#6B0937"/>
<stop offset="1" stop-color="#39002E"/>
</linearGradient>
<linearGradient id="paint18_linear_1112_3179" x1="97.7509" y1="118.766" x2="97.7509" y2="174.826" gradientUnits="userSpaceOnUse">
<stop offset="0.23" stop-color="#9E4D63"/>
<stop offset="0.49" stop-color="#82375D"/>
<stop offset="0.81" stop-color="#662156"/>
<stop offset="0.99" stop-color="#5C1954"/>
</linearGradient>
<linearGradient id="paint19_linear_1112_3179" x1="97.0867" y1="71.7143" x2="97.0867" y2="203.13" gradientUnits="userSpaceOnUse">
<stop stop-color="#C0CDFF"/>
<stop offset="0.02" stop-color="#BEC9FE"/>
<stop offset="0.25" stop-color="#AC99F8"/>
<stop offset="0.47" stop-color="#9E73F3"/>
<stop offset="0.68" stop-color="#9358F0"/>
<stop offset="0.86" stop-color="#8D48EE"/>
<stop offset="0.99" stop-color="#8B42ED"/>
</linearGradient>
<linearGradient id="paint20_linear_1112_3179" x1="59.071" y1="177.438" x2="203.705" y2="177.438" gradientUnits="userSpaceOnUse">
<stop stop-color="#850E3B"/>
<stop offset="1" stop-color="#39002E"/>
</linearGradient>
<linearGradient id="paint21_linear_1112_3179" x1="150.359" y1="105.299" x2="130.274" y2="108.428" gradientUnits="userSpaceOnUse">
<stop stop-color="white"/>
<stop offset="0.99" stop-color="#A76774" stop-opacity="0.5"/>
</linearGradient>
<linearGradient id="paint22_linear_1112_3179" x1="128.546" y1="107.502" x2="132.573" y2="90.9934" gradientUnits="userSpaceOnUse">
<stop stop-color="#ECE0FF"/>
<stop offset="1" stop-color="#BBC7F9"/>
</linearGradient>
<linearGradient id="paint23_linear_1112_3179" x1="130.058" y1="116.924" x2="110.429" y2="112.078" gradientUnits="userSpaceOnUse">
<stop stop-color="#604300"/>
<stop offset="1" stop-color="#471400"/>
</linearGradient>
<linearGradient id="paint24_linear_1112_3179" x1="127.389" y1="103.637" x2="130.811" y2="89.6067" gradientUnits="userSpaceOnUse">
<stop stop-color="#621E18"/>
<stop offset="1" stop-color="#2E0010"/>
</linearGradient>
<linearGradient id="paint25_linear_1112_3179" x1="112.705" y1="97.3912" x2="114.797" y2="88.819" gradientUnits="userSpaceOnUse">
<stop stop-color="#604300"/>
<stop offset="1" stop-color="#471400"/>
</linearGradient>
<linearGradient id="paint26_linear_1112_3179" x1="45.6224" y1="104.444" x2="65.6544" y2="107.256" gradientUnits="userSpaceOnUse">
<stop stop-color="white"/>
<stop offset="0.99" stop-color="#A76774" stop-opacity="0.5"/>
</linearGradient>
<linearGradient id="paint27_linear_1112_3179" x1="64.7375" y1="117.975" x2="60.6553" y2="101.51" gradientUnits="userSpaceOnUse">
<stop stop-color="#ECE0FF"/>
<stop offset="1" stop-color="#BBC7F9"/>
</linearGradient>
<linearGradient id="paint28_linear_1112_3179" x1="55.8128" y1="99.701" x2="75.4191" y2="94.8155" gradientUnits="userSpaceOnUse">
<stop stop-color="#604300"/>
<stop offset="1" stop-color="#471400"/>
</linearGradient>
<linearGradient id="paint29_linear_1112_3179" x1="67.2119" y1="103.675" x2="63.7091" y2="89.6765" gradientUnits="userSpaceOnUse">
<stop stop-color="#621E18"/>
<stop offset="1" stop-color="#2E0010"/>
</linearGradient>
<linearGradient id="paint30_linear_1112_3179" x1="66.5965" y1="101.193" x2="64.4493" y2="92.6121" gradientUnits="userSpaceOnUse">
<stop stop-color="#604300"/>
<stop offset="1" stop-color="#471400"/>
</linearGradient>
<linearGradient id="paint31_linear_1112_3179" x1="97.5959" y1="108.261" x2="97.5959" y2="131.218" gradientUnits="userSpaceOnUse">
<stop stop-color="#BC6340"/>
<stop offset="0.18" stop-color="#C16843"/>
<stop offset="0.4" stop-color="#D0784C"/>
<stop offset="0.47" stop-color="#D67E50"/>
<stop offset="0.63" stop-color="#D1784E"/>
<stop offset="0.85" stop-color="#C46747"/>
<stop offset="1" stop-color="#B85740"/>
</linearGradient>
<linearGradient id="paint32_linear_1112_3179" x1="81.5384" y1="127.347" x2="87.2617" y2="127.347" gradientUnits="userSpaceOnUse">
<stop stop-color="#721E24"/>
<stop offset="1" stop-color="#510036"/>
</linearGradient>
<linearGradient id="paint33_linear_1112_3179" x1="107.764" y1="127.347" x2="113.487" y2="127.347" gradientUnits="userSpaceOnUse">
<stop stop-color="#721E24"/>
<stop offset="1" stop-color="#510036"/>
</linearGradient>
<linearGradient id="paint34_linear_1112_3179" x1="73.6894" y1="134.086" x2="73.6894" y2="119.526" gradientUnits="userSpaceOnUse">
<stop stop-color="#FFEADB"/>
<stop offset="0.99" stop-color="#D177F4"/>
</linearGradient>
<linearGradient id="paint35_linear_1112_3179" x1="121.558" y1="134.086" x2="121.558" y2="119.526" gradientUnits="userSpaceOnUse">
<stop stop-color="#FFEADB"/>
<stop offset="0.99" stop-color="#D177F4"/>
</linearGradient>
</defs>
</svg>
