<svg width="200" height="235" viewBox="0 0 200 235" fill="none" xmlns="http://www.w3.org/2000/svg">
<path d="M55.7792 164.631C55.7792 164.631 54.31 204.769 53.2911 208.736C52.2723 212.703 0 234.916 0 234.916H199.646C199.646 234.916 142.842 214.852 141.314 210.258C139.786 205.665 139.748 167.375 139.748 167.375L55.7792 164.631Z" fill="url(#paint0_linear_1112_3675)"/>
<path d="M53.4895 207.568C53.4895 207.568 49.323 207.085 48.8672 207.568C48.4114 208.05 48.8672 211.32 48.8672 211.32L0 234.906H199.646L146.929 212.462C146.929 212.462 145.111 207.477 141.314 210.253L142.617 212.124C142.617 212.124 124.921 231.052 95.4285 231.052C65.9355 231.052 53.4895 207.568 53.4895 207.568Z" fill="url(#paint1_linear_1112_3675)"/>
<g style="mix-blend-mode:multiply" opacity="0.6">
<path d="M55.1251 180.632C55.1251 180.632 64.9704 183.398 67.3512 187.648C69.7321 191.899 85.047 223.863 97.1123 224.372C109.178 224.882 117.012 207.884 123.13 203.96C129.249 200.036 140.349 199.763 140.349 199.763L139.765 167.391L55.7793 164.62L55.1251 180.632Z" fill="#D177B8"/>
</g>
<path style="mix-blend-mode:multiply" opacity="0.6" d="M112.878 186.635L109.767 218.492C109.767 218.492 117.275 210.092 121.093 203.971C124.911 197.849 132.08 173.883 132.08 173.883L112.878 186.635Z" fill="url(#paint2_linear_1112_3675)"/>
<path style="mix-blend-mode:multiply" opacity="0.6" d="M146.945 212.472C146.945 212.472 134.118 224.035 120.916 229.475C120.916 229.475 147.127 221.14 154.463 215.672L146.945 212.472Z" fill="url(#paint3_linear_1112_3675)"/>
<path style="mix-blend-mode:multiply" opacity="0.6" d="M48.8671 211.341C55.7037 217.971 63.0672 224.036 70.885 229.476C70.885 229.476 54.2885 225.042 40.0729 215.587L48.8671 211.341Z" fill="url(#paint4_linear_1112_3675)"/>
<g style="mix-blend-mode:multiply" opacity="0.6">
<path d="M61.1844 217.259C61.1844 217.259 74.5635 229.476 97.7611 229.476C120.959 229.476 134.97 218.492 134.97 218.492C134.97 218.492 119.017 231.062 95.4874 231.062C71.9574 231.062 61.1844 217.259 61.1844 217.259Z" fill="#D177B8"/>
</g>
<path d="M154.908 99.8612C154.908 99.8612 163.262 87.1356 168.93 87.1678C172.378 87.1678 180.701 94.4204 180.61 101.335C180.481 110.582 172.287 121.088 170.249 126.481C168.212 131.873 162.919 138.901 159.428 139.576C155.937 140.252 151.336 133.61 151.336 133.61C151.336 133.61 153.02 108.245 154.908 99.8612Z" fill="url(#paint5_linear_1112_3675)"/>
<path style="mix-blend-mode:multiply" opacity="0.6" d="M155.524 113.396C155.524 113.396 169.241 96.4629 174.228 96.4629C179.215 96.4629 179.221 106.112 177.204 111.59C175.81 115.401 173.092 120.896 173.092 120.896C173.092 120.896 175.236 114.999 175.505 110.571C175.901 103.769 174.389 98.8268 172.673 98.8429C169.515 98.8429 167.027 103.174 166.63 104.707C166.233 106.24 169.129 112.951 168.362 117.626C167.595 122.3 164.791 124.09 163.858 123.554C162.924 123.018 164.367 117.776 163.514 115.905C162.662 114.034 160.2 111.317 158.753 111.912C157.305 112.507 155.524 113.396 155.524 113.396Z" fill="url(#paint6_linear_1112_3675)"/>
<path style="mix-blend-mode:multiply" opacity="0.6" d="M155.524 113.396C155.524 113.396 158.903 111.375 159.932 112.024C160.962 112.673 163.573 115.015 163.686 116.489C163.799 117.963 162.86 122.171 163.686 122.895C164.512 123.618 167.499 118.896 167.633 114.709C167.767 110.523 165.418 105.699 165.418 105.13C165.418 104.562 165.954 101.882 165.954 101.882C165.954 101.882 157.991 109.424 155.524 113.396Z" fill="url(#paint7_linear_1112_3675)"/>
<path d="M43.1562 99.8612C43.1562 99.8612 34.807 87.1356 29.1229 87.1678C25.675 87.1678 17.3526 94.4204 17.4437 101.335C17.5724 110.582 25.7607 121.088 27.8038 126.481C29.8469 131.873 35.1341 138.901 38.6465 139.576C42.1588 140.252 46.7383 133.61 46.7383 133.61C46.7383 133.61 45.0492 108.245 43.1562 99.8612Z" fill="url(#paint8_linear_1112_3675)"/>
<path style="mix-blend-mode:multiply" opacity="0.6" d="M42.5289 113.396C42.5289 113.396 28.812 96.4629 23.8196 96.4629C18.8273 96.4629 18.8326 106.112 20.8435 111.59C22.2377 115.401 24.9618 120.896 24.9618 120.896C24.9618 120.896 22.8169 114.999 22.5487 110.571C22.1519 103.769 23.6641 98.8268 25.3801 98.8429C28.5385 98.8429 31.0266 103.174 31.4181 104.707C31.8095 106.24 28.9246 112.951 29.6914 117.626C30.4582 122.3 33.2627 124.085 34.1958 123.576C35.1288 123.067 33.6596 117.797 34.539 115.926C35.4184 114.056 37.8529 111.338 39.3007 111.933C40.7486 112.528 42.5289 113.396 42.5289 113.396Z" fill="url(#paint9_linear_1112_3675)"/>
<path style="mix-blend-mode:multiply" opacity="0.6" d="M42.5288 113.396C42.5288 113.396 39.1452 111.375 38.1156 112.024C37.0861 112.673 34.4799 115.015 34.362 116.489C34.244 117.963 35.1931 122.171 34.362 122.895C33.5308 123.618 30.5547 118.896 30.4206 114.709C30.2866 110.523 32.6299 105.699 32.6299 105.13C32.6299 104.562 32.0937 101.882 32.0937 101.882C32.0937 101.882 40.0782 109.424 42.5288 113.396Z" fill="url(#paint10_linear_1112_3675)"/>
<path d="M43.3707 134.57C42.2983 126.712 42.132 120.343 41.2258 113.38C41.0274 111.853 40.8987 110.319 40.8504 108.781C40.7314 105.244 40.8802 101.703 41.2955 98.1889C43.5531 73.1452 39.7243 55.011 43.4673 47.8013C46.4219 39.8733 63.4367 20.4633 98.9462 19.075C98.9462 19.075 141.582 19.075 156.323 48.3159C159.68 55.1236 156.243 77.6854 157.83 94.1901C158.302 99.0948 159.342 104.568 158.608 109.44C157.294 118.097 157.133 127.751 156.012 136.076C154.624 146.422 152.623 153.878 150.999 157.754C150.077 159.727 148.84 161.538 147.336 163.114C142.703 168.33 135.335 173.835 130.343 178.949C128.581 180.751 126.679 182.411 124.653 183.912H124.627C121.972 185.921 119.093 187.614 116.047 188.956C111.29 190.913 98.9569 190.913 98.9569 190.913C98.9569 190.913 86.6235 190.913 81.8671 188.956C76.5118 186.549 71.6623 183.148 67.5764 178.932C61.6778 172.859 54.0365 166.271 49.9235 160.262C49.9128 160.332 46.1109 156.172 43.3707 134.57Z" fill="url(#paint11_linear_1112_3675)"/>
<path style="mix-blend-mode:multiply" opacity="0.6" d="M152.05 120.585C151.739 126.052 151.717 128.85 150.618 134.457C146.526 155.443 144.001 157.791 134.971 169.949C132.402 174.617 120.953 185.821 120.17 186.539C122.02 185.161 127.764 180.943 129.651 179.002C136.408 172.034 147.947 164.985 150.757 158.29C152.366 154.414 154.683 145.269 156.146 134.999C157.685 121.764 158.291 113.82 158.828 106.171C159.015 103.651 158.543 100.698 158.243 98.1891C155.98 84.1395 159.637 53.8908 156.291 48.3375C155.412 45.9735 150.827 38.93 145.4 34.6738C146.8 37.949 145.427 54.1856 145.132 58.8331C144.837 63.4806 149.004 73.3061 149.004 73.3061L117.168 72.561C113.612 76.1914 111.341 80.8843 110.701 85.9245C110.025 91.778 111.328 98.5429 111.328 98.5429C111.328 98.5429 116.878 112.051 138.676 108.004C141.12 107.515 143.658 107.872 145.872 109.017C148.832 110.609 151.964 113.857 152.05 120.585Z" fill="url(#paint12_linear_1112_3675)"/>
<path style="mix-blend-mode:multiply" opacity="0.6" d="M47.3925 119.148C47.6906 124.727 48.3696 130.279 49.4248 135.765C53.5217 156.751 55.5755 157.904 64.6057 170.072C67.1742 174.741 78.6229 185.944 79.4058 186.662C77.5558 185.284 71.8073 181.066 69.9251 179.125C63.1686 172.157 51.6288 165.108 48.8189 158.413C47.2102 154.537 44.8936 145.392 43.4565 135.122C41.9122 121.887 41.3116 113.943 40.7485 106.294C40.5609 103.774 41.0381 100.821 41.3384 98.3121C43.596 84.2625 39.9442 54.0139 43.2903 48.4605C44.1697 46.0966 48.7545 39.053 54.1812 34.7969C52.7817 38.0721 54.1544 54.3087 54.4494 58.9561C54.7443 63.6036 50.4276 73.3595 50.4276 73.3595L82.4141 72.7055C85.9524 76.3293 88.2116 81.0079 88.8489 86.0315C89.5299 91.885 88.2269 98.6498 88.2269 98.6498C88.2269 98.6498 82.8216 112.405 60.3426 107.87C58.3013 107.439 56.1822 107.56 54.2027 108.218C51.055 109.306 47.4837 112.094 47.3925 119.148Z" fill="url(#paint13_linear_1112_3675)"/>
<g style="mix-blend-mode:multiply" opacity="0.6">
<path d="M147.32 163.167C142.687 168.383 135.319 173.888 130.327 179.002C128.565 180.805 126.662 182.465 124.637 183.966H124.61C121.956 185.974 119.077 187.667 116.031 189.01C111.274 190.966 98.9409 190.966 98.9409 190.966C98.9409 190.966 86.6074 190.966 81.851 189.01C76.4957 186.603 71.6463 183.201 67.5603 178.986C61.6617 172.913 53.5324 165.585 49.4195 159.592C53.3086 163.873 57.4848 167.885 61.9191 171.599C68.9921 177.469 80.9073 189.498 98.9194 189.498C116.932 189.498 130.021 176.038 132.82 173.995C135.619 171.953 146.95 163.457 147.32 163.167Z" fill="#D177B8"/>
</g>
<path d="M139.051 70.9905C140.442 71.1471 141.818 71.4178 143.164 71.7999C143.164 71.7999 142.848 71.5587 142.864 71.3764C142.864 71.3764 143.523 71.2853 145.427 72.6415C145.937 73.006 146.537 73.4723 147.24 74.078L147.947 74.6998C148.828 75.4723 149.605 76.3551 150.259 77.3264C151.808 79.6904 151.497 80.8536 151.497 80.8536C150.762 80.7475 150.052 80.5096 149.401 80.1514C144.023 77.4968 137.945 76.6075 132.032 77.6105C127.453 78.3771 121.919 79.5885 117.913 79.6528C117.184 79.6709 116.455 79.6405 115.73 79.5617C115.73 79.5617 111.478 79.165 109.912 73.4509C109.671 72.3788 110.154 72.1161 110.154 72.1161L111.087 72.3466C111.087 72.3466 111.623 75.0697 113.553 75.0804C113.553 75.0804 112.572 73.2525 112.652 71.8642C116.503 71.269 120.385 70.8967 124.278 70.7492C129.2 70.3898 134.144 70.4706 139.051 70.9905Z" fill="url(#paint14_linear_1112_3675)"/>
<g style="mix-blend-mode:multiply" opacity="0.6">
<path d="M133.587 70.5559C121.597 73.8472 115.355 79.4488 115.355 79.4488C120.567 80.5209 131.383 77.0795 137.421 77.2028C142.338 77.3489 147.159 78.5963 151.529 80.8532C151.529 80.8532 150.457 78.5214 149.052 77.7335C144.982 76.3987 139.571 75.198 138.054 74.6995C136.37 74.1634 142.816 73.6971 146.805 73.6274C146.202 73.1135 145.566 72.639 144.902 72.2069L142.724 72.357C136.359 72.7751 127.109 75.6322 126.83 75.7287C130.177 73.7009 133.736 72.0454 137.443 70.7918L133.587 70.5559Z" fill="#AB8BC6"/>
</g>
<path d="M59.2165 71.0224C57.8261 71.1823 56.4508 71.453 55.1036 71.8319C55.1036 71.8319 55.4199 71.596 55.4092 71.4084C55.4092 71.4084 54.7443 71.3226 52.8406 72.6734C52.3312 73.0379 51.7306 73.5097 51.0282 74.1154C50.803 74.303 50.567 74.512 50.3203 74.7372C49.4404 75.5063 48.6651 76.3876 48.0145 77.3584C46.4648 79.7223 46.7758 80.8909 46.7758 80.8909C47.5096 80.7851 48.2182 80.5472 48.8671 80.1887C54.2435 77.5309 60.3231 76.6415 66.2358 77.6479C70.8153 78.4144 76.3492 79.6259 80.3549 79.6848C81.0836 79.7083 81.8131 79.6778 82.5374 79.5937C82.5374 79.5937 86.7897 79.2024 88.3555 73.4882C88.5968 72.4161 88.1142 72.1535 88.1142 72.1535L87.1812 72.3786C87.1812 72.3786 86.645 75.1071 84.7145 75.1178C84.7145 75.1178 85.6958 73.2845 85.6154 71.9015C81.7648 71.306 77.8832 70.932 73.9898 70.7812C69.068 70.4218 64.1239 70.5025 59.2165 71.0224Z" fill="url(#paint15_linear_1112_3675)"/>
<g style="mix-blend-mode:multiply" opacity="0.6">
<path d="M64.6915 70.5669C76.6817 73.8635 82.9235 79.4598 82.9235 79.4598C77.7166 80.5319 66.8954 77.0905 60.8628 77.2191C55.9458 77.3641 51.1243 78.6117 46.7544 80.8696C46.7544 80.8696 47.8269 78.5378 49.2264 77.7498C53.2965 76.4151 58.7071 75.2144 60.2246 74.7105C61.9084 74.1744 55.4629 73.7134 51.4733 73.6384C52.0753 73.1228 52.7112 72.6482 53.3769 72.2179L55.5594 72.368C61.9191 72.7807 71.1692 75.6432 71.448 75.7397C68.0892 73.7066 64.5158 72.0509 60.793 70.8028L64.6915 70.5669Z" fill="#AB8BC6"/>
</g>
<path d="M116.728 128.143C116.09 130.04 109.338 129.343 107.451 130.18C105.542 130.839 102.625 133.787 99.4771 133.787C96.1578 133.787 93.7287 131.289 91.8357 130.453C89.9428 129.617 82.8699 130.04 82.2318 128.143C80.918 124.246 82.4516 121.405 84.2855 119.566C85.0656 118.791 85.9372 118.115 86.8809 117.551C87.7186 117.034 88.4879 116.415 89.1706 115.707C91.2445 113.632 93.8109 112.118 96.6297 111.306C98.4896 110.754 100.47 110.754 102.33 111.306C105.147 112.117 107.712 113.632 109.784 115.707C110.467 116.416 111.238 117.036 112.079 117.551C113.062 118.145 113.963 118.866 114.76 119.695C116.567 121.523 118.015 124.326 116.728 128.143Z" fill="url(#paint16_linear_1112_3675)"/>
<g style="mix-blend-mode:multiply" opacity="0.6">
<path d="M116.728 128.143C116.09 130.04 109.145 129.419 107.258 130.255C105.37 131.091 102.298 133.787 99.4771 133.787C96.2597 133.787 93.7287 131.289 91.8357 130.453C89.9428 129.617 82.8699 130.04 82.2318 128.143C80.918 124.246 82.4516 121.405 84.2855 119.566C81.1217 125.575 83.2131 127.371 84.2855 127.441C85.358 127.51 88.8918 126.331 91.8357 126.905C94.7797 127.478 95.9219 128.218 99.343 128.218C102.764 128.218 103.89 127.457 106.85 126.905C109.81 126.352 113.285 127.526 114.401 127.441C115.516 127.355 118.342 125.254 114.401 119.561L114.808 119.679C116.567 121.523 118.015 124.326 116.728 128.143Z" fill="#D077B7"/>
</g>
<path style="mix-blend-mode:multiply" opacity="0.5" d="M112.867 129.558C108.507 126.99 107.306 130.233 107.306 130.233L112.867 129.558Z" fill="url(#paint17_linear_1112_3675)"/>
<path style="mix-blend-mode:multiply" opacity="0.5" d="M85.653 129.585C90.0126 127.012 91.1923 130.255 91.1923 130.255L85.653 129.585Z" fill="url(#paint18_linear_1112_3675)"/>
<path style="mix-blend-mode:multiply" opacity="0.6" d="M86.3501 117.867C88.495 117.969 87.6585 122.327 87.6585 122.327C87.6585 122.327 89.353 118.923 88.1304 116.639L86.3501 117.867Z" fill="url(#paint19_linear_1112_3675)"/>
<path style="mix-blend-mode:multiply" opacity="0.6" d="M112.465 117.867C110.32 117.969 111.156 122.327 111.156 122.327C111.156 122.327 109.462 118.923 110.684 116.639L112.465 117.867Z" fill="url(#paint20_linear_1112_3675)"/>
<path opacity="0.7" d="M103.236 122.327C102.983 122.687 102.848 123.117 102.848 123.557C102.848 123.997 102.983 124.427 103.236 124.787C103.424 125.205 105.681 125.205 105.869 124.787C106.057 124.369 106.057 122.364 105.869 122.327C105.681 122.289 103.563 121.812 103.236 122.327Z" fill="#FFCDBD"/>
<g style="mix-blend-mode:multiply" opacity="0.6">
<path d="M82.0387 128.641C82.0387 128.641 81.9958 127.719 83.7814 127.489C85.5671 127.258 88.4306 126.25 92.0824 126.953C95.5786 127.794 96.5599 128.078 99.4449 128.234C103.762 128.068 106.979 126.342 109.58 126.711C112.368 127.06 113.677 127.483 114.792 127.483C115.907 127.483 116.545 128.019 116.642 128.727C116.738 129.435 108.926 138.376 99.4288 138.376C89.9321 138.376 82.0387 128.641 82.0387 128.641Z" fill="#D177B8"/>
</g>
<path d="M85.8142 94.8778C85.8892 97.1614 76.8751 100.324 68.6546 101.128C60.7612 101.905 55.9351 99.2037 55.6187 94.7385C55.3023 90.2733 60.3966 86.58 69.0836 86.1243C78.591 85.6205 87.632 92.3906 85.8142 94.8778Z" fill="url(#paint21_linear_1112_3675)"/>
<path d="M85.4973 92.6663C85.4973 92.6663 87.0524 94.9712 84.4248 96.6276C84.4248 96.6276 87.0202 96.0594 87.0416 94.9712C87.0631 93.8831 85.4973 92.6663 85.4973 92.6663Z" fill="#C66D82"/>
<path d="M71.9575 100.182C76.3673 100.182 79.9421 96.462 79.9421 91.8733C79.9421 87.2846 76.3673 83.5647 71.9575 83.5647C67.5478 83.5647 63.973 87.2846 63.973 91.8733C63.973 96.462 67.5478 100.182 71.9575 100.182Z" fill="url(#paint22_linear_1112_3675)"/>
<path d="M71.9573 99.7021C76.1094 99.7021 79.4753 96.1982 79.4753 91.876C79.4753 87.5537 76.1094 84.0498 71.9573 84.0498C67.8052 84.0498 64.4393 87.5537 64.4393 91.876C64.4393 96.1982 67.8052 99.7021 71.9573 99.7021Z" fill="url(#paint23_linear_1112_3675)"/>
<path style="mix-blend-mode:multiply" d="M67.196 92.8439C67.3008 93.4862 67.5328 94.1011 67.8784 94.6525C68.224 95.204 68.6762 95.6809 69.2086 96.0553C69.7411 96.4298 70.3429 96.6942 70.9789 96.8331C71.6148 96.972 72.2722 96.9826 72.9123 96.8642C74.2071 96.5749 75.337 95.7899 76.0597 94.6777C76.7825 93.5654 77.0405 92.2144 76.7785 90.9142C76.6731 90.2722 76.4406 89.6578 76.0948 89.1067C75.749 88.5556 75.2968 88.079 74.7645 87.7046C74.2323 87.3303 73.6308 87.0658 72.9951 86.9266C72.3594 86.7874 71.7023 86.7763 71.0623 86.8939C69.7688 87.1857 68.6407 87.9712 67.9184 89.0827C67.1961 90.1943 66.9369 91.544 67.196 92.8439Z" fill="url(#paint24_linear_1112_3675)"/>
<path d="M82.6014 97.621C82.6014 97.621 76.1666 101.421 66.4393 101.416C58.444 101.416 56.4117 97.3101 56.4117 97.3101C56.4117 97.3101 65.7905 101.577 82.6014 97.621Z" fill="#A86D7E"/>
<path d="M84.6338 91.0868C84.6338 91.0868 82.3066 80.4518 68.3001 82.9176C58.1438 84.7026 55.8862 91.8748 55.8862 91.8748C55.8862 91.8748 72.295 83.1481 82.564 89.9504C82.8857 89.9772 85.3899 92.6681 84.6338 91.0868Z" fill="#CE8D8D"/>
<path d="M84.4463 91.5514C84.4463 91.5514 79.3896 87.3864 69.4692 89.1339C59.5489 90.8813 54.6048 95.2179 54.6048 95.2179C54.6048 95.2179 54.9909 92.6396 55.3019 92.1089C55.6129 91.5782 75.6574 81.1951 84.4463 91.5514Z" fill="#270039"/>
<path d="M84.4035 90.3247C84.4035 90.3247 77.738 80.8583 67.6675 82.9863C67.6675 82.9863 80.1618 79.1858 84.4035 90.3247Z" fill="#A86D7E"/>
<g style="mix-blend-mode:multiply" opacity="0.6">
<path d="M68.2036 87.6141C80.2153 86.1239 84.4462 91.554 84.4462 91.554C84.4462 91.554 77.3571 86.7296 56.0257 96.5659C56.0257 96.5659 55.2642 95.0597 55.9506 92.6957C55.9667 92.6957 62.5839 88.3109 68.2036 87.6141Z" fill="#B42F97"/>
</g>
<path d="M67.7643 93.5834C68.3005 93.0473 69.1317 92.8276 69.2818 93.0473C69.432 93.2671 68.8314 93.9854 68.4292 94.1194C68.027 94.2534 67.464 93.8728 67.7643 93.5834Z" fill="white"/>
<path d="M66.3803 94.0737C67.0024 94.0737 64.8789 95.4674 63.0288 96.0463C61.3719 96.5824 60.3209 96.3787 60.3959 96.1857C60.471 95.9928 63.919 94.1273 66.3803 94.0737Z" fill="white"/>
<path d="M87.5728 95.1064C87.5728 95.1064 79.6741 106.261 66.1234 103.897C66.1234 103.897 83.0309 108.186 87.5728 95.1064Z" fill="url(#paint25_linear_1112_3675)"/>
<path d="M114.218 94.8778C114.138 97.1614 123.157 100.324 131.378 101.128C139.309 101.905 144.097 99.2037 144.43 94.7385C144.762 90.2733 139.652 86.58 130.965 86.1243C121.441 85.6205 112.4 92.3906 114.218 94.8778Z" fill="url(#paint26_linear_1112_3675)"/>
<path d="M114.535 92.6663C114.535 92.6663 112.98 94.9712 115.607 96.6276C115.607 96.6276 113.012 96.0594 112.99 94.9712C112.969 93.8831 114.535 92.6663 114.535 92.6663Z" fill="#C66D82"/>
<path d="M128.069 100.182C132.479 100.182 136.054 96.462 136.054 91.8733C136.054 87.2846 132.479 83.5647 128.069 83.5647C123.659 83.5647 120.084 87.2846 120.084 91.8733C120.084 96.462 123.659 100.182 128.069 100.182Z" fill="url(#paint27_linear_1112_3675)"/>
<path d="M128.069 99.7021C132.221 99.7021 135.587 96.1982 135.587 91.876C135.587 87.5537 132.221 84.0498 128.069 84.0498C123.917 84.0498 120.551 87.5537 120.551 91.876C120.551 96.1982 123.917 99.7021 128.069 99.7021Z" fill="url(#paint28_linear_1112_3675)"/>
<path style="mix-blend-mode:multiply" d="M132.858 92.8439C132.753 93.4865 132.522 94.1018 132.176 94.6536C131.831 95.2054 131.379 95.6827 130.846 96.0572C130.314 96.4318 129.711 96.6961 129.075 96.8347C128.439 96.9733 127.781 96.9833 127.141 96.8642C125.847 96.5737 124.719 95.7883 123.997 94.6761C123.276 93.564 123.018 92.2136 123.28 90.9142C123.386 90.2722 123.618 89.6578 123.964 89.1067C124.31 88.5556 124.762 88.079 125.294 87.7046C125.827 87.3303 126.428 87.0658 127.064 86.9266C127.699 86.7874 128.357 86.7763 128.997 86.8939C130.29 87.1844 131.419 87.9698 132.141 89.082C132.862 90.1941 133.12 91.5445 132.858 92.8439Z" fill="url(#paint29_linear_1112_3675)"/>
<path d="M117.43 97.621C117.43 97.621 123.865 101.421 133.587 101.416C141.588 101.416 143.62 97.3101 143.62 97.3101C143.62 97.3101 134.225 101.577 117.43 97.621Z" fill="#A86D7E"/>
<path d="M115.398 91.0868C115.398 91.0868 117.72 80.4518 131.732 82.9176C141.888 84.7026 144.146 91.8748 144.146 91.8748C144.146 91.8748 127.732 83.1481 117.468 89.9504C117.146 89.9772 114.642 92.6681 115.398 91.0868Z" fill="#CE8D8D"/>
<path d="M115.585 91.5514C115.585 91.5514 120.642 87.3864 130.562 89.1339C140.483 90.8813 145.421 95.2179 145.421 95.2179C145.421 95.2179 145.041 92.6396 144.73 92.1089C144.419 91.5782 124.369 81.1951 115.585 91.5514Z" fill="#270039"/>
<path d="M115.623 90.3247C115.623 90.3247 122.289 80.8583 132.365 82.9863C132.365 82.9863 119.865 79.1858 115.623 90.3247Z" fill="#A86D7E"/>
<g style="mix-blend-mode:multiply" opacity="0.6">
<path d="M131.828 87.6141C119.816 86.1239 115.585 91.554 115.585 91.554C115.585 91.554 122.674 86.7296 144.006 96.5659C144.006 96.5659 144.767 95.0597 144.081 92.6957C144.065 92.6957 137.442 88.3109 131.828 87.6141Z" fill="#B42F97"/>
</g>
<path d="M132.268 93.5834C131.731 93.0473 130.9 92.8276 130.75 93.0473C130.6 93.2671 131.201 93.9854 131.603 94.1194C132.005 94.2534 132.563 93.8728 132.268 93.5834Z" fill="white"/>
<path d="M133.652 94.0737C133.03 94.0737 135.148 95.4674 137.003 96.0463C138.66 96.5824 139.711 96.3787 139.636 96.1857C139.561 95.9928 136.113 94.1273 133.652 94.0737Z" fill="white"/>
<path d="M112.465 95.1064C112.465 95.1064 120.369 106.261 133.914 103.897C133.914 103.897 117.001 108.186 112.465 95.1064Z" fill="url(#paint30_linear_1112_3675)"/>
<path d="M120.524 142.23C120.524 142.23 122.97 144.176 124.047 145.698C124.047 145.698 124.407 142.991 123.329 141.619C122.251 140.246 120.524 142.23 120.524 142.23Z" fill="#683E4D"/>
<path d="M78.3869 142.23C78.3869 142.23 75.9417 144.176 74.8639 145.698C74.8639 145.698 74.5046 142.991 75.5824 141.619C76.6603 140.246 78.3869 142.23 78.3869 142.23Z" fill="#683E4D"/>
<path style="mix-blend-mode:multiply" opacity="0.6" d="M130.236 135.744C123.071 124.583 116.197 121.41 116.197 121.41L116.776 122.659L130.236 135.744Z" fill="url(#paint31_linear_1112_3675)"/>
<path style="mix-blend-mode:multiply" opacity="0.6" d="M68.0859 135.347C75.6736 124.465 82.65 121.78 82.65 121.78L81.8028 123.088L68.0859 135.347Z" fill="url(#paint32_linear_1112_3675)"/>
<path d="M76.5959 143.415C76.5959 143.415 88.1196 146.025 99.5736 146.025C107.15 145.92 114.696 145.045 122.095 143.415C122.095 143.415 109.301 160.906 98.5601 160.906C87.8193 160.906 76.5959 143.415 76.5959 143.415Z" fill="#543843"/>
<path d="M99.3698 144.17C96.3883 144.17 76.6173 143.415 76.6173 143.415C82.2102 146.7 91.9107 148.636 99.3698 148.636C106.829 148.636 116.529 146.7 122.117 143.415C122.095 143.415 102.33 144.17 99.3698 144.17Z" fill="#BE6462"/>
<path d="M82.65 146.009C82.65 146.009 82.8109 147.033 82.9396 147.89C82.9396 147.89 89.5353 152.827 99.7667 152.827C107.633 152.827 115.773 148.003 115.773 148.003L116.127 146.02C116.127 146.02 99.7881 151.482 82.65 146.009Z" fill="#FFDFED"/>
<g style="mix-blend-mode:multiply" opacity="0.6">
<path d="M81.7974 154.366C81.7974 154.366 87.0364 166.116 100.239 166.116C110.963 166.116 117.216 154.366 117.216 154.366C117.216 154.366 101.279 160.696 81.7974 154.366Z" fill="#D077B7"/>
</g>
<path d="M76.5959 143.415C76.5959 143.415 86.3125 155.593 99.3484 155.593C112.384 155.593 122.095 143.415 122.095 143.415C122.095 143.415 120.524 161.608 99.5736 161.608C78.6229 161.608 76.5959 143.415 76.5959 143.415Z" fill="#D87C7A"/>
<g style="mix-blend-mode:soft-light">
<path d="M103.944 157.324L104.614 160.691C106.509 160.488 108.359 159.985 110.095 159.201C113.446 157.55 115.066 156.236 116.615 154.376L115.232 153.176C115.232 153.176 111.301 157.008 103.944 157.324Z" fill="#F2BBAA"/>
</g>
<path d="M97.8148 135.165C95.3052 134.039 89.7069 131.263 88.9776 131.263C87.09 131.263 71.8502 132.999 67.6891 137.331C65.2921 140.113 65.5173 149.418 65.5173 149.418C65.5173 149.418 53.822 143.892 49.4302 139.185C43.5316 132.512 42.0838 117.074 41.8907 111.74C41.6977 107.007 42.0891 99.2557 42.5503 93.3968C42.4645 91.1455 42.0891 86.9644 42.0891 86.9644C42.0891 86.9644 37.8261 108.208 40.6896 129.44C41.4135 134.8 45.3709 153.91 47.489 160.386C50.6475 170.034 52.2723 173.846 54.621 177.416C57.1306 181.232 59.5704 183.36 63.8979 187.364C67.1304 190.258 70.7711 192.66 74.703 194.494C81.0968 197.536 87.9868 199.401 95.0424 199.999C97.5681 200.224 98.9838 200.267 99.3699 200.278H99.4825C99.8685 200.278 101.284 200.224 103.81 199.999C110.866 199.401 117.756 197.536 124.149 194.494C128.085 192.655 131.728 190.245 134.96 187.343C139.293 183.339 141.732 181.211 144.242 177.394C146.591 173.824 148.21 170.018 151.369 160.364C153.514 153.889 157.879 133.97 158.608 128.588C161.466 107.355 157.895 94.9621 157.895 94.9621C157.895 94.9621 158.463 109.612 158.077 113.391C157.621 117.856 156.146 134.993 150.709 139.625C146.237 144.256 133.335 149.413 133.335 149.413C133.335 149.413 133.566 140.107 131.19 137.325C128.954 133.782 111.789 131.257 109.902 131.257C109.178 131.257 103.601 134.088 101.07 135.16C100.564 135.409 100.007 135.54 99.4429 135.541C98.8786 135.541 98.3216 135.413 97.8148 135.165ZM100.786 140.568C101.499 141.008 102.796 142.712 105.537 143.125C108.368 143.125 108.572 141.592 111.355 142.203C117.72 143.184 116.535 142.696 120.841 141.764C121.261 141.675 121.696 141.681 122.114 141.779C122.532 141.878 122.923 142.067 123.26 142.333C123.596 142.6 123.87 142.937 124.062 143.321C124.254 143.706 124.359 144.127 124.369 144.556C124.509 150.217 124.235 152.211 123.055 157.448C120.632 165.564 117.548 171.792 110.856 172.125C110.249 172.143 109.656 171.945 109.183 171.566C108.709 171.187 108.386 170.651 108.271 170.056C107.88 167.772 108.593 167.488 110.459 165.848C111.709 164.776 111.414 161.608 109.703 161.629C106.454 161.667 104.775 163.055 99.4503 162.926H99.402C94.0826 163.055 93.9646 162.096 90.7418 161.608C89.0473 161.35 87.8354 163.956 89.0473 165.317C90.8759 167.381 91.3907 169.139 89.5567 171.176C89.2385 171.538 88.8113 171.786 88.3395 171.884C80.9662 173.368 77.9204 166.437 75.3411 157.829C74.1614 152.586 74.0005 150.485 74.1453 144.824C74.1872 144.365 74.3222 143.918 74.542 143.513C74.7619 143.107 75.062 142.75 75.4241 142.464C75.7863 142.177 76.2029 141.968 76.6486 141.847C77.0943 141.727 77.5599 141.698 78.0169 141.764C82.3068 142.696 81.1968 143.232 87.5619 142.257C91.1333 141.41 90.522 143.661 94.1201 143.034C96.2221 142.67 97.2732 141.115 97.9113 140.568C98.3297 140.266 98.8325 140.104 99.3484 140.104C99.8643 140.104 100.367 140.266 100.786 140.568Z" fill="url(#paint33_linear_1112_3675)"/>
<path style="mix-blend-mode:multiply" opacity="0.6" d="M151.991 151.428C150.253 160.825 141.732 174.478 141.732 174.478C140.124 176.113 135.512 181.446 131.008 184.271C129.961 184.901 128.855 185.425 127.705 185.837C128.867 184.013 129.842 182.077 130.616 180.058C135.442 166.561 132.498 153.047 132.193 154.784C131.887 156.521 132.622 162.556 129.614 170.356C129.329 171.106 129.002 171.889 128.648 172.693C126.6 177.373 124.707 181.843 120.916 185.268C118.396 187.547 116.626 188.737 113.232 189.637C110.813 190.275 108.942 184.775 107.306 182.256C104.486 177.968 95.9165 178.209 92.5704 182.074C90.3879 184.598 88.4789 190.114 85.4545 189.937C84.7791 189.891 84.1132 189.753 83.4758 189.525C81.1003 188.71 80.2316 188.302 78.891 186.785C77.899 185.665 76.9177 184.979 76.2795 183.623C71.8073 177.641 68.2896 160.895 68.2896 160.895C68.2896 160.895 68.3272 166.861 69.1101 170.211C69.893 173.561 71.4373 179.152 71.4373 179.152C72.6385 183.274 74.0113 184.641 74.1185 184.882C73.2713 184.421 72.6653 184.282 71.4373 183.65C63.6029 179.672 58.3425 173.969 54.1062 166.271C53.542 165.279 53.0475 164.249 52.6262 163.189C50.9799 158.718 46.8724 147.108 45.8696 142.048C45.1731 138.827 43.9016 135.758 42.116 132.989L43.3011 140.305C43.3011 140.305 46.5721 157.512 47.5159 160.359C48.4596 163.205 52.1329 174.923 56.042 179.356C58.5555 182.353 61.3181 185.133 64.3 187.664C64.3 187.664 70.885 194.311 84.3928 198.064C84.3928 198.064 102.158 203.547 118.766 196.761C126.3 194.617 134.418 187.916 134.418 187.916L140.038 182.556C140.038 182.556 144.864 176.413 147.089 172.125C149.315 167.836 152.13 157.689 152.13 157.689L154.398 145.698L154.817 137.743C154.817 137.743 153.723 142.031 151.991 151.428Z" fill="url(#paint34_linear_1112_3675)"/>
<path opacity="0.38" d="M65.587 175.083C60.9242 171.754 57.7624 166.721 56.7874 161.077C56.7874 161.077 59.1844 167.509 65.587 175.083Z" fill="#3A2A1B"/>
<path opacity="0.38" d="M59.0879 155.438C58.1495 162.706 64.7076 172.253 64.7076 172.253L59.0879 155.438Z" fill="#3A2A1B"/>
<path opacity="0.38" d="M145.256 160.932L135.501 174.585C135.501 174.585 141.003 171.203 145.256 160.932Z" fill="#3A2A1B"/>
<path opacity="0.38" d="M135.448 172.178C143.593 160.669 140.96 151.777 140.96 151.777L135.448 172.178Z" fill="#3A2A1B"/>
<path d="M161.949 46.9007C161.251 42.2113 159.608 37.7124 157.119 33.6766C154.63 29.6408 151.348 26.1522 147.47 23.4222C140.499 18.5442 133.212 16.4054 130.171 15.3816C128.605 12.2618 127.704 10.4608 124.675 7.87705C121.446 5.109 117.664 3.06214 113.58 1.87342C100.684 -1.91102 89.3797 0.720932 80.0868 3.76027C76.0069 5.14215 72.0675 6.90829 68.3218 9.03489L67.941 9.10458C59.8975 10.7556 51.9344 16.384 51.9344 16.384L52.6261 16.116C48.5668 18.2385 44.9561 21.1253 41.9926 24.6175C44.9911 22.6605 48.1978 21.0425 51.5537 19.7932C49.4184 21.3878 47.374 23.1005 45.4299 24.9231C36.9841 32.6742 34.9411 44.3009 35.2414 47.5814C35.5417 50.862 37.4828 92.6409 37.4828 92.6409L41.6494 101.255C41.578 96.9362 42.0664 92.6263 43.1026 88.433C44.8507 80.9767 46.8884 71.7353 46.8884 68.1546C46.8884 64.5739 46.5988 53.971 47.1833 49.7953C47.7678 45.6195 49.221 37.5736 58.2459 31.9077C67.2707 26.2417 77.1804 25.3466 81.2558 25.9416C85.3312 26.5366 86.6449 28.3591 91.219 29.8386C99.6111 32.5563 119.35 35.2901 128.943 28.0857C144.376 31.9184 150.553 39.9965 153.074 51.1354C154.237 60.6769 158.307 98.2103 158.307 98.2103L162.554 90.7058L163.536 79.2721C163.536 79.2721 164.442 63.2874 161.949 46.9007Z" fill="url(#paint35_linear_1112_3675)"/>
<g style="mix-blend-mode:soft-light" opacity="0.5">
<path d="M99.7345 6.37622C103.299 7.58585 106.982 8.41244 110.722 8.842C114.523 9.21971 118.353 8.49387 121.752 6.75145L124.058 8.68119C124.471 8.64902 126.503 13.1142 125.892 16.2661C124.604 14.7018 122.806 13.6409 120.814 13.2697C117.511 12.68 109.735 15.7783 109.735 15.7783C109.735 15.7783 106.03 8.78303 99.7345 6.37622Z" fill="#FFD7D7"/>
</g>
<g style="mix-blend-mode:multiply" opacity="0.6">
<path d="M121.184 14.4167C121.184 14.4167 120.567 8.38628 114.245 4.67153C103.788 -1.46611 88.5807 1.24088 88.5807 1.24088C88.5807 1.24088 103.515 -2.1308 113.575 3.38504C122.015 8.03785 121.184 14.4167 121.184 14.4167Z" fill="#AB8BC6"/>
</g>
<g style="mix-blend-mode:multiply" opacity="0.6">
<path d="M51.9344 19.627C51.5836 19.7189 51.2516 19.8713 50.9531 20.0772C51.282 19.9236 51.6091 19.7735 51.9344 19.627Z" fill="#AB8BC6"/>
</g>
<g style="mix-blend-mode:multiply" opacity="0.6">
<path d="M145.148 36.0996L145.073 36.0298C145.095 36.0563 145.12 36.0798 145.148 36.0996Z" fill="#AB8BC6"/>
</g>
<g style="mix-blend-mode:multiply" opacity="0.6">
<path d="M136.086 26.9064C134.402 26.097 133.882 25.0946 133.753 24.3495C133.5 22.6745 133.033 21.0388 132.364 19.4823C130.139 15.2476 128.128 9.32436 121.398 5.32015C122.932 6.60128 128.836 12.3208 128.933 20.7956C128.964 22.105 128.553 23.3869 127.767 24.435C126.981 25.4831 125.866 26.2365 124.6 26.5741C124.303 26.6764 123.982 26.6894 123.677 26.6116C122.718 26.2096 124.294 14.9099 110.877 6.67633C113.864 9.07242 122.181 18.9731 119.366 25.7915C117.79 26.9098 115.887 27.4753 113.955 27.3996C113.955 27.3996 109.328 13.4626 101.359 7.71088C93.5302 2.05567 78.9178 6.17781 78.4406 6.34934L76.8051 7.3303C77.8078 6.99259 90.6131 2.69356 97.2195 7.93066C107.794 15.8694 107.177 28.1393 107.177 28.1393C106.867 28.2837 106.532 28.3674 106.191 28.3859C104.212 16.1642 91.4657 6.83714 74.8692 7.93066C66.3965 8.57726 58.2772 11.596 51.4411 16.6413C56.1224 13.1088 62.5197 10.8842 69.1101 10.0373C77.6898 8.93305 86.6128 10.1499 92.5221 13.8271C101.204 19.225 101.987 26.2203 102.003 28.4341C99.9704 28.3162 97.1767 28.0214 93.3533 27.4103C89.412 26.8743 86.3822 23.8993 86.3822 23.8993C86.3822 23.8993 71.5499 10.9861 51.9505 19.6485C54.8837 18.764 62.4071 18.7747 68.4505 19.9272C68.4505 19.9272 48.3256 27.5229 47.9609 45.6571C51.0604 34.545 55.6184 34.0411 60.4391 30.1816C68.6382 26.2685 76.0329 24.9231 82.2103 25.9952C90.0233 28.9327 94.7153 31.704 103.66 32.1918C119.414 33.6659 125.442 30.5193 128.906 27.9624L133.791 29.3776C133.791 29.3776 140.762 31.8594 145.079 36.0566C144.355 35.2633 139.85 28.7075 136.086 26.9064Z" fill="#AB8BC6"/>
</g>
<path style="mix-blend-mode:soft-light" opacity="0.5" d="M163.643 70.5562C163.992 78.0018 162.705 85.9137 162.512 90.6898C160.597 94.6351 157.975 95.5142 157.975 95.5142C157.975 95.5142 156.903 85.8655 155.551 73.3758C154.865 67.1845 154.168 60.9826 153.508 55.1826C153.956 55.2449 154.398 55.3472 154.827 55.4882C157.638 56.3639 159.995 58.3055 161.391 60.8968C163.632 64.9975 163.606 67.9189 163.606 67.9189C162.396 65.6347 160.701 63.6424 158.64 62.0814C159.245 64.2739 160.183 66.3603 161.423 68.2673C162.061 69.2697 162.807 70.1756 163.643 70.5562Z" fill="url(#paint36_linear_1112_3675)"/>
<g style="mix-blend-mode:soft-light" opacity="0.5">
<path d="M149.191 41.2292C151.128 43.2837 153.367 45.0316 155.83 46.4127C159.514 48.3586 161.814 46.4127 161.814 46.4127C162.405 49.16 162.718 51.9597 162.748 54.7696C162.748 54.7696 160.136 49.8541 157.819 49.0447C155.503 48.2353 152.677 49.6826 152.677 49.6826C152.677 49.6826 150.709 43.0357 149.191 41.2292Z" fill="#D1AAAA"/>
</g>
<path style="mix-blend-mode:soft-light" opacity="0.5" d="M36.5499 71.4888C36.6357 78.7522 37.4883 86.8463 37.6813 91.6225C39.5957 95.5677 41.3384 95.9751 41.3384 95.9751C41.3384 95.9751 45.0921 81.8344 46.8617 69.2428C47.0601 64.0433 46.6311 60.618 46.8617 54.5286C46.8617 54.5286 44.0411 57.5411 43.3064 58.0182C40.8129 59.6263 41.2526 59.5941 39.3329 61.7168C36.2013 65.185 36.5874 68.8301 36.5874 68.8301C37.7951 66.5429 39.4879 64.547 41.5476 62.9819C40.9491 65.1781 40.0139 67.2685 38.7752 69.1785C38.1318 70.2023 37.3864 71.1082 36.5499 71.4888Z" fill="url(#paint37_linear_1112_3675)"/>
<g style="mix-blend-mode:soft-light" opacity="0.5">
<path d="M48.6098 41.0044C47.1608 43.1664 45.2108 44.9465 42.9257 46.1932C39.2417 48.1337 35.2092 47.0938 35.2092 47.0938C35.4797 49.5702 35.6211 52.059 35.6329 54.5501C35.6329 54.5501 38.6197 49.6293 40.9309 48.8038C43.242 47.9783 46.4219 49.5542 46.4219 49.5542C46.4219 49.5542 47.2048 43.5452 48.6098 41.0044Z" fill="#D1AAAA"/>
</g>
<g style="mix-blend-mode:soft-light" opacity="0.5">
<path d="M80.6016 18.5819C83.2545 19.1931 85.7521 20.3465 87.9373 21.9696L94.6349 17.3222C94.6349 17.3222 91.0207 13.4091 85.8567 13.1196L80.6016 18.5819Z" fill="#FFD7D7"/>
</g>
<g style="mix-blend-mode:soft-light" opacity="0.5">
<path d="M92.4792 10.3001C92.4792 10.3001 96.0505 12.0208 97.7397 13.8272L100.539 13.0339C100.539 13.0339 98.8229 9.64077 96.2757 8.96536C95.5829 8.75994 94.8429 8.77838 94.1612 9.01805C93.4795 9.25771 92.8908 9.70638 92.4792 10.3001Z" fill="#FFD7D7"/>
</g>
<defs>
<linearGradient id="paint0_linear_1112_3675" x1="99.831" y1="234.916" x2="99.831" y2="139.995" gradientUnits="userSpaceOnUse">
<stop stop-color="#D5929D"/>
<stop offset="0.02" stop-color="#D6949E"/>
<stop offset="0.33" stop-color="#E5B8AA"/>
<stop offset="0.5" stop-color="#EBC6AE"/>
<stop offset="0.71" stop-color="#DAA191"/>
<stop offset="0.89" stop-color="#CE877D"/>
<stop offset="1" stop-color="#CA7D75"/>
</linearGradient>
<linearGradient id="paint1_linear_1112_3675" x1="99.831" y1="234.916" x2="99.831" y2="207.353" gradientUnits="userSpaceOnUse">
<stop offset="0.01" stop-color="#F484A6"/>
<stop offset="1" stop-color="#F2839E"/>
</linearGradient>
<linearGradient id="paint2_linear_1112_3675" x1="120.916" y1="218.492" x2="120.916" y2="173.883" gradientUnits="userSpaceOnUse">
<stop stop-color="#FFEADB"/>
<stop offset="0.99" stop-color="#D177F4"/>
</linearGradient>
<linearGradient id="paint3_linear_1112_3675" x1="137.689" y1="229.475" x2="137.689" y2="212.472" gradientUnits="userSpaceOnUse">
<stop stop-color="#FFEADB"/>
<stop offset="0.99" stop-color="#D177F4"/>
</linearGradient>
<linearGradient id="paint4_linear_1112_3675" x1="55.4789" y1="229.476" x2="55.4789" y2="211.341" gradientUnits="userSpaceOnUse">
<stop stop-color="#FFEADB"/>
<stop offset="0.99" stop-color="#D177F4"/>
</linearGradient>
<linearGradient id="paint5_linear_1112_3675" x1="172.63" y1="91.6491" x2="151.51" y2="139.673" gradientUnits="userSpaceOnUse">
<stop stop-color="#EBBFAD"/>
<stop offset="0.78" stop-color="#E5BAA9"/>
</linearGradient>
<linearGradient id="paint6_linear_1112_3675" x1="166.994" y1="123.662" x2="166.994" y2="96.4629" gradientUnits="userSpaceOnUse">
<stop stop-color="#FFEADB"/>
<stop offset="0.99" stop-color="#C96386"/>
</linearGradient>
<linearGradient id="paint7_linear_1112_3675" x1="161.579" y1="122.97" x2="161.579" y2="101.882" gradientUnits="userSpaceOnUse">
<stop stop-color="#FFEADB"/>
<stop offset="0.99" stop-color="#D177F4"/>
</linearGradient>
<linearGradient id="paint8_linear_1112_3675" x1="22.2806" y1="86.8783" x2="45.5234" y2="133.912" gradientUnits="userSpaceOnUse">
<stop offset="0.15" stop-color="#EBBFAD"/>
<stop offset="1" stop-color="#E5BAA9"/>
</linearGradient>
<linearGradient id="paint9_linear_1112_3675" x1="31.0749" y1="123.662" x2="31.0749" y2="96.4629" gradientUnits="userSpaceOnUse">
<stop stop-color="#FFEADB"/>
<stop offset="0.99" stop-color="#C96386"/>
</linearGradient>
<linearGradient id="paint10_linear_1112_3675" x1="36.4908" y1="122.97" x2="36.4908" y2="101.882" gradientUnits="userSpaceOnUse">
<stop stop-color="#FFEADB"/>
<stop offset="0.99" stop-color="#D177F4"/>
</linearGradient>
<linearGradient id="paint11_linear_1112_3675" x1="99.831" y1="190.983" x2="99.831" y2="19.0964" gradientUnits="userSpaceOnUse">
<stop offset="0.01" stop-color="#D58F9D"/>
<stop offset="0.2" stop-color="#E2ABA6"/>
<stop offset="0.33" stop-color="#EBBFAD"/>
<stop offset="0.77" stop-color="#E5BAA9"/>
<stop offset="1" stop-color="#DFABAE"/>
</linearGradient>
<linearGradient id="paint12_linear_1112_3675" x1="134.708" y1="186.539" x2="134.708" y2="34.6738" gradientUnits="userSpaceOnUse">
<stop stop-color="#D5FFE0"/>
<stop offset="0.23" stop-color="#EAF4DD"/>
<stop offset="0.43" stop-color="#FFEADB"/>
<stop offset="0.53" stop-color="#F2D9D8"/>
<stop offset="0.69" stop-color="#E2C3D3"/>
<stop offset="0.85" stop-color="#D8B6D1"/>
<stop offset="1" stop-color="#D5B2D0"/>
</linearGradient>
<linearGradient id="paint13_linear_1112_3675" x1="64.8631" y1="186.63" x2="64.8631" y2="34.7647" gradientUnits="userSpaceOnUse">
<stop stop-color="#D5FFE0"/>
<stop offset="0.23" stop-color="#EAF4DD"/>
<stop offset="0.43" stop-color="#FFEADB"/>
<stop offset="0.53" stop-color="#F2D9D8"/>
<stop offset="0.69" stop-color="#E2C3D3"/>
<stop offset="0.85" stop-color="#D8B6D1"/>
<stop offset="1" stop-color="#D5B2D0"/>
</linearGradient>
<linearGradient id="paint14_linear_1112_3675" x1="145.646" y1="75.2973" x2="117.793" y2="47.9675" gradientUnits="userSpaceOnUse">
<stop stop-color="#4F3739"/>
<stop offset="0.25" stop-color="#533E3F"/>
<stop offset="0.61" stop-color="#5E504F"/>
<stop offset="0.73" stop-color="#635855"/>
</linearGradient>
<linearGradient id="paint15_linear_1112_3675" x1="57.2772" y1="87.0378" x2="85.0138" y2="59.6586" gradientUnits="userSpaceOnUse">
<stop stop-color="#4F3739"/>
<stop offset="0.25" stop-color="#533E3F"/>
<stop offset="0.61" stop-color="#5E504F"/>
<stop offset="0.73" stop-color="#635855"/>
</linearGradient>
<linearGradient id="paint16_linear_1112_3675" x1="99.4771" y1="143.677" x2="99.4771" y2="107.071" gradientUnits="userSpaceOnUse">
<stop stop-color="#DB9F91"/>
<stop offset="1" stop-color="#F9A6A7"/>
</linearGradient>
<linearGradient id="paint17_linear_1112_3675" x1="107.306" y1="129.402" x2="112.867" y2="129.402" gradientUnits="userSpaceOnUse">
<stop offset="0.02" stop-color="#7C51B3"/>
<stop offset="0.99" stop-color="#BD89C4"/>
</linearGradient>
<linearGradient id="paint18_linear_1112_3675" x1="91.1923" y1="129.424" x2="85.653" y2="129.424" gradientUnits="userSpaceOnUse">
<stop offset="0.02" stop-color="#7C51B3"/>
<stop offset="0.99" stop-color="#BD89C4"/>
</linearGradient>
<linearGradient id="paint19_linear_1112_3675" x1="91.3103" y1="118.001" x2="86.5812" y2="120.055" gradientUnits="userSpaceOnUse">
<stop stop-color="#FFEADB"/>
<stop offset="0.29" stop-color="#FEE7DC"/>
<stop offset="0.47" stop-color="#FBDFDD"/>
<stop offset="0.61" stop-color="#F5D1E0"/>
<stop offset="0.74" stop-color="#EDBCE5"/>
<stop offset="0.85" stop-color="#E2A2EB"/>
<stop offset="0.96" stop-color="#D682F2"/>
<stop offset="0.99" stop-color="#D177F4"/>
</linearGradient>
<linearGradient id="paint20_linear_1112_3675" x1="110.245" y1="119.486" x2="112.465" y2="119.486" gradientUnits="userSpaceOnUse">
<stop stop-color="#FFEADB"/>
<stop offset="0.99" stop-color="#D177F4"/>
</linearGradient>
<linearGradient id="paint21_linear_1112_3675" x1="72.8648" y1="100.419" x2="69.9855" y2="85.5623" gradientUnits="userSpaceOnUse">
<stop stop-color="#EEE2FF"/>
<stop offset="1" stop-color="#BDC9FB"/>
</linearGradient>
<linearGradient id="paint22_linear_1112_3675" x1="74.359" y1="99.7437" x2="71.2069" y2="83.4794" gradientUnits="userSpaceOnUse">
<stop stop-color="#4D0E2E"/>
<stop offset="1" stop-color="#36063B"/>
</linearGradient>
<linearGradient id="paint23_linear_1112_3675" x1="74.2671" y1="99.2736" x2="71.2983" y2="83.9549" gradientUnits="userSpaceOnUse">
<stop stop-color="#4D0E2E"/>
<stop offset="1" stop-color="#36063B"/>
</linearGradient>
<linearGradient id="paint24_linear_1112_3675" x1="73.7513" y1="96.5817" x2="71.825" y2="86.6424" gradientUnits="userSpaceOnUse">
<stop stop-color="#A79ABD"/>
<stop offset="0.99" stop-color="#724A60"/>
</linearGradient>
<linearGradient id="paint25_linear_1112_3675" x1="87.3999" y1="100.068" x2="65.6383" y2="100.812" gradientUnits="userSpaceOnUse">
<stop stop-color="#DFA597" stop-opacity="0.6"/>
<stop offset="1" stop-color="#C66D82"/>
</linearGradient>
<linearGradient id="paint26_linear_1112_3675" x1="127.99" y1="100.698" x2="130.868" y2="85.8196" gradientUnits="userSpaceOnUse">
<stop stop-color="#EEE2FF"/>
<stop offset="1" stop-color="#BDC9FB"/>
</linearGradient>
<linearGradient id="paint27_linear_1112_3675" x1="126.486" y1="100.028" x2="129.637" y2="83.7336" gradientUnits="userSpaceOnUse">
<stop stop-color="#4D0E2E"/>
<stop offset="1" stop-color="#36063B"/>
</linearGradient>
<linearGradient id="paint28_linear_1112_3675" x1="126.577" y1="99.5566" x2="129.546" y2="84.2099" gradientUnits="userSpaceOnUse">
<stop stop-color="#4D0E2E"/>
<stop offset="1" stop-color="#36063B"/>
</linearGradient>
<linearGradient id="paint29_linear_1112_3675" x1="127.099" y1="96.8598" x2="129.025" y2="86.9023" gradientUnits="userSpaceOnUse">
<stop stop-color="#A79ABD"/>
<stop offset="0.99" stop-color="#724A60"/>
</linearGradient>
<linearGradient id="paint30_linear_1112_3675" x1="112.507" y1="100.113" x2="134.269" y2="100.857" gradientUnits="userSpaceOnUse">
<stop stop-color="#DFA597" stop-opacity="0.6"/>
<stop offset="1" stop-color="#C66D82"/>
</linearGradient>
<linearGradient id="paint31_linear_1112_3675" x1="123.219" y1="138.123" x2="116.96" y2="120.945" gradientUnits="userSpaceOnUse">
<stop stop-color="#FFEADB"/>
<stop offset="0.99" stop-color="#D177F4"/>
</linearGradient>
<linearGradient id="paint32_linear_1112_3675" x1="71.7668" y1="138.101" x2="78.6448" y2="121.3" gradientUnits="userSpaceOnUse">
<stop stop-color="#FFEADB"/>
<stop offset="0.99" stop-color="#D177F4"/>
</linearGradient>
<linearGradient id="paint33_linear_1112_3675" x1="99.7023" y1="96.7256" x2="99.7023" y2="223.815" gradientUnits="userSpaceOnUse">
<stop stop-color="#4E3043"/>
<stop offset="0.06" stop-color="#A0748B"/>
<stop offset="0.19" stop-color="#8D6972"/>
<stop offset="0.3" stop-color="#5B4446"/>
<stop offset="0.39" stop-color="#614746"/>
<stop offset="0.93" stop-color="#2E211B"/>
</linearGradient>
<linearGradient id="paint34_linear_1112_3675" x1="98.3671" y1="138.66" x2="96.6363" y2="206.898" gradientUnits="userSpaceOnUse">
<stop stop-color="#FFEADB"/>
<stop offset="0.17" stop-color="#EDDDD3"/>
<stop offset="0.42" stop-color="#D8CECA"/>
<stop offset="0.67" stop-color="#CBC5C4"/>
<stop offset="0.91" stop-color="#C7C2C2"/>
</linearGradient>
<linearGradient id="paint35_linear_1112_3675" x1="98.8657" y1="110.03" x2="100.334" y2="-15.1458" gradientUnits="userSpaceOnUse">
<stop stop-color="#9B807C"/>
<stop offset="0.41" stop-color="#5A4A4B"/>
<stop offset="0.92" stop-color="#402C31"/>
</linearGradient>
<linearGradient id="paint36_linear_1112_3675" x1="157.037" y1="88.3045" x2="159.437" y2="53.435" gradientUnits="userSpaceOnUse">
<stop stop-color="#FFD9BB"/>
<stop offset="0.02" stop-color="#FDD7BA"/>
<stop offset="0.39" stop-color="#E5BEB1"/>
<stop offset="0.73" stop-color="#D6AFAC"/>
<stop offset="1" stop-color="#D1AAAA"/>
</linearGradient>
<linearGradient id="paint37_linear_1112_3675" x1="43.3332" y1="88.5295" x2="40.8684" y2="52.7488" gradientUnits="userSpaceOnUse">
<stop stop-color="#FFD9BB"/>
<stop offset="0.02" stop-color="#FDD7BA"/>
<stop offset="0.39" stop-color="#E5BEB1"/>
<stop offset="0.73" stop-color="#D6AFAC"/>
<stop offset="1" stop-color="#D1AAAA"/>
</linearGradient>
</defs>
</svg>
