<svg width="122" height="166" viewBox="0 0 122 166" fill="none" xmlns="http://www.w3.org/2000/svg">
<g filter="url(#filter0_d_2595_311)">
<path d="M86.7006 105.44C85.4859 105.44 84.3351 105.625 83.2057 105.912L67.2014 76.0931L94.5855 70.9795L67.1162 65.8659L77.0682 47.9374C78.1977 48.2044 79.3484 48.4097 80.5631 48.4097C88.4481 48.4097 94.8625 42.2488 94.8625 34.6297C94.8625 27.0106 88.4694 20.8496 80.5631 20.8496C72.6782 20.8496 66.2637 27.0106 66.2637 34.6297C66.2637 38.9424 68.3735 42.7622 71.5914 45.2882L61.0213 64.6337L44.2712 33.4386C47.5104 30.9126 49.5988 27.1133 49.5988 22.7801C49.5988 15.1815 43.2056 9 35.2994 9C27.4145 9 21 15.161 21 22.7801C21 30.3786 27.3932 36.5601 35.2994 36.5601C36.5141 36.5601 37.6649 36.3753 38.7943 36.0878L54.7986 65.9069L27.4145 71.0205L54.7347 76.1136L44.9318 94.0831C43.8023 93.8162 42.6516 93.6108 41.4369 93.6108C33.5519 93.6108 27.1374 99.7718 27.1374 107.391C27.1374 114.989 33.5306 121.171 41.4369 121.171C49.3218 121.171 55.7363 115.01 55.7363 107.391C55.7363 103.078 53.6265 99.2584 50.4086 96.7324L60.9148 77.2842L77.7288 108.561C74.4896 111.087 72.4012 114.887 72.4012 119.22C72.4012 126.818 78.7944 133 86.7006 133C94.5855 133 101 126.839 101 119.22C100.979 111.621 94.5855 105.44 86.7006 105.44Z" fill="white"/>
<path d="M83.4632 105.335L67.9653 76.4591L94.6773 71.471L94.677 70.4879L67.8903 65.5014L77.3229 48.5089C78.3556 48.7384 79.4287 48.9097 80.5631 48.9097C88.7061 48.9097 95.3625 42.5427 95.3625 34.6297C95.3625 26.7172 88.7279 20.3496 80.5631 20.3496C72.4202 20.3496 65.7637 26.7167 65.7637 34.6297C65.7637 38.9617 67.8126 42.8052 70.9524 45.4148L61.0251 63.5839L44.9084 33.5683C48.0694 30.959 50.0988 27.1322 50.0988 22.7801C50.0988 14.8886 43.4647 8.5 35.2994 8.5C27.1564 8.5 20.5 14.8671 20.5 22.7801C20.5 30.6715 27.1341 37.0601 35.2994 37.0601C36.4274 37.0601 37.4974 36.9071 38.5368 36.6652L54.0347 65.5409L27.3227 70.529L27.3228 71.5121L53.9659 76.4789L44.6743 93.511C43.6425 93.2818 42.5702 93.1108 41.4369 93.1108C33.2939 93.1108 26.6374 99.4779 26.6374 107.391C26.6374 115.282 33.2716 121.671 41.4369 121.671C49.5798 121.671 56.2363 115.304 56.2363 107.391C56.2363 103.058 54.1867 99.214 51.046 96.6045L60.9137 78.3382L77.0915 108.432C73.9305 111.041 71.9012 114.868 71.9012 119.22C71.9012 127.111 78.5353 133.5 86.7006 133.5C94.8436 133.5 101.5 127.133 101.5 119.22V119.219C101.478 111.329 94.8454 104.94 86.7006 104.94C85.5726 104.94 84.5026 105.093 83.4632 105.335Z" stroke="#B9BBDA"/>
</g>
<defs>
<filter id="filter0_d_2595_311" x="0" y="0" width="122" height="166" filterUnits="userSpaceOnUse" color-interpolation-filters="sRGB">
<feFlood flood-opacity="0" result="BackgroundImageFix"/>
<feColorMatrix in="SourceAlpha" type="matrix" values="0 0 0 0 0 0 0 0 0 0 0 0 0 0 0 0 0 0 127 0" result="hardAlpha"/>
<feOffset dy="12"/>
<feGaussianBlur stdDeviation="10"/>
<feComposite in2="hardAlpha" operator="out"/>
<feColorMatrix type="matrix" values="0 0 0 0 0.615313 0 0 0 0 0.697978 0 0 0 0 0.825 0 0 0 0.1 0"/>
<feBlend mode="normal" in2="BackgroundImageFix" result="effect1_dropShadow_2595_311"/>
<feBlend mode="normal" in="SourceGraphic" in2="effect1_dropShadow_2595_311" result="shape"/>
</filter>
</defs>
</svg>
