<svg width="44" height="30" viewBox="0 0 44 30" fill="none" xmlns="http://www.w3.org/2000/svg">
<path d="M43.0833 4.92948C42.8342 4.04073 42.3489 3.23611 41.679 2.60114C40.9902 1.94665 40.146 1.47848 39.226 1.24081C35.783 0.33331 21.989 0.33331 21.989 0.33331C16.2384 0.267883 10.4893 0.555647 4.774 1.19498C3.85402 1.4502 3.01137 1.92884 2.321 2.58831C1.64267 3.24098 1.15134 4.04581 0.894669 4.92764C0.278106 8.24917 -0.0214623 11.6218 2.35217e-06 15C-0.0219976 18.3751 0.276836 21.7466 0.894669 25.0723C1.14584 25.9505 1.63534 26.7516 2.3155 27.3988C2.99567 28.046 3.84267 28.5135 4.774 28.761C8.26284 29.6666 21.989 29.6666 21.989 29.6666C27.7469 29.7322 33.5034 29.4444 39.226 28.805C40.146 28.5673 40.9902 28.0991 41.679 27.4446C42.3487 26.8098 42.8334 26.0051 43.0815 25.1163C43.7142 21.7961 44.0218 18.4221 44 15.0421C44.0476 11.6479 43.7404 8.25801 43.0833 4.92764V4.92948ZM17.6037 21.2773V8.72448L29.0803 15.0018L17.6037 21.2773Z" fill="#FF1600"/>
</svg>
